<svg width="51" height="59" viewBox="0 0 51 59" fill="none" xmlns="http://www.w3.org/2000/svg">
<path d="M47.7968 58.8457H3.31316C2.52873 58.8457 1.77643 58.5341 1.22176 57.9794C0.667082 57.4247 0.355469 56.6724 0.355469 55.888V3.83269C0.355469 3.04826 0.667082 2.29596 1.22176 1.74129C1.77643 1.18661 2.52873 0.875 3.31316 0.875H47.7968C48.5812 0.875 49.3335 1.18661 49.8882 1.74129C50.4429 2.29596 50.7545 3.04826 50.7545 3.83269V55.888C50.7545 56.6724 50.4429 57.4247 49.8882 57.9794C49.3335 58.5341 48.5812 58.8457 47.7968 58.8457ZM3.31316 2.05808C2.8425 2.05808 2.39112 2.24504 2.05832 2.57785C1.72551 2.91065 1.53854 3.36203 1.53854 3.83269V55.888C1.53854 56.3587 1.72551 56.8101 2.05832 57.1429C2.39112 57.4757 2.8425 57.6626 3.31316 57.6626H47.7968C48.2675 57.6626 48.7188 57.4757 49.0516 57.1429C49.3844 56.8101 49.5714 56.3587 49.5714 55.888V3.83269C49.5714 3.36203 49.3844 2.91065 49.0516 2.57785C48.7188 2.24504 48.2675 2.05808 47.7968 2.05808H3.31316Z" fill="#CC922F"/>
<path d="M47.7968 51.1566H3.31316C2.52873 51.1566 1.77643 50.845 1.22176 50.2904C0.667082 49.7357 0.355469 48.9834 0.355469 48.199C0.355469 48.0421 0.417791 47.8916 0.528726 47.7807C0.639661 47.6697 0.790121 47.6074 0.947007 47.6074C1.10389 47.6074 1.25435 47.6697 1.36529 47.7807C1.47622 47.8916 1.53854 48.0421 1.53854 48.199C1.53854 48.6696 1.72551 49.121 2.05832 49.4538C2.39112 49.7866 2.8425 49.9736 3.31316 49.9736H47.7968C48.2675 49.9736 48.7188 49.7866 49.0516 49.4538C49.3844 49.121 49.5714 48.6696 49.5714 48.199C49.5714 48.0421 49.6337 47.8916 49.7447 47.7807C49.8556 47.6697 50.0061 47.6074 50.163 47.6074C50.3198 47.6074 50.4703 47.6697 50.5812 47.7807C50.6922 47.8916 50.7545 48.0421 50.7545 48.199C50.7545 48.9834 50.4429 49.7357 49.8882 50.2904C49.3335 50.845 48.5812 51.1566 47.7968 51.1566Z" fill="#CC922F"/>
<path d="M34.7534 55.059H3.31316C2.52873 55.059 1.77643 54.7474 1.22176 54.1927C0.667082 53.638 0.355469 52.8857 0.355469 52.1013C0.355469 51.9444 0.417791 51.794 0.528726 51.683C0.639661 51.5721 0.790121 51.5098 0.947007 51.5098C1.10389 51.5098 1.25435 51.5721 1.36529 51.683C1.47622 51.794 1.53854 51.9444 1.53854 52.1013C1.53854 52.572 1.72551 53.0233 2.05832 53.3561C2.39112 53.6889 2.8425 53.8759 3.31316 53.8759H34.7534C34.9103 53.8759 35.0607 53.9382 35.1717 54.0492C35.2826 54.1601 35.3449 54.3106 35.3449 54.4675C35.3449 54.6243 35.2826 54.7748 35.1717 54.8857C35.0607 54.9967 34.9103 55.059 34.7534 55.059Z" fill="#CC922F"/>
<path d="M47.7965 55.059H42.6501C42.4932 55.059 42.3428 54.9967 42.2319 54.8857C42.1209 54.7748 42.0586 54.6243 42.0586 54.4675C42.0586 54.3106 42.1209 54.1601 42.2319 54.0492C42.3428 53.9382 42.4932 53.8759 42.6501 53.8759H47.7965C48.2672 53.8759 48.7185 53.6889 49.0514 53.3561C49.3842 53.0233 49.5711 52.572 49.5711 52.1013C49.5711 51.9444 49.6334 51.794 49.7444 51.683C49.8553 51.5721 50.0058 51.5098 50.1627 51.5098C50.3195 51.5098 50.47 51.5721 50.5809 51.683C50.6919 51.794 50.7542 51.9444 50.7542 52.1013C50.7542 52.8857 50.4426 53.638 49.8879 54.1927C49.3332 54.7474 48.5809 55.059 47.7965 55.059Z" fill="#CC922F"/>
<path d="M34.9021 58.8457C34.7452 58.8457 34.5947 58.7834 34.4838 58.6725C34.3729 58.5615 34.3105 58.4111 34.3105 58.2542V50.5642C34.3105 50.4073 34.3729 50.2568 34.4838 50.1459C34.5947 50.035 34.7452 49.9727 34.9021 49.9727C35.059 49.9727 35.2094 50.035 35.3204 50.1459C35.4313 50.2568 35.4936 50.4073 35.4936 50.5642V58.2542C35.4936 58.4111 35.4313 58.5615 35.3204 58.6725C35.2094 58.7834 35.059 58.8457 34.9021 58.8457Z" fill="#CC922F"/>
<path d="M42.5915 58.8457C42.4347 58.8457 42.2842 58.7834 42.1733 58.6725C42.0623 58.5615 42 58.4111 42 58.2542V50.5642C42 50.4073 42.0623 50.2568 42.1733 50.1459C42.2842 50.035 42.4347 49.9727 42.5915 49.9727C42.7484 49.9727 42.8989 50.035 43.0098 50.1459C43.1208 50.2568 43.1831 50.4073 43.1831 50.5642V58.2542C43.1831 58.4111 43.1208 58.5615 43.0098 58.6725C42.8989 58.7834 42.7484 58.8457 42.5915 58.8457Z" fill="#CC922F"/>
<path d="M46.0225 6.43503H45.8923C45.7354 6.43503 45.585 6.37271 45.474 6.26177C45.3631 6.15084 45.3008 6.00038 45.3008 5.84349C45.3008 5.68661 45.3631 5.53615 45.474 5.42521C45.585 5.31428 45.7354 5.25195 45.8923 5.25195H46.0225C46.1793 5.25195 46.3298 5.31428 46.4407 5.42521C46.5517 5.53615 46.614 5.68661 46.614 5.84349C46.614 6.00038 46.5517 6.15084 46.4407 6.26177C46.3298 6.37271 46.1793 6.43503 46.0225 6.43503Z" fill="#CC922F"/>
<path d="M46.0225 10.4565H45.8923C45.7354 10.4565 45.585 10.3942 45.474 10.2833C45.3631 10.1723 45.3008 10.0219 45.3008 9.86498C45.3008 9.70809 45.3631 9.55763 45.474 9.44669C45.585 9.33576 45.7354 9.27344 45.8923 9.27344H46.0225C46.1793 9.27344 46.3298 9.33576 46.4407 9.44669C46.5517 9.55763 46.614 9.70809 46.614 9.86498C46.614 10.0219 46.5517 10.1723 46.4407 10.2833C46.3298 10.3942 46.1793 10.4565 46.0225 10.4565Z" fill="#CC922F"/>
<path d="M46.0225 14.48H45.8923C45.7354 14.48 45.585 14.4176 45.474 14.3067C45.3631 14.1958 45.3008 14.0453 45.3008 13.8884C45.3008 13.7315 45.3631 13.5811 45.474 13.4701C45.585 13.3592 45.7354 13.2969 45.8923 13.2969H46.0225C46.1793 13.2969 46.3298 13.3592 46.4407 13.4701C46.5517 13.5811 46.614 13.7315 46.614 13.8884C46.614 14.0453 46.5517 14.1958 46.4407 14.3067C46.3298 14.4176 46.1793 14.48 46.0225 14.48Z" fill="#CC922F"/>
<path d="M46.0225 18.5014H45.8923C45.7354 18.5014 45.585 18.4391 45.474 18.3282C45.3631 18.2172 45.3008 18.0668 45.3008 17.9099C45.3008 17.753 45.3631 17.6026 45.474 17.4916C45.585 17.3807 45.7354 17.3184 45.8923 17.3184H46.0225C46.1793 17.3184 46.3298 17.3807 46.4407 17.4916C46.5517 17.6026 46.614 17.753 46.614 17.9099C46.614 18.0668 46.5517 18.2172 46.4407 18.3282C46.3298 18.4391 46.1793 18.5014 46.0225 18.5014Z" fill="#CC922F"/>
<path d="M46.0225 22.5249H45.8923C45.7354 22.5249 45.585 22.4626 45.474 22.3516C45.3631 22.2407 45.3008 22.0902 45.3008 21.9333C45.3008 21.7764 45.3631 21.626 45.474 21.5151C45.585 21.4041 45.7354 21.3418 45.8923 21.3418H46.0225C46.1793 21.3418 46.3298 21.4041 46.4407 21.5151C46.5517 21.626 46.614 21.7764 46.614 21.9333C46.614 22.0902 46.5517 22.2407 46.4407 22.3516C46.3298 22.4626 46.1793 22.5249 46.0225 22.5249Z" fill="#CC922F"/>
<path d="M46.0225 26.5464H45.8923C45.7354 26.5464 45.585 26.484 45.474 26.3731C45.3631 26.2622 45.3008 26.1117 45.3008 25.9548C45.3008 25.7979 45.3631 25.6475 45.474 25.5365C45.585 25.4256 45.7354 25.3633 45.8923 25.3633H46.0225C46.1793 25.3633 46.3298 25.4256 46.4407 25.5365C46.5517 25.6475 46.614 25.7979 46.614 25.9548C46.614 26.1117 46.5517 26.2622 46.4407 26.3731C46.3298 26.484 46.1793 26.5464 46.0225 26.5464Z" fill="#CC922F"/>
<path d="M46.0225 30.5698H45.8923C45.7354 30.5698 45.585 30.5075 45.474 30.3965C45.3631 30.2856 45.3008 30.1351 45.3008 29.9783C45.3008 29.8214 45.3631 29.6709 45.474 29.56C45.585 29.449 45.7354 29.3867 45.8923 29.3867H46.0225C46.1793 29.3867 46.3298 29.449 46.4407 29.56C46.5517 29.6709 46.614 29.8214 46.614 29.9783C46.614 30.1351 46.5517 30.2856 46.4407 30.3965C46.3298 30.5075 46.1793 30.5698 46.0225 30.5698Z" fill="#CC922F"/>
<path d="M46.0225 34.5913H45.8923C45.7354 34.5913 45.585 34.529 45.474 34.418C45.3631 34.3071 45.3008 34.1566 45.3008 33.9997C45.3008 33.8429 45.3631 33.6924 45.474 33.5815C45.585 33.4705 45.7354 33.4082 45.8923 33.4082H46.0225C46.1793 33.4082 46.3298 33.4705 46.4407 33.5815C46.5517 33.6924 46.614 33.8429 46.614 33.9997C46.614 34.1566 46.5517 34.3071 46.4407 34.418C46.3298 34.529 46.1793 34.5913 46.0225 34.5913Z" fill="#CC922F"/>
<path d="M46.0225 38.6147H45.8923C45.7354 38.6147 45.585 38.5524 45.474 38.4415C45.3631 38.3305 45.3008 38.1801 45.3008 38.0232C45.3008 37.8663 45.3631 37.7158 45.474 37.6049C45.585 37.494 45.7354 37.4316 45.8923 37.4316H46.0225C46.1793 37.4316 46.3298 37.494 46.4407 37.6049C46.5517 37.7158 46.614 37.8663 46.614 38.0232C46.614 38.1801 46.5517 38.3305 46.4407 38.4415C46.3298 38.5524 46.1793 38.6147 46.0225 38.6147Z" fill="#CC922F"/>
<path d="M46.0225 42.6362H45.8923C45.7354 42.6362 45.585 42.5739 45.474 42.4629C45.3631 42.352 45.3008 42.2015 45.3008 42.0447C45.3008 41.8878 45.3631 41.7373 45.474 41.6264C45.585 41.5154 45.7354 41.4531 45.8923 41.4531H46.0225C46.1793 41.4531 46.3298 41.5154 46.4407 41.6264C46.5517 41.7373 46.614 41.8878 46.614 42.0447C46.614 42.2015 46.5517 42.352 46.4407 42.4629C46.3298 42.5739 46.1793 42.6362 46.0225 42.6362Z" fill="#CC922F"/>
<path d="M45.8928 46.6596H45.7615C45.6046 46.6596 45.4541 46.5973 45.3432 46.4864C45.2322 46.3754 45.1699 46.225 45.1699 46.0681C45.1699 45.9112 45.2322 45.7608 45.3432 45.6498C45.4541 45.5389 45.6046 45.4766 45.7615 45.4766H45.8928C46.0497 45.4766 46.2001 45.5389 46.3111 45.6498C46.422 45.7608 46.4843 45.9112 46.4843 46.0681C46.4843 46.225 46.422 46.3754 46.3111 46.4864C46.2001 46.5973 46.0497 46.6596 45.8928 46.6596Z" fill="#CC922F"/>
<path d="M41.9912 6.43503H41.8611C41.7042 6.43503 41.5537 6.37271 41.4428 6.26177C41.3319 6.15084 41.2695 6.00038 41.2695 5.84349C41.2695 5.68661 41.3319 5.53615 41.4428 5.42521C41.5537 5.31428 41.7042 5.25195 41.8611 5.25195H41.9912C42.1481 5.25195 42.2986 5.31428 42.4095 5.42521C42.5204 5.53615 42.5827 5.68661 42.5827 5.84349C42.5827 6.00038 42.5204 6.15084 42.4095 6.26177C42.2986 6.37271 42.1481 6.43503 41.9912 6.43503Z" fill="#CC922F"/>
<path d="M41.9912 10.4565H41.8611C41.7042 10.4565 41.5537 10.3942 41.4428 10.2833C41.3319 10.1723 41.2695 10.0219 41.2695 9.86498C41.2695 9.70809 41.3319 9.55763 41.4428 9.44669C41.5537 9.33576 41.7042 9.27344 41.8611 9.27344H41.9912C42.1481 9.27344 42.2986 9.33576 42.4095 9.44669C42.5204 9.55763 42.5827 9.70809 42.5827 9.86498C42.5827 10.0219 42.5204 10.1723 42.4095 10.2833C42.2986 10.3942 42.1481 10.4565 41.9912 10.4565Z" fill="#CC922F"/>
<path d="M41.9912 14.48H41.8611C41.7042 14.48 41.5537 14.4176 41.4428 14.3067C41.3319 14.1958 41.2695 14.0453 41.2695 13.8884C41.2695 13.7315 41.3319 13.5811 41.4428 13.4701C41.5537 13.3592 41.7042 13.2969 41.8611 13.2969H41.9912C42.1481 13.2969 42.2986 13.3592 42.4095 13.4701C42.5204 13.5811 42.5827 13.7315 42.5827 13.8884C42.5827 14.0453 42.5204 14.1958 42.4095 14.3067C42.2986 14.4176 42.1481 14.48 41.9912 14.48Z" fill="#CC922F"/>
<path d="M41.9912 18.5014H41.8611C41.7042 18.5014 41.5537 18.4391 41.4428 18.3282C41.3319 18.2172 41.2695 18.0668 41.2695 17.9099C41.2695 17.753 41.3319 17.6026 41.4428 17.4916C41.5537 17.3807 41.7042 17.3184 41.8611 17.3184H41.9912C42.1481 17.3184 42.2986 17.3807 42.4095 17.4916C42.5204 17.6026 42.5827 17.753 42.5827 17.9099C42.5827 18.0668 42.5204 18.2172 42.4095 18.3282C42.2986 18.4391 42.1481 18.5014 41.9912 18.5014Z" fill="#CC922F"/>
<path d="M41.9912 22.5249H41.8611C41.7042 22.5249 41.5537 22.4626 41.4428 22.3516C41.3319 22.2407 41.2695 22.0902 41.2695 21.9333C41.2695 21.7764 41.3319 21.626 41.4428 21.5151C41.5537 21.4041 41.7042 21.3418 41.8611 21.3418H41.9912C42.1481 21.3418 42.2986 21.4041 42.4095 21.5151C42.5204 21.626 42.5827 21.7764 42.5827 21.9333C42.5827 22.0902 42.5204 22.2407 42.4095 22.3516C42.2986 22.4626 42.1481 22.5249 41.9912 22.5249Z" fill="#CC922F"/>
<path d="M41.9912 26.5464H41.8611C41.7042 26.5464 41.5537 26.484 41.4428 26.3731C41.3319 26.2622 41.2695 26.1117 41.2695 25.9548C41.2695 25.7979 41.3319 25.6475 41.4428 25.5365C41.5537 25.4256 41.7042 25.3633 41.8611 25.3633H41.9912C42.1481 25.3633 42.2986 25.4256 42.4095 25.5365C42.5204 25.6475 42.5827 25.7979 42.5827 25.9548C42.5827 26.1117 42.5204 26.2622 42.4095 26.3731C42.2986 26.484 42.1481 26.5464 41.9912 26.5464Z" fill="#CC922F"/>
<path d="M41.9912 30.5698H41.8611C41.7042 30.5698 41.5537 30.5075 41.4428 30.3965C41.3319 30.2856 41.2695 30.1351 41.2695 29.9783C41.2695 29.8214 41.3319 29.6709 41.4428 29.56C41.5537 29.449 41.7042 29.3867 41.8611 29.3867H41.9912C42.1481 29.3867 42.2986 29.449 42.4095 29.56C42.5204 29.6709 42.5827 29.8214 42.5827 29.9783C42.5827 30.1351 42.5204 30.2856 42.4095 30.3965C42.2986 30.5075 42.1481 30.5698 41.9912 30.5698Z" fill="#CC922F"/>
<path d="M41.9912 34.5913H41.8611C41.7042 34.5913 41.5537 34.529 41.4428 34.418C41.3319 34.3071 41.2695 34.1566 41.2695 33.9997C41.2695 33.8429 41.3319 33.6924 41.4428 33.5815C41.5537 33.4705 41.7042 33.4082 41.8611 33.4082H41.9912C42.1481 33.4082 42.2986 33.4705 42.4095 33.5815C42.5204 33.6924 42.5827 33.8429 42.5827 33.9997C42.5827 34.1566 42.5204 34.3071 42.4095 34.418C42.2986 34.529 42.1481 34.5913 41.9912 34.5913Z" fill="#CC922F"/>
<path d="M41.9912 38.6147H41.8611C41.7042 38.6147 41.5537 38.5524 41.4428 38.4415C41.3319 38.3305 41.2695 38.1801 41.2695 38.0232C41.2695 37.8663 41.3319 37.7158 41.4428 37.6049C41.5537 37.494 41.7042 37.4316 41.8611 37.4316H41.9912C42.1481 37.4316 42.2986 37.494 42.4095 37.6049C42.5204 37.7158 42.5827 37.8663 42.5827 38.0232C42.5827 38.1801 42.5204 38.3305 42.4095 38.4415C42.2986 38.5524 42.1481 38.6147 41.9912 38.6147Z" fill="#CC922F"/>
<path d="M41.9912 42.6362H41.8611C41.7042 42.6362 41.5537 42.5739 41.4428 42.4629C41.3319 42.352 41.2695 42.2015 41.2695 42.0447C41.2695 41.8878 41.3319 41.7373 41.4428 41.6264C41.5537 41.5154 41.7042 41.4531 41.8611 41.4531H41.9912C42.1481 41.4531 42.2986 41.5154 42.4095 41.6264C42.5204 41.7373 42.5827 41.8878 42.5827 42.0447C42.5827 42.2015 42.5204 42.352 42.4095 42.4629C42.2986 42.5739 42.1481 42.6362 41.9912 42.6362Z" fill="#CC922F"/>
<path d="M41.8603 46.6596H41.7302C41.5733 46.6596 41.4229 46.5973 41.3119 46.4864C41.201 46.3754 41.1387 46.225 41.1387 46.0681C41.1387 45.9112 41.201 45.7608 41.3119 45.6498C41.4229 45.5389 41.5733 45.4766 41.7302 45.4766H41.8603C42.0172 45.4766 42.1677 45.5389 42.2786 45.6498C42.3896 45.7608 42.4519 45.9112 42.4519 46.0681C42.4519 46.225 42.3896 46.3754 42.2786 46.4864C42.1677 46.5973 42.0172 46.6596 41.8603 46.6596Z" fill="#CC922F"/>
<path d="M37.958 6.43503H37.8279C37.671 6.43503 37.5205 6.37271 37.4096 6.26177C37.2987 6.15084 37.2363 6.00038 37.2363 5.84349C37.2363 5.68661 37.2987 5.53615 37.4096 5.42521C37.5205 5.31428 37.671 5.25195 37.8279 5.25195H37.958C38.1149 5.25195 38.2653 5.31428 38.3763 5.42521C38.4872 5.53615 38.5495 5.68661 38.5495 5.84349C38.5495 6.00038 38.4872 6.15084 38.3763 6.26177C38.2653 6.37271 38.1149 6.43503 37.958 6.43503Z" fill="#CC922F"/>
<path d="M37.958 10.4565H37.8279C37.671 10.4565 37.5205 10.3942 37.4096 10.2833C37.2987 10.1723 37.2363 10.0219 37.2363 9.86498C37.2363 9.70809 37.2987 9.55763 37.4096 9.44669C37.5205 9.33576 37.671 9.27344 37.8279 9.27344H37.958C38.1149 9.27344 38.2653 9.33576 38.3763 9.44669C38.4872 9.55763 38.5495 9.70809 38.5495 9.86498C38.5495 10.0219 38.4872 10.1723 38.3763 10.2833C38.2653 10.3942 38.1149 10.4565 37.958 10.4565Z" fill="#CC922F"/>
<path d="M37.958 14.48H37.8279C37.671 14.48 37.5205 14.4176 37.4096 14.3067C37.2987 14.1958 37.2363 14.0453 37.2363 13.8884C37.2363 13.7315 37.2987 13.5811 37.4096 13.4701C37.5205 13.3592 37.671 13.2969 37.8279 13.2969H37.958C38.1149 13.2969 38.2653 13.3592 38.3763 13.4701C38.4872 13.5811 38.5495 13.7315 38.5495 13.8884C38.5495 14.0453 38.4872 14.1958 38.3763 14.3067C38.2653 14.4176 38.1149 14.48 37.958 14.48Z" fill="#CC922F"/>
<path d="M37.958 18.5014H37.8279C37.671 18.5014 37.5205 18.4391 37.4096 18.3282C37.2987 18.2172 37.2363 18.0668 37.2363 17.9099C37.2363 17.753 37.2987 17.6026 37.4096 17.4916C37.5205 17.3807 37.671 17.3184 37.8279 17.3184H37.958C38.1149 17.3184 38.2653 17.3807 38.3763 17.4916C38.4872 17.6026 38.5495 17.753 38.5495 17.9099C38.5495 18.0668 38.4872 18.2172 38.3763 18.3282C38.2653 18.4391 38.1149 18.5014 37.958 18.5014Z" fill="#CC922F"/>
<path d="M37.958 22.5249H37.8279C37.671 22.5249 37.5205 22.4626 37.4096 22.3516C37.2987 22.2407 37.2363 22.0902 37.2363 21.9333C37.2363 21.7764 37.2987 21.626 37.4096 21.5151C37.5205 21.4041 37.671 21.3418 37.8279 21.3418H37.958C38.1149 21.3418 38.2653 21.4041 38.3763 21.5151C38.4872 21.626 38.5495 21.7764 38.5495 21.9333C38.5495 22.0902 38.4872 22.2407 38.3763 22.3516C38.2653 22.4626 38.1149 22.5249 37.958 22.5249Z" fill="#CC922F"/>
<path d="M37.958 26.5464H37.8279C37.671 26.5464 37.5205 26.484 37.4096 26.3731C37.2987 26.2622 37.2363 26.1117 37.2363 25.9548C37.2363 25.7979 37.2987 25.6475 37.4096 25.5365C37.5205 25.4256 37.671 25.3633 37.8279 25.3633H37.958C38.1149 25.3633 38.2653 25.4256 38.3763 25.5365C38.4872 25.6475 38.5495 25.7979 38.5495 25.9548C38.5495 26.1117 38.4872 26.2622 38.3763 26.3731C38.2653 26.484 38.1149 26.5464 37.958 26.5464Z" fill="#CC922F"/>
<path d="M37.958 30.5698H37.8279C37.671 30.5698 37.5205 30.5075 37.4096 30.3965C37.2987 30.2856 37.2363 30.1351 37.2363 29.9783C37.2363 29.8214 37.2987 29.6709 37.4096 29.56C37.5205 29.449 37.671 29.3867 37.8279 29.3867H37.958C38.1149 29.3867 38.2653 29.449 38.3763 29.56C38.4872 29.6709 38.5495 29.8214 38.5495 29.9783C38.5495 30.1351 38.4872 30.2856 38.3763 30.3965C38.2653 30.5075 38.1149 30.5698 37.958 30.5698Z" fill="#CC922F"/>
<path d="M37.958 34.5913H37.8279C37.671 34.5913 37.5205 34.529 37.4096 34.418C37.2987 34.3071 37.2363 34.1566 37.2363 33.9997C37.2363 33.8429 37.2987 33.6924 37.4096 33.5815C37.5205 33.4705 37.671 33.4082 37.8279 33.4082H37.958C38.1149 33.4082 38.2653 33.4705 38.3763 33.5815C38.4872 33.6924 38.5495 33.8429 38.5495 33.9997C38.5495 34.1566 38.4872 34.3071 38.3763 34.418C38.2653 34.529 38.1149 34.5913 37.958 34.5913Z" fill="#CC922F"/>
<path d="M37.958 38.6147H37.8279C37.671 38.6147 37.5205 38.5524 37.4096 38.4415C37.2987 38.3305 37.2363 38.1801 37.2363 38.0232C37.2363 37.8663 37.2987 37.7158 37.4096 37.6049C37.5205 37.494 37.671 37.4316 37.8279 37.4316H37.958C38.1149 37.4316 38.2653 37.494 38.3763 37.6049C38.4872 37.7158 38.5495 37.8663 38.5495 38.0232C38.5495 38.1801 38.4872 38.3305 38.3763 38.4415C38.2653 38.5524 38.1149 38.6147 37.958 38.6147Z" fill="#CC922F"/>
<path d="M37.958 42.6362H37.8279C37.671 42.6362 37.5205 42.5739 37.4096 42.4629C37.2987 42.352 37.2363 42.2015 37.2363 42.0447C37.2363 41.8878 37.2987 41.7373 37.4096 41.6264C37.5205 41.5154 37.671 41.4531 37.8279 41.4531H37.958C38.1149 41.4531 38.2653 41.5154 38.3763 41.6264C38.4872 41.7373 38.5495 41.8878 38.5495 42.0447C38.5495 42.2015 38.4872 42.352 38.3763 42.4629C38.2653 42.5739 38.1149 42.6362 37.958 42.6362Z" fill="#CC922F"/>
<path d="M37.8291 46.6596H37.699C37.5421 46.6596 37.3916 46.5973 37.2807 46.4864C37.1697 46.3754 37.1074 46.225 37.1074 46.0681C37.1074 45.9112 37.1697 45.7608 37.2807 45.6498C37.3916 45.5389 37.5421 45.4766 37.699 45.4766H37.8291C37.986 45.4766 38.1364 45.5389 38.2474 45.6498C38.3583 45.7608 38.4206 45.9112 38.4206 46.0681C38.4206 46.225 38.3583 46.3754 38.2474 46.4864C38.1364 46.5973 37.986 46.6596 37.8291 46.6596Z" fill="#CC922F"/>
<path d="M33.9268 6.43503H33.7966C33.6397 6.43503 33.4893 6.37271 33.3783 6.26177C33.2674 6.15084 33.2051 6.00038 33.2051 5.84349C33.2051 5.68661 33.2674 5.53615 33.3783 5.42521C33.4893 5.31428 33.6397 5.25195 33.7966 5.25195H33.9268C34.0836 5.25195 34.2341 5.31428 34.345 5.42521C34.456 5.53615 34.5183 5.68661 34.5183 5.84349C34.5183 6.00038 34.456 6.15084 34.345 6.26177C34.2341 6.37271 34.0836 6.43503 33.9268 6.43503Z" fill="#CC922F"/>
<path d="M33.9268 10.4565H33.7966C33.6397 10.4565 33.4893 10.3942 33.3783 10.2833C33.2674 10.1723 33.2051 10.0219 33.2051 9.86498C33.2051 9.70809 33.2674 9.55763 33.3783 9.44669C33.4893 9.33576 33.6397 9.27344 33.7966 9.27344H33.9268C34.0836 9.27344 34.2341 9.33576 34.345 9.44669C34.456 9.55763 34.5183 9.70809 34.5183 9.86498C34.5183 10.0219 34.456 10.1723 34.345 10.2833C34.2341 10.3942 34.0836 10.4565 33.9268 10.4565Z" fill="#CC922F"/>
<path d="M33.9268 14.48H33.7966C33.6397 14.48 33.4893 14.4176 33.3783 14.3067C33.2674 14.1958 33.2051 14.0453 33.2051 13.8884C33.2051 13.7315 33.2674 13.5811 33.3783 13.4701C33.4893 13.3592 33.6397 13.2969 33.7966 13.2969H33.9268C34.0836 13.2969 34.2341 13.3592 34.345 13.4701C34.456 13.5811 34.5183 13.7315 34.5183 13.8884C34.5183 14.0453 34.456 14.1958 34.345 14.3067C34.2341 14.4176 34.0836 14.48 33.9268 14.48Z" fill="#CC922F"/>
<path d="M33.9268 18.5014H33.7966C33.6397 18.5014 33.4893 18.4391 33.3783 18.3282C33.2674 18.2172 33.2051 18.0668 33.2051 17.9099C33.2051 17.753 33.2674 17.6026 33.3783 17.4916C33.4893 17.3807 33.6397 17.3184 33.7966 17.3184H33.9268C34.0836 17.3184 34.2341 17.3807 34.345 17.4916C34.456 17.6026 34.5183 17.753 34.5183 17.9099C34.5183 18.0668 34.456 18.2172 34.345 18.3282C34.2341 18.4391 34.0836 18.5014 33.9268 18.5014Z" fill="#CC922F"/>
<path d="M33.9268 22.5249H33.7966C33.6397 22.5249 33.4893 22.4626 33.3783 22.3516C33.2674 22.2407 33.2051 22.0902 33.2051 21.9333C33.2051 21.7764 33.2674 21.626 33.3783 21.5151C33.4893 21.4041 33.6397 21.3418 33.7966 21.3418H33.9268C34.0836 21.3418 34.2341 21.4041 34.345 21.5151C34.456 21.626 34.5183 21.7764 34.5183 21.9333C34.5183 22.0902 34.456 22.2407 34.345 22.3516C34.2341 22.4626 34.0836 22.5249 33.9268 22.5249Z" fill="#CC922F"/>
<path d="M33.9268 26.5464H33.7966C33.6397 26.5464 33.4893 26.484 33.3783 26.3731C33.2674 26.2622 33.2051 26.1117 33.2051 25.9548C33.2051 25.7979 33.2674 25.6475 33.3783 25.5365C33.4893 25.4256 33.6397 25.3633 33.7966 25.3633H33.9268C34.0836 25.3633 34.2341 25.4256 34.345 25.5365C34.456 25.6475 34.5183 25.7979 34.5183 25.9548C34.5183 26.1117 34.456 26.2622 34.345 26.3731C34.2341 26.484 34.0836 26.5464 33.9268 26.5464Z" fill="#CC922F"/>
<path d="M33.9268 30.5698H33.7966C33.6397 30.5698 33.4893 30.5075 33.3783 30.3965C33.2674 30.2856 33.2051 30.1351 33.2051 29.9783C33.2051 29.8214 33.2674 29.6709 33.3783 29.56C33.4893 29.449 33.6397 29.3867 33.7966 29.3867H33.9268C34.0836 29.3867 34.2341 29.449 34.345 29.56C34.456 29.6709 34.5183 29.8214 34.5183 29.9783C34.5183 30.1351 34.456 30.2856 34.345 30.3965C34.2341 30.5075 34.0836 30.5698 33.9268 30.5698Z" fill="#CC922F"/>
<path d="M33.9268 34.5913H33.7966C33.6397 34.5913 33.4893 34.529 33.3783 34.418C33.2674 34.3071 33.2051 34.1566 33.2051 33.9997C33.2051 33.8429 33.2674 33.6924 33.3783 33.5815C33.4893 33.4705 33.6397 33.4082 33.7966 33.4082H33.9268C34.0836 33.4082 34.2341 33.4705 34.345 33.5815C34.456 33.6924 34.5183 33.8429 34.5183 33.9997C34.5183 34.1566 34.456 34.3071 34.345 34.418C34.2341 34.529 34.0836 34.5913 33.9268 34.5913Z" fill="#CC922F"/>
<path d="M33.9268 38.6147H33.7966C33.6397 38.6147 33.4893 38.5524 33.3783 38.4415C33.2674 38.3305 33.2051 38.1801 33.2051 38.0232C33.2051 37.8663 33.2674 37.7158 33.3783 37.6049C33.4893 37.494 33.6397 37.4316 33.7966 37.4316H33.9268C34.0836 37.4316 34.2341 37.494 34.345 37.6049C34.456 37.7158 34.5183 37.8663 34.5183 38.0232C34.5183 38.1801 34.456 38.3305 34.345 38.4415C34.2341 38.5524 34.0836 38.6147 33.9268 38.6147Z" fill="#CC922F"/>
<path d="M33.9268 42.6362H33.7966C33.6397 42.6362 33.4893 42.5739 33.3783 42.4629C33.2674 42.352 33.2051 42.2015 33.2051 42.0447C33.2051 41.8878 33.2674 41.7373 33.3783 41.6264C33.4893 41.5154 33.6397 41.4531 33.7966 41.4531H33.9268C34.0836 41.4531 34.2341 41.5154 34.345 41.6264C34.456 41.7373 34.5183 41.8878 34.5183 42.0447C34.5183 42.2015 34.456 42.352 34.345 42.4629C34.2341 42.5739 34.0836 42.6362 33.9268 42.6362Z" fill="#CC922F"/>
<path d="M33.7959 46.6596H33.6658C33.5089 46.6596 33.3584 46.5973 33.2475 46.4864C33.1365 46.3754 33.0742 46.225 33.0742 46.0681C33.0742 45.9112 33.1365 45.7608 33.2475 45.6498C33.3584 45.5389 33.5089 45.4766 33.6658 45.4766H33.7959C33.9528 45.4766 34.1032 45.5389 34.2142 45.6498C34.3251 45.7608 34.3874 45.9112 34.3874 46.0681C34.3874 46.225 34.3251 46.3754 34.2142 46.4864C34.1032 46.5973 33.9528 46.6596 33.7959 46.6596Z" fill="#CC922F"/>
<path d="M29.8955 6.43503H29.7654C29.6085 6.43503 29.458 6.37271 29.3471 6.26177C29.2362 6.15084 29.1738 6.00038 29.1738 5.84349C29.1738 5.68661 29.2362 5.53615 29.3471 5.42521C29.458 5.31428 29.6085 5.25195 29.7654 5.25195H29.8955C30.0524 5.25195 30.2029 5.31428 30.3138 5.42521C30.4247 5.53615 30.487 5.68661 30.487 5.84349C30.487 6.00038 30.4247 6.15084 30.3138 6.26177C30.2029 6.37271 30.0524 6.43503 29.8955 6.43503Z" fill="#CC922F"/>
<path d="M29.8955 10.4565H29.7654C29.6085 10.4565 29.458 10.3942 29.3471 10.2833C29.2362 10.1723 29.1738 10.0219 29.1738 9.86498C29.1738 9.70809 29.2362 9.55763 29.3471 9.44669C29.458 9.33576 29.6085 9.27344 29.7654 9.27344H29.8955C30.0524 9.27344 30.2029 9.33576 30.3138 9.44669C30.4247 9.55763 30.487 9.70809 30.487 9.86498C30.487 10.0219 30.4247 10.1723 30.3138 10.2833C30.2029 10.3942 30.0524 10.4565 29.8955 10.4565Z" fill="#CC922F"/>
<path d="M29.8955 14.48H29.7654C29.6085 14.48 29.458 14.4176 29.3471 14.3067C29.2362 14.1958 29.1738 14.0453 29.1738 13.8884C29.1738 13.7315 29.2362 13.5811 29.3471 13.4701C29.458 13.3592 29.6085 13.2969 29.7654 13.2969H29.8955C30.0524 13.2969 30.2029 13.3592 30.3138 13.4701C30.4247 13.5811 30.487 13.7315 30.487 13.8884C30.487 14.0453 30.4247 14.1958 30.3138 14.3067C30.2029 14.4176 30.0524 14.48 29.8955 14.48Z" fill="#CC922F"/>
<path d="M29.8955 18.5014H29.7654C29.6085 18.5014 29.458 18.4391 29.3471 18.3282C29.2362 18.2172 29.1738 18.0668 29.1738 17.9099C29.1738 17.753 29.2362 17.6026 29.3471 17.4916C29.458 17.3807 29.6085 17.3184 29.7654 17.3184H29.8955C30.0524 17.3184 30.2029 17.3807 30.3138 17.4916C30.4247 17.6026 30.487 17.753 30.487 17.9099C30.487 18.0668 30.4247 18.2172 30.3138 18.3282C30.2029 18.4391 30.0524 18.5014 29.8955 18.5014Z" fill="#CC922F"/>
<path d="M29.8955 22.5249H29.7654C29.6085 22.5249 29.458 22.4626 29.3471 22.3516C29.2362 22.2407 29.1738 22.0902 29.1738 21.9333C29.1738 21.7764 29.2362 21.626 29.3471 21.5151C29.458 21.4041 29.6085 21.3418 29.7654 21.3418H29.8955C30.0524 21.3418 30.2029 21.4041 30.3138 21.5151C30.4247 21.626 30.487 21.7764 30.487 21.9333C30.487 22.0902 30.4247 22.2407 30.3138 22.3516C30.2029 22.4626 30.0524 22.5249 29.8955 22.5249Z" fill="#CC922F"/>
<path d="M29.8955 26.5464H29.7654C29.6085 26.5464 29.458 26.484 29.3471 26.3731C29.2362 26.2622 29.1738 26.1117 29.1738 25.9548C29.1738 25.7979 29.2362 25.6475 29.3471 25.5365C29.458 25.4256 29.6085 25.3633 29.7654 25.3633H29.8955C30.0524 25.3633 30.2029 25.4256 30.3138 25.5365C30.4247 25.6475 30.487 25.7979 30.487 25.9548C30.487 26.1117 30.4247 26.2622 30.3138 26.3731C30.2029 26.484 30.0524 26.5464 29.8955 26.5464Z" fill="#CC922F"/>
<path d="M29.8955 30.5698H29.7654C29.6085 30.5698 29.458 30.5075 29.3471 30.3965C29.2362 30.2856 29.1738 30.1351 29.1738 29.9783C29.1738 29.8214 29.2362 29.6709 29.3471 29.56C29.458 29.449 29.6085 29.3867 29.7654 29.3867H29.8955C30.0524 29.3867 30.2029 29.449 30.3138 29.56C30.4247 29.6709 30.487 29.8214 30.487 29.9783C30.487 30.1351 30.4247 30.2856 30.3138 30.3965C30.2029 30.5075 30.0524 30.5698 29.8955 30.5698Z" fill="#CC922F"/>
<path d="M29.8955 34.5913H29.7654C29.6085 34.5913 29.458 34.529 29.3471 34.418C29.2362 34.3071 29.1738 34.1566 29.1738 33.9997C29.1738 33.8429 29.2362 33.6924 29.3471 33.5815C29.458 33.4705 29.6085 33.4082 29.7654 33.4082H29.8955C30.0524 33.4082 30.2029 33.4705 30.3138 33.5815C30.4247 33.6924 30.487 33.8429 30.487 33.9997C30.487 34.1566 30.4247 34.3071 30.3138 34.418C30.2029 34.529 30.0524 34.5913 29.8955 34.5913Z" fill="#CC922F"/>
<path d="M29.8955 38.6147H29.7654C29.6085 38.6147 29.458 38.5524 29.3471 38.4415C29.2362 38.3305 29.1738 38.1801 29.1738 38.0232C29.1738 37.8663 29.2362 37.7158 29.3471 37.6049C29.458 37.494 29.6085 37.4316 29.7654 37.4316H29.8955C30.0524 37.4316 30.2029 37.494 30.3138 37.6049C30.4247 37.7158 30.487 37.8663 30.487 38.0232C30.487 38.1801 30.4247 38.3305 30.3138 38.4415C30.2029 38.5524 30.0524 38.6147 29.8955 38.6147Z" fill="#CC922F"/>
<path d="M29.8955 42.6362H29.7654C29.6085 42.6362 29.458 42.5739 29.3471 42.4629C29.2362 42.352 29.1738 42.2015 29.1738 42.0447C29.1738 41.8878 29.2362 41.7373 29.3471 41.6264C29.458 41.5154 29.6085 41.4531 29.7654 41.4531H29.8955C30.0524 41.4531 30.2029 41.5154 30.3138 41.6264C30.4247 41.7373 30.487 41.8878 30.487 42.0447C30.487 42.2015 30.4247 42.352 30.3138 42.4629C30.2029 42.5739 30.0524 42.6362 29.8955 42.6362Z" fill="#CC922F"/>
<path d="M29.7646 46.6596H29.6345C29.4776 46.6596 29.3272 46.5973 29.2162 46.4864C29.1053 46.3754 29.043 46.225 29.043 46.0681C29.043 45.9112 29.1053 45.7608 29.2162 45.6498C29.3272 45.5389 29.4776 45.4766 29.6345 45.4766H29.7646C29.9215 45.4766 30.072 45.5389 30.1829 45.6498C30.2939 45.7608 30.3562 45.9112 30.3562 46.0681C30.3562 46.225 30.2939 46.3754 30.1829 46.4864C30.072 46.5973 29.9215 46.6596 29.7646 46.6596Z" fill="#CC922F"/>
<path d="M25.8623 6.43503H25.7322C25.5753 6.43503 25.4248 6.37271 25.3139 6.26177C25.2029 6.15084 25.1406 6.00038 25.1406 5.84349C25.1406 5.68661 25.2029 5.53615 25.3139 5.42521C25.4248 5.31428 25.5753 5.25195 25.7322 5.25195H25.8623C26.0192 5.25195 26.1696 5.31428 26.2806 5.42521C26.3915 5.53615 26.4538 5.68661 26.4538 5.84349C26.4538 6.00038 26.3915 6.15084 26.2806 6.26177C26.1696 6.37271 26.0192 6.43503 25.8623 6.43503Z" fill="#CC922F"/>
<path d="M25.8623 10.4565H25.7322C25.5753 10.4565 25.4248 10.3942 25.3139 10.2833C25.2029 10.1723 25.1406 10.0219 25.1406 9.86498C25.1406 9.70809 25.2029 9.55763 25.3139 9.44669C25.4248 9.33576 25.5753 9.27344 25.7322 9.27344H25.8623C26.0192 9.27344 26.1696 9.33576 26.2806 9.44669C26.3915 9.55763 26.4538 9.70809 26.4538 9.86498C26.4538 10.0219 26.3915 10.1723 26.2806 10.2833C26.1696 10.3942 26.0192 10.4565 25.8623 10.4565Z" fill="#CC922F"/>
<path d="M25.8623 14.48H25.7322C25.5753 14.48 25.4248 14.4176 25.3139 14.3067C25.2029 14.1958 25.1406 14.0453 25.1406 13.8884C25.1406 13.7315 25.2029 13.5811 25.3139 13.4701C25.4248 13.3592 25.5753 13.2969 25.7322 13.2969H25.8623C26.0192 13.2969 26.1696 13.3592 26.2806 13.4701C26.3915 13.5811 26.4538 13.7315 26.4538 13.8884C26.4538 14.0453 26.3915 14.1958 26.2806 14.3067C26.1696 14.4176 26.0192 14.48 25.8623 14.48Z" fill="#CC922F"/>
<path d="M25.8623 18.5014H25.7322C25.5753 18.5014 25.4248 18.4391 25.3139 18.3282C25.2029 18.2172 25.1406 18.0668 25.1406 17.9099C25.1406 17.753 25.2029 17.6026 25.3139 17.4916C25.4248 17.3807 25.5753 17.3184 25.7322 17.3184H25.8623C26.0192 17.3184 26.1696 17.3807 26.2806 17.4916C26.3915 17.6026 26.4538 17.753 26.4538 17.9099C26.4538 18.0668 26.3915 18.2172 26.2806 18.3282C26.1696 18.4391 26.0192 18.5014 25.8623 18.5014Z" fill="#CC922F"/>
<path d="M25.8623 22.5249H25.7322C25.5753 22.5249 25.4248 22.4626 25.3139 22.3516C25.2029 22.2407 25.1406 22.0902 25.1406 21.9333C25.1406 21.7764 25.2029 21.626 25.3139 21.5151C25.4248 21.4041 25.5753 21.3418 25.7322 21.3418H25.8623C26.0192 21.3418 26.1696 21.4041 26.2806 21.5151C26.3915 21.626 26.4538 21.7764 26.4538 21.9333C26.4538 22.0902 26.3915 22.2407 26.2806 22.3516C26.1696 22.4626 26.0192 22.5249 25.8623 22.5249Z" fill="#CC922F"/>
<path d="M25.8623 26.5464H25.7322C25.5753 26.5464 25.4248 26.484 25.3139 26.3731C25.2029 26.2622 25.1406 26.1117 25.1406 25.9548C25.1406 25.7979 25.2029 25.6475 25.3139 25.5365C25.4248 25.4256 25.5753 25.3633 25.7322 25.3633H25.8623C26.0192 25.3633 26.1696 25.4256 26.2806 25.5365C26.3915 25.6475 26.4538 25.7979 26.4538 25.9548C26.4538 26.1117 26.3915 26.2622 26.2806 26.3731C26.1696 26.484 26.0192 26.5464 25.8623 26.5464Z" fill="#CC922F"/>
<path d="M25.8623 30.5698H25.7322C25.5753 30.5698 25.4248 30.5075 25.3139 30.3965C25.2029 30.2856 25.1406 30.1351 25.1406 29.9783C25.1406 29.8214 25.2029 29.6709 25.3139 29.56C25.4248 29.449 25.5753 29.3867 25.7322 29.3867H25.8623C26.0192 29.3867 26.1696 29.449 26.2806 29.56C26.3915 29.6709 26.4538 29.8214 26.4538 29.9783C26.4538 30.1351 26.3915 30.2856 26.2806 30.3965C26.1696 30.5075 26.0192 30.5698 25.8623 30.5698Z" fill="#CC922F"/>
<path d="M25.8623 34.5913H25.7322C25.5753 34.5913 25.4248 34.529 25.3139 34.418C25.2029 34.3071 25.1406 34.1566 25.1406 33.9997C25.1406 33.8429 25.2029 33.6924 25.3139 33.5815C25.4248 33.4705 25.5753 33.4082 25.7322 33.4082H25.8623C26.0192 33.4082 26.1696 33.4705 26.2806 33.5815C26.3915 33.6924 26.4538 33.8429 26.4538 33.9997C26.4538 34.1566 26.3915 34.3071 26.2806 34.418C26.1696 34.529 26.0192 34.5913 25.8623 34.5913Z" fill="#CC922F"/>
<path d="M25.8623 38.6147H25.7322C25.5753 38.6147 25.4248 38.5524 25.3139 38.4415C25.2029 38.3305 25.1406 38.1801 25.1406 38.0232C25.1406 37.8663 25.2029 37.7158 25.3139 37.6049C25.4248 37.494 25.5753 37.4316 25.7322 37.4316H25.8623C26.0192 37.4316 26.1696 37.494 26.2806 37.6049C26.3915 37.7158 26.4538 37.8663 26.4538 38.0232C26.4538 38.1801 26.3915 38.3305 26.2806 38.4415C26.1696 38.5524 26.0192 38.6147 25.8623 38.6147Z" fill="#CC922F"/>
<path d="M25.8623 42.6362H25.7322C25.5753 42.6362 25.4248 42.5739 25.3139 42.4629C25.2029 42.352 25.1406 42.2015 25.1406 42.0447C25.1406 41.8878 25.2029 41.7373 25.3139 41.6264C25.4248 41.5154 25.5753 41.4531 25.7322 41.4531H25.8623C26.0192 41.4531 26.1696 41.5154 26.2806 41.6264C26.3915 41.7373 26.4538 41.8878 26.4538 42.0447C26.4538 42.2015 26.3915 42.352 26.2806 42.4629C26.1696 42.5739 26.0192 42.6362 25.8623 42.6362Z" fill="#CC922F"/>
<path d="M25.7334 46.6596H25.6033C25.4464 46.6596 25.2959 46.5973 25.185 46.4864C25.074 46.3754 25.0117 46.225 25.0117 46.0681C25.0117 45.9112 25.074 45.7608 25.185 45.6498C25.2959 45.5389 25.4464 45.4766 25.6033 45.4766H25.7334C25.8903 45.4766 26.0407 45.5389 26.1517 45.6498C26.2626 45.7608 26.3249 45.9112 26.3249 46.0681C26.3249 46.225 26.2626 46.3754 26.1517 46.4864C26.0407 46.5973 25.8903 46.6596 25.7334 46.6596Z" fill="#CC922F"/>
<path d="M21.8311 6.43503H21.7009C21.544 6.43503 21.3936 6.37271 21.2826 6.26177C21.1717 6.15084 21.1094 6.00038 21.1094 5.84349C21.1094 5.68661 21.1717 5.53615 21.2826 5.42521C21.3936 5.31428 21.544 5.25195 21.7009 5.25195H21.8311C21.9879 5.25195 22.1384 5.31428 22.2493 5.42521C22.3603 5.53615 22.4226 5.68661 22.4226 5.84349C22.4226 6.00038 22.3603 6.15084 22.2493 6.26177C22.1384 6.37271 21.9879 6.43503 21.8311 6.43503Z" fill="#CC922F"/>
<path d="M21.8311 10.4565H21.7009C21.544 10.4565 21.3936 10.3942 21.2826 10.2833C21.1717 10.1723 21.1094 10.0219 21.1094 9.86498C21.1094 9.70809 21.1717 9.55763 21.2826 9.44669C21.3936 9.33576 21.544 9.27344 21.7009 9.27344H21.8311C21.9879 9.27344 22.1384 9.33576 22.2493 9.44669C22.3603 9.55763 22.4226 9.70809 22.4226 9.86498C22.4226 10.0219 22.3603 10.1723 22.2493 10.2833C22.1384 10.3942 21.9879 10.4565 21.8311 10.4565Z" fill="#CC922F"/>
<path d="M21.8311 14.48H21.7009C21.544 14.48 21.3936 14.4176 21.2826 14.3067C21.1717 14.1958 21.1094 14.0453 21.1094 13.8884C21.1094 13.7315 21.1717 13.5811 21.2826 13.4701C21.3936 13.3592 21.544 13.2969 21.7009 13.2969H21.8311C21.9879 13.2969 22.1384 13.3592 22.2493 13.4701C22.3603 13.5811 22.4226 13.7315 22.4226 13.8884C22.4226 14.0453 22.3603 14.1958 22.2493 14.3067C22.1384 14.4176 21.9879 14.48 21.8311 14.48Z" fill="#CC922F"/>
<path d="M21.8311 18.5014H21.7009C21.544 18.5014 21.3936 18.4391 21.2826 18.3282C21.1717 18.2172 21.1094 18.0668 21.1094 17.9099C21.1094 17.753 21.1717 17.6026 21.2826 17.4916C21.3936 17.3807 21.544 17.3184 21.7009 17.3184H21.8311C21.9879 17.3184 22.1384 17.3807 22.2493 17.4916C22.3603 17.6026 22.4226 17.753 22.4226 17.9099C22.4226 18.0668 22.3603 18.2172 22.2493 18.3282C22.1384 18.4391 21.9879 18.5014 21.8311 18.5014Z" fill="#CC922F"/>
<path d="M21.8311 22.5249H21.7009C21.544 22.5249 21.3936 22.4626 21.2826 22.3516C21.1717 22.2407 21.1094 22.0902 21.1094 21.9333C21.1094 21.7764 21.1717 21.626 21.2826 21.5151C21.3936 21.4041 21.544 21.3418 21.7009 21.3418H21.8311C21.9879 21.3418 22.1384 21.4041 22.2493 21.5151C22.3603 21.626 22.4226 21.7764 22.4226 21.9333C22.4226 22.0902 22.3603 22.2407 22.2493 22.3516C22.1384 22.4626 21.9879 22.5249 21.8311 22.5249Z" fill="#CC922F"/>
<path d="M21.8311 26.5464H21.7009C21.544 26.5464 21.3936 26.484 21.2826 26.3731C21.1717 26.2622 21.1094 26.1117 21.1094 25.9548C21.1094 25.7979 21.1717 25.6475 21.2826 25.5365C21.3936 25.4256 21.544 25.3633 21.7009 25.3633H21.8311C21.9879 25.3633 22.1384 25.4256 22.2493 25.5365C22.3603 25.6475 22.4226 25.7979 22.4226 25.9548C22.4226 26.1117 22.3603 26.2622 22.2493 26.3731C22.1384 26.484 21.9879 26.5464 21.8311 26.5464Z" fill="#CC922F"/>
<path d="M21.8311 30.5698H21.7009C21.544 30.5698 21.3936 30.5075 21.2826 30.3965C21.1717 30.2856 21.1094 30.1351 21.1094 29.9783C21.1094 29.8214 21.1717 29.6709 21.2826 29.56C21.3936 29.449 21.544 29.3867 21.7009 29.3867H21.8311C21.9879 29.3867 22.1384 29.449 22.2493 29.56C22.3603 29.6709 22.4226 29.8214 22.4226 29.9783C22.4226 30.1351 22.3603 30.2856 22.2493 30.3965C22.1384 30.5075 21.9879 30.5698 21.8311 30.5698Z" fill="#CC922F"/>
<path d="M21.8311 34.5913H21.7009C21.544 34.5913 21.3936 34.529 21.2826 34.418C21.1717 34.3071 21.1094 34.1566 21.1094 33.9997C21.1094 33.8429 21.1717 33.6924 21.2826 33.5815C21.3936 33.4705 21.544 33.4082 21.7009 33.4082H21.8311C21.9879 33.4082 22.1384 33.4705 22.2493 33.5815C22.3603 33.6924 22.4226 33.8429 22.4226 33.9997C22.4226 34.1566 22.3603 34.3071 22.2493 34.418C22.1384 34.529 21.9879 34.5913 21.8311 34.5913Z" fill="#CC922F"/>
<path d="M21.8311 38.6147H21.7009C21.544 38.6147 21.3936 38.5524 21.2826 38.4415C21.1717 38.3305 21.1094 38.1801 21.1094 38.0232C21.1094 37.8663 21.1717 37.7158 21.2826 37.6049C21.3936 37.494 21.544 37.4316 21.7009 37.4316H21.8311C21.9879 37.4316 22.1384 37.494 22.2493 37.6049C22.3603 37.7158 22.4226 37.8663 22.4226 38.0232C22.4226 38.1801 22.3603 38.3305 22.2493 38.4415C22.1384 38.5524 21.9879 38.6147 21.8311 38.6147Z" fill="#CC922F"/>
<path d="M21.8311 42.6362H21.7009C21.544 42.6362 21.3936 42.5739 21.2826 42.4629C21.1717 42.352 21.1094 42.2015 21.1094 42.0447C21.1094 41.8878 21.1717 41.7373 21.2826 41.6264C21.3936 41.5154 21.544 41.4531 21.7009 41.4531H21.8311C21.9879 41.4531 22.1384 41.5154 22.2493 41.6264C22.3603 41.7373 22.4226 41.8878 22.4226 42.0447C22.4226 42.2015 22.3603 42.352 22.2493 42.4629C22.1384 42.5739 21.9879 42.6362 21.8311 42.6362Z" fill="#CC922F"/>
<path d="M21.7002 46.6596H21.5701C21.4132 46.6596 21.2627 46.5973 21.1518 46.4864C21.0408 46.3754 20.9785 46.225 20.9785 46.0681C20.9785 45.9112 21.0408 45.7608 21.1518 45.6498C21.2627 45.5389 21.4132 45.4766 21.5701 45.4766H21.7002C21.8571 45.4766 22.0075 45.5389 22.1185 45.6498C22.2294 45.7608 22.2917 45.9112 22.2917 46.0681C22.2917 46.225 22.2294 46.3754 22.1185 46.4864C22.0075 46.5973 21.8571 46.6596 21.7002 46.6596Z" fill="#CC922F"/>
<path d="M17.7998 6.43503H17.6697C17.5128 6.43503 17.3623 6.37271 17.2514 6.26177C17.1404 6.15084 17.0781 6.00038 17.0781 5.84349C17.0781 5.68661 17.1404 5.53615 17.2514 5.42521C17.3623 5.31428 17.5128 5.25195 17.6697 5.25195H17.7998C17.9567 5.25195 18.1071 5.31428 18.2181 5.42521C18.329 5.53615 18.3913 5.68661 18.3913 5.84349C18.3913 6.00038 18.329 6.15084 18.2181 6.26177C18.1071 6.37271 17.9567 6.43503 17.7998 6.43503Z" fill="#CC922F"/>
<path d="M17.7998 10.4565H17.6697C17.5128 10.4565 17.3623 10.3942 17.2514 10.2833C17.1404 10.1723 17.0781 10.0219 17.0781 9.86498C17.0781 9.70809 17.1404 9.55763 17.2514 9.44669C17.3623 9.33576 17.5128 9.27344 17.6697 9.27344H17.7998C17.9567 9.27344 18.1071 9.33576 18.2181 9.44669C18.329 9.55763 18.3913 9.70809 18.3913 9.86498C18.3913 10.0219 18.329 10.1723 18.2181 10.2833C18.1071 10.3942 17.9567 10.4565 17.7998 10.4565Z" fill="#CC922F"/>
<path d="M17.7998 14.48H17.6697C17.5128 14.48 17.3623 14.4176 17.2514 14.3067C17.1404 14.1958 17.0781 14.0453 17.0781 13.8884C17.0781 13.7315 17.1404 13.5811 17.2514 13.4701C17.3623 13.3592 17.5128 13.2969 17.6697 13.2969H17.7998C17.9567 13.2969 18.1071 13.3592 18.2181 13.4701C18.329 13.5811 18.3913 13.7315 18.3913 13.8884C18.3913 14.0453 18.329 14.1958 18.2181 14.3067C18.1071 14.4176 17.9567 14.48 17.7998 14.48Z" fill="#CC922F"/>
<path d="M17.7998 18.5014H17.6697C17.5128 18.5014 17.3623 18.4391 17.2514 18.3282C17.1404 18.2172 17.0781 18.0668 17.0781 17.9099C17.0781 17.753 17.1404 17.6026 17.2514 17.4916C17.3623 17.3807 17.5128 17.3184 17.6697 17.3184H17.7998C17.9567 17.3184 18.1071 17.3807 18.2181 17.4916C18.329 17.6026 18.3913 17.753 18.3913 17.9099C18.3913 18.0668 18.329 18.2172 18.2181 18.3282C18.1071 18.4391 17.9567 18.5014 17.7998 18.5014Z" fill="#CC922F"/>
<path d="M17.7998 22.5249H17.6697C17.5128 22.5249 17.3623 22.4626 17.2514 22.3516C17.1404 22.2407 17.0781 22.0902 17.0781 21.9333C17.0781 21.7764 17.1404 21.626 17.2514 21.5151C17.3623 21.4041 17.5128 21.3418 17.6697 21.3418H17.7998C17.9567 21.3418 18.1071 21.4041 18.2181 21.5151C18.329 21.626 18.3913 21.7764 18.3913 21.9333C18.3913 22.0902 18.329 22.2407 18.2181 22.3516C18.1071 22.4626 17.9567 22.5249 17.7998 22.5249Z" fill="#CC922F"/>
<path d="M17.7998 26.5464H17.6697C17.5128 26.5464 17.3623 26.484 17.2514 26.3731C17.1404 26.2622 17.0781 26.1117 17.0781 25.9548C17.0781 25.7979 17.1404 25.6475 17.2514 25.5365C17.3623 25.4256 17.5128 25.3633 17.6697 25.3633H17.7998C17.9567 25.3633 18.1071 25.4256 18.2181 25.5365C18.329 25.6475 18.3913 25.7979 18.3913 25.9548C18.3913 26.1117 18.329 26.2622 18.2181 26.3731C18.1071 26.484 17.9567 26.5464 17.7998 26.5464Z" fill="#CC922F"/>
<path d="M17.7998 30.5698H17.6697C17.5128 30.5698 17.3623 30.5075 17.2514 30.3965C17.1404 30.2856 17.0781 30.1351 17.0781 29.9783C17.0781 29.8214 17.1404 29.6709 17.2514 29.56C17.3623 29.449 17.5128 29.3867 17.6697 29.3867H17.7998C17.9567 29.3867 18.1071 29.449 18.2181 29.56C18.329 29.6709 18.3913 29.8214 18.3913 29.9783C18.3913 30.1351 18.329 30.2856 18.2181 30.3965C18.1071 30.5075 17.9567 30.5698 17.7998 30.5698Z" fill="#CC922F"/>
<path d="M17.7998 34.5913H17.6697C17.5128 34.5913 17.3623 34.529 17.2514 34.418C17.1404 34.3071 17.0781 34.1566 17.0781 33.9997C17.0781 33.8429 17.1404 33.6924 17.2514 33.5815C17.3623 33.4705 17.5128 33.4082 17.6697 33.4082H17.7998C17.9567 33.4082 18.1071 33.4705 18.2181 33.5815C18.329 33.6924 18.3913 33.8429 18.3913 33.9997C18.3913 34.1566 18.329 34.3071 18.2181 34.418C18.1071 34.529 17.9567 34.5913 17.7998 34.5913Z" fill="#CC922F"/>
<path d="M17.7998 38.6147H17.6697C17.5128 38.6147 17.3623 38.5524 17.2514 38.4415C17.1404 38.3305 17.0781 38.1801 17.0781 38.0232C17.0781 37.8663 17.1404 37.7158 17.2514 37.6049C17.3623 37.494 17.5128 37.4316 17.6697 37.4316H17.7998C17.9567 37.4316 18.1071 37.494 18.2181 37.6049C18.329 37.7158 18.3913 37.8663 18.3913 38.0232C18.3913 38.1801 18.329 38.3305 18.2181 38.4415C18.1071 38.5524 17.9567 38.6147 17.7998 38.6147Z" fill="#CC922F"/>
<path d="M17.7998 42.6362H17.6697C17.5128 42.6362 17.3623 42.5739 17.2514 42.4629C17.1404 42.352 17.0781 42.2015 17.0781 42.0447C17.0781 41.8878 17.1404 41.7373 17.2514 41.6264C17.3623 41.5154 17.5128 41.4531 17.6697 41.4531H17.7998C17.9567 41.4531 18.1071 41.5154 18.2181 41.6264C18.329 41.7373 18.3913 41.8878 18.3913 42.0447C18.3913 42.2015 18.329 42.352 18.2181 42.4629C18.1071 42.5739 17.9567 42.6362 17.7998 42.6362Z" fill="#CC922F"/>
<path d="M17.6689 46.6596H17.5388C17.3819 46.6596 17.2315 46.5973 17.1205 46.4864C17.0096 46.3754 16.9473 46.225 16.9473 46.0681C16.9473 45.9112 17.0096 45.7608 17.1205 45.6498C17.2315 45.5389 17.3819 45.4766 17.5388 45.4766H17.6689C17.8258 45.4766 17.9763 45.5389 18.0872 45.6498C18.1982 45.7608 18.2605 45.9112 18.2605 46.0681C18.2605 46.225 18.1982 46.3754 18.0872 46.4864C17.9763 46.5973 17.8258 46.6596 17.6689 46.6596Z" fill="#CC922F"/>
<path d="M13.7666 6.43503H13.6365C13.4796 6.43503 13.3291 6.37271 13.2182 6.26177C13.1072 6.15084 13.0449 6.00038 13.0449 5.84349C13.0449 5.68661 13.1072 5.53615 13.2182 5.42521C13.3291 5.31428 13.4796 5.25195 13.6365 5.25195H13.7666C13.9235 5.25195 14.0739 5.31428 14.1849 5.42521C14.2958 5.53615 14.3581 5.68661 14.3581 5.84349C14.3581 6.00038 14.2958 6.15084 14.1849 6.26177C14.0739 6.37271 13.9235 6.43503 13.7666 6.43503Z" fill="#CC922F"/>
<path d="M13.7666 10.4565H13.6365C13.4796 10.4565 13.3291 10.3942 13.2182 10.2833C13.1072 10.1723 13.0449 10.0219 13.0449 9.86498C13.0449 9.70809 13.1072 9.55763 13.2182 9.44669C13.3291 9.33576 13.4796 9.27344 13.6365 9.27344H13.7666C13.9235 9.27344 14.0739 9.33576 14.1849 9.44669C14.2958 9.55763 14.3581 9.70809 14.3581 9.86498C14.3581 10.0219 14.2958 10.1723 14.1849 10.2833C14.0739 10.3942 13.9235 10.4565 13.7666 10.4565Z" fill="#CC922F"/>
<path d="M13.7666 14.48H13.6365C13.4796 14.48 13.3291 14.4176 13.2182 14.3067C13.1072 14.1958 13.0449 14.0453 13.0449 13.8884C13.0449 13.7315 13.1072 13.5811 13.2182 13.4701C13.3291 13.3592 13.4796 13.2969 13.6365 13.2969H13.7666C13.9235 13.2969 14.0739 13.3592 14.1849 13.4701C14.2958 13.5811 14.3581 13.7315 14.3581 13.8884C14.3581 14.0453 14.2958 14.1958 14.1849 14.3067C14.0739 14.4176 13.9235 14.48 13.7666 14.48Z" fill="#CC922F"/>
<path d="M13.7666 18.5014H13.6365C13.4796 18.5014 13.3291 18.4391 13.2182 18.3282C13.1072 18.2172 13.0449 18.0668 13.0449 17.9099C13.0449 17.753 13.1072 17.6026 13.2182 17.4916C13.3291 17.3807 13.4796 17.3184 13.6365 17.3184H13.7666C13.9235 17.3184 14.0739 17.3807 14.1849 17.4916C14.2958 17.6026 14.3581 17.753 14.3581 17.9099C14.3581 18.0668 14.2958 18.2172 14.1849 18.3282C14.0739 18.4391 13.9235 18.5014 13.7666 18.5014Z" fill="#CC922F"/>
<path d="M13.7666 22.5249H13.6365C13.4796 22.5249 13.3291 22.4626 13.2182 22.3516C13.1072 22.2407 13.0449 22.0902 13.0449 21.9333C13.0449 21.7764 13.1072 21.626 13.2182 21.5151C13.3291 21.4041 13.4796 21.3418 13.6365 21.3418H13.7666C13.9235 21.3418 14.0739 21.4041 14.1849 21.5151C14.2958 21.626 14.3581 21.7764 14.3581 21.9333C14.3581 22.0902 14.2958 22.2407 14.1849 22.3516C14.0739 22.4626 13.9235 22.5249 13.7666 22.5249Z" fill="#CC922F"/>
<path d="M13.7666 26.5464H13.6365C13.4796 26.5464 13.3291 26.484 13.2182 26.3731C13.1072 26.2622 13.0449 26.1117 13.0449 25.9548C13.0449 25.7979 13.1072 25.6475 13.2182 25.5365C13.3291 25.4256 13.4796 25.3633 13.6365 25.3633H13.7666C13.9235 25.3633 14.0739 25.4256 14.1849 25.5365C14.2958 25.6475 14.3581 25.7979 14.3581 25.9548C14.3581 26.1117 14.2958 26.2622 14.1849 26.3731C14.0739 26.484 13.9235 26.5464 13.7666 26.5464Z" fill="#CC922F"/>
<path d="M13.7666 30.5698H13.6365C13.4796 30.5698 13.3291 30.5075 13.2182 30.3965C13.1072 30.2856 13.0449 30.1351 13.0449 29.9783C13.0449 29.8214 13.1072 29.6709 13.2182 29.56C13.3291 29.449 13.4796 29.3867 13.6365 29.3867H13.7666C13.9235 29.3867 14.0739 29.449 14.1849 29.56C14.2958 29.6709 14.3581 29.8214 14.3581 29.9783C14.3581 30.1351 14.2958 30.2856 14.1849 30.3965C14.0739 30.5075 13.9235 30.5698 13.7666 30.5698Z" fill="#CC922F"/>
<path d="M13.7666 34.5913H13.6365C13.4796 34.5913 13.3291 34.529 13.2182 34.418C13.1072 34.3071 13.0449 34.1566 13.0449 33.9997C13.0449 33.8429 13.1072 33.6924 13.2182 33.5815C13.3291 33.4705 13.4796 33.4082 13.6365 33.4082H13.7666C13.9235 33.4082 14.0739 33.4705 14.1849 33.5815C14.2958 33.6924 14.3581 33.8429 14.3581 33.9997C14.3581 34.1566 14.2958 34.3071 14.1849 34.418C14.0739 34.529 13.9235 34.5913 13.7666 34.5913Z" fill="#CC922F"/>
<path d="M13.7666 38.6147H13.6365C13.4796 38.6147 13.3291 38.5524 13.2182 38.4415C13.1072 38.3305 13.0449 38.1801 13.0449 38.0232C13.0449 37.8663 13.1072 37.7158 13.2182 37.6049C13.3291 37.494 13.4796 37.4316 13.6365 37.4316H13.7666C13.9235 37.4316 14.0739 37.494 14.1849 37.6049C14.2958 37.7158 14.3581 37.8663 14.3581 38.0232C14.3581 38.1801 14.2958 38.3305 14.1849 38.4415C14.0739 38.5524 13.9235 38.6147 13.7666 38.6147Z" fill="#CC922F"/>
<path d="M13.7666 42.6362H13.6365C13.4796 42.6362 13.3291 42.5739 13.2182 42.4629C13.1072 42.352 13.0449 42.2015 13.0449 42.0447C13.0449 41.8878 13.1072 41.7373 13.2182 41.6264C13.3291 41.5154 13.4796 41.4531 13.6365 41.4531H13.7666C13.9235 41.4531 14.0739 41.5154 14.1849 41.6264C14.2958 41.7373 14.3581 41.8878 14.3581 42.0447C14.3581 42.2015 14.2958 42.352 14.1849 42.4629C14.0739 42.5739 13.9235 42.6362 13.7666 42.6362Z" fill="#CC922F"/>
<path d="M13.6377 46.6596H13.5076C13.3507 46.6596 13.2002 46.5973 13.0893 46.4864C12.9783 46.3754 12.916 46.225 12.916 46.0681C12.916 45.9112 12.9783 45.7608 13.0893 45.6498C13.2002 45.5389 13.3507 45.4766 13.5076 45.4766H13.6377C13.7946 45.4766 13.945 45.5389 14.056 45.6498C14.1669 45.7608 14.2292 45.9112 14.2292 46.0681C14.2292 46.225 14.1669 46.3754 14.056 46.4864C13.945 46.5973 13.7946 46.6596 13.6377 46.6596Z" fill="#CC922F"/>
<path d="M9.73535 6.43503H9.60521C9.44832 6.43503 9.29786 6.37271 9.18693 6.26177C9.07599 6.15084 9.01367 6.00038 9.01367 5.84349C9.01367 5.68661 9.07599 5.53615 9.18693 5.42521C9.29786 5.31428 9.44832 5.25195 9.60521 5.25195H9.73535C9.89223 5.25195 10.0427 5.31428 10.1536 5.42521C10.2646 5.53615 10.3269 5.68661 10.3269 5.84349C10.3269 6.00038 10.2646 6.15084 10.1536 6.26177C10.0427 6.37271 9.89223 6.43503 9.73535 6.43503Z" fill="#CC922F"/>
<path d="M9.73535 10.4565H9.60521C9.44832 10.4565 9.29786 10.3942 9.18693 10.2833C9.07599 10.1723 9.01367 10.0219 9.01367 9.86498C9.01367 9.70809 9.07599 9.55763 9.18693 9.44669C9.29786 9.33576 9.44832 9.27344 9.60521 9.27344H9.73535C9.89223 9.27344 10.0427 9.33576 10.1536 9.44669C10.2646 9.55763 10.3269 9.70809 10.3269 9.86498C10.3269 10.0219 10.2646 10.1723 10.1536 10.2833C10.0427 10.3942 9.89223 10.4565 9.73535 10.4565Z" fill="#CC922F"/>
<path d="M9.73535 14.48H9.60521C9.44832 14.48 9.29786 14.4176 9.18693 14.3067C9.07599 14.1958 9.01367 14.0453 9.01367 13.8884C9.01367 13.7315 9.07599 13.5811 9.18693 13.4701C9.29786 13.3592 9.44832 13.2969 9.60521 13.2969H9.73535C9.89223 13.2969 10.0427 13.3592 10.1536 13.4701C10.2646 13.5811 10.3269 13.7315 10.3269 13.8884C10.3269 14.0453 10.2646 14.1958 10.1536 14.3067C10.0427 14.4176 9.89223 14.48 9.73535 14.48Z" fill="#CC922F"/>
<path d="M9.73535 18.5014H9.60521C9.44832 18.5014 9.29786 18.4391 9.18693 18.3282C9.07599 18.2172 9.01367 18.0668 9.01367 17.9099C9.01367 17.753 9.07599 17.6026 9.18693 17.4916C9.29786 17.3807 9.44832 17.3184 9.60521 17.3184H9.73535C9.89223 17.3184 10.0427 17.3807 10.1536 17.4916C10.2646 17.6026 10.3269 17.753 10.3269 17.9099C10.3269 18.0668 10.2646 18.2172 10.1536 18.3282C10.0427 18.4391 9.89223 18.5014 9.73535 18.5014Z" fill="#CC922F"/>
<path d="M9.73535 22.5249H9.60521C9.44832 22.5249 9.29786 22.4626 9.18693 22.3516C9.07599 22.2407 9.01367 22.0902 9.01367 21.9333C9.01367 21.7764 9.07599 21.626 9.18693 21.5151C9.29786 21.4041 9.44832 21.3418 9.60521 21.3418H9.73535C9.89223 21.3418 10.0427 21.4041 10.1536 21.5151C10.2646 21.626 10.3269 21.7764 10.3269 21.9333C10.3269 22.0902 10.2646 22.2407 10.1536 22.3516C10.0427 22.4626 9.89223 22.5249 9.73535 22.5249Z" fill="#CC922F"/>
<path d="M9.73535 26.5464H9.60521C9.44832 26.5464 9.29786 26.484 9.18693 26.3731C9.07599 26.2622 9.01367 26.1117 9.01367 25.9548C9.01367 25.7979 9.07599 25.6475 9.18693 25.5365C9.29786 25.4256 9.44832 25.3633 9.60521 25.3633H9.73535C9.89223 25.3633 10.0427 25.4256 10.1536 25.5365C10.2646 25.6475 10.3269 25.7979 10.3269 25.9548C10.3269 26.1117 10.2646 26.2622 10.1536 26.3731C10.0427 26.484 9.89223 26.5464 9.73535 26.5464Z" fill="#CC922F"/>
<path d="M9.73535 30.5698H9.60521C9.44832 30.5698 9.29786 30.5075 9.18693 30.3965C9.07599 30.2856 9.01367 30.1351 9.01367 29.9783C9.01367 29.8214 9.07599 29.6709 9.18693 29.56C9.29786 29.449 9.44832 29.3867 9.60521 29.3867H9.73535C9.89223 29.3867 10.0427 29.449 10.1536 29.56C10.2646 29.6709 10.3269 29.8214 10.3269 29.9783C10.3269 30.1351 10.2646 30.2856 10.1536 30.3965C10.0427 30.5075 9.89223 30.5698 9.73535 30.5698Z" fill="#CC922F"/>
<path d="M9.73535 34.5913H9.60521C9.44832 34.5913 9.29786 34.529 9.18693 34.418C9.07599 34.3071 9.01367 34.1566 9.01367 33.9997C9.01367 33.8429 9.07599 33.6924 9.18693 33.5815C9.29786 33.4705 9.44832 33.4082 9.60521 33.4082H9.73535C9.89223 33.4082 10.0427 33.4705 10.1536 33.5815C10.2646 33.6924 10.3269 33.8429 10.3269 33.9997C10.3269 34.1566 10.2646 34.3071 10.1536 34.418C10.0427 34.529 9.89223 34.5913 9.73535 34.5913Z" fill="#CC922F"/>
<path d="M9.73535 38.6147H9.60521C9.44832 38.6147 9.29786 38.5524 9.18693 38.4415C9.07599 38.3305 9.01367 38.1801 9.01367 38.0232C9.01367 37.8663 9.07599 37.7158 9.18693 37.6049C9.29786 37.494 9.44832 37.4316 9.60521 37.4316H9.73535C9.89223 37.4316 10.0427 37.494 10.1536 37.6049C10.2646 37.7158 10.3269 37.8663 10.3269 38.0232C10.3269 38.1801 10.2646 38.3305 10.1536 38.4415C10.0427 38.5524 9.89223 38.6147 9.73535 38.6147Z" fill="#CC922F"/>
<path d="M9.73535 42.6362H9.60521C9.44832 42.6362 9.29786 42.5739 9.18693 42.4629C9.07599 42.352 9.01367 42.2015 9.01367 42.0447C9.01367 41.8878 9.07599 41.7373 9.18693 41.6264C9.29786 41.5154 9.44832 41.4531 9.60521 41.4531H9.73535C9.89223 41.4531 10.0427 41.5154 10.1536 41.6264C10.2646 41.7373 10.3269 41.8878 10.3269 42.0447C10.3269 42.2015 10.2646 42.352 10.1536 42.4629C10.0427 42.5739 9.89223 42.6362 9.73535 42.6362Z" fill="#CC922F"/>
<path d="M9.60449 46.6596H9.47435C9.31746 46.6596 9.167 46.5973 9.05607 46.4864C8.94513 46.3754 8.88281 46.225 8.88281 46.0681C8.88281 45.9112 8.94513 45.7608 9.05607 45.6498C9.167 45.5389 9.31746 45.4766 9.47435 45.4766H9.60449C9.76137 45.4766 9.91183 45.5389 10.0228 45.6498C10.1337 45.7608 10.196 45.9112 10.196 46.0681C10.196 46.225 10.1337 46.3754 10.0228 46.4864C9.91183 46.5973 9.76137 46.6596 9.60449 46.6596Z" fill="#CC922F"/>
<path d="M5.70528 6.43503H5.57396C5.41707 6.43503 5.26661 6.37271 5.15568 6.26177C5.04474 6.15084 4.98242 6.00038 4.98242 5.84349C4.98242 5.68661 5.04474 5.53615 5.15568 5.42521C5.26661 5.31428 5.41707 5.25195 5.57396 5.25195H5.70528C5.86217 5.25195 6.01263 5.31428 6.12356 5.42521C6.2345 5.53615 6.29682 5.68661 6.29682 5.84349C6.29682 6.00038 6.2345 6.15084 6.12356 6.26177C6.01263 6.37271 5.86217 6.43503 5.70528 6.43503Z" fill="#CC922F"/>
<path d="M5.70528 10.4565H5.57396C5.41707 10.4565 5.26661 10.3942 5.15568 10.2833C5.04474 10.1723 4.98242 10.0219 4.98242 9.86498C4.98242 9.70809 5.04474 9.55763 5.15568 9.44669C5.26661 9.33576 5.41707 9.27344 5.57396 9.27344H5.70528C5.86217 9.27344 6.01263 9.33576 6.12356 9.44669C6.2345 9.55763 6.29682 9.70809 6.29682 9.86498C6.29682 10.0219 6.2345 10.1723 6.12356 10.2833C6.01263 10.3942 5.86217 10.4565 5.70528 10.4565Z" fill="#CC922F"/>
<path d="M5.70528 14.48H5.57396C5.41707 14.48 5.26661 14.4176 5.15568 14.3067C5.04474 14.1958 4.98242 14.0453 4.98242 13.8884C4.98242 13.7315 5.04474 13.5811 5.15568 13.4701C5.26661 13.3592 5.41707 13.2969 5.57396 13.2969H5.70528C5.86217 13.2969 6.01263 13.3592 6.12356 13.4701C6.2345 13.5811 6.29682 13.7315 6.29682 13.8884C6.29682 14.0453 6.2345 14.1958 6.12356 14.3067C6.01263 14.4176 5.86217 14.48 5.70528 14.48Z" fill="#CC922F"/>
<path d="M5.70528 18.5014H5.57396C5.41707 18.5014 5.26661 18.4391 5.15568 18.3282C5.04474 18.2172 4.98242 18.0668 4.98242 17.9099C4.98242 17.753 5.04474 17.6026 5.15568 17.4916C5.26661 17.3807 5.41707 17.3184 5.57396 17.3184H5.70528C5.86217 17.3184 6.01263 17.3807 6.12356 17.4916C6.2345 17.6026 6.29682 17.753 6.29682 17.9099C6.29682 18.0668 6.2345 18.2172 6.12356 18.3282C6.01263 18.4391 5.86217 18.5014 5.70528 18.5014Z" fill="#CC922F"/>
<path d="M5.70528 22.5249H5.57396C5.41707 22.5249 5.26661 22.4626 5.15568 22.3516C5.04474 22.2407 4.98242 22.0902 4.98242 21.9333C4.98242 21.7764 5.04474 21.626 5.15568 21.5151C5.26661 21.4041 5.41707 21.3418 5.57396 21.3418H5.70528C5.86217 21.3418 6.01263 21.4041 6.12356 21.5151C6.2345 21.626 6.29682 21.7764 6.29682 21.9333C6.29682 22.0902 6.2345 22.2407 6.12356 22.3516C6.01263 22.4626 5.86217 22.5249 5.70528 22.5249Z" fill="#CC922F"/>
<path d="M5.70528 26.5464H5.57396C5.41707 26.5464 5.26661 26.484 5.15568 26.3731C5.04474 26.2622 4.98242 26.1117 4.98242 25.9548C4.98242 25.7979 5.04474 25.6475 5.15568 25.5365C5.26661 25.4256 5.41707 25.3633 5.57396 25.3633H5.70528C5.86217 25.3633 6.01263 25.4256 6.12356 25.5365C6.2345 25.6475 6.29682 25.7979 6.29682 25.9548C6.29682 26.1117 6.2345 26.2622 6.12356 26.3731C6.01263 26.484 5.86217 26.5464 5.70528 26.5464Z" fill="#CC922F"/>
<path d="M5.70528 30.5698H5.57396C5.41707 30.5698 5.26661 30.5075 5.15568 30.3965C5.04474 30.2856 4.98242 30.1351 4.98242 29.9783C4.98242 29.8214 5.04474 29.6709 5.15568 29.56C5.26661 29.449 5.41707 29.3867 5.57396 29.3867H5.70528C5.86217 29.3867 6.01263 29.449 6.12356 29.56C6.2345 29.6709 6.29682 29.8214 6.29682 29.9783C6.29682 30.1351 6.2345 30.2856 6.12356 30.3965C6.01263 30.5075 5.86217 30.5698 5.70528 30.5698Z" fill="#CC922F"/>
<path d="M5.70528 34.5913H5.57396C5.41707 34.5913 5.26661 34.529 5.15568 34.418C5.04474 34.3071 4.98242 34.1566 4.98242 33.9997C4.98242 33.8429 5.04474 33.6924 5.15568 33.5815C5.26661 33.4705 5.41707 33.4082 5.57396 33.4082H5.70528C5.86217 33.4082 6.01263 33.4705 6.12356 33.5815C6.2345 33.6924 6.29682 33.8429 6.29682 33.9997C6.29682 34.1566 6.2345 34.3071 6.12356 34.418C6.01263 34.529 5.86217 34.5913 5.70528 34.5913Z" fill="#CC922F"/>
<path d="M5.70528 38.6147H5.57396C5.41707 38.6147 5.26661 38.5524 5.15568 38.4415C5.04474 38.3305 4.98242 38.1801 4.98242 38.0232C4.98242 37.8663 5.04474 37.7158 5.15568 37.6049C5.26661 37.494 5.41707 37.4316 5.57396 37.4316H5.70528C5.86217 37.4316 6.01263 37.494 6.12356 37.6049C6.2345 37.7158 6.29682 37.8663 6.29682 38.0232C6.29682 38.1801 6.2345 38.3305 6.12356 38.4415C6.01263 38.5524 5.86217 38.6147 5.70528 38.6147Z" fill="#CC922F"/>
<path d="M5.70528 42.6362H5.57396C5.41707 42.6362 5.26661 42.5739 5.15568 42.4629C5.04474 42.352 4.98242 42.2015 4.98242 42.0447C4.98242 41.8878 5.04474 41.7373 5.15568 41.6264C5.26661 41.5154 5.41707 41.4531 5.57396 41.4531H5.70528C5.86217 41.4531 6.01263 41.5154 6.12356 41.6264C6.2345 41.7373 6.29682 41.8878 6.29682 42.0447C6.29682 42.2015 6.2345 42.352 6.12356 42.4629C6.01263 42.5739 5.86217 42.6362 5.70528 42.6362Z" fill="#CC922F"/>
<path d="M5.57324 46.6596H5.4431C5.28621 46.6596 5.13575 46.5973 5.02482 46.4864C4.91388 46.3754 4.85156 46.225 4.85156 46.0681C4.85156 45.9112 4.91388 45.7608 5.02482 45.6498C5.13575 45.5389 5.28621 45.4766 5.4431 45.4766H5.57324C5.73012 45.4766 5.88058 45.5389 5.99152 45.6498C6.10245 45.7608 6.16478 45.9112 6.16478 46.0681C6.16478 46.225 6.10245 46.3754 5.99152 46.4864C5.88058 46.5973 5.73012 46.6596 5.57324 46.6596Z" fill="#CC922F"/>
<path d="M40.2261 53.8764H37.1501C36.9932 53.8764 36.8428 53.8141 36.7319 53.7032C36.6209 53.5922 36.5586 53.4418 36.5586 53.2849C36.5586 53.128 36.6209 52.9776 36.7319 52.8666C36.8428 52.7557 36.9932 52.6934 37.1501 52.6934H40.2261C40.383 52.6934 40.5335 52.7557 40.6444 52.8666C40.7553 52.9776 40.8177 53.128 40.8177 53.2849C40.8177 53.4418 40.7553 53.5922 40.6444 53.7032C40.5335 53.8141 40.383 53.8764 40.2261 53.8764Z" fill="#CC922F"/>
<path d="M40.2261 56.2417H37.1501C36.9932 56.2417 36.8428 56.1793 36.7319 56.0684C36.6209 55.9575 36.5586 55.807 36.5586 55.6501C36.5586 55.4932 36.6209 55.3428 36.7319 55.2319C36.8428 55.1209 36.9932 55.0586 37.1501 55.0586H40.2261C40.383 55.0586 40.5335 55.1209 40.6444 55.2319C40.7553 55.3428 40.8177 55.4932 40.8177 55.6501C40.8177 55.807 40.7553 55.9575 40.6444 56.0684C40.5335 56.1793 40.383 56.2417 40.2261 56.2417Z" fill="#CC922F"/>
</svg>
