<svg width="93" height="64" viewBox="0 0 93 64" fill="none" xmlns="http://www.w3.org/2000/svg">
<path d="M90.068 23.5938H80.854C80.134 23.5938 79.482 23.8688 78.977 24.3078C78.472 23.8688 77.82 23.5938 77.1 23.5938H67.886C67.166 23.5938 66.514 23.8688 66.009 24.3078C65.504 23.8688 64.852 23.5938 64.132 23.5938H54.918C54.198 23.5938 53.546 23.8688 53.041 24.3078C52.536 23.8688 51.884 23.5938 51.164 23.5938H41.949C41.229 23.5938 40.577 23.8688 40.072 24.3078C39.567 23.8688 38.915 23.5938 38.195 23.5938H28.981C28.261 23.5938 27.609 23.8688 27.104 24.3078C26.599 23.8688 25.947 23.5938 25.227 23.5938H16.013C15.293 23.5938 14.641 23.8688 14.136 24.3078C13.631 23.8688 12.979 23.5938 12.259 23.5938H3.04497C1.45897 23.5938 0.167969 24.8847 0.167969 26.4707V31.3787V62.9437C0.167969 63.4957 0.615969 63.9437 1.16797 63.9437H91.943C92.495 63.9437 92.943 63.4957 92.943 62.9437V31.3787V26.4707C92.945 24.8837 91.654 23.5938 90.068 23.5938ZM14.137 32.3787H27.105H40.073H53.042H66.01H78.977H90.945V37.5898H2.16897V32.3787H14.137ZM90.945 39.5898V46.1087H2.16897V39.5898H90.945ZM2.16897 48.1087H90.944V54.8367H2.16897V48.1087ZM80.854 25.5938H90.068C90.551 25.5938 90.945 25.9877 90.945 26.4707V30.3787H79.977V26.4707C79.977 25.9867 80.37 25.5938 80.854 25.5938ZM67.886 25.5938H77.1C77.583 25.5938 77.977 25.9877 77.977 26.4707V30.3787H67.009V26.4707C67.009 25.9867 67.403 25.5938 67.886 25.5938ZM54.918 25.5938H64.132C64.615 25.5938 65.009 25.9877 65.009 26.4707V30.3787H54.041V26.4707C54.041 25.9867 54.435 25.5938 54.918 25.5938ZM41.95 25.5938H51.165C51.648 25.5938 52.042 25.9877 52.042 26.4707V30.3787H41.073V26.4707C41.073 25.9867 41.466 25.5938 41.95 25.5938ZM28.982 25.5938H38.196C38.679 25.5938 39.073 25.9877 39.073 26.4707V30.3787H28.105V26.4707C28.105 25.9867 28.498 25.5938 28.982 25.5938ZM16.014 25.5938H25.228C25.711 25.5938 26.105 25.9877 26.105 26.4707V30.3787H15.137V26.4707C15.137 25.9867 15.531 25.5938 16.014 25.5938ZM2.16897 26.4697C2.16897 25.9867 2.56297 25.5928 3.04597 25.5928H12.26C12.743 25.5928 13.137 25.9867 13.137 26.4697V30.3778H2.16897V26.4697ZM2.16897 61.9437V56.8357H90.944V61.9437H2.16897Z" fill="#CC922F"/>
<path d="M27.322 6.89922C26.055 12.6582 27.464 16.6672 27.953 17.8132L27.2211 21.7092C27.1481 22.0982 27.3111 22.4932 27.6371 22.7172C27.9631 22.9422 28.3901 22.9532 28.7271 22.7462L30.897 21.4142C34.3271 22.0572 38.6181 22.3822 43.6601 22.3822C51.5911 22.3822 59.047 21.5642 60.586 21.3852L63.6231 22.7992C63.758 22.8622 63.902 22.8932 64.045 22.8932C64.273 22.8932 64.4991 22.8152 64.681 22.6642C64.9781 22.4182 65.108 22.0242 65.015 21.6502L64.169 18.2612C65.95 13.1152 64.534 6.67222 64.167 5.19522L64.9941 2.71222C65.1131 2.35422 65.021 1.96022 64.756 1.69222C64.49 1.42522 64.098 1.32922 63.738 1.44422L60.376 2.53022C55.841 1.23222 50.9631 0.574219 45.8731 0.574219C37.8481 0.574219 31.874 2.19022 30.635 2.55322L27.258 2.03022C26.9171 1.97822 26.568 2.10622 26.343 2.37122C26.118 2.63622 26.047 2.99922 26.155 3.32922L27.322 6.89922ZM30.552 4.56722C30.702 4.58922 30.8581 4.57822 31.0041 4.53322C31.0671 4.51322 37.3501 2.57722 45.8721 2.57722C50.8841 2.57722 55.674 3.23722 60.1101 4.53822C60.3031 4.59422 60.507 4.59222 60.699 4.53022L62.4711 3.95722L62.1761 4.84522C62.1131 5.03322 62.108 5.23522 62.16 5.42622C62.18 5.49822 64.1171 12.7092 62.1881 17.8602C62.1171 18.0492 62.105 18.2562 62.154 18.4532L62.5661 20.1032L61.171 19.4542C61.001 19.3742 60.812 19.3442 60.625 19.3682C60.544 19.3782 52.3921 20.3832 43.6591 20.3842C38.5561 20.3842 34.263 20.0462 30.898 19.3802C30.834 19.3672 30.769 19.3612 30.704 19.3612C30.52 19.3612 30.3391 19.4112 30.1811 19.5082L29.6021 19.8632L29.976 17.8722C30.017 17.6572 29.983 17.4312 29.885 17.2352C29.865 17.1952 27.9081 13.2002 29.3321 7.07822C29.3741 6.90022 29.365 6.71422 29.308 6.54022L28.5611 4.26022L30.552 4.56722Z" fill="#CC922F"/>
</svg>
