<svg width="87" height="34" viewBox="0 0 87 34" fill="none" xmlns="http://www.w3.org/2000/svg">
<path d="M85.508 20.348H1.58963C1.06227 20.348 0.575471 20.0234 0.372639 19.5366C0.169807 19.0363 0.291506 18.4819 0.670126 18.1033L18.3841 0.821978C18.6275 0.578579 18.9521 0.443359 19.3036 0.443359H67.8076C68.1456 0.443359 68.4837 0.578579 68.7271 0.821978L86.4411 18.1033C86.8197 18.4819 86.9414 19.0363 86.7386 19.5366C86.5222 20.0234 86.0354 20.348 85.508 20.348ZM4.8079 17.7247H82.2898L67.2667 3.06665H19.831L4.8079 17.7247Z" fill="#CC922F"/>
<path d="M84.049 33.2751H3.05134C1.52333 33.2751 0.279297 32.031 0.279297 30.503V19.0363C0.279297 18.3061 0.860749 17.7246 1.59094 17.7246C2.32114 17.7246 2.90259 18.3061 2.90259 19.0363V30.503C2.90259 30.5842 2.9702 30.6518 3.05134 30.6518H84.0625C84.1436 30.6518 84.2112 30.5842 84.2112 30.503V19.0363C84.2112 18.3061 84.7927 17.7246 85.5229 17.7246C86.2531 17.7246 86.8345 18.3061 86.8345 19.0363V30.503C86.821 32.031 85.577 33.2751 84.049 33.2751Z" fill="#CC922F"/>
<path d="M21.0503 9.26066C19.955 9.26066 19.0625 8.3682 19.0625 7.27291C19.0625 6.17762 19.955 5.28516 21.0503 5.28516C22.1455 5.28516 23.038 6.17762 23.038 7.27291C23.038 8.3682 22.1455 9.26066 21.0503 9.26066ZM21.0503 6.65089C20.6987 6.65089 20.4147 6.93486 20.4147 7.28643C20.4147 7.63801 20.6987 7.92197 21.0503 7.92197C21.4018 7.92197 21.6858 7.63801 21.6858 7.28643C21.6858 6.93486 21.4018 6.65089 21.0503 6.65089Z" fill="#CC922F"/>
<path d="M29.8784 11.0302C28.7831 11.0302 27.8906 10.1377 27.8906 9.04244C27.8906 7.94715 28.7831 7.05469 29.8784 7.05469C30.9737 7.05469 31.8661 7.94715 31.8661 9.04244C31.8661 10.1377 30.9737 11.0302 29.8784 11.0302ZM29.8784 8.4069C29.5268 8.4069 29.2428 8.69087 29.2428 9.04244C29.2428 9.39402 29.5268 9.67798 29.8784 9.67798C30.23 9.67798 30.5139 9.39402 30.5139 9.04244C30.5139 8.69087 30.23 8.4069 29.8784 8.4069Z" fill="#CC922F"/>
<path d="M26.5659 16.2646C25.4706 16.2646 24.5781 15.3721 24.5781 14.2768C24.5781 13.1815 25.4706 12.2891 26.5659 12.2891C27.6612 12.2891 28.5536 13.1815 28.5536 14.2768C28.5536 15.3721 27.6612 16.2646 26.5659 16.2646ZM26.5659 13.6413C26.2143 13.6413 25.9303 13.9252 25.9303 14.2768C25.9303 14.6284 26.2143 14.9124 26.5659 14.9124C26.9175 14.9124 27.2014 14.6284 27.2014 14.2768C27.2014 13.9252 26.9175 13.6413 26.5659 13.6413Z" fill="#CC922F"/>
<path d="M15.0991 16.2646C14.0038 16.2646 13.1113 15.3721 13.1113 14.2768C13.1113 13.1815 14.0038 12.2891 15.0991 12.2891C16.1944 12.2891 17.0868 13.1815 17.0868 14.2768C17.0868 15.3721 16.1944 16.2646 15.0991 16.2646ZM15.0991 13.6413C14.7475 13.6413 14.4635 13.9252 14.4635 14.2768C14.4635 14.6284 14.7475 14.9124 15.0991 14.9124C15.4507 14.9124 15.7346 14.6284 15.7346 14.2768C15.7346 13.9252 15.4507 13.6413 15.0991 13.6413Z" fill="#CC922F"/>
<path d="M37.3296 8.58293C36.2343 8.58293 35.3418 7.69047 35.3418 6.59518C35.3418 5.49988 36.2343 4.60742 37.3296 4.60742C38.4248 4.60742 39.3173 5.49988 39.3173 6.59518C39.3173 7.69047 38.4248 8.58293 37.3296 8.58293ZM37.3296 5.95964C36.978 5.95964 36.694 6.2436 36.694 6.59518C36.694 6.94675 36.978 7.23072 37.3296 7.23072C37.6811 7.23072 37.9651 6.94675 37.9651 6.59518C37.9651 6.2436 37.6811 5.95964 37.3296 5.95964Z" fill="#CC922F"/>
<path d="M42.8706 15.5888C41.7753 15.5888 40.8828 14.6963 40.8828 13.601C40.8828 12.5057 41.7753 11.6133 42.8706 11.6133C43.9659 11.6133 44.8583 12.5057 44.8583 13.601C44.8583 14.6963 43.9659 15.5888 42.8706 15.5888ZM42.8706 12.9655C42.519 12.9655 42.235 13.2495 42.235 13.601C42.235 13.9526 42.519 14.2366 42.8706 14.2366C43.2221 14.2366 43.5061 13.9526 43.5061 13.601C43.5061 13.2495 43.2221 12.9655 42.8706 12.9655Z" fill="#CC922F"/>
<path d="M47.5913 8.58293C46.496 8.58293 45.6035 7.69047 45.6035 6.59518C45.6035 5.49988 46.496 4.60742 47.5913 4.60742C48.6866 4.60742 49.579 5.49988 49.579 6.59518C49.579 7.69047 48.6866 8.58293 47.5913 8.58293ZM47.5913 5.95964C47.2397 5.95964 46.9557 6.2436 46.9557 6.59518C46.9557 6.94675 47.2397 7.23072 47.5913 7.23072C47.9428 7.23072 48.2268 6.94675 48.2268 6.59518C48.2268 6.2436 47.9428 5.95964 47.5913 5.95964Z" fill="#CC922F"/>
<path d="M53.1362 14.8993C52.0409 14.8993 51.1484 14.0069 51.1484 12.9116C51.1484 11.8163 52.0409 10.9238 53.1362 10.9238C54.2315 10.9238 55.124 11.8163 55.124 12.9116C55.124 14.0069 54.2315 14.8993 53.1362 14.8993ZM53.1362 12.2896C52.7846 12.2896 52.5007 12.5735 52.5007 12.9251C52.5007 13.2767 52.7846 13.5606 53.1362 13.5606C53.4878 13.5606 53.7717 13.2767 53.7717 12.9251C53.7717 12.5735 53.4878 12.2896 53.1362 12.2896Z" fill="#CC922F"/>
<path d="M55.5307 8.24504C54.4354 8.24504 53.543 7.35258 53.543 6.25728C53.543 5.16199 54.4354 4.26953 55.5307 4.26953C56.626 4.26953 57.5185 5.16199 57.5185 6.25728C57.5185 7.35258 56.626 8.24504 55.5307 8.24504ZM55.5307 5.62175C55.1791 5.62175 54.8952 5.90571 54.8952 6.25728C54.8952 6.60886 55.1791 6.89282 55.5307 6.89282C55.8823 6.89282 56.1663 6.60886 56.1663 6.25728C56.1663 5.90571 55.8823 5.62175 55.5307 5.62175Z" fill="#CC922F"/>
<path d="M62.3589 10.2997C61.2636 10.2997 60.3711 9.40727 60.3711 8.31198C60.3711 7.21668 61.2636 6.32422 62.3589 6.32422C63.4541 6.32422 64.3466 7.21668 64.3466 8.31198C64.3466 9.40727 63.4541 10.2997 62.3589 10.2997ZM62.3589 7.68996C62.0073 7.68996 61.7233 7.97392 61.7233 8.3255C61.7233 8.67707 62.0073 8.96104 62.3589 8.96104C62.7104 8.96104 62.9944 8.67707 62.9944 8.3255C62.9809 7.97392 62.6969 7.68996 62.3589 7.68996Z" fill="#CC922F"/>
<path d="M69.0405 14.8993C67.9452 14.8993 67.0527 14.0069 67.0527 12.9116C67.0527 11.8163 67.9452 10.9238 69.0405 10.9238C70.1358 10.9238 71.0282 11.8163 71.0282 12.9116C71.0282 14.0069 70.1358 14.8993 69.0405 14.8993ZM69.0405 12.2896C68.6889 12.2896 68.4049 12.5735 68.4049 12.9251C68.4049 13.2767 68.6889 13.5606 69.0405 13.5606C69.3921 13.5606 69.676 13.2767 69.676 12.9251C69.676 12.5735 69.3785 12.2896 69.0405 12.2896Z" fill="#CC922F"/>
</svg>
