<svg width="61" height="65" viewBox="0 0 61 65" fill="none" xmlns="http://www.w3.org/2000/svg">
<path d="M59.0392 16.3375L33.8463 1.65657C31.7589 0.453017 29.2735 0.453017 27.186 1.65657L2.07103 16.3375C1.0273 16.9801 0.384766 18.0238 0.384766 19.2274V27.9716C0.384766 29.1751 1.02729 30.2189 2.07103 30.8614L27.2639 45.5456C28.3076 46.1066 29.4296 46.4295 30.5549 46.4295C31.6769 46.4295 32.8804 46.1098 33.8459 45.5456L59.0387 30.8614C60.0824 30.2189 60.7249 29.1751 60.7249 27.9716V19.2274C60.7249 18.0238 60.0829 16.9801 59.0392 16.3375ZM58.638 27.9719C58.638 28.4546 58.3966 28.8558 57.9955 29.0939L32.8026 43.7813C31.3577 44.5837 29.6747 44.5837 28.2298 43.7813L3.11477 29.0972C2.71358 28.8558 2.47224 28.4546 2.47224 27.972V22.3554L27.1861 36.7981C28.2298 37.3591 29.3518 37.682 30.4771 37.682C31.5991 37.682 32.8026 37.3623 33.7681 36.7981L58.4819 22.3554L58.4787 27.972L58.638 27.9719ZM57.9955 20.3494L32.8026 35.0336C31.3577 35.8359 29.6747 35.8359 28.2298 35.0336L3.11477 20.3494C2.55373 20.0297 2.47224 19.4686 2.47224 19.2274C2.47224 18.9861 2.55373 18.425 3.11477 18.1053L28.2298 3.42115C28.9506 3.01996 29.753 2.77862 30.477 2.77862C31.1979 2.77862 32.0818 3.01996 32.7243 3.42115L57.8393 18.1053C58.4003 18.425 58.4818 18.9892 58.4818 19.2274C58.6385 19.4687 58.5565 20.0297 57.9955 20.3494Z" fill="#CC922F"/>
<path d="M59.0391 34.8735L58.1552 34.3908C57.6726 34.0711 57.0332 34.231 56.7103 34.792C56.3906 35.2747 56.5505 35.914 57.1115 36.2369L57.9954 36.7196C58.3966 36.9609 58.6379 37.3621 58.6379 37.8416C58.6379 38.0829 58.5564 38.644 57.9954 38.9636L32.8026 53.5692C31.3577 54.3716 29.6746 54.3716 28.2297 53.5692L3.11472 38.885C2.55368 38.5653 2.4722 38.0011 2.4722 37.763C2.4722 37.2803 2.71353 36.8791 3.11472 36.6409L3.8356 36.1583C4.1553 35.9984 4.39663 35.5972 4.39663 35.1961C4.39663 34.635 3.91396 34.1523 3.35291 34.1523C3.19306 34.1523 2.95172 34.2338 2.79188 34.3122L1.98951 34.7949C0.945783 35.3559 0.384766 36.4811 0.384766 37.6032V37.6847V46.5075C0.384766 47.7111 1.02729 48.7548 2.07103 49.3973L27.2638 64.0815C28.3076 64.6425 29.4296 64.9654 30.5549 64.9654C31.6769 64.9654 32.8804 64.6457 33.8459 64.0815L59.0387 49.3973C60.0824 48.7548 60.7249 47.7111 60.7249 46.5075V37.7633V37.6818C60.6435 36.4782 60.0829 35.4345 59.0391 34.8735ZM58.6379 46.5079C58.6379 46.9905 58.3966 47.3917 57.9954 47.6299L32.8026 62.3141C31.3577 63.1164 29.6746 63.1164 28.2297 62.3141L3.11473 47.6299C2.71355 47.3917 2.47221 46.9905 2.47221 46.5079V40.8913L27.186 55.3339C28.2297 55.895 29.3518 56.2178 30.477 56.2178C31.5991 56.2178 32.8026 55.8981 33.768 55.3339L58.6383 40.8913L58.6379 46.5079Z" fill="#CC922F"/>
<path d="M10.7376 18.1836C9.85366 18.1836 9.13281 18.6663 9.13281 19.3056C9.13281 19.9482 9.85369 20.4277 10.7376 20.4277C11.6214 20.4277 12.3423 19.945 12.3423 19.3056C12.3423 18.6663 11.6183 18.1836 10.7376 18.1836Z" fill="#CC922F"/>
<path d="M30.5559 18.1836C29.672 18.1836 28.9512 18.6663 28.9512 19.3056C28.9512 19.9482 29.6721 20.4277 30.5559 20.4277C31.4398 20.4277 32.1607 19.945 32.1607 19.3056C32.1607 18.6663 31.4398 18.1836 30.5559 18.1836Z" fill="#CC922F"/>
<path d="M30.5559 29.7402C29.672 29.7402 28.9512 30.2229 28.9512 30.8623C28.9512 31.5048 29.6721 31.9843 30.5559 31.9843C31.4398 31.9843 32.1607 31.5016 32.1607 30.8623C32.1607 30.2197 31.4398 29.7402 30.5559 29.7402Z" fill="#CC922F"/>
<path d="M30.5559 6.54883C29.672 6.54883 28.9512 7.0315 28.9512 7.67086C28.9512 8.31339 29.6721 8.7929 30.5559 8.7929C31.4398 8.7929 32.1607 8.31022 32.1607 7.67086C32.1607 7.0315 31.4398 6.54883 30.5559 6.54883Z" fill="#CC922F"/>
<path d="M20.6848 14.5722C21.5687 14.5722 22.2896 14.0895 22.2896 13.4502C22.2896 12.8076 21.5687 12.3281 20.6848 12.3281C19.8009 12.3281 19.0801 12.8108 19.0801 13.4502C19.0801 14.0927 19.8041 14.5722 20.6848 14.5722Z" fill="#CC922F"/>
<path d="M40.2649 23.8008C39.381 23.8008 38.6602 24.2835 38.6602 24.9228C38.6602 25.5653 39.381 26.0448 40.2649 26.0448C41.1488 26.0448 41.8696 25.5622 41.8696 24.9228C41.8696 24.2835 41.1456 23.8008 40.2649 23.8008Z" fill="#CC922F"/>
<path d="M20.845 23.8008C19.9611 23.8008 19.2402 24.2835 19.2402 24.9228C19.2402 25.5653 19.9611 26.0448 20.845 26.0448C21.7289 26.0448 22.4497 25.5622 22.4497 24.9228C22.4497 24.2835 21.7288 23.8008 20.845 23.8008Z" fill="#CC922F"/>
<path d="M40.4251 12.4082C39.5412 12.4082 38.8203 12.8909 38.8203 13.5302C38.8203 14.1728 39.5412 14.6523 40.4251 14.6523C41.3089 14.6523 42.0298 14.1696 42.0298 13.5302C42.0298 12.8908 41.3058 12.4082 40.4251 12.4082Z" fill="#CC922F"/>
<path d="M50.3723 18.1836C49.4884 18.1836 48.7676 18.6663 48.7676 19.3056C48.7676 19.9482 49.4885 20.4277 50.3723 20.4277C51.2562 20.4277 51.9771 19.945 51.9771 19.3056C51.9771 18.6663 51.2562 18.1836 50.3723 18.1836Z" fill="#CC922F"/>
</svg>
