<svg width="82" height="52" viewBox="0 0 82 52" fill="none" xmlns="http://www.w3.org/2000/svg">
<path d="M81.0683 28.768C81.0959 28.4733 81.067 28.176 80.9828 27.8922L73.359 3.40922C73.0731 2.48071 72.4964 1.66864 71.714 1.0928C70.9315 0.516952 69.9847 0.20781 69.0132 0.210963H12.1018C11.1303 0.20768 10.1834 0.516773 9.40092 1.09264C8.61842 1.6685 8.04175 2.48064 7.75598 3.40922L0.132062 27.8922C0.0712977 28.0954 0.0384556 28.3059 0.0344385 28.518C0.0292735 28.559 0.0262533 28.6002 0.0253906 28.6414L0.456602 45.3538C0.438856 45.4354 0.429758 45.5187 0.429459 45.6022C0.430832 45.7052 0.445738 45.8075 0.473793 45.9066L0.555583 48.0714C0.556661 48.9294 0.898019 49.752 1.50478 50.3587C2.11154 50.9654 2.93416 51.3066 3.7922 51.3076H77.8488C78.7069 51.3066 79.5295 50.9654 80.1363 50.3587C80.743 49.752 81.0844 48.9294 81.0854 48.0714V28.9386C81.0839 28.8814 81.0781 28.8244 81.0683 28.768ZM2.46591 30.9101H78.7076V44.4133H2.83433L2.46591 30.9101ZM10.0262 4.11593C10.1628 3.6725 10.4382 3.28469 10.8119 3.00973C11.1857 2.73476 11.6379 2.58718 12.1018 2.58878H69.0132C69.4772 2.58726 69.9295 2.73496 70.3032 3.01008C70.6769 3.2852 70.9523 3.67318 71.0887 4.11675L78.7134 28.5323H2.4232L10.0262 4.11593ZM77.8488 48.9298H3.79247C3.67629 48.9283 3.56157 48.9037 3.45507 48.8572C3.34858 48.8107 3.25245 48.7434 3.17235 48.6593C3.09226 48.5751 3.02982 48.4757 2.9887 48.3671C2.94759 48.2584 2.92863 48.1426 2.93295 48.0265L2.89893 46.7911H78.7076V48.0714C78.7088 48.1845 78.6874 48.2966 78.6447 48.4014C78.602 48.5061 78.5387 48.6012 78.4587 48.6812C78.3787 48.7611 78.2836 48.8243 78.1789 48.867C78.0741 48.9097 77.9619 48.931 77.8488 48.9298Z" fill="#CC922F"/>
<path d="M18.6953 7.60938C17.8475 7.60938 17.1602 7.99128 17.1602 8.4623C17.1602 8.93332 17.8478 9.31513 18.6953 9.31513C19.5428 9.31513 20.2305 8.93332 20.2305 8.4623C20.2305 7.99128 19.5433 7.60938 18.6953 7.60938Z" fill="#CC922F"/>
<path d="M32.9062 7.60938C32.0584 7.60938 31.3711 7.99128 31.3711 8.4623C31.3711 8.93332 32.0587 9.31513 32.9062 9.31513C33.7537 9.31513 34.4414 8.93332 34.4414 8.4623C34.4414 7.99128 33.7542 7.60938 32.9062 7.60938Z" fill="#CC922F"/>
<path d="M48.6602 8.4623C48.6602 7.99128 47.9725 7.60938 47.125 7.60938C46.2774 7.60938 45.5898 7.99128 45.5898 8.4623C45.5898 8.93332 46.2775 9.31513 47.125 9.31513C47.9725 9.31513 48.6602 8.93332 48.6602 8.4623Z" fill="#CC922F"/>
<path d="M61.3379 7.60938C60.49 7.60938 59.8027 7.99128 59.8027 8.4623C59.8027 8.93332 60.4904 9.31513 61.3379 9.31513C62.1853 9.31513 62.8731 8.93332 62.8731 8.4623C62.8731 7.99128 62.1857 7.60938 61.3379 7.60938Z" fill="#CC922F"/>
<path d="M14.7472 18.9336C13.7208 18.9336 12.8887 19.4504 12.8887 20.0876C12.8887 20.7249 13.7211 21.2417 14.7472 21.2417C15.7732 21.2417 16.6055 20.725 16.6055 20.0876C16.6055 19.4502 15.7735 18.9336 14.7472 18.9336Z" fill="#CC922F"/>
<path d="M31.9482 18.9336C30.9219 18.9336 30.0898 19.4504 30.0898 20.0876C30.0898 20.7249 30.9222 21.2417 31.9482 21.2417C32.9742 21.2417 33.8066 20.725 33.8066 20.0876C33.8066 19.4502 32.9746 18.9336 31.9482 18.9336Z" fill="#CC922F"/>
<path d="M49.1709 18.9336C48.1445 18.9336 47.3125 19.4504 47.3125 20.0876C47.3125 20.7249 48.1449 21.2417 49.1709 21.2417C50.1969 21.2417 51.0293 20.725 51.0293 20.0876C51.0293 19.4502 50.1973 18.9336 49.1709 18.9336Z" fill="#CC922F"/>
<path d="M66.374 18.9336C65.3476 18.9336 64.5156 19.4504 64.5156 20.0876C64.5156 20.7249 65.348 21.2417 66.374 21.2417C67.4 21.2417 68.2324 20.725 68.2324 20.0876C68.2324 19.4502 67.4007 18.9336 66.374 18.9336Z" fill="#CC922F"/>
<path d="M21.9892 32.7577C21.9793 32.654 21.9491 32.5533 21.9002 32.4613C21.8514 32.3693 21.7848 32.2879 21.7044 32.2216C21.624 32.1554 21.5314 32.1057 21.4317 32.0754C21.3321 32.045 21.2274 32.0346 21.1238 32.0448L15.6978 32.5688C14.5824 32.6764 14.1597 33.3165 14.1369 33.8313C14.1148 34.322 14.4492 34.9629 15.4091 35.1402L17.2416 35.6187L15.6978 35.8476C14.5824 35.9553 14.1597 36.5954 14.1369 37.1101C14.1148 37.6009 14.4492 38.2418 15.4632 38.4311L17.1255 38.7424L15.6974 38.9188C14.582 39.0273 14.1598 39.6665 14.1369 40.182C14.1153 40.665 14.4392 41.2935 15.4176 41.4939L17.0075 41.973L14.8606 42.1572C14.6569 42.1744 14.4677 42.2696 14.3326 42.423C14.1975 42.5764 14.1268 42.7761 14.1355 42.9804C14.1441 43.1846 14.2314 43.3776 14.379 43.5191C14.5266 43.6605 14.7232 43.7394 14.9276 43.7394C14.9505 43.7395 14.9733 43.7385 14.9961 43.7363L21.2677 43.1991C21.4514 43.1835 21.6239 43.1043 21.7555 42.9751C21.887 42.846 21.9695 42.675 21.9885 42.4916C22.0076 42.3083 21.9621 42.124 21.86 41.9706C21.7578 41.8171 21.6053 41.7041 21.4288 41.651L17.093 40.3437L21.2972 39.8242C21.5058 39.7985 21.6956 39.6911 21.8249 39.5255C21.9542 39.3598 22.0125 39.1497 21.9868 38.9411C21.9841 38.9188 21.9708 38.9012 21.9663 38.8796C21.9691 38.8676 21.9768 38.8581 21.9792 38.8459C21.9983 38.7436 21.9971 38.6385 21.9757 38.5366C21.9542 38.4348 21.9129 38.3381 21.8541 38.2522C21.7953 38.1663 21.7201 38.0929 21.6329 38.036C21.5457 37.9792 21.4481 37.94 21.3458 37.9209L17.4473 37.1898L21.3159 36.617C21.336 36.614 21.3515 36.6016 21.3711 36.5971C21.5126 36.567 21.6431 36.4985 21.7482 36.399C21.8533 36.2996 21.9289 36.1731 21.9668 36.0335V36.0323C21.9736 35.985 21.9763 35.9373 21.9748 35.8896C21.9839 35.8328 21.9869 35.7752 21.9839 35.7177C21.9822 35.7067 21.9748 35.6976 21.973 35.6868C21.9571 35.5957 21.9255 35.508 21.8795 35.4278C21.8568 35.3977 21.8318 35.3693 21.8048 35.3429C21.7671 35.2898 21.7229 35.2416 21.6732 35.1996L21.6679 35.197C21.5877 35.1366 21.4967 35.0922 21.3998 35.066L17.3265 34.004L21.2761 33.6223C21.4853 33.6022 21.6779 33.4998 21.8117 33.3377C21.9454 33.1755 22.0093 32.9669 21.9892 32.7577Z" fill="#CC922F"/>
<path d="M37.1235 32.7575C37.1032 32.5483 37.0007 32.3556 36.8384 32.2219C36.6761 32.0883 36.4674 32.0245 36.2581 32.0447L30.8329 32.5687C29.7171 32.6763 29.2948 33.3157 29.2712 33.8311C29.2496 34.3219 29.584 34.9628 30.5438 35.1401L32.3763 35.6186L30.8329 35.8475C29.7171 35.9552 29.2948 36.5945 29.2712 37.11C29.2496 37.6008 29.584 38.2417 30.598 38.431L32.2601 38.7423L30.8321 38.9186C29.7167 39.0272 29.294 39.6663 29.2712 40.1819C29.25 40.6648 29.5739 41.2934 30.5523 41.4938L32.1418 41.9729L29.9954 42.1571C29.7917 42.1742 29.6025 42.2695 29.4674 42.4229C29.3322 42.5763 29.2616 42.776 29.2702 42.9802C29.2789 43.1845 29.3661 43.3775 29.5137 43.519C29.6614 43.6604 29.8579 43.7393 30.0624 43.7392C30.0852 43.7394 30.1081 43.7383 30.1308 43.7362L36.4021 43.199C36.5858 43.1833 36.7583 43.1041 36.8899 42.975C37.0214 42.8458 37.1038 42.6748 37.1229 42.4915C37.1419 42.3081 37.0965 42.1239 36.9943 41.9704C36.8921 41.817 36.7396 41.704 36.5631 41.6508L32.2277 40.3435L36.4315 39.8241C36.6401 39.7984 36.8299 39.691 36.9592 39.5254C37.0886 39.3597 37.1468 39.1495 37.1212 38.941C37.1184 38.9187 37.1051 38.9011 37.1007 38.8795C37.1035 38.8674 37.1112 38.858 37.1135 38.8458C37.1326 38.7435 37.1314 38.6384 37.11 38.5365C37.0885 38.4346 37.0472 38.338 36.9884 38.2521C36.9296 38.1662 36.8544 38.0927 36.7672 38.0359C36.68 37.979 36.5825 37.9399 36.4801 37.9208L32.5817 37.1901L36.4503 36.6173C36.4704 36.6143 36.4859 36.6018 36.5055 36.5974C36.5678 36.5832 36.6281 36.5614 36.6852 36.5325C36.7865 36.4845 36.8763 36.415 36.9482 36.3289C37.02 36.2428 37.0723 36.142 37.1013 36.0337V36.0325C37.1081 35.9853 37.1108 35.9375 37.1093 35.8898C37.1184 35.833 37.1214 35.7754 37.1184 35.7179C37.1169 35.7083 37.1106 35.7004 37.1088 35.6907C37.0929 35.598 37.0606 35.5088 37.0135 35.4274C36.8851 35.2701 36.7206 35.1462 36.534 35.0662L32.4614 34.0038L36.4106 33.6221C36.6198 33.6019 36.8124 33.4995 36.946 33.3374C37.0797 33.1753 37.1436 32.9667 37.1235 32.7575Z" fill="#CC922F"/>
<path d="M52.245 32.7577C52.2352 32.654 52.205 32.5533 52.1561 32.4612C52.1073 32.3692 52.0408 32.2878 51.9604 32.2215C51.88 32.1553 51.7873 32.1056 51.6876 32.0753C51.588 32.045 51.4833 32.0346 51.3796 32.0448L45.9544 32.5689C44.8382 32.6765 44.4156 33.3159 44.3928 33.8313C44.3711 34.322 44.7055 34.963 45.6649 35.1402L47.4977 35.6188L45.9544 35.8477C44.8382 35.9553 44.4156 36.5946 44.3928 37.1102C44.3711 37.6009 44.7055 38.2419 45.7191 38.4311L47.3814 38.7425L45.9536 38.9188C44.8382 39.0274 44.4155 39.6665 44.3928 40.182C44.3714 40.665 44.6954 41.2935 45.6734 41.4939L47.2632 41.973L45.1165 42.1572C44.9128 42.1744 44.7236 42.2697 44.5885 42.4231C44.4533 42.5765 44.3827 42.7762 44.3913 42.9804C44.4 43.1847 44.4872 43.3777 44.6348 43.5191C44.7824 43.6606 44.979 43.7395 45.1834 43.7394C45.2063 43.7395 45.2292 43.7385 45.2519 43.7363L51.5236 43.1992C51.7073 43.1835 51.8798 43.1043 52.0113 42.9751C52.1429 42.846 52.2253 42.675 52.2443 42.4916C52.2634 42.3083 52.2179 42.124 52.1157 41.9706C52.0136 41.8171 51.8611 41.7041 51.6846 41.651L47.3488 40.3434L51.553 39.8239C51.7616 39.7982 51.9514 39.6908 52.0807 39.5252C52.21 39.3596 52.2683 39.1494 52.2427 38.9408C52.2399 38.9183 52.2267 38.9009 52.2223 38.8792C52.2251 38.8671 52.2327 38.8577 52.2349 38.8456C52.2541 38.7433 52.2529 38.6382 52.2315 38.5363C52.21 38.4344 52.1687 38.3378 52.1099 38.2519C52.0511 38.166 51.9759 38.0925 51.8887 38.0356C51.8015 37.9788 51.7039 37.9397 51.6016 37.9206L47.7031 37.1899L51.5718 36.6171C51.592 36.6141 51.6074 36.6016 51.627 36.5972C51.7907 36.5654 51.9383 36.4776 52.0444 36.3489C52.062 36.3287 52.0835 36.3127 52.0987 36.2912C52.1554 36.2136 52.1973 36.1262 52.2224 36.0335V36.0323C52.2285 35.9275 52.2341 35.8226 52.2394 35.7176C52.2377 35.7064 52.2303 35.6973 52.2282 35.6862C52.2125 35.5953 52.181 35.5079 52.1351 35.4279C52.1118 35.397 52.0861 35.3678 52.0583 35.3407C52.0211 35.2886 51.9777 35.2412 51.9289 35.1997L51.9173 35.1941C51.8386 35.1353 51.7496 35.0918 51.6549 35.0659L47.5819 34.0039L51.531 33.6223C51.6347 33.6124 51.7354 33.5823 51.8274 33.5335C51.9194 33.4847 52.0008 33.4182 52.0671 33.3379C52.1334 33.2576 52.1833 33.1651 52.2138 33.0655C52.2443 32.966 52.2549 32.8614 52.245 32.7577Z" fill="#CC922F"/>
<path d="M66.8253 41.6502L62.4894 40.3429L66.6936 39.8235C66.9022 39.7978 67.092 39.6904 67.2213 39.5247C67.3507 39.3591 67.4089 39.1489 67.3833 38.9404C67.3806 38.918 67.3674 38.9005 67.3628 38.8788C67.3656 38.8668 67.3733 38.8573 67.3756 38.8452C67.3948 38.7429 67.3936 38.6378 67.3721 38.5359C67.3507 38.434 67.3094 38.3374 67.2506 38.2515C67.1918 38.1656 67.1166 38.0921 67.0294 38.0353C66.9422 37.9784 66.8446 37.9393 66.7423 37.9201L62.8438 37.1895L66.7125 36.6167C66.7327 36.6137 66.7482 36.6012 66.7677 36.5967C66.9092 36.5666 67.0397 36.4981 67.1448 36.3986C67.2499 36.2992 67.3256 36.1727 67.3635 36.0331V36.0319C67.3696 35.927 67.3753 35.8221 67.3805 35.7172C67.3791 35.7075 67.3727 35.6997 67.3709 35.69C67.355 35.5973 67.3227 35.5081 67.2756 35.4267C67.2562 35.4016 67.2352 35.3778 67.2128 35.3553C67.1104 35.2149 66.9638 35.1129 66.7966 35.0658L62.7236 34.0038L66.6727 33.6222C66.7763 33.6121 66.8769 33.5818 66.9688 33.5329C67.0606 33.4841 67.1419 33.4176 67.2081 33.3372C67.2743 33.2569 67.324 33.1644 67.3544 33.0648C67.3848 32.9653 67.3952 32.8608 67.3852 32.7572C67.3752 32.6536 67.3449 32.553 67.296 32.4612C67.2471 32.3693 67.1806 32.288 67.1003 32.2218C67.02 32.1556 66.9274 32.1059 66.8279 32.0756C66.7284 32.0452 66.6239 32.0347 66.5203 32.0447L61.095 32.5687C59.9789 32.6763 59.5562 33.3164 59.5334 33.8312C59.5118 34.3219 59.8461 34.9628 60.8055 35.1401L62.6383 35.6186L61.095 35.8475C59.9789 35.9552 59.5562 36.5953 59.5334 37.11C59.5118 37.6008 59.8461 38.2417 60.8597 38.431L62.5221 38.7423L61.0943 38.9186C59.9789 39.0272 59.5562 39.6663 59.5334 40.1819C59.5118 40.6648 59.8357 41.2934 60.8141 41.4938L62.4039 41.9729L60.2571 42.1571C60.0534 42.1743 59.8642 42.2695 59.7291 42.4229C59.5939 42.5763 59.5233 42.776 59.532 42.9803C59.5406 43.1845 59.6278 43.3775 59.7755 43.519C59.9231 43.6604 60.1196 43.7393 60.3241 43.7392C60.3469 43.7394 60.3698 43.7383 60.3926 43.7362L66.6642 43.199C66.8479 43.1834 67.0204 43.1041 67.152 42.975C67.2835 42.8459 67.3659 42.6749 67.385 42.4915C67.4041 42.3082 67.3586 42.1239 67.2565 41.9705C67.1543 41.817 67.0018 41.7034 66.8253 41.6502Z" fill="#CC922F"/>
</svg>
