<svg width="79" height="65" viewBox="0 0 79 65" fill="none" xmlns="http://www.w3.org/2000/svg">
<path d="M0.881388 19.396L37.7713 39.0092C39.6742 40.0052 41.9583 39.9345 43.7966 38.8247L78.2886 18.105C78.5806 17.9421 78.7958 17.6654 78.8788 17.3395C78.9618 17.0167 78.9096 16.6724 78.7343 16.3866C78.5591 16.1007 78.2732 15.9009 77.9443 15.8302C77.6184 15.7594 77.2741 15.8271 76.9975 16.0146L42.5055 36.7343C41.4019 37.4076 40.0247 37.4537 38.878 36.8573L1.98805 17.2441C1.40396 16.9951 0.727619 17.2318 0.423292 17.7882C0.122027 18.3446 0.29418 19.0425 0.819862 19.396L0.881388 19.396Z" fill="#CC922F"/>
<path d="M0.326832 42.3908C0.179272 42.6829 0.151602 43.0241 0.256126 43.3376C0.360645 43.6481 0.585062 43.9064 0.880181 44.0508L37.7701 63.6641C39.673 64.6601 41.9571 64.5894 43.7954 63.4796L57.5676 55.1793C57.8043 55.1209 58.0195 54.9918 58.1825 54.8104L78.2876 42.7601C78.5796 42.5972 78.7948 42.3205 78.8778 41.9946C78.9608 41.6718 78.9085 41.3275 78.7333 41.0417C78.5581 40.7558 78.2722 40.5559 77.9433 40.4852C77.6174 40.4145 77.2731 40.4822 76.9965 40.6697L75.1519 41.7764L74.906 41.4075C74.5402 41.0078 74.5402 40.393 74.906 39.9933C75.8897 38.7267 75.8897 36.956 74.906 35.6895C74.5402 35.2898 74.5402 34.675 74.906 34.2753C75.9143 33.018 75.9143 31.2288 74.906 29.9715C74.5402 29.5718 74.5402 28.957 74.906 28.5573C75.3917 27.9456 75.653 27.1862 75.6438 26.4054C75.6499 26.2609 75.6284 26.1134 75.5823 25.975L78.2261 24.3765C78.5181 24.2136 78.7333 23.9369 78.8163 23.611C78.8993 23.2882 78.8471 22.9439 78.6719 22.6581C78.4966 22.3722 78.2107 22.1723 77.8818 22.1016C77.5559 22.0309 77.2116 22.0986 76.935 22.2861L42.5044 42.8831C41.4008 43.5563 40.0236 43.6024 38.8769 43.006L1.98695 23.3928C1.3752 23.0884 0.631214 23.3344 0.326887 23.9461C0.0225605 24.5579 0.268478 25.3019 0.880232 25.6062L7.02855 28.8648C6.94555 29.0369 6.90251 29.2275 6.90558 29.4181C6.91788 29.6671 6.82873 29.9131 6.65965 30.0945C5.68513 31.3395 5.68513 33.0918 6.65965 34.3368C7.01933 34.7149 7.01933 35.3113 6.65965 35.6894C5.68513 36.9345 5.68513 38.6868 6.65965 39.9318C7.01933 40.3099 7.01933 40.9063 6.65965 41.2844C6.14627 41.8839 5.86346 42.6463 5.86039 43.4364C5.86961 43.6024 5.89113 43.7653 5.92187 43.9282L1.98695 41.8378C1.69491 41.6903 1.35367 41.6626 1.04013 41.7671C0.729639 41.8717 0.471314 42.0957 0.326832 42.3908ZM17.173 48.7851C16.8072 48.3854 16.8072 47.7706 17.173 47.3709C18.1568 46.1044 18.1568 44.3337 17.173 43.0671C16.8072 42.6674 16.8072 42.0526 17.173 41.6529C18.1813 40.3956 18.1813 38.6064 17.173 37.3491C16.8072 36.9494 16.8072 36.3346 17.173 35.935C17.4559 35.5691 17.6618 35.151 17.7879 34.7053L24.1821 38.0869C24.0684 38.2713 24.0038 38.4834 23.9977 38.7017C24.01 38.9507 23.9208 39.1967 23.7517 39.378C22.7557 40.6169 22.7557 42.3815 23.7517 43.6204C24.1114 43.9985 24.1114 44.5949 23.7517 44.973C22.7557 46.2119 22.7557 47.9765 23.7517 49.2153C24.1114 49.5935 24.1114 50.1899 23.7517 50.568C23.2722 51.1583 23.0139 51.8991 23.0139 52.6584C23.0231 52.8244 23.0447 52.9873 23.0754 53.1503L17.8494 50.3835C17.7602 49.8025 17.5296 49.2523 17.173 48.7851ZM32.4209 47.9243C32.6115 48.1087 32.7221 48.3639 32.7221 48.6313C32.7221 48.8988 32.6115 49.1539 32.4209 49.3384C31.4463 50.5834 31.4463 52.3357 32.4209 53.5807C32.7867 53.9803 32.7867 54.5952 32.4209 54.9948C31.929 55.6035 31.6677 56.3659 31.6831 57.1468C31.6892 57.3312 31.7107 57.5187 31.7445 57.7001L26.5185 54.9334C26.4355 54.3493 26.2019 53.799 25.8422 53.3349C25.4825 52.9567 25.4825 52.3603 25.8422 51.9822C26.8167 50.7372 26.8167 48.9849 25.8422 47.7399C25.4825 47.3618 25.4825 46.7654 25.8422 46.3872C26.8382 45.1483 26.8382 43.3838 25.8422 42.1449C25.4825 41.7668 25.4825 41.1704 25.8422 40.7922C26.1896 40.3434 26.4232 39.8146 26.5185 39.2552L32.7898 42.5753C32.7437 42.7136 32.7222 42.8612 32.7283 43.0057C32.7191 43.2639 32.6084 43.5068 32.4209 43.682C31.4464 44.927 31.4463 46.6793 32.4209 47.9243ZM49.1443 56.1632C48.7785 55.7636 48.7785 55.1487 49.1443 54.7491C50.128 53.4825 50.128 51.7118 49.1443 50.4452C48.7785 50.0456 48.7785 49.4307 49.1443 49.0311C50.1526 47.7737 50.1526 45.9846 49.1443 44.7272C48.7785 44.3276 48.7785 43.7127 49.1443 43.3131C49.5808 42.769 49.839 42.1018 49.8821 41.4071L55.4155 38.087C55.1573 38.5788 55.0313 39.1291 55.0466 39.6855C55.0374 40.4663 55.2987 41.2256 55.7844 41.8374C56.1503 42.2371 56.1503 42.8519 55.7844 43.2515C54.7761 44.5089 54.7761 46.298 55.7844 47.5554C56.1503 47.955 56.1503 48.5699 55.7844 48.9695C54.8007 50.2361 54.8007 52.0068 55.7844 53.2734H55.8459L49.6976 56.9624C49.547 56.6734 49.3595 56.4061 49.1443 56.1632ZM64.3921 36.2431C64.7579 36.6427 64.7579 37.2576 64.3921 37.6572C63.3838 38.9146 63.3838 40.7037 64.3921 41.9611C64.7579 42.3607 64.7579 42.9756 64.3921 43.3752C63.4084 44.6418 63.4084 46.4125 64.3921 47.679L64.638 48.0479L57.9364 52.1058L57.7519 51.8599C57.3861 51.4602 57.3861 50.8454 57.7519 50.4457C58.7357 49.1792 58.7357 47.4084 57.7519 46.1419C57.3861 45.7422 57.3861 45.1274 57.7519 44.7277C58.7602 43.4704 58.7602 41.6812 57.7519 40.4239C57.3861 40.0242 57.3861 39.4094 57.7519 39.0097C58.2377 38.398 58.499 37.6387 58.4897 36.8578C58.4928 36.6672 58.4498 36.4766 58.3668 36.3045L63.7773 33.0459C63.4053 34.1557 63.6144 35.3791 64.3306 36.3045L64.3921 36.2431ZM73.0002 31.3244C73.366 31.724 73.366 32.3389 73.0002 32.7385C71.9919 33.9959 71.9919 35.785 73.0002 37.0424C73.366 37.442 73.366 38.0569 73.0002 38.4565C72.0164 39.7231 72.0164 41.4938 73.0002 42.7604L73.1231 42.9448L66.7289 46.7568L66.36 46.2035C65.9941 45.8039 65.9941 45.189 66.36 44.7894C67.3437 43.5228 67.3437 41.7521 66.36 40.4855C65.9941 40.0859 65.9941 39.471 66.36 39.0714C67.3683 37.814 67.3683 36.0249 66.36 34.7675C65.9941 34.3679 65.9941 33.753 66.36 33.3534C66.8457 32.7416 67.107 31.9823 67.0978 31.2014C67.107 31.1184 67.107 31.0385 67.0978 30.9555L72.5697 27.6969C72.3638 28.1396 72.2562 28.6223 72.2623 29.1111C72.2377 29.9134 72.4991 30.6973 73.0002 31.3244ZM40.6598 45.8962C41.7634 45.8962 42.8455 45.598 43.7955 45.0354L46.4393 43.4369C46.4054 43.6183 46.3839 43.8058 46.3778 43.9902C46.3685 44.7711 46.6299 45.5304 47.1156 46.1422C47.4814 46.5418 47.4814 47.1567 47.1156 47.5563C46.1073 48.8137 46.1073 50.6028 47.1156 51.8602C47.4814 52.2598 47.4814 52.8747 47.1156 53.2743C46.1318 54.5409 46.1318 56.3116 47.1156 57.5782C47.3185 57.7688 47.4291 58.0362 47.423 58.316V58.4389L42.5043 61.3901C41.4007 62.0634 40.0235 62.1095 38.8768 61.5131L35.1263 59.4227C35.0526 58.8202 34.8189 58.2453 34.45 57.7626C34.0842 57.363 34.0842 56.7481 34.45 56.3485C35.4245 55.1035 35.4245 53.3512 34.45 52.1062C34.0842 51.7065 34.0842 51.0917 34.45 50.692C35.4245 49.447 35.4245 47.6947 34.45 46.4497C34.2594 46.2653 34.1488 46.0101 34.1488 45.7427C34.1488 45.4752 34.2594 45.22 34.45 45.0356C34.7697 44.639 35.0003 44.1779 35.1263 43.6829L37.8316 45.0971C38.6955 45.5889 39.6668 45.8624 40.6598 45.8962ZM8.56577 44.1132C8.2061 43.7351 8.2061 43.1387 8.56577 42.7605C9.5403 41.5155 9.5403 39.7632 8.56577 38.5182C8.2061 38.1401 8.2061 37.5437 8.56577 37.1656C9.5403 35.9205 9.5403 34.1682 8.56577 32.9232C8.2061 32.5451 8.2061 31.9487 8.56577 31.5706C8.907 31.1402 9.13757 30.633 9.24209 30.095L15.5134 33.4151C15.4796 33.5135 15.4581 33.618 15.4519 33.7225C15.4581 34.0023 15.3474 34.2697 15.1445 34.4603C14.1362 35.7177 14.1362 37.5068 15.1445 38.7642C15.5103 39.1638 15.5103 39.7787 15.1445 40.1783C14.1362 41.4357 14.1362 43.2248 15.1445 44.4822C15.5103 44.8818 15.5103 45.4967 15.1445 45.8963C14.6588 46.5081 14.3975 47.2674 14.4067 48.0482C14.3975 48.1927 14.3975 48.3341 14.4067 48.4786L9.24214 45.7119C9.15913 45.1278 8.92546 44.5774 8.56577 44.1132Z" fill="#CC922F"/>
<path d="M40.782 29.417C40.2286 29.4047 39.7337 29.7643 39.5738 30.2962C39.417 30.828 39.6353 31.3998 40.1056 31.6918L40.7204 31.8148H40.7819C41.0002 31.8117 41.2123 31.7471 41.3968 31.6303C41.8579 31.3444 42.0792 30.788 41.9378 30.2623C41.7964 29.7397 41.3261 29.3708 40.7819 29.3555L40.782 29.417Z" fill="#CC922F"/>
<path d="M72.7542 13.3697L73.369 13.1853C73.8917 12.8594 74.0945 12.1985 73.8425 11.6358C73.5873 11.0733 72.9571 10.7843 72.3669 10.9626C71.7766 11.1409 71.4077 11.7281 71.5061 12.3368C71.6044 12.9454 72.1394 13.3851 72.7542 13.3697Z" fill="#CC922F"/>
<path d="M65.7435 14.7847C65.2824 15.0706 65.061 15.627 65.2025 16.1527C65.3439 16.6753 65.8142 17.0442 66.3584 17.0595L66.9732 16.8751C67.5665 16.5369 67.7725 15.7776 67.4343 15.1843C67.0962 14.591 66.3369 14.3851 65.7436 14.7232L65.7435 14.7847Z" fill="#CC922F"/>
<path d="M59.3509 18.4741C58.8898 18.76 58.6685 19.3164 58.8099 19.8422C58.9513 20.3648 59.4216 20.7336 59.9658 20.749C60.1841 20.7459 60.3962 20.6814 60.5806 20.5645C61.174 20.2264 61.3799 19.4671 61.0418 18.8738C60.7036 18.2805 59.9443 18.0745 59.351 18.4127L59.3509 18.4741Z" fill="#CC922F"/>
<path d="M46.5619 25.8511C46.1007 26.137 45.8794 26.6934 46.0208 27.2191C46.1622 27.7417 46.6326 28.1106 47.1767 28.1259L47.7916 27.9415C48.3849 27.6033 48.5908 26.844 48.2527 26.2507C47.9145 25.6574 47.1553 25.4515 46.5619 25.7896L46.5619 25.8511Z" fill="#CC922F"/>
<path d="M52.9564 22.1636C52.4953 22.4495 52.2739 23.0059 52.4154 23.5316C52.5568 24.0542 53.0271 24.4231 53.5713 24.4384L54.1861 24.254C54.7794 23.9158 54.9854 23.1565 54.6472 22.5632C54.3091 21.9699 53.5498 21.764 52.9565 22.1021L52.9564 22.1636Z" fill="#CC922F"/>
<path d="M53.5081 17.6744L54.123 17.4899C54.6456 17.1641 54.8485 16.5031 54.5964 15.9405C54.3412 15.378 53.711 15.089 53.1208 15.2673C52.5305 15.4456 52.1616 16.0328 52.26 16.6414C52.3583 17.2501 52.8933 17.6897 53.5081 17.6744Z" fill="#CC922F"/>
<path d="M59.9026 13.9855L60.5174 13.801C60.9508 13.552 61.1937 13.0663 61.1261 12.5713C61.0615 12.0733 60.7018 11.6676 60.2162 11.5415C59.7335 11.4154 59.2202 11.5968 58.922 11.9995C58.6238 12.3992 58.5992 12.9433 58.8574 13.3706C59.0726 13.7457 59.4691 13.9793 59.9026 13.9855Z" fill="#CC922F"/>
<path d="M47.053 21.3014L47.6679 21.1169C48.1905 20.791 48.3934 20.1301 48.1413 19.5675C47.8861 19.0049 47.2559 18.716 46.6657 18.8942C46.0755 19.0725 45.7065 19.6597 45.8049 20.2684C45.9033 20.8771 46.4382 21.3167 47.053 21.3014Z" fill="#CC922F"/>
<path d="M66.2972 10.358L66.912 10.1735C67.4346 9.84768 67.6375 9.18674 67.3854 8.62413C67.1303 8.06156 66.5001 7.77261 65.9098 7.95089C65.3196 8.12919 64.9507 8.71635 65.049 9.32504C65.1474 9.93373 65.6824 10.3733 66.2972 10.358Z" fill="#CC922F"/>
<path d="M60.2119 7.40698C60.7714 7.4162 61.2633 7.0473 61.417 6.50934C61.5676 5.97137 61.337 5.39954 60.8544 5.11677C60.3748 4.83395 59.7631 4.9108 59.3665 5.3043C58.9699 5.69779 58.8869 6.30951 59.1667 6.79217C59.3819 7.16721 59.7785 7.40083 60.2119 7.40698Z" fill="#CC922F"/>
<path d="M47.6058 14.9693C47.824 14.9663 48.0362 14.9017 48.2206 14.7849C48.7432 14.459 48.9461 13.7981 48.694 13.2355C48.4389 12.6729 47.8087 12.3839 47.2184 12.5622C46.6282 12.7405 46.2593 13.3277 46.3576 13.9364C46.456 14.5451 46.991 14.9847 47.6058 14.9693Z" fill="#CC922F"/>
<path d="M53.9398 11.1568C54.158 11.1507 54.3701 11.0861 54.5546 10.9724C55.0772 10.6465 55.2801 9.98557 55.028 9.42296C54.7729 8.86039 54.1427 8.57144 53.5524 8.74971C52.9622 8.92801 52.5932 9.51518 52.6916 10.1239C52.79 10.7326 53.325 11.1722 53.9398 11.1568Z" fill="#CC922F"/>
<path d="M48.1611 8.75854C48.7206 8.76776 49.2125 8.39886 49.3662 7.86091C49.5168 7.32293 49.2862 6.7511 48.8036 6.46834C48.324 6.18551 47.7123 6.26237 47.3157 6.65586C46.9192 7.04935 46.8362 7.66107 47.1159 8.14373C47.3311 8.51878 47.7277 8.75239 48.1611 8.75854Z" fill="#CC922F"/>
<path d="M41.8269 10.1726C41.2735 10.1603 40.7786 10.52 40.6187 11.0518C40.4619 11.5837 40.6802 12.1554 41.1505 12.4475C41.335 12.5612 41.5471 12.6258 41.7654 12.6319H41.8883C42.1066 12.6258 42.3187 12.5612 42.5032 12.4475C43.0719 12.1032 43.2625 11.3654 42.9335 10.7874C42.7061 10.3939 42.2818 10.1572 41.8269 10.1726Z" fill="#CC922F"/>
<path d="M54.4306 4.88591C54.818 4.89513 55.1899 4.72298 55.4297 4.41556C55.6695 4.11122 55.7525 3.71158 55.651 3.33653C55.5496 2.96148 55.276 2.65714 54.9132 2.51263C54.5536 2.37122 54.1447 2.40811 53.8158 2.61101C53.3547 2.8969 53.1333 3.45332 53.2747 3.97902C53.4161 4.50163 53.8864 4.87057 54.4306 4.88591Z" fill="#CC922F"/>
<path d="M48.3463 2.61094L48.8382 2.48797C49.4038 2.2113 49.6713 1.55343 49.4561 0.963189C49.2409 0.369873 48.6138 0.0378524 48.002 0.188497C47.3902 0.342203 46.9937 0.932441 47.0828 1.55651C47.1719 2.17749 47.7161 2.63557 48.3463 2.61094Z" fill="#CC922F"/>
<path d="M41.0275 5.50118L41.5194 5.62415H41.6424L42.1342 5.50118C42.6784 5.24295 42.9735 4.64038 42.8413 4.05014C42.7091 3.46298 42.1834 3.04492 41.5809 3.04492C40.9783 3.04492 40.4526 3.46301 40.3204 4.05014C40.1882 4.64038 40.4834 5.24289 41.0275 5.50118Z" fill="#CC922F"/>
<path d="M34.3269 2.48795L34.8187 2.61091C35.4489 2.63551 35.9931 2.17746 36.0822 1.55651C36.1714 0.932455 35.7748 0.342192 35.163 0.188494C34.5513 0.0378575 33.9242 0.369871 33.7089 0.963187C33.4937 1.55343 33.7612 2.21124 34.3269 2.48795Z" fill="#CC922F"/>
<path d="M34.4496 6.9156C34.2036 7.3429 34.2405 7.87477 34.5357 8.26826C34.8339 8.66176 35.338 8.84006 35.8145 8.72017C36.2941 8.60028 36.6537 8.20679 36.7306 7.72109C36.8075 7.2323 36.5892 6.74657 36.1711 6.48529C35.8883 6.30699 35.544 6.25165 35.2182 6.33465C34.8923 6.41458 34.6156 6.62355 34.4496 6.9156Z" fill="#CC922F"/>
<path d="M28.5486 4.70139C28.8314 4.87969 29.1757 4.93503 29.5016 4.85203C29.8274 4.7721 30.1041 4.56305 30.2701 4.27101C30.5283 3.8437 30.5037 3.29956 30.2056 2.89993C29.9074 2.49721 29.394 2.31583 28.9114 2.44188C28.4256 2.56792 28.066 2.97371 28.0014 3.47173C27.9338 3.96667 28.1767 4.45239 28.6101 4.70139H28.5486Z" fill="#CC922F"/>
<path d="M21.3547 7.65203L21.9696 7.83648C22.5844 7.85185 23.1193 7.41225 23.2177 6.80357C23.316 6.19488 22.9471 5.60774 22.3569 5.42941C21.7666 5.25111 21.1364 5.54008 20.8813 6.10265C20.6292 6.66522 20.8321 7.32614 21.3547 7.65203Z" fill="#CC922F"/>
<path d="M27.7493 11.2809L28.3641 11.4654C28.9789 11.4808 29.5138 11.0412 29.6122 10.4325C29.7106 9.82379 29.3417 9.23665 28.7514 9.05832C28.1611 8.88002 27.5309 9.16898 27.2758 9.73156C27.0237 10.2941 27.2267 10.955 27.7493 11.2809Z" fill="#CC922F"/>
<path d="M40.5362 18.5949L41.151 18.7793H41.274C41.4922 18.7762 41.7044 18.7117 41.8888 18.5949C42.3807 18.2936 42.6112 17.7003 42.4544 17.1438C42.2977 16.5873 41.7904 16.2031 41.2125 16.2031C40.6346 16.2031 40.1273 16.5874 39.9706 17.1438C39.8138 17.7002 40.0443 18.2935 40.5362 18.5949Z" fill="#CC922F"/>
<path d="M34.1438 14.9684L34.7586 15.1529C35.3735 15.1683 35.9083 14.7287 36.0067 14.12C36.1051 13.5113 35.7362 12.9241 35.1459 12.7458C34.5557 12.5675 33.9255 12.8565 33.6703 13.4191C33.4182 13.9816 33.6212 14.6425 34.1438 14.9684Z" fill="#CC922F"/>
<path d="M13.8534 11.0948L14.4067 11.2178C15.0308 11.2086 15.5503 10.7352 15.6118 10.1142C15.6763 9.49324 15.2644 8.92453 14.6557 8.78925C14.047 8.65399 13.4322 8.99522 13.2293 9.58544C13.0234 10.1726 13.2908 10.8212 13.8534 11.0948Z" fill="#CC922F"/>
<path d="M20.371 14.5382L20.9243 14.6612C21.5484 14.6519 22.0679 14.1785 22.1293 13.5576C22.1939 12.9366 21.782 12.3679 21.1733 12.2326C20.5646 12.0973 19.9498 12.4386 19.7469 13.0288C19.5409 13.616 19.8084 14.2646 20.371 14.5382Z" fill="#CC922F"/>
<path d="M39.9838 24.8064L40.5371 24.9294H40.6601L41.2749 24.7449C41.8436 24.4006 42.0342 23.6628 41.7053 23.0849C41.4686 22.6729 41.0259 22.4208 40.5494 22.4362C40.0729 22.4485 39.6425 22.7221 39.4303 23.1463C39.2828 23.4384 39.2551 23.7796 39.3596 24.0932C39.4642 24.4037 39.6886 24.6619 39.9838 24.8064Z" fill="#CC922F"/>
<path d="M26.8885 17.921L27.4419 18.044C28.0659 18.0348 28.5855 17.5613 28.6469 16.9404C28.7115 16.3194 28.2995 15.7507 27.6909 15.6154C27.0822 15.4802 26.4674 15.8214 26.2645 16.4116C26.0585 16.9988 26.326 17.6474 26.8885 17.921Z" fill="#CC922F"/>
<path d="M33.4666 21.3628L34.02 21.4858C34.4872 21.4889 34.9176 21.2276 35.1266 20.8095C35.3449 20.3637 35.2773 19.8319 34.9483 19.4568C34.6225 19.0848 34.106 18.9434 33.6356 19.1002C33.1653 19.257 32.8333 19.6812 32.7964 20.1762C32.7595 20.6711 33.0239 21.1385 33.4666 21.3628Z" fill="#CC922F"/>
<path d="M7.64245 14.1691L8.19579 14.292C8.81985 14.2828 9.33936 13.8094 9.40082 13.1884C9.46538 12.5675 9.05344 11.9987 8.44479 11.8635C7.83611 11.7282 7.22127 12.0694 7.01838 12.6597C6.81242 13.2468 7.07988 13.8954 7.64245 14.1691Z" fill="#CC922F"/>
<path d="M15.2674 15.5226C14.6833 15.2736 14.0069 15.5103 13.7026 16.0667C13.4013 16.6231 13.5735 17.321 14.0992 17.6745L14.714 17.7975C15.3042 17.8374 15.8391 17.4532 15.9867 16.8844C16.1373 16.3126 15.8607 15.7162 15.3288 15.4611L15.2674 15.5226Z" fill="#CC922F"/>
<path d="M28.302 22.5305C28.0161 22.3368 27.6595 22.2753 27.3244 22.3583C26.9863 22.4413 26.7004 22.6596 26.5375 22.9639C26.3714 23.2683 26.3407 23.628 26.4544 23.9569C26.5682 24.2827 26.8141 24.5471 27.1338 24.6824L27.7487 24.8053C28.3266 24.8146 28.8308 24.4211 28.963 23.8585C29.0952 23.299 28.8216 22.7211 28.302 22.469L28.302 22.5305Z" fill="#CC922F"/>
<path d="M34.7556 26.0362C34.1715 25.7872 33.4952 26.0239 33.1909 26.5804C32.8896 27.1368 33.0618 27.8347 33.5874 28.1882L34.2023 28.3111C34.7802 28.3204 35.2844 27.9269 35.4166 27.3643C35.5488 26.8048 35.2752 26.2269 34.7556 25.9748L34.7556 26.0362Z" fill="#CC922F"/>
<path d="M21.7849 19.0265C21.2008 18.7775 20.5245 19.0142 20.2202 19.5706C19.9189 20.127 20.0911 20.8249 20.6167 21.1784L21.2316 21.3014C21.8095 21.3106 22.3137 20.9171 22.4459 20.3546C22.5781 19.7951 22.3045 19.2171 21.7849 18.9651L21.7849 19.0265Z" fill="#CC922F"/>
</svg>
