<svg width="16" height="18" viewBox="0 0 16 18" fill="none" xmlns="http://www.w3.org/2000/svg">
<path d="M14.3504 7.44181C14.3504 12.4118 7.96036 16.6719 7.96036 16.6719C7.96036 16.6719 1.57031 12.4118 1.57031 7.44181C1.57031 5.74706 2.24355 4.12173 3.44191 2.92336C4.64028 1.72499 6.26561 1.05176 7.96036 1.05176C9.65511 1.05176 11.2804 1.72499 12.4788 2.92336C13.6772 4.12173 14.3504 5.74706 14.3504 7.44181Z" stroke="#5D5D5D" stroke-width="1.42001" stroke-linecap="round" stroke-linejoin="round"/>
<path d="M7.96009 9.57204C9.13647 9.57204 10.0901 8.6184 10.0901 7.44203C10.0901 6.26565 9.13647 5.31201 7.96009 5.31201C6.78372 5.31201 5.83008 6.26565 5.83008 7.44203C5.83008 8.6184 6.78372 9.57204 7.96009 9.57204Z" stroke="#5D5D5D" stroke-width="1.42001" stroke-linecap="round" stroke-linejoin="round"/>
</svg>
