<svg width="19" height="19" viewBox="0 0 19 19" fill="none" xmlns="http://www.w3.org/2000/svg">
<path d="M18.157 13.331V15.833C18.1579 16.0653 18.1104 16.2952 18.0173 16.508C17.9242 16.7209 17.7878 16.9119 17.6166 17.0689C17.4455 17.2259 17.2434 17.3455 17.0234 17.4199C16.8033 17.4943 16.5702 17.5219 16.3389 17.501C13.7725 17.2222 11.3074 16.3452 9.14146 14.9407C7.12637 13.6602 5.41793 11.9518 4.13746 9.93667C2.72798 7.76093 1.85084 5.28378 1.57708 2.70589C1.55624 2.47527 1.58365 2.24283 1.65756 2.02337C1.73148 1.80391 1.85028 1.60225 2.0064 1.43123C2.16252 1.2602 2.35254 1.12356 2.56436 1.02999C2.77619 0.936427 3.00517 0.887994 3.23674 0.887776H5.73874C6.14348 0.883793 6.53587 1.02712 6.84275 1.29104C7.14964 1.55496 7.35009 1.92147 7.40674 2.32225C7.51234 3.12295 7.70819 3.90913 7.99054 4.66579C8.10275 4.9643 8.12703 5.28872 8.06051 5.60061C7.994 5.91249 7.83947 6.19878 7.61524 6.42553L6.55606 7.48471C7.7433 9.57267 9.4721 11.3015 11.5601 12.4887L12.6192 11.4295C12.846 11.2053 13.1323 11.0508 13.4442 10.9842C13.756 10.9177 14.0805 10.942 14.379 11.0542C15.1356 11.3366 15.9218 11.5324 16.7225 11.638C17.1276 11.6952 17.4976 11.8992 17.7621 12.2114C18.0266 12.5236 18.1671 12.922 18.157 13.331Z" stroke="#5D5D5D" stroke-width="1.668" stroke-linecap="round" stroke-linejoin="round"/>
</svg>
