<svg width="25" height="25" viewBox="0 0 25 25" fill="none" xmlns="http://www.w3.org/2000/svg">
<path d="M17.1484 2.62891H7.14844C4.38701 2.62891 2.14844 4.86748 2.14844 7.62891V17.6289C2.14844 20.3903 4.38701 22.6289 7.14844 22.6289H17.1484C19.9099 22.6289 22.1484 20.3903 22.1484 17.6289V7.62891C22.1484 4.86748 19.9099 2.62891 17.1484 2.62891Z" stroke="#172A55" stroke-linecap="round" stroke-linejoin="round"/>
<path d="M16.1521 11.9953C16.2755 12.8275 16.1333 13.6775 15.7458 14.4243C15.3583 15.1711 14.7452 15.7767 13.9937 16.155C13.2422 16.5332 12.3905 16.6649 11.5598 16.5312C10.7292 16.3976 9.96181 16.0054 9.36689 15.4105C8.77197 14.8155 8.37978 14.0482 8.24612 13.2175C8.11245 12.3869 8.24412 11.5352 8.62238 10.7837C9.00064 10.0322 9.60624 9.41904 10.353 9.03154C11.0998 8.64404 11.9498 8.50189 12.7821 8.6253C13.631 8.75119 14.4169 9.14676 15.0237 9.75361C15.6306 10.3605 16.0262 11.1464 16.1521 11.9953Z" stroke="#172A55" stroke-linecap="round" stroke-linejoin="round"/>
<path d="M17.6484 7.12891H17.6584" stroke="#172A55" stroke-linecap="round" stroke-linejoin="round"/>
</svg>
