<svg width="25" height="25" viewBox="0 0 25 25" fill="none" xmlns="http://www.w3.org/2000/svg">
<path d="M16.1484 8.62891C17.7397 8.62891 19.2659 9.26105 20.3911 10.3863C21.5163 11.5115 22.1484 13.0376 22.1484 14.6289V21.6289H18.1484V14.6289C18.1484 14.0985 17.9377 13.5898 17.5627 13.2147C17.1876 12.8396 16.6789 12.6289 16.1484 12.6289C15.618 12.6289 15.1093 12.8396 14.7342 13.2147C14.3592 13.5898 14.1484 14.0985 14.1484 14.6289V21.6289H10.1484V14.6289C10.1484 13.0376 10.7806 11.5115 11.9058 10.3863C13.031 9.26105 14.5571 8.62891 16.1484 8.62891Z" stroke="#172A55" stroke-linecap="round" stroke-linejoin="round"/>
<path d="M6.14844 9.62891H2.14844V21.6289H6.14844V9.62891Z" stroke="#172A55" stroke-linecap="round" stroke-linejoin="round"/>
<path d="M4.14844 6.62891C5.25301 6.62891 6.14844 5.73348 6.14844 4.62891C6.14844 3.52434 5.25301 2.62891 4.14844 2.62891C3.04387 2.62891 2.14844 3.52434 2.14844 4.62891C2.14844 5.73348 3.04387 6.62891 4.14844 6.62891Z" stroke="#172A55" stroke-linecap="round" stroke-linejoin="round"/>
</svg>
