<svg width="38" height="33" viewBox="0 0 38 33" fill="none" xmlns="http://www.w3.org/2000/svg">
<path d="M37.4351 23.1619L34.8661 10.2663C34.8015 9.94251 34.6144 9.66238 34.3384 9.47823C34.0628 9.29408 33.7324 9.22817 33.4082 9.29285L30.1022 9.95157C29.432 10.085 28.9953 10.7392 29.1287 11.4091L29.1605 11.5681C27.1789 12.2256 24.771 12.4147 21.7748 9.94251C20.41 8.81662 18.6316 8.77954 17.3491 9.85023L16.0115 10.9671H8.72678C8.64521 10.4723 8.26744 10.0546 7.74713 9.95116L4.44114 9.29243C4.11693 9.22776 3.78695 9.29367 3.51093 9.47782C3.23533 9.66196 3.04789 9.94168 2.98321 10.2659L0.41463 23.1619C0.281155 23.8322 0.717834 24.486 1.3881 24.6195L4.69409 25.2782C4.77524 25.2942 4.85681 25.3025 4.93797 25.3025C5.1802 25.3025 5.41749 25.2308 5.62429 25.0928C5.8999 24.9087 6.08734 24.6289 6.15202 24.3047L6.16767 24.2264L14.0089 32.0677C14.474 32.5328 15.0945 32.7891 15.7557 32.7891C16.4169 32.7891 17.0373 32.5328 17.5024 32.0677C17.834 31.7361 18.0593 31.3258 18.1615 30.878L19.2516 31.968C20.2147 32.9312 21.7822 32.9312 22.7454 31.968C23.0845 31.6286 23.3044 31.2145 23.4045 30.7783C23.8668 31.2281 24.4769 31.4753 25.127 31.4753C25.7882 31.4753 26.4086 31.2191 26.8737 30.754C27.4092 30.2184 27.6469 29.4967 27.5868 28.7955C27.6568 28.8013 27.7268 28.8042 27.7981 28.8042C28.4593 28.8042 29.0797 28.5479 29.5448 28.0828C30.1966 27.4311 30.4194 26.4576 30.1508 25.5929L31.6557 24.088L31.699 24.3055C31.7637 24.6293 31.9511 24.9095 32.2267 25.0936C32.4335 25.2316 32.6708 25.3033 32.913 25.3033C32.9942 25.3033 33.0758 25.2955 33.1565 25.279L36.4625 24.6203C37.1323 24.486 37.569 23.8322 37.4351 23.1619ZM4.97793 24.1255C4.96557 24.1338 4.94579 24.1424 4.92108 24.1375L1.61509 23.4787C1.57513 23.4709 1.54711 23.4289 1.55494 23.3889L4.12393 10.4933C4.12887 10.4686 4.14453 10.4538 4.15689 10.4455C4.16677 10.4389 4.18119 10.4319 4.19973 10.4319C4.20426 10.4319 4.20921 10.4323 4.21415 10.4332L7.52014 11.0919C7.5601 11.0997 7.58811 11.1417 7.58029 11.1817L5.0113 24.0773C5.00594 24.1024 4.99029 24.1173 4.97793 24.1255ZM28.7221 27.2597C28.4766 27.5052 28.1483 27.6404 27.7977 27.6404C27.4471 27.6404 27.1188 27.5052 26.8733 27.2597L21.2488 21.6356C21.0218 21.4086 20.6535 21.4086 20.4265 21.6356C20.1995 21.8626 20.1995 22.2309 20.4265 22.4579L26.0506 28.082C26.5602 28.5916 26.5602 29.4213 26.0506 29.9309C25.805 30.1764 25.4767 30.3115 25.1261 30.3115C24.7756 30.3115 24.4472 30.1764 24.2017 29.9309L18.2587 23.9883C18.0317 23.7613 17.6635 23.7613 17.4365 23.9883C17.2095 24.2153 17.2095 24.5836 17.4365 24.8106L21.9219 29.296L21.9223 29.2965C22.4319 29.8061 22.4319 30.6353 21.9223 31.1453C21.4127 31.6553 20.583 31.6549 20.0734 31.1453L15.2691 26.341C15.0421 26.1141 14.6739 26.1141 14.4469 26.341C14.2199 26.568 14.2199 26.9363 14.4469 27.1633L16.6801 29.3966C16.9256 29.6421 17.0608 29.9704 17.0608 30.321C17.0608 30.6716 16.9256 30.9999 16.6801 31.2454C16.4346 31.491 16.1062 31.6261 15.7557 31.6261C15.4051 31.6261 15.0767 31.491 14.8312 31.2454L6.44039 22.855L8.57682 12.1308H14.6191L12.9168 13.5521C12.1798 14.1672 11.8634 15.0063 12.0484 15.8542L13.3931 22.0159C13.4264 22.1691 13.5204 22.3026 13.6538 22.3854C13.7869 22.4682 13.948 22.4941 14.1004 22.4562C15.7153 22.0583 16.795 21.2801 17.4014 20.0768C17.9255 19.037 18.0297 17.8538 18.1397 16.6015C18.1537 16.4424 18.1677 16.2822 18.1829 16.1215C18.1846 16.1079 18.1871 16.0984 18.1887 16.0919C18.3893 16.0074 19.376 16.2027 20.8879 17.5766L28.985 25.7919C29.2078 26.2838 29.1049 26.877 28.7221 27.2597ZM29.4703 24.6277L21.7048 16.7489C21.6974 16.7415 21.69 16.7345 21.6821 16.7271C20.1319 15.3149 18.6728 14.671 17.7772 15.0047C17.3557 15.1616 17.0826 15.5209 17.027 15.9897C17.0266 15.9942 17.0257 15.9988 17.0253 16.0037C17.0097 16.1697 16.9953 16.3349 16.9808 16.4993C16.7922 18.6419 16.6406 20.3672 14.3958 21.1569L13.1842 15.6053C13.0618 15.0442 13.431 14.6368 13.6617 14.444L18.0944 10.743C18.9335 10.0422 20.1154 10.0809 21.0349 10.8398C24.4031 13.6189 27.223 13.4067 29.3895 12.7167L31.3814 22.7158L29.4703 24.6277ZM36.2347 23.4791L32.9287 24.1379C32.904 24.1428 32.8838 24.1342 32.8718 24.1259C32.8595 24.1177 32.8438 24.1029 32.8389 24.0781L30.2699 11.1825C30.2621 11.1426 30.2901 11.1005 30.33 11.0927L33.636 10.434C33.6607 10.429 33.6809 10.4377 33.6933 10.4459C33.7056 10.4542 33.7213 10.469 33.7262 10.4937L36.2952 23.3893C36.3026 23.4293 36.2746 23.4713 36.2347 23.4791ZM18.3436 4.74644V0.675028C18.3436 0.353698 18.604 0.09375 18.9249 0.09375C19.2458 0.09375 19.5062 0.35411 19.5062 0.675028V4.74644C19.5062 5.06777 19.2458 5.32772 18.9249 5.32772C18.604 5.32772 18.3436 5.06736 18.3436 4.74644ZM13.1043 2.39043C12.9436 2.11236 13.0388 1.75684 13.3173 1.59617C13.5953 1.43551 13.9509 1.53108 14.1115 1.80916L16.1474 5.33513C16.3081 5.61321 16.2129 5.96873 15.9345 6.1294C15.843 6.18213 15.7429 6.20726 15.6444 6.20726C15.4434 6.20726 15.2481 6.10303 15.1402 5.91641L13.1043 2.39043ZM9.21207 5.70137C9.37273 5.42329 9.72825 5.32772 10.0063 5.48838L13.5323 7.52388C13.8104 7.68455 13.9055 8.04007 13.7453 8.31815C13.6378 8.50477 13.4421 8.60899 13.241 8.60899C13.1426 8.60899 13.0425 8.58386 12.951 8.53113L9.42505 6.49563C9.14656 6.33496 9.0514 5.97944 9.21207 5.70137ZM21.7027 5.33472L23.7386 1.80875C23.8993 1.53067 24.2548 1.4351 24.5329 1.59576C24.811 1.75643 24.9061 2.11195 24.7459 2.39002L22.71 5.916C22.6025 6.10262 22.4068 6.20684 22.2057 6.20684C22.1073 6.20684 22.0072 6.18172 21.9157 6.12898C21.6372 5.96873 21.5421 5.6128 21.7027 5.33472ZM24.3179 7.52388L27.8438 5.48838C28.1219 5.32772 28.4774 5.42329 28.6381 5.70137C28.7988 5.97944 28.7036 6.33496 28.4251 6.49563L24.8991 8.53113C24.8077 8.58386 24.7076 8.60899 24.6091 8.60899C24.4081 8.60899 24.2128 8.50477 24.1049 8.31815C23.9442 8.04048 24.0394 7.68455 24.3179 7.52388Z" fill="#CC922F"/>
</svg>
