<svg width="39" height="37" viewBox="0 0 39 37" fill="none" xmlns="http://www.w3.org/2000/svg">
<path d="M33.0533 15.2726H17.9082C17.6505 15.2726 17.4404 15.4827 17.4404 15.7403V25.563H5.27902V13.8183C5.27902 12.5558 4.254 11.5308 2.99146 11.5308H1.06931C0.811683 11.5308 0.601562 11.7409 0.601562 11.9985V36.3213C0.601562 36.5789 0.811683 36.7891 1.06931 36.7891H4.81128C5.0689 36.7891 5.27902 36.5789 5.27902 36.3213V31.1761H34.2793V36.3213C34.2793 36.5789 34.4894 36.7891 34.747 36.7891H38.489C38.7466 36.7891 38.9567 36.5789 38.9567 36.3213V21.1762C38.9567 17.9202 36.3092 15.2726 33.0533 15.2726ZM18.3759 16.2081H33.0533C35.794 16.2081 38.0212 18.4353 38.0212 21.176V25.5629H18.3759V16.2081ZM38.0212 35.8534H35.2148V30.7082C35.2148 30.4506 35.0046 30.2404 34.747 30.2404H4.81128C4.55365 30.2404 4.34353 30.4506 4.34353 30.7082V35.8534H1.53705V12.4661H2.99146C3.74061 12.4661 4.34353 13.0745 4.34353 13.8181V26.0305C4.34353 26.2882 4.55365 26.4983 4.81128 26.4983H38.0212V35.8534ZM11.3597 23.692C13.6802 23.692 15.5694 21.8027 15.5694 19.4823C15.5694 17.1618 13.6802 15.2726 11.3597 15.2726C9.03928 15.2726 7.15001 17.1618 7.15001 19.4823C7.15001 21.8027 9.03928 23.692 11.3597 23.692ZM11.3597 16.2081C13.1649 16.2081 14.6339 17.6771 14.6339 19.4823C14.6339 21.2875 13.1649 22.7565 11.3597 22.7565C9.5545 22.7565 8.0855 21.2875 8.0855 19.4823C8.0855 17.6771 9.5545 16.2081 11.3597 16.2081ZM12.763 4.5144C12.763 4.25678 12.9731 4.04666 13.2307 4.04666H18.8437C19.0264 4.04666 19.1945 4.15446 19.2694 4.31707C19.3443 4.48151 19.3169 4.67701 19.1999 4.8177L14.2465 10.5953H18.8436C19.1012 10.5953 19.3113 10.8054 19.3113 11.063C19.3113 11.3207 19.1012 11.5308 18.8436 11.5308H13.2306C13.0479 11.5308 12.8798 11.423 12.8049 11.2604C12.73 11.0959 12.7574 10.9004 12.8743 10.7597L17.8278 4.98215H13.2307C12.9731 4.98215 12.763 4.77203 12.763 4.5144ZM23.9889 0.772434C23.9889 0.514808 24.199 0.304688 24.4566 0.304688H27.2631C27.4495 0.304688 27.623 0.416142 27.6943 0.5952C27.7637 0.768776 27.7272 0.969761 27.592 1.10495L25.5839 3.11116H27.2631C27.5207 3.11116 27.7308 3.32128 27.7308 3.57891C27.7308 3.83653 27.5207 4.04665 27.2631 4.04665H24.4566C24.2702 4.04665 24.0966 3.9352 24.0254 3.75614C23.9559 3.58256 23.9925 3.38158 24.1277 3.24639L26.1357 1.24018H24.4566C24.199 1.24018 23.9889 1.03006 23.9889 0.772434Z" fill="#CC922F"/>
</svg>
