<svg width="46" height="33" viewBox="0 0 46 33" fill="none" xmlns="http://www.w3.org/2000/svg">
<path d="M45.7699 19.4264C45.7699 16.1503 43.3211 13.4409 40.1596 13.0196C40.1684 12.9203 40.1861 12.821 40.1861 12.7218V3.47802C40.1861 1.61159 38.4873 0.09375 36.3981 0.09375H10.4471C8.35785 0.09375 6.65911 1.61159 6.65911 3.47802V12.7218C6.65911 12.81 6.67455 12.8982 6.68338 12.9865C3.39619 13.2909 0.8125 16.0619 0.8125 19.4284C0.8125 19.6909 0.834562 19.9534 0.867654 20.2137C0.834562 20.291 0.8125 20.3748 0.8125 20.463V32.1647C0.8125 32.5089 1.09268 32.7891 1.43686 32.7891H5.3396C5.68376 32.7891 5.96396 32.5089 5.96396 32.1647V27.9708H40.616V32.1647C40.616 32.5089 40.8962 32.7891 41.2403 32.7891H45.1431C45.4872 32.7891 45.7674 32.5089 45.7674 32.1647V20.4653C45.7674 20.3771 45.7476 20.291 45.7123 20.216C45.7454 19.9557 45.7674 19.6931 45.7674 19.4306L45.7699 19.4264ZM5.34189 26.7223H2.06352V21.0877H44.5213V26.7223H5.34189ZM7.90988 3.47821C7.90988 2.30014 9.04825 1.34267 10.4492 1.34267H36.4002C37.7989 1.34267 38.9395 2.30014 38.9395 3.47821V12.7219C38.9395 12.8014 38.9285 12.8786 38.9174 12.9558H37.5871C37.7813 12.6094 37.9004 12.2145 37.9004 11.7909V10.7938C37.9004 9.46343 36.8171 8.38024 35.4869 8.38024H25.1842C24.4716 8.38024 23.8362 8.69572 23.3949 9.18991C22.9537 8.69794 22.3184 8.38024 21.6057 8.38024H11.303C9.9727 8.38024 8.88951 9.46349 8.88951 10.7938V11.7909C8.88951 12.2167 9.00864 12.6094 9.20278 12.9558H7.93423C7.9232 12.8786 7.91217 12.8014 7.91217 12.7219V3.47821H7.90988ZM10.1359 11.7912V10.794C10.1359 10.152 10.6588 9.62916 11.3008 9.62916H21.6035C22.2454 9.62916 22.7683 10.152 22.7683 10.794V11.7912C22.7683 12.4332 22.2454 12.956 21.6035 12.956H11.3008C10.6588 12.956 10.1359 12.4332 10.1359 11.7912ZM24.017 11.7912V10.794C24.017 10.152 24.5399 9.62916 25.1819 9.62916H35.4846C36.1266 9.62916 36.6494 10.152 36.6494 10.794V11.7912C36.6494 12.4332 36.1266 12.956 35.4846 12.956H25.1819C24.5399 12.956 24.017 12.4332 24.017 11.7912ZM7.28546 14.2047H39.2994C42.1785 14.2047 44.5214 16.5476 44.5214 19.4267C44.5214 19.5635 44.5148 19.7025 44.5037 19.8393H2.08151C2.07047 19.7025 2.06386 19.5657 2.06386 19.4267C2.06386 16.5476 4.40639 14.2047 7.28546 14.2047ZM4.71747 31.5406H2.06346V27.9732H4.71747V31.5406ZM44.5214 31.5406H41.8674V27.9732H44.5214V31.5406Z" fill="#CC922F"/>
</svg>
