<svg width="68" height="68" viewBox="0 0 68 68" fill="none" xmlns="http://www.w3.org/2000/svg">
<circle cx="34" cy="34" r="34" fill="#CC922F"/>
<path fill-rule="evenodd" clip-rule="evenodd" d="M45.1997 53.5599H22.802C22.3117 53.5599 21.913 53.1611 21.913 52.6709V15.3413C21.913 14.8511 22.3117 14.4523 22.802 14.4523H45.1997C45.69 14.4523 46.0888 14.8511 46.0888 15.3413V52.6711C46.0886 53.1613 45.69 53.5599 45.1997 53.5599ZM22.802 15.2669C22.7617 15.2669 22.7276 15.3009 22.7276 15.3413V52.6711C22.7276 52.7114 22.7616 52.7453 22.802 52.7453H45.1997C45.24 52.7453 45.274 52.7114 45.274 52.6711V15.3413C45.274 15.301 45.24 15.2669 45.1997 15.2669H22.802Z" fill="white"/>
<path fill-rule="evenodd" clip-rule="evenodd" d="M43.8562 51.7316H24.1556C23.9306 51.7316 23.7483 51.5493 23.7483 51.3243V16.6919C23.7483 16.4669 23.9306 16.2845 24.1556 16.2845C24.3807 16.2845 24.563 16.4669 24.563 16.6919V50.9169H43.8561C44.0811 50.9169 44.2635 51.0993 44.2635 51.3243C44.2635 51.5493 44.0812 51.7316 43.8562 51.7316Z" fill="white"/>
<path fill-rule="evenodd" clip-rule="evenodd" d="M33.2594 48.6924C30.1301 48.6924 27.5844 46.1466 27.5844 43.0174C27.5844 40.8672 28.8033 38.9047 30.712 37.9452V21.8643C30.712 20.4597 31.8546 19.3169 33.2594 19.3169C34.6641 19.3169 35.8067 20.4596 35.8067 21.8643V37.9452C37.7154 38.9048 38.9343 40.8672 38.9343 43.0175C38.9343 46.1466 36.3886 48.6924 33.2594 48.6924ZM33.2594 20.1316C32.304 20.1316 31.5267 20.9089 31.5267 21.8643V38.2029C31.5267 38.3639 31.432 38.5098 31.2851 38.5751C29.532 39.3555 28.3991 41.0993 28.3991 43.0175C28.3991 45.6974 30.5794 47.8777 33.2594 47.8777C35.9393 47.8777 38.1196 45.6973 38.1196 43.0175C38.1196 41.0992 36.9867 39.3554 35.2336 38.5751C35.0866 38.5098 34.992 38.3639 34.992 38.2029L34.9919 21.8643C34.9919 20.9089 34.2147 20.1316 33.2594 20.1316Z" fill="white"/>
<path fill-rule="evenodd" clip-rule="evenodd" d="M33.2657 47.0244C30.9367 47.0244 29.042 45.1298 29.042 42.8008C29.042 42.5758 29.2243 42.3934 29.4493 42.3934C29.6744 42.3934 29.8567 42.5758 29.8567 42.8008C29.8567 44.6804 31.386 46.2097 33.2657 46.2097C35.1453 46.2097 36.6745 44.6804 36.6745 42.8008C36.6745 42.5758 36.8569 42.3934 37.0819 42.3934C37.3069 42.3934 37.4893 42.5758 37.4893 42.8008C37.4893 45.1299 35.5946 47.0244 33.2657 47.0244Z" fill="white"/>
<path fill-rule="evenodd" clip-rule="evenodd" d="M39.8802 23.3323H37.3719C37.1468 23.3323 36.9645 23.15 36.9645 22.9249C36.9645 22.6999 37.1468 22.5176 37.3719 22.5176H39.8802C40.1052 22.5176 40.2876 22.6999 40.2876 22.9249C40.2876 23.15 40.1052 23.3323 39.8802 23.3323Z" fill="white"/>
<path fill-rule="evenodd" clip-rule="evenodd" d="M39.0789 25.5649H37.3719C37.1468 25.5649 36.9645 25.3825 36.9645 25.1575C36.9645 24.9325 37.1468 24.7501 37.3719 24.7501H39.0789C39.3039 24.7501 39.4863 24.9325 39.4863 25.1575C39.4863 25.3825 39.3039 25.5649 39.0789 25.5649Z" fill="white"/>
<path fill-rule="evenodd" clip-rule="evenodd" d="M39.8802 27.7943H37.3719C37.1468 27.7943 36.9645 27.612 36.9645 27.387C36.9645 27.162 37.1468 26.9796 37.3719 26.9796H39.8802C40.1052 26.9796 40.2876 27.162 40.2876 27.387C40.2876 27.612 40.1052 27.7943 39.8802 27.7943Z" fill="white"/>
<path fill-rule="evenodd" clip-rule="evenodd" d="M39.0789 30.023H37.3719C37.1468 30.023 36.9645 29.8406 36.9645 29.6156C36.9645 29.3906 37.1468 29.2083 37.3719 29.2083H39.0789C39.3039 29.2083 39.4863 29.3906 39.4863 29.6156C39.4863 29.8406 39.3039 30.023 39.0789 30.023Z" fill="white"/>
<path fill-rule="evenodd" clip-rule="evenodd" d="M39.8802 32.2493H37.3719C37.1468 32.2493 36.9645 32.067 36.9645 31.842C36.9645 31.6169 37.1468 31.4346 37.3719 31.4346H39.8802C40.1052 31.4346 40.2876 31.6169 40.2876 31.842C40.2876 32.067 40.1052 32.2493 39.8802 32.2493Z" fill="white"/>
<path fill-rule="evenodd" clip-rule="evenodd" d="M39.0789 34.482H37.3719C37.1468 34.482 36.9645 34.2996 36.9645 34.0746C36.9645 33.8496 37.1468 33.6672 37.3719 33.6672H39.0789C39.3039 33.6672 39.4863 33.8496 39.4863 34.0746C39.4863 34.2996 39.3039 34.482 39.0789 34.482Z" fill="white"/>
<path fill-rule="evenodd" clip-rule="evenodd" d="M39.8802 36.7106H37.3719C37.1468 36.7106 36.9645 36.5283 36.9645 36.3033C36.9645 36.0782 37.1468 35.8959 37.3719 35.8959H39.8802C40.1052 35.8959 40.2876 36.0782 40.2876 36.3033C40.2876 36.5283 40.1052 36.7106 39.8802 36.7106Z" fill="white"/>
</svg>
