<svg width="68" height="68" viewBox="0 0 68 68" fill="none" xmlns="http://www.w3.org/2000/svg">
<circle cx="34" cy="34" r="34" fill="#CC922F"/>
<path d="M33.5691 53.5944C37.6023 53.5896 41.4671 51.9863 44.3194 49.1339C47.1717 46.2815 48.7749 42.4167 48.7799 38.3836C48.7799 30.1716 34.6339 15.5791 34.0321 14.9624L33.5694 14.4868L33.1067 14.9624C32.5049 15.5788 18.3589 30.17 18.3589 38.3836C18.3637 42.4168 19.967 46.2816 22.8194 49.1339C25.6718 51.9863 29.5366 53.5895 33.5697 53.5944H33.5691ZM33.5691 16.3524C36.0346 18.9684 47.4857 31.4887 47.4857 38.3836C47.4857 43.3552 44.8325 47.9499 40.5274 50.4365C36.2222 52.9214 30.916 52.9214 26.6108 50.4365C22.3056 47.9499 19.6525 43.3552 19.6525 38.3836C19.6557 31.4887 31.1032 18.9682 33.5691 16.3524Z" fill="white"/>
<path d="M24.741 39.045L33.5742 47.8782L42.3963 39.0483C43.4317 38.0194 44.014 36.6183 44.014 35.1575C44.014 33.6982 43.4317 32.2972 42.3963 31.2683C40.2462 29.123 36.7662 29.123 34.6163 31.2683L33.5712 32.3199L32.5196 31.2683C30.9454 29.6957 28.577 29.2266 26.5209 30.0792C24.4647 30.9334 23.1251 32.9411 23.1267 35.1671C23.1235 36.6231 23.7056 38.0209 24.741 39.045ZM25.6583 32.1857H25.6567C27.3004 30.5452 29.9619 30.5452 31.6053 32.1857L33.5758 34.1562L35.5349 32.1857C36.7386 30.9853 38.5473 30.6261 40.118 31.2765C41.6889 31.9252 42.7162 33.4556 42.7211 35.1576C42.726 36.2755 42.2778 37.3481 41.4819 38.1344L33.5739 46.0485L27.1611 39.6419L25.6565 38.1277C24.8654 37.3398 24.4205 36.2704 24.4205 35.1541C24.4205 34.0378 24.8654 32.9685 25.6565 32.1806L25.6583 32.1857Z" fill="white"/>
</svg>
