<svg width="68" height="68" viewBox="0 0 68 68" fill="none" xmlns="http://www.w3.org/2000/svg">
<circle cx="34" cy="34" r="34" fill="#CC922F"/>
<path d="M53.4558 19.6704L48.7743 14.9889C48.5279 14.7425 48.1287 14.7425 47.8824 14.9889L39.9947 22.8766C37.7771 21.2017 34.8056 21.2374 33.0045 23.0392C32.4722 23.5714 32.1 24.2075 31.8752 24.8941C30.2771 24.3116 28.4852 24.6825 27.2617 25.9072L25.6361 27.5328C24.4055 28.7629 24.0338 30.5494 24.6189 32.1473C23.934 32.3723 23.2993 32.7443 22.768 33.2756C20.9663 35.0774 20.9312 38.0489 22.6054 40.2658L14.7178 48.1535C14.4714 48.3999 14.4714 48.799 14.7178 49.0454L19.3992 53.7269C19.5175 53.8452 19.6777 53.9117 19.8452 53.9117C20.0128 53.9117 20.1729 53.8452 20.2912 53.7269L24.1891 49.8283C24.4355 49.5819 24.4355 49.1828 24.1891 48.9364C23.9427 48.69 23.5436 48.69 23.2972 48.9364L19.8452 52.389L16.0557 48.5994L23.9039 40.7512C24.1423 40.5128 24.1509 40.1284 23.9236 39.8796C22.3227 38.1296 22.2069 35.6207 23.66 34.1676C24.3789 33.4487 25.3792 33.0877 26.4757 33.1573C27.6011 33.2269 28.6901 33.7345 29.542 34.5858C30.2369 35.2806 30.7019 36.1369 30.8873 37.0627C30.9372 37.3122 31.1325 37.5074 31.382 37.5573C32.3078 37.7427 33.164 38.2078 33.8589 38.9026C34.7101 39.7545 35.2177 40.8436 35.2873 41.969C35.3551 43.0655 34.996 44.0658 34.2771 44.7847C32.8252 46.2378 30.3157 46.1226 28.5651 44.521C28.3162 44.2943 27.9319 44.3017 27.6935 44.5407L25.2271 47.0065C24.9807 47.2529 24.9807 47.6521 25.2271 47.8985C25.4735 48.1449 25.8726 48.1449 26.119 47.8985L28.1789 45.8392C30.3952 47.5129 33.3673 47.4778 35.1691 45.6766C35.7012 45.1444 36.0735 44.5084 36.2983 43.8219C36.7849 43.9974 37.2914 44.0905 37.7968 44.0905C38.9395 44.0905 40.0704 43.65 40.9119 42.8086L42.5375 41.183C43.2132 40.5073 43.6419 39.6517 43.7781 38.7086C43.8273 38.3636 43.5883 38.0439 43.2434 37.9941C42.8917 37.9472 42.5787 38.1844 42.5288 38.5287C42.4328 39.2002 42.1272 39.8094 41.6455 40.2911L40.0199 41.9166C39.105 42.8316 37.714 43.0693 36.5389 42.5566C36.6363 40.9771 36.0338 39.2937 34.7508 38.0107C33.9796 37.2395 33.0458 36.6931 32.0294 36.4153C31.7516 35.3989 31.2052 34.4651 30.434 33.6939C29.1508 32.4107 27.4672 31.808 25.8876 31.9056C25.3651 30.7183 25.6017 29.3511 26.528 28.4248L28.1536 26.7992C29.0754 25.8773 30.4491 25.6376 31.6347 26.1584C31.5371 27.7381 32.1395 29.4219 33.4227 30.7051C34.194 31.4763 35.1278 32.0227 36.1442 32.3005C36.422 33.3169 36.9684 34.2507 37.7396 35.0219C38.934 36.2163 40.4752 36.8243 41.9566 36.8243C43.2397 36.8243 44.4778 36.3679 45.4055 35.4402C47.2072 33.6384 47.2424 30.6669 45.5681 28.45L53.4558 20.5623C53.7022 20.3159 53.7022 19.9167 53.4558 19.6704ZM44.2696 27.9646C44.0312 28.203 44.0226 28.5873 44.2499 28.8362C45.8508 30.5862 45.9666 33.0951 44.5135 34.5482C43.7941 35.2671 42.7919 35.6256 41.6979 35.5584C40.5725 35.4888 39.4834 34.9813 38.6315 34.13C37.9367 33.4351 37.4716 32.5789 37.2862 31.6531C37.2363 31.4036 37.041 31.2084 36.7916 31.1585C35.8657 30.973 35.0095 30.508 34.3147 29.8132C33.4634 28.9612 32.9558 27.8722 32.8862 26.7468C32.8185 25.6503 33.1776 24.65 33.8964 23.9311C34.5777 23.2498 35.4912 22.9135 36.4503 22.9135C37.5357 22.9135 38.6795 23.3447 39.6084 24.1948C39.8573 24.4221 40.2423 24.4147 40.4801 24.175L48.3283 16.3268L52.1179 20.1163L44.2696 27.9646Z" fill="white"/>
<path d="M44.3497 43.7289C44.1033 43.4825 43.7041 43.4825 43.4577 43.7289C43.2114 43.9753 43.2113 44.3744 43.4577 44.6208L49.1544 50.3174C49.2776 50.4406 49.439 50.5022 49.6003 50.5022C49.7617 50.5022 49.9231 50.4406 50.0463 50.3174C50.2927 50.071 50.2927 49.6719 50.0463 49.4255L44.3497 43.7289Z" fill="white"/>
<path d="M49.2384 43.8337C49.3376 43.8909 49.446 43.918 49.5532 43.918C49.7712 43.918 49.9831 43.8053 50.1002 43.6027C50.2745 43.3008 50.171 42.9152 49.8692 42.7409L46.4264 40.7525C46.1252 40.5788 45.739 40.6811 45.5647 40.9835C45.3903 41.2853 45.4938 41.6709 45.7957 41.8453L49.2384 43.8337Z" fill="white"/>
<path d="M41.5743 46.0669C41.3993 45.7645 41.0131 45.6616 40.7125 45.8359C40.4107 46.0102 40.3072 46.3958 40.4815 46.6977L42.4699 50.1404C42.587 50.3431 42.7989 50.4558 43.0169 50.4558C43.1241 50.4558 43.2325 50.4287 43.3317 50.3714C43.6335 50.1971 43.737 49.8115 43.5627 49.5096L41.5743 46.0669Z" fill="white"/>
<path d="M23.8229 24.986C23.9461 25.1092 24.1075 25.1708 24.2689 25.1708C24.4303 25.1708 24.5917 25.1092 24.7149 24.986C24.9613 24.7396 24.9613 24.3405 24.7149 24.0941L19.0183 18.3974C18.7719 18.151 18.3727 18.151 18.1263 18.3974C17.8799 18.6438 17.8799 19.043 18.1263 19.2894L23.8229 24.986Z" fill="white"/>
<path d="M26.6005 22.651C26.7176 22.8537 26.9295 22.9664 27.1475 22.9664C27.2547 22.9664 27.3631 22.9393 27.4623 22.882C27.7641 22.7077 27.8676 22.3221 27.6933 22.0203L25.7049 18.5775C25.53 18.2751 25.1437 18.1722 24.8431 18.3465C24.5413 18.5209 24.4378 18.9065 24.6121 19.2083L26.6005 22.651Z" fill="white"/>
<path d="M18.937 24.8834C18.6358 24.7091 18.2496 24.8119 18.0753 25.1144C17.901 25.4162 18.0044 25.8018 18.3063 25.9762L21.749 27.9645C21.8482 28.0218 21.9566 28.0489 22.0638 28.0489C22.2818 28.0489 22.4937 27.9362 22.6108 27.7336C22.7851 27.4317 22.6816 27.0461 22.3798 26.8718L18.937 24.8834Z" fill="white"/>
</svg>
