<svg width="68" height="68" viewBox="0 0 68 68" fill="none" xmlns="http://www.w3.org/2000/svg">
<circle cx="34" cy="34" r="34" fill="#CC922F"/>
<path d="M16.1099 40.1566C16.1507 40.1384 16.2838 40.0683 16.4826 39.9609C16.492 39.9549 16.5019 39.9495 16.5122 39.945C16.8814 39.7453 17.4593 39.4271 18.0911 39.0754C18.1002 39.0694 18.1098 39.064 18.1198 39.0594C18.3051 38.9563 18.4948 38.8504 18.685 38.7439C19.639 38.2096 20.6092 37.6582 21.1068 37.3579C21.2267 37.2855 21.2576 37.1672 21.2357 37.0567C21.2261 37.0087 21.2077 36.9615 21.1826 36.9185C21.1581 36.8766 21.1277 36.8397 21.0936 36.8109C21.0344 36.761 20.9623 36.7398 20.9 36.7781C20.6872 36.9086 20.4537 37.0487 20.2073 37.1942C20.1841 37.2162 20.1561 37.2329 20.1252 37.2426C19.6594 37.5169 19.1518 37.8085 18.6547 38.0903C17.3545 38.8271 16.1169 39.5023 15.8738 39.6273C15.8008 39.6648 15.7774 39.7516 15.7876 39.8427L15.7878 39.8435C15.7934 39.8926 15.8077 39.9422 15.8293 39.9881C15.8508 40.0341 15.8784 40.0752 15.9101 40.1071C15.9646 40.1618 16.0362 40.1894 16.1099 40.1566ZM20.3672 40.5952L21.7673 40.3604C21.8288 40.2924 21.8883 40.2261 21.9455 40.1618C22.1347 39.9495 22.3917 39.932 22.6219 40.0315C22.7066 40.068 22.7873 40.1215 22.8577 40.1871C22.9275 40.252 22.9879 40.3292 23.033 40.4141C23.1627 40.658 23.172 40.9599 22.9366 41.2204C22.6435 41.5446 22.1354 42.0822 21.5778 42.6644L22.9038 42.2183C22.9579 42.1352 23.0103 42.0542 23.0605 41.9759C23.2144 41.736 23.4653 41.6781 23.708 41.7402C23.797 41.7629 23.885 41.8032 23.9652 41.8571C24.0445 41.9104 24.1164 41.9773 24.1743 42.0541C24.3406 42.2746 24.3972 42.5712 24.2058 42.8649C23.9711 43.2251 23.5521 43.8377 23.0888 44.5056L24.3106 43.8663C24.3545 43.7685 24.3967 43.6737 24.4367 43.5825C24.5511 43.322 24.7898 43.2259 25.0392 43.2494C25.131 43.2581 25.2241 43.284 25.311 43.3244C25.3981 43.3649 25.4797 43.4199 25.5487 43.4865C25.7473 43.6785 25.8494 43.9628 25.706 44.2831C25.5296 44.6768 25.2115 45.3465 24.8587 46.0768L26.0122 45.2207C26.0345 45.1374 26.0559 45.0561 26.0764 44.9773C26.1481 44.702 26.3685 44.5693 26.6183 44.553C26.7107 44.5469 26.8071 44.5578 26.8999 44.5841L26.8998 44.5845C26.9927 44.6109 27.0816 44.6519 27.159 44.7059C27.3857 44.864 27.5317 45.1285 27.4409 45.4672C27.3272 45.8913 27.12 46.6015 26.8892 47.373L27.8841 46.3532C27.8934 46.2634 27.9021 46.1762 27.9102 46.0918C27.9375 45.8083 28.1342 45.6424 28.3784 45.5867C28.4692 45.566 28.5659 45.5615 28.6609 45.5727C28.7553 45.5838 28.8495 45.6104 28.9357 45.6521C29.1847 45.7725 29.3708 46.0106 29.3347 46.3594C29.289 46.8013 29.1969 47.5333 29.0916 48.3266L29.886 47.2005C29.8804 47.0946 29.8746 46.9917 29.8686 46.8925C29.8513 46.6082 30.0202 46.4134 30.2532 46.3202C30.3384 46.2862 30.4329 46.2668 30.5291 46.263C30.6233 46.2593 30.7206 46.2711 30.8135 46.2993C31.0786 46.3795 31.2999 46.5855 31.3185 46.9348C31.3415 47.3654 31.3645 48.1065 31.3843 48.9176L32.0085 47.651C31.9887 47.5585 31.9691 47.4688 31.9499 47.3825C31.8881 47.1044 32.0241 46.8855 32.2394 46.7569C32.3188 46.7094 32.409 46.6754 32.5026 46.6566C32.5969 46.6378 32.695 46.6338 32.7891 46.6466C33.063 46.6841 33.3136 46.8529 33.3872 47.1958C33.479 47.6235 33.6182 48.3506 33.7646 49.1438L34.194 47.7547C34.1948 47.7522 34.1957 47.7497 34.1966 47.7472C34.1684 47.6754 34.1408 47.6054 34.1137 47.5374C34.0084 47.2732 34.108 47.0354 34.3003 46.8738C34.3703 46.8148 34.4542 46.7668 34.5449 46.7329C34.6342 46.6996 34.7302 46.6801 34.8258 46.6777C35.1024 46.6709 35.3768 46.7976 35.5043 47.1245C35.6619 47.5285 35.9155 48.2241 36.1875 48.9858L36.3813 47.604C36.3307 47.5174 36.2811 47.4333 36.2328 47.3522C36.0874 47.1076 36.1483 46.8573 36.3126 46.6678C36.373 46.5983 36.4483 46.5376 36.5321 46.4902C36.6148 46.4434 36.7067 46.4091 36.8014 46.3917C37.0734 46.3416 37.3643 46.4238 37.5414 46.7267C37.7586 47.0979 38.1184 47.746 38.5077 48.4582L38.4818 47.0152C38.4286 46.9507 38.3767 46.8881 38.3262 46.8277C38.1436 46.6092 38.1638 46.3526 38.2957 46.1397C38.345 46.0601 38.4097 45.988 38.484 45.9286C38.5579 45.8695 38.6433 45.8211 38.7348 45.7886C38.9951 45.6961 39.2951 45.7311 39.5182 46.002C39.7954 46.3388 40.2528 46.9202 40.7474 47.5576L40.4965 46.1594C40.4278 46.0987 40.3609 46.04 40.296 45.9835C40.0815 45.7969 40.061 45.5405 40.1576 45.3096L40.1574 45.3088C40.1928 45.2243 40.2453 45.1433 40.3103 45.0718C40.3743 45.0013 40.451 44.94 40.5355 44.8938C40.7781 44.7613 41.0799 44.7484 41.3426 44.9804C41.6693 45.2691 42.2129 45.7711 42.8021 46.3227L42.3408 45.0021C42.257 44.9488 42.1756 44.8974 42.0969 44.8482C41.8556 44.6973 41.795 44.4471 41.8543 44.2038C41.8762 44.1138 41.9153 44.0253 41.968 43.945C42.0199 43.8658 42.0859 43.7934 42.1624 43.7344C42.3813 43.5654 42.6773 43.5051 42.973 43.693C43.3415 43.9272 43.9568 44.3376 44.6247 44.7896L43.9724 43.5768C43.8743 43.5341 43.7791 43.4931 43.6876 43.4542C43.4259 43.3428 43.3272 43.1051 43.3479 42.8554C43.3555 42.7628 43.3803 42.6693 43.4196 42.5823C43.4588 42.4954 43.5127 42.4134 43.5788 42.3435C43.7686 42.1425 44.0517 42.037 44.3733 42.1766C44.7749 42.351 45.4468 42.6606 46.1764 43.0028L45.3072 41.8592C45.2238 41.8379 45.1427 41.8175 45.0641 41.798C44.7875 41.7293 44.6521 41.5107 44.6329 41.2615C44.6258 41.1694 44.6357 41.073 44.6609 40.9799C44.6858 40.8879 44.7261 40.7984 44.7802 40.7189C44.9359 40.4901 45.1989 40.3409 45.5385 40.4277C45.9565 40.5347 46.6697 40.7342 47.4483 40.9575L46.4183 39.9753C46.3286 39.967 46.2413 39.9593 46.1568 39.9522C45.8734 39.9282 45.7053 39.7329 45.6468 39.4888C45.6252 39.3989 45.6196 39.3025 45.6297 39.2075C45.6397 39.1134 45.6654 39.0188 45.7066 38.9312C45.824 38.681 46.0598 38.4924 46.4085 38.5245C46.8498 38.5651 47.5834 38.6489 48.3789 38.7453L47.2432 37.9633C47.137 37.9701 47.0342 37.977 46.9357 37.9842C46.6518 38.0046 46.4552 37.8382 46.3595 37.6065C46.3244 37.5217 46.304 37.4274 46.2992 37.3313C46.2943 37.2351 46.3046 37.1374 46.3311 37.0462C46.4082 36.7805 46.612 36.5572 46.9622 36.5345C47.4006 36.506 48.1388 36.4746 48.9423 36.4457L47.6693 35.8362C47.577 35.8571 47.4874 35.8777 47.4011 35.898C47.1243 35.9628 46.9041 35.8293 46.7731 35.6156C46.7248 35.5368 46.6896 35.4469 46.6698 35.3535C46.6499 35.2594 46.6448 35.1615 46.6566 35.0673C46.6909 34.7928 46.8568 34.5403 47.1987 34.4628C47.6246 34.3663 48.3501 34.2188 49.142 34.0632L47.749 33.6499C47.746 33.649 47.743 33.648 47.74 33.647C47.6689 33.6758 47.5995 33.7041 47.5321 33.7319C47.2691 33.8402 47.0305 33.7436 46.867 33.5536C46.8062 33.483 46.7569 33.3996 46.7225 33.3105C46.6881 33.2216 46.6675 33.1258 46.6641 33.0303C46.6541 32.7541 46.7777 32.4784 47.1033 32.3471C47.5143 32.1813 48.205 31.9203 48.9567 31.6421L47.617 31.4697C47.517 31.5294 47.4202 31.5875 47.3275 31.6438C47.0846 31.7914 46.834 31.7329 46.6432 31.5705C46.5729 31.5107 46.5115 31.4358 46.4633 31.3525C46.4155 31.2699 46.3804 31.1786 46.3623 31.0848C46.3097 30.8132 46.3892 30.5214 46.6905 30.3414C47.0689 30.1153 47.7114 29.7505 48.4125 29.3586L46.9704 29.3979C46.9063 29.4518 46.844 29.5045 46.7838 29.5557C46.5671 29.7402 46.3101 29.7222 46.0956 29.592C46.016 29.5438 45.9435 29.4799 45.8833 29.406C45.8234 29.3324 45.7741 29.2474 45.7408 29.1564C45.646 28.8972 45.6783 28.5969 45.9473 28.3713C46.2847 28.0882 46.861 27.626 47.491 27.1277L46.0961 27.3914C46.036 27.4608 45.9777 27.5284 45.9217 27.594C45.737 27.8102 45.4804 27.8329 45.2481 27.7382C45.1624 27.7033 45.0808 27.6516 45.0095 27.588C44.9382 27.5244 44.876 27.4482 44.8291 27.3642C44.6944 27.1229 44.6788 26.8213 44.9086 26.5562C45.1934 26.2277 45.6903 25.6796 46.2367 25.085L44.921 25.5583C44.8686 25.6424 44.8181 25.7241 44.7698 25.803C44.621 26.046 44.3713 26.109 44.1273 26.052C44.0373 26.0309 43.9486 25.9926 43.8679 25.9408C43.7881 25.8896 43.715 25.8241 43.6552 25.7481C43.4842 25.5308 43.4213 25.2352 43.6067 24.9374C43.8323 24.5751 44.2386 23.954 44.6888 23.2754L43.4805 23.9398C43.4387 24.0383 43.3986 24.1337 43.3605 24.2256C43.2515 24.4885 43.0148 24.5896 42.7651 24.5712C42.6737 24.5645 42.5801 24.5404 42.4915 24.5014C42.4033 24.4626 42.3207 24.4095 42.251 24.3449C42.0485 24.1571 41.9406 23.875 42.0773 23.5518C42.2477 23.1495 42.5513 22.4743 42.8871 21.7405L41.7509 22.6208C41.7304 22.7044 41.7107 22.7858 41.6919 22.8647C41.6259 23.1417 41.4084 23.279 41.1592 23.3005C41.067 23.3084 40.9706 23.2996 40.8776 23.2753C40.7855 23.2513 40.6958 23.2119 40.616 23.1586C40.3856 23.0049 40.2337 22.7433 40.3175 22.4028C40.4203 21.9845 40.6134 21.2689 40.8299 20.4871L39.8569 21.5265C39.8495 21.6164 39.8426 21.7039 39.8362 21.7884C39.8148 22.0724 39.6209 22.2426 39.3772 22.3034C39.2872 22.3259 39.191 22.3324 39.0962 22.3232C39.002 22.3141 38.9073 22.2893 38.8196 22.2491C38.5681 22.1339 38.377 21.8997 38.4059 21.5505C38.4414 21.121 38.519 20.3836 38.6093 19.5771L37.8376 20.7204C37.8454 20.8262 37.8533 20.9288 37.8614 21.0278C37.8845 21.312 37.7196 21.5104 37.4885 21.6085C37.4037 21.6444 37.3096 21.6658 37.2139 21.6715C37.119 21.6772 37.0213 21.6676 36.9286 21.6416C36.6624 21.567 36.4374 21.3654 36.4115 21.0158C36.3791 20.5784 36.3408 19.84 36.3044 19.0358L35.7064 20.3151C35.7282 20.4072 35.7496 20.4965 35.7706 20.5827C35.8381 20.859 35.7066 21.0805 35.494 21.2136C35.4167 21.262 35.3271 21.2978 35.2326 21.3187C35.1399 21.3392 35.0421 21.345 34.9465 21.334C34.6718 21.3022 34.4178 21.1384 34.3371 20.797C34.237 20.3736 34.0828 19.6495 33.9198 18.8581L33.5192 20.2554C33.5184 20.2582 33.5176 20.261 33.5167 20.2638C33.5462 20.3349 33.5753 20.4042 33.6037 20.4716C33.7144 20.7333 33.6199 20.9729 33.4312 21.1383C33.3609 21.1999 33.278 21.25 33.1893 21.2853C33.1021 21.3199 33.0069 21.3411 32.9103 21.3455C32.6337 21.358 32.3565 21.237 32.2222 20.9128C32.0571 20.514 31.789 19.8232 31.5007 19.0657L31.3286 20.5089C31.3276 20.5175 31.3261 20.526 31.324 20.5342C31.3615 20.5945 31.3983 20.6534 31.4344 20.7109C31.5858 20.9516 31.5311 21.2033 31.3715 21.3968C31.3129 21.4679 31.2391 21.5304 31.1566 21.5799C31.0752 21.6287 30.9843 21.6651 30.8903 21.6848C30.6194 21.7416 30.3263 21.6668 30.1418 21.3685C29.9108 20.9951 29.536 20.3582 29.1328 19.6623L29.1944 21.1037C29.2492 21.1669 29.3027 21.2283 29.3548 21.2876C29.5426 21.5013 29.5287 21.7584 29.402 21.9745C29.3553 22.0542 29.2924 22.1277 29.2187 22.1897C29.1463 22.2506 29.0621 22.3011 28.9717 22.3358C28.7138 22.4347 28.4132 22.4072 28.1838 22.1422C27.8999 21.8144 27.4277 21.2436 26.9159 20.6167L27.2015 22.009C27.2718 22.0681 27.3402 22.1251 27.4063 22.1798C27.6256 22.3614 27.6526 22.6171 27.5618 22.8501C27.528 22.9368 27.4775 23.0195 27.4148 23.092C27.3534 23.1631 27.2782 23.226 27.1939 23.2749C26.9548 23.4133 26.6535 23.4337 26.3852 23.2083C26.0533 22.9295 25.4967 22.4402 24.8921 21.9016L25.3862 23.2113C25.4715 23.2626 25.5545 23.3122 25.6347 23.3596C25.8794 23.5043 25.9461 23.7527 25.8929 23.9972C25.8732 24.0877 25.8363 24.1771 25.7857 24.2585C25.7353 24.3398 25.6708 24.4143 25.5959 24.4751C25.3816 24.6492 25.0873 24.7164 24.7866 24.5356C24.4145 24.312 23.7887 23.9164 23.1081 23.48L23.7902 24.6763C23.8895 24.7166 23.9858 24.7553 24.0786 24.792C24.343 24.8969 24.4476 25.1322 24.4332 25.3825C24.4278 25.4754 24.4053 25.5695 24.3683 25.6573C24.3317 25.7441 24.2796 25.8273 24.2146 25.8997C24.0296 26.1055 23.7492 26.2182 23.4247 26.0867C23.0216 25.9234 22.3422 25.6305 21.6029 25.3059L22.4998 26.4272C22.5832 26.4462 22.6644 26.4646 22.7432 26.482C23.0212 26.5437 23.1618 26.7591 23.1872 27.0081C23.1966 27.1009 23.1894 27.1973 23.1669 27.2896C23.1442 27.3823 23.106 27.473 23.0536 27.5542C22.904 27.7862 22.6451 27.9414 22.3033 27.8629C21.8743 27.7645 21.1576 27.5832 20.3795 27.3808L21.4341 28.3377C21.5241 28.3437 21.6119 28.3492 21.6969 28.3543C21.9808 28.3713 22.1537 28.5625 22.2183 28.8053C22.2421 28.8943 22.25 28.9904 22.2422 29.0858C22.2345 29.1803 22.2112 29.2755 22.1724 29.3639C22.0611 29.6169 21.8301 29.8114 21.4806 29.788C21.0407 29.7585 20.3046 29.6927 19.5049 29.6159L20.6598 30.3697C20.7657 30.3602 20.8681 30.3508 20.9664 30.3412C21.2501 30.3137 21.451 30.4752 21.5525 30.7046C21.5895 30.7883 21.6123 30.8821 21.6195 30.9782C21.6267 31.0738 21.6188 31.1715 21.5945 31.2635C21.5239 31.5312 21.3259 31.7596 20.977 31.7909C20.5416 31.83 19.8035 31.8798 18.9988 31.9287L20.2868 32.5065C20.3786 32.4833 20.4677 32.4605 20.5536 32.4381C20.8286 32.3664 21.0519 32.4944 21.1882 32.7049C21.2384 32.7824 21.2758 32.8717 21.2981 32.9654C21.3202 33.0583 21.3276 33.1557 21.3182 33.2502C21.2906 33.5255 21.1307 33.7821 20.7902 33.8682C20.3698 33.9745 19.6481 34.1399 18.8585 34.3154L20.2617 34.6942C20.2647 34.6949 20.2676 34.6958 20.2705 34.6967C20.3411 34.6661 20.4097 34.6361 20.4762 34.6068C20.7362 34.4921 20.9772 34.583 21.1455 34.7691C21.208 34.8382 21.2593 34.9202 21.2959 35.0082C21.3325 35.0962 21.3554 35.1914 21.3612 35.287C21.378 35.5627 21.2612 35.8414 20.9389 35.9807C20.5329 36.1562 19.8485 36.4344 19.1033 36.7314L20.0056 36.8248C20.2477 36.6819 20.4755 36.5453 20.6806 36.4195C20.9231 36.2708 21.1741 36.3282 21.3658 36.4899C21.4362 36.5493 21.4979 36.6236 21.5463 36.7065C21.5941 36.7883 21.6295 36.8795 21.6482 36.9738C21.702 37.2453 21.6238 37.5375 21.3233 37.7188C20.8662 37.9947 19.9804 38.499 19.0754 39.0068L20.1389 38.9658C20.498 38.6863 20.8357 38.4188 21.1247 38.1828C21.3451 38.0029 21.6013 38.0258 21.8125 38.1601C21.891 38.21 21.9624 38.2756 22.0214 38.3511C22.0795 38.4256 22.1269 38.5115 22.1584 38.6033C22.2478 38.8645 22.2094 39.1639 21.9359 39.3839C21.5912 39.6611 21.006 40.111 20.3672 40.5952ZM21.3052 40.8652L19.6393 41.1445C19.3566 41.357 19.076 41.5669 18.8125 41.7633L20.8058 41.3801C20.813 41.3787 20.8202 41.3777 20.8273 41.3771C20.9909 41.2031 21.1513 41.0314 21.3052 40.8652ZM20.3327 41.8996L18.0319 42.3419C17.6494 42.6236 17.3801 42.8184 17.3174 42.8571C17.0747 43.007 16.8289 42.9581 16.636 42.8105C16.5596 42.7519 16.4932 42.6787 16.4411 42.5979C16.3898 42.5183 16.3502 42.4279 16.3266 42.3342C16.2642 42.0863 16.3164 41.8239 16.5508 41.6603C16.7239 41.5394 17.4481 41.0085 18.3202 40.3536L16.6489 40.3489C16.4532 40.4545 16.3221 40.5234 16.2812 40.5416C16.0206 40.6576 15.7835 40.5761 15.6119 40.4037C15.5444 40.3359 15.4886 40.2544 15.4477 40.1671C15.4067 40.0796 15.3793 39.9849 15.3687 39.8907L15.3688 39.8907C15.3404 39.6361 15.4272 39.3828 15.6812 39.2523C15.902 39.1387 16.9344 38.5763 18.0853 37.9282L16.3891 37.7933C15.9448 37.9634 15.6329 38.0797 15.5621 38.1003C15.2887 38.1802 15.0649 38.0676 14.9183 37.874C14.8604 37.7976 14.8159 37.709 14.7869 37.6164C14.7587 37.5262 14.7446 37.4291 14.7468 37.3332C14.7526 37.0769 14.8726 36.8373 15.1417 36.742C15.3965 36.6519 16.7051 36.1524 18.0881 35.5988C18.1704 35.5659 18.2529 35.5327 18.3354 35.4995L16.008 34.9304C15.542 35.0274 15.2161 35.0924 15.1449 35.1012C14.8615 35.1364 14.6582 34.9894 14.5443 34.7746C14.4995 34.6901 14.4698 34.596 14.4561 34.5005C14.4425 34.4063 14.4441 34.3078 14.4616 34.2134C14.5082 33.9616 14.6648 33.7445 14.9454 33.6936C15.2153 33.6445 16.5908 33.3601 18.0368 33.0364C18.1035 33.0214 18.1704 33.0064 18.2373 32.9913L16.0865 32.0872C15.6117 32.1096 15.2799 32.1224 15.2075 32.1199C14.9218 32.11 14.744 31.9327 14.6653 31.7024C14.6344 31.6122 14.62 31.5146 14.6215 31.4179C14.6229 31.322 14.6399 31.2249 14.6718 31.1351C14.7574 30.8939 14.9462 30.7043 15.2314 30.6981C15.5031 30.6923 16.9036 30.6278 18.3876 30.5354C18.4425 30.532 18.4975 30.5286 18.5525 30.5251L16.604 29.3186C16.1319 29.2667 15.8021 29.2275 15.7301 29.2136C15.4495 29.1593 15.3017 28.957 15.2599 28.7179C15.2437 28.6248 15.2448 28.5261 15.2614 28.4299C15.2781 28.3337 15.3098 28.2402 15.3547 28.1576C15.4769 27.9326 15.6931 27.7747 15.9762 27.8131C16.2497 27.8503 17.647 28.0056 19.1189 28.1449C19.1919 28.1518 19.2651 28.1586 19.3384 28.1655L17.562 26.629C17.103 26.503 16.7834 26.4123 16.7157 26.3876C16.4473 26.2897 16.3334 26.0665 16.3299 25.8237C16.3285 25.7301 16.3454 25.6326 16.3775 25.5393C16.4089 25.4474 16.4551 25.3601 16.5128 25.2851C16.6687 25.0828 16.9068 24.9613 17.18 25.0439C17.4404 25.1227 18.7922 25.4956 20.2311 25.8676C20.307 25.8872 20.3831 25.9068 20.4593 25.9264L18.9395 24.1164C18.5066 23.9193 18.2053 23.779 18.1418 23.7435C17.8924 23.6043 17.8153 23.3658 17.8503 23.1255C17.8639 23.032 17.896 22.9384 17.942 22.852C17.9874 22.7667 18.0468 22.6879 18.1158 22.623C18.302 22.4477 18.5567 22.3654 18.8136 22.4905C19.0549 22.6078 20.3272 23.1887 21.6954 23.7869C21.745 23.8086 21.7948 23.8304 21.8446 23.8521L20.6634 21.8908C20.2666 21.6287 19.9909 21.4432 19.9339 21.3984C19.7092 21.2221 19.6703 20.9744 19.7424 20.7424C19.7705 20.6519 19.8167 20.5644 19.8755 20.4864C19.9335 20.4094 20.0043 20.3411 20.0825 20.2877C20.294 20.1434 20.5584 20.1016 20.7924 20.2649C21.0175 20.422 22.1887 21.1977 23.437 21.9954C23.4902 22.0294 23.5435 22.0634 23.5969 22.0974L22.7275 19.9494C22.3761 19.6278 22.1327 19.4012 22.0836 19.3483C21.8897 19.1394 21.8902 18.8888 21.9978 18.6709C22.0399 18.5856 22.099 18.5066 22.1688 18.4393C22.2386 18.372 22.3195 18.3153 22.4053 18.2748C22.6363 18.1657 22.9037 18.1661 23.1093 18.3642C23.3039 18.5517 24.3363 19.4985 25.4506 20.4879C25.5043 20.5356 25.5581 20.5833 25.612 20.631L25.0866 18.3473C24.7907 17.9747 24.5861 17.7125 24.5457 17.652C24.3871 17.4148 24.4271 17.1673 24.5677 16.9691C24.6226 16.8918 24.6936 16.823 24.7737 16.7672C24.8529 16.7119 24.9416 16.6689 25.0326 16.6424C25.2782 16.571 25.5425 16.6136 25.7144 16.8419C25.8811 17.0633 26.7547 18.1665 27.6901 19.3085C27.7414 19.3711 27.7929 19.4339 27.8445 19.4967L27.6867 17.1296C27.4545 16.7158 27.2944 16.4246 27.2635 16.3571C27.1446 16.0979 27.2235 15.8599 27.3939 15.6865C27.4599 15.6194 27.541 15.5629 27.6292 15.5203C27.7162 15.4784 27.8104 15.45 27.904 15.4384C28.1579 15.4069 28.4121 15.4911 28.5458 15.7441C28.6735 15.9858 29.3591 17.2104 30.1047 18.4929C30.1533 18.5764 30.2022 18.6603 30.2513 18.7442L30.4806 16.3343C30.3173 15.8874 30.206 15.5741 30.1867 15.5039C30.111 15.229 30.2271 15.0069 30.423 14.8632C30.4995 14.8072 30.5887 14.7643 30.6825 14.7365C30.7736 14.7095 30.8709 14.6969 30.9664 14.7005C31.2223 14.7103 31.4598 14.834 31.5509 15.1047C31.6374 15.3618 32.1168 16.679 32.6482 18.0686C32.6799 18.1515 32.7118 18.2346 32.7438 18.3178L33.3491 15.9992C33.2591 15.5309 33.199 15.2039 33.1914 15.1332C33.1606 14.8494 33.3109 14.6484 33.5277 14.5377C33.612 14.4947 33.7066 14.4667 33.8032 14.4543C33.8982 14.4421 33.9967 14.4451 34.0904 14.464C34.3414 14.5145 34.556 14.6744 34.6025 14.9556C34.6475 15.2272 34.9107 16.608 35.2116 18.0569C35.2255 18.1241 35.2396 18.1914 35.2537 18.2588L36.1909 16.1224C36.1758 15.6461 36.168 15.3135 36.1716 15.2419C36.186 14.9561 36.366 14.781 36.5975 14.7058C36.6868 14.6768 36.7845 14.6642 36.8821 14.6671C36.9787 14.6701 37.0756 14.6885 37.1645 14.7216C37.4044 14.811 37.5911 15.0028 37.5929 15.2882C37.5945 15.5609 37.6372 16.9633 37.7064 18.4464C37.709 18.5014 37.7116 18.5565 37.7143 18.6117L38.9512 16.6817C39.0104 16.2082 39.0545 15.8786 39.069 15.8094C39.1276 15.5298 39.3325 15.3852 39.5725 15.347C39.6665 15.3321 39.7653 15.3346 39.8606 15.3527C39.9551 15.3706 40.0481 15.404 40.1314 15.4509C40.354 15.5764 40.5083 15.7948 40.4655 16.077C40.4252 16.3426 40.2496 17.7307 40.0859 19.2148C40.0779 19.2876 40.0699 19.3605 40.062 19.4336L41.6253 17.6818C41.7584 17.225 41.854 16.9068 41.8798 16.8393C41.9819 16.5723 42.207 16.4617 42.4499 16.462C42.5443 16.4621 42.6416 16.4804 42.734 16.5137C42.8239 16.5461 42.9102 16.5937 42.985 16.6532C43.1852 16.8125 43.3032 17.0526 43.2164 17.3246C43.1333 17.5847 42.7391 18.9315 42.3454 20.3624C42.3247 20.4376 42.304 20.5131 42.2834 20.5886L44.1174 19.0964C44.3211 18.6668 44.4658 18.368 44.5019 18.3057C44.6447 18.0588 44.8845 17.9856 45.1244 18.0244C45.2176 18.0395 45.3106 18.0729 45.3963 18.1202C45.4807 18.1669 45.5585 18.2276 45.6226 18.2977C45.7949 18.4866 45.8733 18.7423 45.7445 18.9969C45.6205 19.242 45.017 20.5105 44.4026 21.8583C44.38 21.9079 44.3574 21.9575 44.3348 22.0073L46.3151 20.8562C46.5844 20.4616 46.7742 20.1883 46.8185 20.1337C46.9982 19.9119 47.2468 19.8769 47.4781 19.9527C47.568 19.9822 47.6547 20.0297 47.7318 20.0897C47.8079 20.1489 47.8752 20.2208 47.9275 20.3001C48.0684 20.5137 48.1059 20.7787 47.9388 21.0104C47.7776 21.234 46.9832 22.3937 46.1673 23.6278C46.1327 23.6802 46.098 23.7328 46.0633 23.7854L48.2236 22.9497C48.5501 22.604 48.7804 22.3643 48.8347 22.3154C49.047 22.1245 49.2976 22.1288 49.5137 22.2397C49.5975 22.2827 49.6757 22.3434 49.7428 22.4151C49.8094 22.4863 49.8649 22.568 49.9038 22.6538C50.0093 22.8865 50.0046 23.1541 49.8029 23.3571C49.6105 23.5507 48.6462 24.5696 47.6437 25.664C47.5951 25.717 47.5465 25.7702 47.4979 25.8234L49.7892 25.3336C50.1653 25.0445 50.4306 24.8443 50.4933 24.8037C50.7332 24.6487 50.98 24.6924 51.1759 24.836C51.2528 24.8925 51.3205 24.9644 51.3746 25.0445C51.4279 25.1235 51.4694 25.2131 51.4949 25.3061C51.5623 25.5525 51.5156 25.8158 51.2846 25.9842C51.0669 26.1429 49.9566 26.9951 48.7885 27.9219C48.725 27.9723 48.6614 28.0229 48.5978 28.0735L50.966 27.9525C51.3843 27.7261 51.6782 27.5704 51.745 27.541C52.0064 27.426 52.2433 27.5085 52.414 27.6816C52.4803 27.7488 52.5356 27.8308 52.5769 27.9198C52.6176 28.0078 52.6446 28.1024 52.6547 28.1957C52.6823 28.4501 52.5942 28.7029 52.3394 28.8326C52.0948 28.9569 50.8588 29.6239 49.5667 30.3486C49.5285 30.37 49.4902 30.3915 49.4519 30.4131L51.6968 30.6477C52.1446 30.4889 52.4591 30.3805 52.5309 30.3615C52.8067 30.2883 53.0278 30.4063 53.1696 30.6035C53.2247 30.6802 53.2667 30.7698 53.2937 30.864C53.3203 30.957 53.3323 31.0547 53.3278 31.149C53.3157 31.4047 53.1895 31.6412 52.9173 31.73C52.6533 31.8161 51.3262 32.2847 49.9441 32.7986C49.8607 32.8297 49.777 32.8609 49.6933 32.8922L52.007 33.5191C52.4744 33.4339 52.8014 33.3772 52.8737 33.37C53.1584 33.3418 53.3581 33.4936 53.4666 33.7109C53.5087 33.7953 53.5357 33.8902 53.5473 33.9872C53.5585 34.0821 53.5545 34.1806 53.5347 34.2745C53.4818 34.5252 53.3199 34.7384 53.038 34.7824C52.7651 34.825 51.3815 35.0754 49.932 35.3624C49.8648 35.3757 49.7974 35.3891 49.73 35.4025L51.8574 36.3595C52.3319 36.3489 52.6639 36.3445 52.7375 36.3488C53.0232 36.3658 53.1966 36.5473 53.2695 36.7791C53.2977 36.8688 53.3095 36.9669 53.3056 37.0649C53.3018 37.1604 53.2824 37.257 53.2481 37.3463C53.1564 37.5856 52.9629 37.7707 52.6777 37.7698C52.4031 37.7689 50.9988 37.7985 49.5193 37.8539C49.4643 37.8559 49.4093 37.858 49.3542 37.8601L51.2716 39.1142C51.7435 39.1778 52.0726 39.2251 52.1431 39.2405C52.4224 39.3018 52.5652 39.5078 52.6011 39.748C52.6151 39.8419 52.6116 39.9407 52.5926 40.0362C52.574 40.1295 52.5396 40.222 52.4915 40.3056C52.3637 40.5274 52.1438 40.6799 51.8621 40.6345C51.5941 40.5913 50.2052 40.4023 48.7287 40.2256C48.6558 40.2169 48.5826 40.2082 48.5093 40.1995L50.2469 41.7793C50.7017 41.9165 51.019 42.0152 51.0875 42.0422C51.3532 42.1466 51.4615 42.3724 51.459 42.6151C51.458 42.7108 51.439 42.8079 51.4053 42.8987C51.372 42.9886 51.3235 43.0746 51.2632 43.149C51.1022 43.3476 50.861 43.4632 50.5898 43.3738C50.3299 43.2881 48.9862 42.8812 47.5603 42.4747C47.485 42.4532 47.4096 42.4318 47.3341 42.4104L48.8089 44.2579C49.235 44.4649 49.5321 44.6126 49.5962 44.6504C49.842 44.7957 49.9131 45.0358 49.8722 45.275C49.856 45.3693 49.8219 45.4621 49.7745 45.5462C49.7275 45.6293 49.666 45.7065 49.5944 45.7706C49.4039 45.9412 49.1474 46.0171 48.8938 45.8858C48.654 45.7617 47.395 45.1487 46.0453 44.5182C45.9962 44.4953 45.947 44.4724 45.8977 44.4494L47.0299 46.4394C47.42 46.7112 47.6909 46.9034 47.747 46.9498C47.9674 47.1317 48.0003 47.3805 47.9224 47.6107C47.8921 47.7004 47.8439 47.7866 47.7835 47.8628C47.7242 47.9375 47.6514 48.0041 47.5707 48.0563C47.3558 48.1952 47.0905 48.2305 46.8607 48.0614C46.6418 47.9005 45.4924 47.0978 44.26 46.2665C44.2076 46.2312 44.1551 46.1958 44.1026 46.1605L44.9182 48.3286C45.2612 48.6585 45.4989 48.891 45.5469 48.9455C45.7358 49.1595 45.7291 49.4101 45.6161 49.6254C45.5717 49.71 45.5106 49.7877 45.4391 49.8533C45.3688 49.9179 45.2866 49.9722 45.199 50.011C44.9651 50.1144 44.6976 50.1073 44.4966 49.9039C44.3044 49.7093 43.294 48.7351 42.2098 47.7233C42.1572 47.6742 42.1044 47.625 42.0516 47.5759L42.5203 49.8723C42.8065 50.2517 43.0043 50.5188 43.0436 50.5808C43.1963 50.8218 43.1501 51.0682 43.0046 51.2628C42.947 51.3398 42.8744 51.4071 42.7939 51.4603C42.7148 51.5126 42.6251 51.5532 42.5322 51.5777C42.2849 51.643 42.0219 51.5938 41.8556 51.3614C41.6986 51.1418 40.8564 50.0231 39.9413 48.8475C39.8916 48.7837 39.8417 48.7197 39.7917 48.6557L39.8908 51.0254C40.1141 51.447 40.2673 51.7423 40.2953 51.8076C40.4076 52.0695 40.3227 52.3055 40.1479 52.4747C40.0792 52.5413 39.9968 52.596 39.9086 52.6359C39.8221 52.675 39.7273 52.7008 39.6318 52.7102C39.3768 52.7354 39.1245 52.6451 38.9972 52.3891C38.8748 52.1428 38.2191 50.9 37.507 49.6024C37.4772 49.5482 37.4473 49.4938 37.4174 49.4394L37.1507 51.7374C37.3044 52.1871 37.4092 52.5027 37.4273 52.5744C37.4973 52.8509 37.3767 53.0706 37.1778 53.2102C37.1005 53.2644 37.0105 53.3054 36.916 53.3313C36.8233 53.3567 36.7257 53.3675 36.6314 53.362C36.3755 53.3469 36.1404 53.2183 36.0549 52.9458C35.9733 52.6855 35.5209 51.3574 35.0193 49.9598C34.9893 49.8762 34.9591 49.7924 34.9288 49.7085L34.2759 52.0135C34.356 52.4829 34.4091 52.811 34.4154 52.8828C34.4403 53.1673 34.286 53.3651 34.0672 53.4712C33.9809 53.5131 33.8859 53.5393 33.7903 53.5496C33.6952 53.5598 33.5966 53.5546 33.5029 53.5337C33.2529 53.478 33.0416 53.3135 33.0008 53.0309C32.9612 52.7567 32.7265 51.3696 32.4563 49.9186C32.4438 49.8511 32.4311 49.7834 32.4184 49.7158L31.4372 51.8322C31.4424 52.3075 31.4431 52.6398 31.4379 52.7128C31.4177 52.998 31.2343 53.1693 31.0016 53.2395C30.912 53.2666 30.814 53.2772 30.7161 53.2722C30.6181 53.2672 30.5214 53.247 30.4344 53.2125C30.1966 53.1182 30.0141 52.9227 30.0183 52.6372C30.0223 52.3631 30.0087 50.9588 29.9701 49.4772C29.9687 49.4222 29.9672 49.3671 29.9657 49.3119L28.6893 51.2158C28.6204 51.6848 28.5693 52.0126 28.5526 52.085C28.4882 52.3633 28.2807 52.5037 28.0405 52.5368C27.9462 52.5498 27.8474 52.5452 27.7522 52.5251C27.6575 52.5052 27.5653 52.47 27.4836 52.4216C27.2637 52.2916 27.1141 52.0702 27.1627 51.7889C27.2086 51.523 27.4132 50.1376 27.6072 48.6598C27.6167 48.587 27.6263 48.5139 27.6357 48.4409L26.0363 50.1602C25.8938 50.6142 25.7916 50.9304 25.7643 50.9974C25.6568 51.262 25.4295 51.3678 25.1866 51.3625C25.0916 51.3604 24.9948 51.3403 24.904 51.3054C24.8131 51.2705 24.7275 51.2213 24.655 51.1611C24.4585 50.9981 24.3459 50.7557 24.4385 50.4852C24.5255 50.231 24.9459 48.8965 25.3714 47.4663C25.3938 47.3913 25.4161 47.316 25.4384 47.2406L23.5743 48.6942C23.3617 49.1196 23.2107 49.4155 23.173 49.4776C23.0251 49.7214 22.784 49.7896 22.5449 49.7459C22.4514 49.7288 22.3592 49.6935 22.2752 49.6448C22.1925 49.5969 22.1162 49.5346 22.0532 49.4626C21.8846 49.27 21.8115 49.0126 21.9456 48.7605C22.0729 48.5214 22.7006 47.2688 23.3458 45.9277C23.3693 45.8788 23.3928 45.8298 23.4163 45.7808L21.4124 46.8909C21.1361 47.2781 20.9408 47.5467 20.8942 47.6019C20.7102 47.8196 20.4614 47.8494 20.2321 47.769C20.1422 47.7374 20.0564 47.6882 19.9811 47.6271C19.907 47.5669 19.8413 47.4935 19.7902 47.4124C19.6537 47.1959 19.6215 46.9303 19.793 46.7025C19.9596 46.4813 20.7787 45.3372 21.6184 44.1223C21.6542 44.0706 21.69 44.0188 21.7258 43.9668L19.5471 44.7582C19.2145 45.0961 18.9797 45.3305 18.9238 45.3787C18.7078 45.565 18.4574 45.5555 18.2437 45.4402C18.1595 45.3947 18.0825 45.3329 18.0181 45.2611C17.9535 45.1891 17.8998 45.1061 17.8624 45.0187C17.7617 44.784 17.7719 44.5168 17.9775 44.3182C18.1709 44.1315 19.1533 43.1351 20.184 42.0556C20.2335 42.0037 20.2831 41.9517 20.3327 41.8996ZM17.0965 42.4989C17.1546 42.463 17.4283 42.2643 17.8191 41.9758L17.8213 41.9743C18.2647 41.647 18.8582 41.2045 19.4582 40.7532C20.3446 40.0864 21.2362 39.4071 21.6729 39.0558C21.7821 38.968 21.7966 38.8461 21.7599 38.7388C21.7443 38.6934 21.7197 38.6494 21.689 38.61C21.659 38.5716 21.6242 38.5393 21.5874 38.5158C21.5215 38.474 21.447 38.4624 21.3905 38.5086C20.8176 38.9762 20.0687 39.5566 19.341 40.1098C19.2751 40.16 19.2092 40.2099 19.1437 40.2596C19.1171 40.3003 19.0769 40.3314 19.0294 40.3461C17.9626 41.1528 16.9975 41.8612 16.7907 42.0056C16.7234 42.0526 16.712 42.1423 16.7346 42.232C16.7462 42.2781 16.7674 42.3252 16.7959 42.3693C16.8236 42.4124 16.8563 42.4494 16.8915 42.4764C16.9531 42.5235 17.0278 42.5413 17.0965 42.4989ZM18.8771 39.9336C18.9466 39.881 19.0165 39.8279 19.0866 39.7747C19.2457 39.6537 19.4058 39.5315 19.5645 39.4097L18.2647 39.4597C17.964 39.627 17.6758 39.7866 17.4165 39.9294L18.8771 39.9336ZM22.5265 42.7891L20.9466 43.3208C20.7011 43.5751 20.4573 43.8266 20.2281 44.062L22.1349 43.3694C22.2688 43.1727 22.4002 42.9781 22.5265 42.7891ZM19.2702 44.44C19.2771 44.4317 19.2848 44.4238 19.2931 44.4166C19.6781 44.0245 20.1896 43.4987 20.7063 42.9631C21.472 42.1694 22.2437 41.3593 22.6249 40.9375C22.7188 40.8337 22.7139 40.7111 22.6608 40.6112C22.6378 40.5679 22.6067 40.5283 22.5706 40.4947C22.5353 40.4618 22.4956 40.4354 22.4548 40.4177C22.3838 40.387 22.3087 40.3876 22.26 40.4423C21.7685 40.9941 21.1205 41.6854 20.4891 42.3467C19.4643 43.4201 18.4706 44.4272 18.2701 44.6207C18.211 44.6777 18.214 44.7683 18.2505 44.8535C18.2699 44.8987 18.2979 44.9418 18.3317 44.9795C18.3656 45.0173 18.4038 45.0487 18.4434 45.07C18.5117 45.1069 18.5884 45.1127 18.6495 45.06C18.7005 45.016 18.9352 44.7809 19.2702 44.44ZM24.6755 44.0805C24.6704 44.0965 24.6635 44.1118 24.6549 44.1262C24.3818 44.7317 24.0512 45.4326 23.7254 46.1099C23.0802 47.4511 22.4469 48.7141 22.317 48.9582C22.2783 49.031 22.3087 49.1161 22.3694 49.1855C22.4014 49.222 22.4417 49.2545 22.4864 49.2805C22.5299 49.3057 22.5759 49.3236 22.6209 49.3318C22.697 49.3457 22.7716 49.3275 22.8135 49.2584C22.8492 49.1996 23.0003 48.903 23.2137 48.4753C23.2173 48.4667 23.2214 48.4583 23.2262 48.4502C23.4716 47.9581 23.7962 47.2993 24.1224 46.6302C24.6028 45.6446 25.0858 44.6374 25.3218 44.1104C25.379 43.9825 25.3366 43.8674 25.2552 43.7888C25.2198 43.7546 25.1783 43.7266 25.1344 43.7061C25.0903 43.6856 25.0443 43.6726 25 43.6684C24.9225 43.6611 24.8511 43.6848 24.8217 43.7517C24.7753 43.8572 24.7265 43.9671 24.6755 44.0805ZM24.026 44.4897L22.5687 45.2522C22.3658 45.5422 22.1643 45.8291 21.9749 46.0976L23.7279 45.1265C23.8303 44.9099 23.9304 44.6963 24.026 44.4897ZM21.0894 46.6201C21.0949 46.611 21.1012 46.6022 21.1081 46.5939C21.4272 46.1461 21.8501 45.5464 22.276 44.937C22.9027 44.0402 23.5361 43.1215 23.8525 42.6359C23.9292 42.5181 23.9053 42.3977 23.8372 42.3073C23.8077 42.2682 23.7709 42.234 23.7302 42.2067C23.6905 42.18 23.6472 42.1601 23.6037 42.149C23.5284 42.1297 23.4543 42.1418 23.4151 42.2029C23.0221 42.8158 22.4888 43.6024 21.964 44.3617C21.1112 45.5954 20.2927 46.7397 20.13 46.9557C20.0802 47.0219 20.0969 47.1107 20.1461 47.1887C20.1719 47.2297 20.2066 47.268 20.2469 47.3007C20.2859 47.3324 20.3285 47.3572 20.3714 47.3723C20.4444 47.3979 20.521 47.3915 20.5732 47.3297C20.6177 47.277 20.8127 47.0082 21.0894 46.6201ZM25.8319 45.878L24.4614 46.8952C24.3062 47.2133 24.1518 47.5281 24.0064 47.8229L25.6075 46.5744C25.6176 46.5665 25.6283 46.5597 25.6392 46.554C25.7058 46.3239 25.7704 46.0972 25.8319 45.878ZM27.8095 47.0317L26.6266 48.2442C26.5237 48.5831 26.4212 48.9185 26.3244 49.2327L27.7075 47.7459C27.7134 47.7396 27.7196 47.7337 27.7261 47.7283C27.7554 47.4908 27.7835 47.2571 27.8095 47.0317ZM25.3735 50.8398C25.3998 50.7752 25.5037 50.4528 25.6487 49.9897L25.6492 49.9883C25.814 49.4619 26.0319 48.7541 26.2496 48.0359C26.5701 46.9788 26.888 45.9056 27.0345 45.359C27.0708 45.2234 27.0108 45.1165 26.9181 45.0518C26.8767 45.0229 26.8312 45.0016 26.7853 44.9886L26.7845 44.9888C26.7382 44.9757 26.6911 44.9702 26.647 44.973C26.5693 44.9781 26.5024 45.0129 26.484 45.0836C26.2996 45.7925 26.0373 46.7044 25.7752 47.5853C25.352 49.008 24.9263 50.3573 24.836 50.621C24.8094 50.6987 24.8534 50.778 24.9248 50.8373C24.9633 50.8692 25.0079 50.895 25.0545 50.9129C25.1012 50.9308 25.1494 50.9412 25.1951 50.9422C25.2725 50.9439 25.3433 50.9142 25.3735 50.8398ZM30.3098 47.2335C30.3114 47.2452 30.312 47.257 30.3116 47.2688C30.3449 47.9253 30.371 48.7042 30.3907 49.4653C30.4296 50.9593 30.4434 52.3689 30.4394 52.6421C30.4382 52.7246 30.5042 52.7864 30.5901 52.8205C30.6372 52.8391 30.6874 52.85 30.7366 52.8525C30.7858 52.855 30.8351 52.8497 30.8802 52.8361C30.9542 52.8137 31.0123 52.7637 31.0179 52.6839C31.0283 52.5374 31.0109 51.1602 30.9814 49.7469C30.9585 48.6514 30.9281 47.5354 30.8973 46.9587C30.8898 46.8177 30.8001 46.7344 30.6925 46.7018C30.6465 46.6879 30.5964 46.6822 30.5462 46.6841C30.4979 46.686 30.451 46.6955 30.4092 46.7122C30.3374 46.7409 30.285 46.7944 30.2894 46.867C30.2965 46.9837 30.3033 47.1062 30.3098 47.2335ZM29.918 47.8867L28.9697 49.2309C28.9218 49.581 28.8735 49.9279 28.8276 50.2531L29.9439 48.588C29.936 48.3498 29.9274 48.1146 29.918 47.8867ZM28.2784 51.1168C28.2791 51.1104 28.28 51.104 28.2812 51.0976C28.3604 50.5534 28.463 49.8246 28.564 49.0847C28.7143 47.9835 28.8591 46.8712 28.9165 46.3166C28.931 46.1769 28.855 46.0808 28.7534 46.0317C28.709 46.0103 28.6603 45.9965 28.6112 45.9907C28.5626 45.985 28.5151 45.9869 28.4725 45.9966C28.3967 46.0139 28.3362 46.0586 28.3292 46.1311C28.2585 46.8668 28.1438 47.8077 28.0248 48.7146C27.8314 50.1879 27.6245 51.5862 27.5772 51.8597C27.5631 51.9411 27.619 52.0126 27.6988 52.0597C27.7412 52.0848 27.7894 52.1032 27.8389 52.1136C27.8878 52.1239 27.9369 52.1265 27.9821 52.1203C28.0592 52.1097 28.1247 52.0692 28.1428 51.9911C28.158 51.9255 28.2089 51.5941 28.2784 51.1168ZM32.1476 48.3203L31.4046 49.8278C31.4119 50.1818 31.4183 50.5325 31.4237 50.8614L32.2776 49.0195C32.2794 49.0155 32.2814 49.0116 32.2835 49.0078C32.238 48.7732 32.1925 48.5426 32.1476 48.3203ZM34.4403 48.3822L33.928 50.0392C33.9909 50.3877 34.0525 50.733 34.1095 51.0567L34.663 49.1027C34.6688 49.0826 34.6772 49.064 34.6879 49.0473C34.6044 48.8202 34.5214 48.597 34.4403 48.3822ZM33.8539 52.0421C33.8533 52.0389 33.8527 52.0356 33.8522 52.0323C33.7592 51.4893 33.631 50.7623 33.4979 50.0264C33.3015 48.9407 33.0954 47.8408 32.9762 47.2851C32.9467 47.1478 32.8446 47.0799 32.7327 47.0646C32.6831 47.0578 32.6328 47.0597 32.5854 47.0692C32.5373 47.0788 32.4923 47.0955 32.4543 47.1182C32.3878 47.1579 32.3444 47.219 32.3601 47.2899C32.5207 48.0123 32.7027 48.9421 32.87 49.8405C33.1446 51.3157 33.3799 52.7029 33.4185 52.9705C33.4303 53.0521 33.505 53.1027 33.5948 53.1227C33.6418 53.1332 33.6933 53.1356 33.7447 53.13C33.7956 53.1246 33.8435 53.1119 33.8838 53.0924C33.9533 53.0587 34.0026 53.0001 33.9956 52.92C33.9896 52.8505 33.9354 52.518 33.8539 52.0421ZM36.7231 48.197L36.4921 49.8441C36.6098 50.178 36.7258 50.5092 36.8339 50.8198L37.0674 48.8081C36.9512 48.6001 36.8358 48.3951 36.7231 48.197ZM37.0193 52.6765C36.9837 52.5356 36.5358 51.2338 36.0648 49.8999C35.6989 48.8634 35.32 47.8117 35.1115 47.2772C35.0605 47.1466 34.949 47.0959 34.8362 47.0987C34.7869 47.0999 34.7373 47.11 34.6913 47.1272C34.6465 47.1439 34.6051 47.1676 34.5705 47.1967C34.5115 47.2463 34.4787 47.3135 34.5058 47.3815C34.7767 48.0614 35.1055 48.952 35.4163 49.8179C35.9201 51.2218 36.3751 52.5574 36.4573 52.8195C36.4819 52.8982 36.5635 52.9361 36.6551 52.9415C36.7048 52.9444 36.7566 52.9386 36.8059 52.9251C36.8535 52.9121 36.8984 52.8918 36.9363 52.8652C36.9996 52.8208 37.0391 52.7548 37.0193 52.6765ZM38.9128 47.5451L38.9436 49.2595C39.1121 49.5706 39.2783 49.8789 39.4334 50.1681L39.3486 48.1398C39.348 48.1246 39.3489 48.1097 39.3513 48.0953C39.2025 47.907 39.0554 47.7224 38.9128 47.5451ZM39.502 51.1898C39.498 51.1832 39.4944 51.1764 39.4911 51.1693C39.2332 50.6829 38.8853 50.0342 38.5303 49.3793C38.0085 48.4167 37.4702 47.4386 37.1778 46.9387C37.107 46.8177 36.9889 46.7853 36.8779 46.8057C36.8299 46.8145 36.7828 46.8322 36.7397 46.8566C36.6977 46.8803 36.6605 46.9102 36.6312 46.9439C36.5805 47.0024 36.5584 47.0741 36.5958 47.1369C36.9658 47.7591 37.4309 48.589 37.8765 49.4009C38.5964 50.7127 39.2541 51.9586 39.3753 52.2025C39.4119 52.2761 39.4984 52.3006 39.5898 52.2916C39.6379 52.2868 39.688 52.2728 39.7357 52.2512C39.7817 52.2304 39.823 52.2035 39.8553 52.1722C39.9107 52.1186 39.9391 52.0474 39.9072 51.9729C39.8794 51.9081 39.7257 51.6121 39.502 51.1898ZM41.0061 46.6153L41.3046 48.2787C41.5204 48.5591 41.7336 48.8374 41.933 49.0987L41.5271 47.1097C41.5255 47.1023 41.5244 47.0949 41.5237 47.0876C41.3479 46.9259 41.1743 46.7675 41.0061 46.6153ZM42.6881 50.8061C42.6098 50.6824 41.7782 49.5844 40.9153 48.464C40.243 47.5911 39.555 46.7093 39.1928 46.2695C39.1038 46.1613 38.9818 46.1481 38.8751 46.186C38.83 46.2021 38.7864 46.2271 38.7473 46.2583C38.7088 46.2891 38.6767 46.3242 38.654 46.3608C38.613 46.427 38.6024 46.5014 38.6491 46.5574C39.1222 47.1235 39.7114 47.8662 40.2737 48.5886C41.1869 49.7618 42.0369 50.8914 42.1982 51.1171C42.2461 51.184 42.3359 51.1944 42.4252 51.1708C42.4717 51.1586 42.5188 51.1368 42.5625 51.1079C42.6049 51.0799 42.6414 51.0469 42.668 51.0112C42.7144 50.9492 42.7313 50.8743 42.6881 50.8061ZM42.9168 45.3735L43.4664 46.9471C43.7237 47.1899 43.9781 47.431 44.2162 47.6575L43.502 45.759C43.3031 45.6269 43.1068 45.4975 42.9168 45.3735ZM45.2311 49.2243C45.133 49.1131 44.139 48.1603 43.1116 47.1916C42.3101 46.4358 41.4915 45.6737 41.0641 45.2962C40.9588 45.2031 40.8362 45.2092 40.7371 45.2633C40.6943 45.2867 40.6551 45.3182 40.6219 45.3546C40.5896 45.3902 40.5636 45.4303 40.5461 45.472L40.5457 45.4718C40.5159 45.5435 40.5174 45.6186 40.5725 45.6665C41.1285 46.1505 41.8275 46.7909 42.497 47.4157C43.589 48.4348 44.6043 49.4137 44.7968 49.6085C44.8545 49.6669 44.9447 49.6629 45.0293 49.6255C45.0735 49.606 45.1165 49.5772 45.1547 49.5421C45.1918 49.5081 45.2225 49.4696 45.2435 49.4297C45.2794 49.3612 45.2844 49.2847 45.2311 49.2243ZM44.1811 43.2082C44.1987 43.2133 44.2156 43.2207 44.2313 43.2301C44.8386 43.4958 45.5426 43.8181 46.2236 44.1362C47.5705 44.7653 48.8412 45.3845 49.0875 45.512C49.1607 45.5499 49.2455 45.5183 49.3144 45.4567C49.3503 45.4245 49.3821 45.384 49.4076 45.3389C49.4326 45.2947 49.4501 45.2485 49.4576 45.2042C49.4708 45.1276 49.4519 45.0529 49.3826 45.012C49.325 44.9779 49.026 44.8301 48.5939 44.6208C48.5856 44.6174 48.5774 44.6135 48.5696 44.609C48.0749 44.3695 47.4124 44.0525 46.7386 43.7336C45.7412 43.2614 44.7268 42.789 44.2062 42.5629C44.0773 42.5069 43.9627 42.5505 43.8851 42.6326C43.8516 42.6682 43.824 42.7102 43.8037 42.755C43.7836 42.7998 43.771 42.8458 43.7674 42.8894C43.761 42.9669 43.7855 43.038 43.8528 43.0667C43.9582 43.1115 44.0679 43.1588 44.1811 43.2082ZM44.6008 43.855L45.3794 45.3026C45.6714 45.5019 45.9602 45.7 46.2306 45.8862L45.2403 44.1455C45.0228 44.0457 44.8083 43.9483 44.6008 43.855ZM46.7567 46.762C46.7521 46.7591 46.7477 46.756 46.7433 46.7527C46.2914 46.4384 45.6843 46.0206 45.0673 45.5997C44.1565 44.9785 43.2282 44.354 42.7479 44.0487C42.629 43.9732 42.509 43.9982 42.4197 44.0672C42.3813 44.0968 42.3474 44.1342 42.3201 44.176C42.2935 44.2166 42.274 44.26 42.2636 44.3029C42.2452 44.3784 42.2582 44.4526 42.32 44.4912C42.946 44.8826 43.7365 45.4053 44.495 45.9169C45.7302 46.7501 46.8878 47.5587 47.1099 47.722C47.1765 47.771 47.2651 47.7532 47.3425 47.7032C47.383 47.677 47.4208 47.6419 47.4531 47.6013C47.4842 47.562 47.5085 47.519 47.5233 47.4754C47.548 47.4022 47.541 47.3259 47.4792 47.2749C47.4261 47.231 47.1521 47.0371 46.7567 46.762ZM45.9674 42.0323L47.0001 43.3912C47.3198 43.5426 47.6362 43.6934 47.9327 43.8355L46.6659 42.2486C46.658 42.2386 46.6512 42.2281 46.6453 42.2173C46.4143 42.1533 46.1868 42.0912 45.9674 42.0323ZM47.0995 40.0421L48.3252 41.211C48.6647 41.3098 49.0008 41.4085 49.3158 41.5016L47.814 40.1362C47.8075 40.1302 47.8014 40.1239 47.7957 40.1174C47.5588 40.0909 47.3253 40.0656 47.0995 40.0421ZM50.082 42.1692C50.0807 42.1688 50.0794 42.1685 50.0781 42.168C49.5505 42.0095 48.8413 41.8001 48.121 41.5907C47.0677 41.2845 45.993 40.9795 45.4342 40.8366C45.2981 40.8018 45.192 40.8627 45.1286 40.9559C45.1011 40.9963 45.0805 41.0422 45.0676 41.0897C45.055 41.1362 45.0501 41.1834 45.0535 41.2276C45.0595 41.3057 45.0948 41.3724 45.1652 41.3899C45.8831 41.568 46.7967 41.8194 47.6757 42.07C49.1121 42.4796 50.4616 42.8881 50.7216 42.9738C50.7999 42.9996 50.8786 42.955 50.9368 42.8832C50.9673 42.8455 50.9924 42.8005 51.0103 42.7523C51.0279 42.705 51.0377 42.6568 51.0382 42.6118C51.039 42.534 51.0085 42.4633 50.9335 42.4338C50.8699 42.4089 50.547 42.3089 50.082 42.1692ZM47.2691 37.5399C47.2824 37.5378 47.2958 37.537 47.3093 37.5374C47.9738 37.496 48.7498 37.4609 49.5022 37.4328C50.9971 37.3768 52.4062 37.3469 52.679 37.3478C52.7617 37.3481 52.8228 37.2817 52.8556 37.1959C52.873 37.1505 52.883 37.0997 52.885 37.048C52.887 36.9989 52.8811 36.9499 52.8671 36.9053C52.8439 36.8315 52.7934 36.774 52.7138 36.7693C52.5684 36.7607 51.1916 36.7939 49.7775 36.8396C48.6723 36.8752 47.5532 36.9183 46.9893 36.9549C46.8495 36.964 46.7676 37.0549 46.7361 37.1632C46.7222 37.2113 46.7167 37.2613 46.7191 37.3094C46.7216 37.3576 46.7316 37.4045 46.7488 37.4461C46.7784 37.5177 46.8326 37.5697 46.9053 37.5645C47.0218 37.556 47.1434 37.5479 47.2691 37.5399ZM47.929 37.9238L49.2841 38.8568C49.635 38.9008 49.9824 38.945 50.308 38.9872L48.6306 37.8901C48.3914 37.9007 48.1561 37.9119 47.929 37.9238ZM52.0532 39.6528C51.9074 39.6208 50.5427 39.4388 49.1428 39.264C48.0413 39.1265 46.9279 38.9944 46.3709 38.9431C46.2306 38.9302 46.1351 39.0075 46.087 39.1098C46.0665 39.1535 46.0536 39.2023 46.0483 39.2519C46.0431 39.3006 46.0456 39.3484 46.0559 39.3915C46.0739 39.4666 46.1194 39.5261 46.1924 39.5323C46.9209 39.594 47.8646 39.6982 48.7783 39.8075C50.2573 39.9845 51.6568 40.1752 51.9292 40.2191C52.0108 40.2322 52.0815 40.1759 52.1275 40.096C52.1513 40.0547 52.1688 40.0062 52.179 39.955C52.1888 39.906 52.1908 39.8567 52.184 39.8116C52.1726 39.7348 52.1315 39.6699 52.0532 39.6528ZM48.3377 35.6893L49.8531 36.4148C50.2065 36.4036 50.5568 36.3931 50.8852 36.384L49.0349 35.5517C49.0307 35.5498 49.0267 35.5478 49.0227 35.5458C48.7891 35.5938 48.5593 35.6419 48.3377 35.6893ZM48.3727 33.3958L50.0364 33.8895C50.3838 33.8227 50.728 33.7573 51.0508 33.6966L49.0915 33.1656C49.0708 33.16 49.0517 33.1516 49.0345 33.1408C48.8086 33.2268 48.5865 33.3123 48.3727 33.3958ZM52.0485 33.939C52.0394 33.9413 52.0301 33.943 52.0208 33.944C51.4799 34.0432 50.7583 34.179 50.0275 34.3198C48.9452 34.5283 47.8481 34.7469 47.2928 34.8727C47.1558 34.9037 47.089 35.0065 47.075 35.1185C47.0688 35.1682 47.0712 35.2186 47.0812 35.2658C47.0914 35.3138 47.1086 35.3586 47.1317 35.3963C47.1722 35.4624 47.2341 35.5052 47.3054 35.4885C48.0235 35.3203 48.9514 35.1276 49.8491 34.9499C51.3195 34.6587 52.7048 34.4076 52.9728 34.3657C53.0545 34.353 53.1043 34.2777 53.1232 34.1878C53.1332 34.1405 53.135 34.089 53.1289 34.0376C53.123 33.9883 53.1096 33.9407 53.0888 33.8991C53.0542 33.8298 52.9952 33.7808 52.9157 33.7887C52.8474 33.7955 52.5191 33.8528 52.0485 33.939ZM47.3715 31.1256C47.4053 31.0785 47.4578 31.0466 47.5167 31.0394C48.0693 30.7124 48.7212 30.3405 49.3607 29.9818C50.6647 29.2504 51.905 28.581 52.1483 28.4572C52.2214 28.42 52.2451 28.3329 52.2352 28.2412C52.2298 28.1911 52.2157 28.1412 52.1945 28.0955C52.1738 28.0508 52.1464 28.01 52.1139 27.977C52.0596 27.922 51.9882 27.894 51.9147 27.9264C51.7797 27.9858 50.5697 28.6433 49.3337 29.3282C48.3652 29.8649 47.3886 30.4141 46.9053 30.7027C46.7851 30.7746 46.7537 30.8929 46.7752 31.0036C46.7846 31.0522 46.8027 31.0995 46.8273 31.142C46.8514 31.1838 46.8815 31.2206 46.9154 31.2494C46.9745 31.2998 47.0467 31.3213 47.1094 31.2832C47.1933 31.2323 47.2808 31.1797 47.3715 31.1256ZM48.2092 31.1218L49.8109 31.3279C50.1435 31.2063 50.4734 31.0865 50.783 30.9748L48.8214 30.7698C48.6132 30.8885 48.4078 31.0066 48.2092 31.1218ZM52.6378 30.7684C52.498 30.8054 51.201 31.2683 49.8716 31.7548C48.8296 32.1362 47.7793 32.5279 47.2605 32.7371C47.1307 32.7895 47.0814 32.9018 47.0855 33.0147C47.0873 33.0641 47.0979 33.1135 47.1156 33.1594C47.1333 33.2051 47.1572 33.2463 47.1856 33.2793C47.2362 33.3381 47.3041 33.3704 47.3717 33.3426C48.0468 33.0646 48.9341 32.7255 49.7977 32.4044C51.2054 31.881 52.5314 31.412 52.7878 31.3283C52.8655 31.303 52.9022 31.2209 52.9065 31.1289C52.9089 31.0791 52.9026 31.0277 52.8887 30.979C52.8751 30.9316 52.8544 30.887 52.8274 30.8495C52.7821 30.7865 52.7157 30.7477 52.6378 30.7684ZM47.4954 28.9627L49.2083 28.916C49.5181 28.7445 49.8253 28.5752 50.1137 28.4172L48.0861 28.5208C48.0711 28.5215 48.0565 28.5207 48.0422 28.5185C47.8552 28.6693 47.6717 28.8182 47.4954 28.9627ZM46.547 26.8778L48.2065 26.5642C48.4849 26.3458 48.7614 26.1298 49.021 25.9279L47.0368 26.3521C47.0294 26.3537 47.022 26.3549 47.0146 26.3557C46.8546 26.533 46.6977 26.7081 46.547 26.8778ZM50.7215 25.1568C50.6012 25.2347 49.5112 26.0764 48.3968 26.9513C47.5261 27.6348 46.6492 28.3321 46.2176 28.6942C46.1104 28.7841 46.0985 28.9064 46.1375 29.0129C46.154 29.0581 46.1793 29.1014 46.2107 29.1398C46.2418 29.178 46.2774 29.2099 46.3147 29.2326C46.3808 29.2727 46.4551 29.2824 46.5107 29.2351C47.0712 28.7578 47.8087 28.1616 48.5268 27.5919C49.6905 26.6686 50.8127 25.8078 51.0374 25.644C51.1037 25.5956 51.1132 25.5056 51.0888 25.4162C51.0761 25.3701 51.0541 25.3235 51.025 25.2804C50.9967 25.2384 50.9631 25.2022 50.9266 25.1754C50.8641 25.1296 50.7891 25.1132 50.7215 25.1568ZM45.2874 24.9784L46.8555 24.4144C47.0957 24.1551 47.3342 23.8987 47.5583 23.6587L45.667 24.3903C45.537 24.5901 45.4096 24.7874 45.2874 24.9784ZM48.5003 23.2703C48.4982 23.2725 48.4961 23.2748 48.4939 23.277C48.1161 23.6778 47.612 24.2178 47.1034 24.7674C46.3559 25.575 45.6017 26.4003 45.2272 26.8323C45.1354 26.9382 45.1427 27.0607 45.1979 27.1594C45.2217 27.2021 45.2534 27.2409 45.2899 27.2735C45.3265 27.3061 45.3668 27.3319 45.4077 27.3486C45.4793 27.3778 45.5543 27.3756 45.6019 27.3199C46.0798 26.7604 46.714 26.0553 47.3332 25.3793C48.3412 24.2788 49.3111 23.254 49.5046 23.0593C49.5623 23.0013 49.5573 22.911 49.5191 22.8267C49.4984 22.7811 49.4697 22.7384 49.4356 22.702C49.4021 22.6662 49.3632 22.636 49.3219 22.6148C49.2529 22.5794 49.1762 22.5751 49.1163 22.6289C49.0652 22.6749 48.8321 22.9183 48.5003 23.2703ZM43.1101 23.7357C43.1152 23.7173 43.1227 23.6996 43.1325 23.6831C43.3921 23.0744 43.7078 22.3677 44.0197 21.6836C44.6399 20.3231 45.245 19.0506 45.3682 18.8071C45.4055 18.7334 45.3733 18.6488 45.311 18.5805C45.2778 18.5441 45.237 18.5125 45.1926 18.4879C45.1493 18.464 45.1029 18.4472 45.0572 18.4398C44.9809 18.4274 44.9067 18.4471 44.8662 18.517C44.8316 18.5768 44.6873 18.8751 44.4838 19.3049C44.4797 19.316 44.4745 19.3269 44.4685 19.3373C44.2333 19.8342 43.923 20.4982 43.6115 21.1722C43.1491 22.1729 42.6863 23.1913 42.4645 23.7154C42.4099 23.8444 42.4547 23.9587 42.5377 24.0357C42.5744 24.0696 42.6166 24.097 42.6607 24.1164C42.7044 24.1356 42.7506 24.1476 42.7956 24.1509C42.8732 24.1566 42.9442 24.1314 42.9722 24.0641C43.0158 23.9587 43.062 23.849 43.1101 23.7357ZM43.7526 23.3093L45.1946 22.5164C45.3915 22.2221 45.587 21.9312 45.7707 21.659L44.0374 22.6665C43.9397 22.885 43.8441 23.1006 43.7526 23.3093ZM46.639 21.1272C46.6367 21.1309 46.6342 21.1346 46.6316 21.1381C46.3208 21.5935 45.9078 22.2053 45.4929 22.826C44.8863 23.7334 44.2724 24.6647 43.9637 25.1605C43.8895 25.2796 43.9158 25.3993 43.9856 25.488C44.0155 25.526 44.0532 25.5594 44.095 25.5863C44.1359 25.6126 44.1797 25.6317 44.2228 25.6418C44.2985 25.6595 44.3724 25.6458 44.4103 25.5839C44.7956 24.9548 45.3113 24.1589 45.8165 23.3948C46.6421 22.146 47.4375 20.9841 47.5965 20.7636C47.6447 20.6969 47.6259 20.6085 47.5751 20.5315C47.548 20.4904 47.5126 20.4527 47.4723 20.4214C47.4332 20.3909 47.3901 20.367 47.3463 20.3527C47.2732 20.3287 47.1971 20.3366 47.1464 20.3991C47.1014 20.4547 46.9098 20.7305 46.639 21.1272ZM41.9179 21.9593L43.2677 20.9135C43.4162 20.5925 43.5639 20.2749 43.7029 19.9775L42.1284 21.2585C42.1182 21.2668 42.1075 21.2739 42.0965 21.28C42.0347 21.5115 41.9747 21.7394 41.9179 21.9593ZM39.9174 20.8461L41.0747 19.6099C41.1704 19.2693 41.2659 18.9322 41.3561 18.6163L40.0049 20.1304C39.999 20.137 39.9928 20.1432 39.9863 20.1489C39.9619 20.3864 39.9387 20.6203 39.9174 20.8461ZM42.0184 17.838C42.0171 17.8432 42.0156 17.8482 42.014 17.8533C41.8603 18.3821 41.658 19.091 41.4562 19.81C41.1601 20.865 40.8652 21.9421 40.7271 22.5035C40.6936 22.6399 40.7554 22.7454 40.849 22.8078C40.8897 22.835 40.936 22.8552 40.9838 22.8677C41.0307 22.8799 41.078 22.8845 41.122 22.8807C41.1999 22.874 41.2661 22.838 41.283 22.7672C41.4541 22.0492 41.6971 21.133 41.9399 20.2506C42.3358 18.8116 42.7321 17.4577 42.8155 17.1964C42.8406 17.1178 42.7954 17.0395 42.7232 16.982C42.6851 16.9518 42.6397 16.9271 42.5911 16.9095C42.5448 16.8929 42.4965 16.8837 42.4502 16.8836C42.3727 16.8836 42.3026 16.9145 42.2739 16.9894C42.2491 17.0542 42.1528 17.3758 42.0184 17.838ZM37.4129 20.6936C37.4116 20.6839 37.4108 20.6741 37.4108 20.6643C37.364 20.008 37.3217 19.2284 37.2861 18.4668C37.2165 16.9766 37.1736 15.5664 37.172 15.2917C37.1715 15.2091 37.1043 15.1488 37.018 15.1166C36.9717 15.0993 36.921 15.0897 36.8704 15.0882C36.8208 15.0867 36.7715 15.093 36.727 15.1074C36.6537 15.1312 36.597 15.1822 36.593 15.262C36.5854 15.4121 36.6311 16.7882 36.6896 18.1968C36.7355 19.3006 36.789 20.4189 36.8308 20.9838C36.8412 21.1239 36.9332 21.2052 37.042 21.2357C37.0889 21.2488 37.139 21.2537 37.1884 21.2507C37.2369 21.2478 37.2837 21.2374 37.3248 21.2199C37.3959 21.1898 37.4471 21.1355 37.4412 21.0633C37.4316 20.9457 37.4222 20.8221 37.4129 20.6936ZM37.7915 20.0358L38.7125 18.6713C38.7532 18.3197 38.7943 17.9718 38.8333 17.6459L37.751 19.3347C37.7639 19.5728 37.7774 19.808 37.7915 20.0358ZM39.3637 16.7722C39.3632 16.7787 39.3624 16.7851 39.3613 16.7916C39.293 17.3382 39.2052 18.0695 39.1197 18.8099C38.994 19.8984 38.873 21.0084 38.8254 21.5845C38.8138 21.7246 38.8918 21.8192 38.9943 21.8662C39.0384 21.8864 39.0874 21.899 39.137 21.9038C39.1861 21.9086 39.234 21.9057 39.2767 21.895C39.3514 21.8764 39.4104 21.8305 39.4159 21.758C39.4711 21.0244 39.5665 20.0806 39.667 19.1688C39.8296 17.6943 40.0078 16.2908 40.0496 16.015C40.062 15.9335 40.0048 15.8632 39.9241 15.8177C39.8817 15.7938 39.8333 15.7766 39.783 15.7671C39.7336 15.7578 39.6843 15.7561 39.6393 15.7633C39.5629 15.7754 39.4986 15.8172 39.4821 15.8958C39.4676 15.9652 39.4232 16.2969 39.3637 16.7722ZM35.5532 19.6473L36.2651 18.1242C36.2505 17.7706 36.2368 17.4205 36.2246 17.0923L35.4088 18.9519C35.4071 18.9559 35.4052 18.9598 35.4032 18.9636C35.4534 19.1968 35.5037 19.4261 35.5532 19.6473ZM33.2597 19.6338L33.7378 17.9658C33.6678 17.6188 33.5991 17.2752 33.5354 16.9531L33.0226 18.9175C33.0172 18.938 33.009 18.9571 32.9985 18.9743C33.0866 19.1993 33.1742 19.4206 33.2597 19.6338ZM33.7694 15.9568C33.7711 15.9636 33.7724 15.9704 33.7734 15.9774C33.8775 16.5181 34.0203 17.2403 34.168 17.9706C34.3863 19.0497 34.615 20.1446 34.7466 20.7012C34.7788 20.8376 34.8823 20.9033 34.9945 20.9163C35.043 20.9219 35.0933 20.9188 35.1417 20.908C35.1884 20.8977 35.2329 20.8799 35.2715 20.8558C35.3371 20.8147 35.3792 20.7526 35.3619 20.6816C35.1874 19.9664 34.9861 19.04 34.7998 18.143C34.4955 16.6775 34.2315 15.294 34.187 15.0256C34.1735 14.9438 34.0976 14.8945 34.0073 14.8764C33.9596 14.8668 33.9079 14.8654 33.8568 14.8719C33.8073 14.8783 33.7598 14.8921 33.7188 14.9131C33.6502 14.9481 33.6022 15.0076 33.6109 15.0877C33.6185 15.1578 33.6789 15.4866 33.7694 15.9568ZM30.9705 19.9566L31.1783 18.2135C31.0537 17.8822 30.931 17.5538 30.8166 17.2458L30.6243 19.2671C30.6218 19.2939 30.6143 19.3192 30.6029 19.3419C30.7271 19.5515 30.8504 19.7578 30.9705 19.9566ZM30.888 16.2246C30.8909 16.2315 30.8935 16.2385 30.8957 16.2457C31.0849 16.7623 31.3412 17.4521 31.604 18.15C31.9906 19.1766 32.3909 20.2195 32.6115 20.7524C32.6652 20.8819 32.7775 20.9302 32.8899 20.9251C32.9382 20.9229 32.9878 20.9116 33.0349 20.8929C33.0806 20.8747 33.1215 20.8505 33.154 20.822C33.2122 20.771 33.2438 20.7029 33.2152 20.6353C32.9315 19.9641 32.5841 19.0797 32.2547 18.2181C31.7229 16.8275 31.24 15.5003 31.152 15.2386C31.1257 15.1605 31.0431 15.1242 30.9511 15.1207C30.9024 15.1189 30.8508 15.1259 30.8007 15.1408C30.7532 15.1548 30.7089 15.1759 30.6718 15.2031C30.6094 15.2489 30.5713 15.3157 30.5928 15.3937C30.611 15.4599 30.7232 15.7744 30.888 16.2246ZM28.7507 20.5852L28.6775 18.8728C28.5014 18.5661 28.3276 18.2617 28.1651 17.976L28.3001 20.0009C28.3011 20.0162 28.3005 20.0312 28.2984 20.0457C28.4519 20.2302 28.6036 20.4112 28.7507 20.5852ZM28.0726 16.9576C28.0758 16.9627 28.0788 16.9681 28.0816 16.9735C28.3514 17.4529 28.7157 18.0931 29.0881 18.7411C29.6388 19.6995 30.2026 20.6669 30.5 21.1476C30.5738 21.2669 30.6925 21.2965 30.8027 21.2734C30.8506 21.2634 30.8975 21.2444 30.9401 21.2189C30.9816 21.1941 31.0181 21.1634 31.0464 21.129C31.0957 21.0693 31.1159 20.997 31.077 20.935C30.6938 20.3257 30.2078 19.5067 29.7407 18.7033C28.9902 17.4126 28.3012 16.182 28.1732 15.9396C28.1349 15.8673 28.0475 15.845 27.956 15.8564C27.9064 15.8625 27.8567 15.8775 27.811 15.8995C27.7666 15.921 27.7261 15.9491 27.6934 15.9823C27.6392 16.0375 27.6125 16.1094 27.6462 16.1829C27.6742 16.2441 27.8362 16.5375 28.0726 16.9576ZM26.6812 21.5659L26.3416 19.9103C26.1187 19.6351 25.8985 19.362 25.6926 19.1056L26.1477 21.0838C26.1494 21.0913 26.1507 21.0987 26.1516 21.1061C26.332 21.2638 26.5096 21.4182 26.6812 21.5659ZM24.8957 17.4178C24.9781 17.5409 25.8363 18.618 26.7256 19.7152C27.4174 20.5688 28.1264 21.4325 28.502 21.8663C28.594 21.9725 28.7164 21.9828 28.8222 21.9422C28.8672 21.925 28.9102 21.8989 28.9484 21.8668C28.9853 21.8357 29.0164 21.7997 29.0389 21.7613C29.0781 21.6944 29.0868 21.6196 29.0386 21.5647C28.5542 21.0135 27.9463 20.2849 27.3644 19.5743C26.4137 18.4136 25.5399 17.311 25.3773 17.0951C25.3278 17.0295 25.2379 17.0213 25.1492 17.047C25.1017 17.0608 25.0553 17.0834 25.0136 17.1125C24.9729 17.1409 24.9374 17.175 24.9108 17.2124C24.866 17.2755 24.8509 17.3508 24.8957 17.4178ZM24.802 22.8547L24.2133 21.2945C23.9497 21.0579 23.6892 20.823 23.4455 20.6024L24.2069 22.4837C24.409 22.6107 24.6086 22.7353 24.802 22.8547ZM23.0398 19.6656C23.0445 19.6695 23.049 19.6736 23.0534 19.678C23.4597 20.0493 24.006 20.5437 24.5615 21.0421C25.3792 21.7757 26.2158 22.5167 26.6554 22.8861C26.7631 22.9765 26.8856 22.9675 26.9835 22.9108C27.0247 22.8869 27.0631 22.8542 27.0962 22.8159C27.1281 22.7791 27.1531 22.7388 27.1689 22.6981C27.1973 22.6253 27.1943 22.5498 27.1381 22.5033C26.5619 22.0264 25.849 21.4052 25.1702 20.8025C24.0587 19.8156 23.0175 18.8601 22.8179 18.6678C22.7585 18.6106 22.6681 18.6168 22.5843 18.6563C22.5397 18.6774 22.4976 18.7069 22.4614 18.7418C22.4251 18.7768 22.3952 18.8162 22.375 18.8571C22.3407 18.9265 22.3378 19.0034 22.3928 19.0627C22.44 19.1136 22.6853 19.3416 23.0398 19.6656ZM23.5871 25.049C23.5724 25.0448 23.5581 25.039 23.5445 25.0317C22.9321 24.7817 22.2184 24.476 21.5266 24.1736C20.1676 23.5793 18.8804 22.991 18.6294 22.8689C18.5555 22.8329 18.4716 22.8665 18.4043 22.9298C18.3683 22.9638 18.3372 23.005 18.3134 23.0497C18.2901 23.0933 18.2741 23.1398 18.2674 23.1855C18.2562 23.2623 18.2769 23.3363 18.347 23.3754C18.4073 23.4091 18.7129 23.5509 19.1529 23.7509C19.156 23.7522 19.159 23.7536 19.162 23.755C19.6635 23.9829 20.3372 24.2851 21.0213 24.5884C22.0275 25.0346 23.0525 25.4813 23.5823 25.6959C23.7128 25.7488 23.8264 25.7027 23.9017 25.6189C23.9336 25.5833 23.96 25.5405 23.9796 25.4941C23.9987 25.4488 24.0102 25.4024 24.0127 25.3588C24.0172 25.2814 23.9909 25.211 23.9229 25.1841C23.8154 25.1414 23.7031 25.0963 23.5871 25.049ZM23.1559 24.4141L22.3418 22.9864C22.0447 22.7942 21.7508 22.6032 21.4757 22.4237L22.5089 24.1394C22.7288 24.2337 22.9458 24.3259 23.1559 24.4141ZM20.9289 21.5619C20.9332 21.5645 20.9373 21.5673 20.9414 21.5702C21.4012 21.8733 22.0189 22.2763 22.6465 22.682C23.57 23.2789 24.5126 23.8797 25.0037 24.175C25.1239 24.2472 25.2434 24.2188 25.3314 24.1474C25.3691 24.1168 25.4017 24.079 25.4275 24.0374C25.4532 23.9961 25.4716 23.9521 25.481 23.9089C25.4976 23.8327 25.4826 23.7588 25.4195 23.7215C24.7872 23.3476 23.9832 22.8441 23.2099 22.3499C21.9502 21.5449 20.7753 20.767 20.5515 20.6108C20.4837 20.5635 20.3957 20.5834 20.3196 20.6353C20.2787 20.6633 20.2415 20.6993 20.2108 20.74C20.1809 20.7796 20.1577 20.8231 20.1441 20.8669C20.1211 20.9409 20.1301 21.0171 20.1934 21.0667C20.2478 21.1094 20.5266 21.2967 20.9289 21.5619ZM21.8339 26.2701L20.7676 24.937C20.4445 24.7936 20.1248 24.6509 19.8254 24.5165L21.1308 26.0712C21.139 26.081 21.1462 26.0914 21.1524 26.1022C21.3845 26.1603 21.6131 26.2167 21.8339 26.2701ZM20.7529 28.2879L19.4985 27.1497C19.1566 27.0593 18.8181 26.969 18.501 26.8838L20.0361 28.2115C20.0429 28.2174 20.0491 28.2235 20.0549 28.23C20.2923 28.2506 20.5264 28.2701 20.7529 28.2879ZM17.7088 26.2327C17.7164 26.2344 17.7239 26.2364 17.7313 26.2389C18.2619 26.3842 18.9721 26.575 19.6923 26.7652C20.7623 27.0477 21.8472 27.3269 22.3972 27.4531C22.534 27.4845 22.6389 27.4204 22.7003 27.3252C22.7266 27.2845 22.7459 27.2383 22.7575 27.1905C22.7693 27.1425 22.7733 27.0949 22.7689 27.0517C22.761 26.9741 22.724 26.9085 22.6529 26.8927C21.9346 26.7333 21.0142 26.5043 20.1264 26.2748C18.6834 25.9018 17.3227 25.5262 17.059 25.4465C16.98 25.4226 16.9023 25.4693 16.8457 25.5427C16.8154 25.582 16.7913 25.6275 16.775 25.675C16.7592 25.7209 16.7509 25.7694 16.7516 25.8166C16.7527 25.8941 16.7848 25.9639 16.8602 25.9914C16.9255 26.0152 17.2468 26.1062 17.7088 26.2327ZM20.6429 30.7936C20.6309 30.7957 20.6187 30.7968 20.6064 30.7968C19.9431 30.8547 19.1673 30.909 18.4147 30.9559C16.928 31.0485 15.5175 31.1132 15.2418 31.1191C15.1591 31.1209 15.0997 31.1891 15.0688 31.276C15.0525 31.322 15.0438 31.373 15.043 31.4244C15.0422 31.4749 15.0491 31.5239 15.0638 31.5669C15.0887 31.6398 15.1407 31.6957 15.2207 31.6985C15.2899 31.7009 15.6249 31.6876 16.1053 31.6646C16.1116 31.6641 16.1179 31.6638 16.1242 31.6637C16.6739 31.6374 17.4091 31.5986 18.1539 31.556C19.2551 31.4932 20.3719 31.4223 20.9382 31.3715C21.0784 31.3589 21.1582 31.2661 21.1869 31.1572C21.1996 31.109 21.2038 31.0587 21.2002 31.0102C21.1966 30.9622 21.1853 30.9156 21.167 30.8743C21.1357 30.8034 21.0805 30.7529 21.0083 30.7599C20.8914 30.7712 20.7692 30.7825 20.6429 30.7936ZM19.9758 30.4261L18.5979 29.5268C18.2459 29.4916 17.8972 29.4559 17.5704 29.4218L19.2749 30.4772C19.5138 30.4607 19.7489 30.4436 19.9758 30.4261ZM16.6899 28.9047C16.695 28.9051 16.7 28.9056 16.7051 28.9064C17.2521 28.9659 17.9852 29.0422 18.7288 29.1164C19.8306 29.2264 20.9461 29.3307 21.5079 29.3684C21.6484 29.3778 21.7419 29.2982 21.7873 29.1948C21.8069 29.1504 21.8187 29.1014 21.8227 29.0518C21.8267 29.0031 21.8229 28.9553 21.8115 28.9122C21.7917 28.8378 21.7447 28.7795 21.6717 28.7752C20.9456 28.7318 19.9987 28.6508 19.0796 28.5639C17.5882 28.4228 16.1888 28.2676 15.9198 28.2311C15.8382 28.22 15.7692 28.278 15.7252 28.3589C15.7012 28.4031 15.6844 28.4518 15.676 28.5007C15.6675 28.5497 15.6667 28.5991 15.6747 28.6447C15.6881 28.7212 15.7308 28.7851 15.8096 28.8004C15.8767 28.8133 16.2103 28.8524 16.6899 28.9047ZM19.6222 32.67L18.0887 31.982C17.7358 32.0021 17.3861 32.0212 17.0583 32.0384L18.9287 32.8246C18.9331 32.8265 18.9373 32.8284 18.9414 32.8305C19.1734 32.7767 19.4018 32.7229 19.6222 32.67ZM19.6434 34.9636L17.968 34.5114C17.6223 34.5867 17.2799 34.6607 16.9589 34.7293L18.9309 35.2116C18.9515 35.2166 18.9707 35.2245 18.9881 35.2347C19.2124 35.1429 19.4324 35.052 19.6434 34.9636ZM15.9572 34.5115C15.9654 34.5093 15.9738 34.5075 15.9823 34.5063C16.5208 34.3938 17.2395 34.24 17.9666 34.0812C19.0408 33.8465 20.1316 33.6009 20.6881 33.4602C20.8237 33.4259 20.8875 33.3216 20.8988 33.2094C20.9037 33.1596 20.9 33.1089 20.8886 33.0612C20.8775 33.0143 20.8592 32.9704 20.8351 32.9331C20.793 32.868 20.73 32.8268 20.659 32.8453C19.9487 33.0304 19.025 33.2461 18.1293 33.4466C16.6707 33.7732 15.2905 34.0588 15.0218 34.1076C14.9404 34.1224 14.8924 34.1989 14.8756 34.2894C14.8669 34.3368 14.8664 34.3885 14.8738 34.4401C14.8811 34.4905 14.8955 34.5378 14.9166 34.5775C14.9528 34.6458 15.0131 34.6931 15.0929 34.6832C15.162 34.6746 15.489 34.6092 15.9572 34.5115ZM19.3909 37.1838L18.2576 37.0665C17.928 37.1963 17.6011 37.3243 17.2945 37.4436L18.7257 37.5574C18.7297 37.5577 18.7337 37.5582 18.7377 37.5587C18.9576 37.4334 19.1769 37.3076 19.3909 37.1838ZM15.4456 37.6957C15.5857 37.6548 16.8706 37.1602 18.186 36.6414C19.2176 36.2347 20.2577 35.8171 20.7724 35.5945C20.9008 35.539 20.9472 35.4255 20.9404 35.3125C20.9374 35.2633 20.9255 35.2142 20.9066 35.1687C20.8877 35.1232 20.8628 35.0826 20.8336 35.0503C20.7817 34.993 20.7131 34.9626 20.6459 34.9922C19.9654 35.2923 19.0899 35.6523 18.2441 35.9908C16.8637 36.5434 15.5433 37.047 15.282 37.1394C15.2042 37.167 15.1692 37.2499 15.1671 37.3416C15.166 37.3899 15.1739 37.4414 15.1897 37.4918C15.2047 37.5398 15.2263 37.5838 15.2534 37.6195C15.3002 37.6813 15.3677 37.7184 15.4456 37.6957Z" fill="white"/>
</svg>
