<svg width="84" height="50" viewBox="0 0 84 50" fill="none" xmlns="http://www.w3.org/2000/svg">
<path d="M80.4635 9.52961L52.0618 2.3361C48.6684 1.46063 48.0402 1.78086 44.6978 2.75319L4.70058 14.7988C4.29603 14.9206 3.89399 15.0478 3.54119 15.2781C2.43965 15.997 2.95009 16.722 3.90296 17.2907L33.9677 35.2284C36.8789 36.9653 38.6476 35.6548 41.1885 34.2403L81.455 11.8229C83.6372 10.5998 82.2657 10.0631 80.4635 9.52961ZM36.9588 40.8646C36.9547 41.2089 36.4312 41.2028 36.4352 40.8585L36.4697 38.4898C36.4737 38.1455 36.9973 38.1516 36.9932 38.496L36.9588 40.8646ZM3.3079 20.5563C3.31871 20.9006 2.79517 20.917 2.78436 20.5727L2.72754 18.8975C2.71673 18.5531 3.24028 18.5367 3.25109 18.881L3.3079 20.5563ZM5.2888 21.8024C5.29823 22.1468 4.77469 22.1611 4.76526 21.8168L4.71414 20.0982C4.70471 19.7539 5.22825 19.7395 5.23768 20.0838L5.2888 21.8024ZM7.26969 23.0486C7.27778 23.3929 6.75424 23.4052 6.74614 23.0609L6.70073 21.299C6.69264 20.9546 7.21618 20.9423 7.22427 21.2866L7.26969 23.0486ZM9.25058 24.2947C9.25731 24.6391 8.73375 24.6492 8.72704 24.305L8.68734 22.4997C8.68061 22.1553 9.20417 22.1452 9.21088 22.4894L9.25058 24.2947ZM11.2315 25.5408C11.2369 25.8852 10.7133 25.8933 10.7079 25.549L10.6739 23.7004C10.6686 23.3561 11.1921 23.3479 11.1975 23.6922L11.2315 25.5408ZM13.2124 26.7869C13.2164 27.1313 12.6929 27.1374 12.6888 26.7931L12.6605 24.9012C12.6565 24.5568 13.18 24.5507 13.1841 24.895L13.2124 26.7869ZM15.1933 28.0331C15.1959 28.3774 14.6724 28.3815 14.6697 28.0372L14.6471 26.1019C14.6445 25.7575 15.168 25.7535 15.1707 26.0978L15.1933 28.0331ZM17.1742 29.2782C17.1768 29.6226 16.6533 29.6266 16.6506 29.2823L16.6337 27.3037C16.6311 26.9593 17.1546 26.9553 17.1573 27.2996L17.1742 29.2782ZM19.1551 30.5243C19.1564 30.8687 18.6329 30.8707 18.6315 30.5264L18.6203 28.5044C18.619 28.1601 19.1425 28.1581 19.1439 28.5024L19.1551 30.5243ZM21.136 31.7704C21.136 32.1148 20.6124 32.1148 20.6124 31.7704L20.6069 29.7052C20.6069 29.3608 21.1305 29.3608 21.1305 29.7052L21.136 31.7704ZM23.1168 33.0156C23.1168 33.3599 22.5933 33.3599 22.5933 33.0156L22.5935 30.9069C22.5935 30.5626 23.1171 30.5626 23.1171 30.9069L23.1168 33.0156ZM25.0977 34.2607C25.0977 34.605 24.5742 34.605 24.5742 34.2607L24.5801 32.1087C24.5801 31.7644 25.1037 31.7644 25.1037 32.1087L25.0977 34.2607ZM27.0786 35.5068C27.0773 35.8511 26.5538 35.8491 26.5551 35.5047L26.5667 33.3094C26.5681 32.9652 27.0916 32.9671 27.0903 33.3115L27.0786 35.5068ZM29.0595 36.7519C29.0582 37.0962 28.5347 37.0942 28.536 36.7498L28.5533 34.5112C28.5546 34.1669 29.0782 34.1689 29.0769 34.5133L29.0595 36.7519ZM31.0404 37.998C31.0378 38.3423 30.5142 38.3383 30.5169 37.9939L30.5399 35.712C30.5426 35.3677 31.0661 35.3717 31.0634 35.7161L31.0404 37.998ZM33.0213 39.2442C33.0173 39.5885 32.4937 39.5824 32.4978 39.238L32.5265 36.9127C32.5306 36.5684 33.0541 36.5745 33.0501 36.9189L33.0213 39.2442ZM35.0022 40.4893C34.9982 40.8336 34.4746 40.8274 34.4787 40.4831L34.5131 38.1145C34.5172 37.7702 35.0407 37.7763 35.0367 38.1206L35.0022 40.4893ZM81.9848 15.3584C81.9874 15.7028 81.4639 15.7068 81.4612 15.3625L81.4497 13.8999C81.447 13.5556 81.9705 13.5516 81.9732 13.8958L81.9848 15.3584ZM79.9462 16.5496C79.9475 16.8939 79.424 16.8959 79.4227 16.5516L79.412 15.0457C79.4106 14.7013 79.9342 14.6993 79.9355 15.0436L79.9462 16.5496ZM77.9076 17.7397C77.9089 18.084 77.3854 18.086 77.3841 17.7418L77.3743 16.1924C77.3729 15.8481 77.8965 15.8461 77.8978 16.1904L77.9076 17.7397ZM75.869 18.9298C75.8704 19.2742 75.3468 19.2762 75.3455 18.9319L75.3366 17.3392C75.3352 16.9948 75.8588 16.9929 75.8601 17.3371L75.869 18.9298ZM73.8305 20.12C73.8318 20.4643 73.3082 20.4663 73.3069 20.122L73.2989 18.486C73.2975 18.1416 73.8211 18.1396 73.8224 18.4839L73.8305 20.12ZM71.7919 21.3101C71.7932 21.6545 71.2697 21.6564 71.2683 21.3122L71.2612 19.6327C71.2598 19.2884 71.7834 19.2864 71.7847 19.6307L71.7919 21.3101ZM69.7533 22.5013C69.7533 22.8456 69.2297 22.8456 69.2297 22.5013L69.2235 20.7785C69.2235 20.4341 69.747 20.4341 69.747 20.7785L69.7533 22.5013ZM67.7147 23.6914C67.7147 24.0357 67.1912 24.0357 67.1912 23.6914L67.1858 21.9252C67.1858 21.5809 67.7093 21.5809 67.7093 21.9252L67.7147 23.6914ZM65.6761 24.8815C65.6761 25.2259 65.1526 25.2259 65.1526 24.8815L65.1481 23.072C65.1481 22.7276 65.6716 22.7276 65.6716 23.072L65.6761 24.8815ZM63.6375 26.0716C63.6375 26.416 63.114 26.416 63.114 26.0716L63.1104 24.2188C63.1104 23.8744 63.6339 23.8744 63.6339 24.2188L63.6375 26.0716ZM61.599 27.2618C61.599 27.6061 61.0754 27.6061 61.0754 27.2618L61.0727 25.3655C61.0727 25.0212 61.5962 25.0212 61.5962 25.3655L61.599 27.2618ZM59.5604 28.4519C59.5604 28.7962 59.0368 28.7962 59.0368 28.4519L59.035 26.5123C59.035 26.1679 59.5585 26.1679 59.5585 26.5123L59.5604 28.4519ZM57.5218 29.6421C57.5218 29.9864 56.9983 29.9864 56.9983 29.6421L56.9973 27.659C56.9973 27.3147 57.5208 27.3147 57.5208 27.659L57.5218 29.6421ZM55.4832 30.8322C55.4832 31.1765 54.9597 31.1765 54.9597 30.8322L54.9596 28.8058C54.9596 28.4615 55.4831 28.4615 55.4831 28.8058L55.4832 30.8322ZM53.4446 32.0223C53.4446 32.3666 52.9211 32.3666 52.9211 32.0223L52.9219 29.9526C52.9219 29.6082 53.4454 29.6082 53.4454 29.9526L53.4446 32.0223ZM51.4061 33.2125C51.4061 33.5568 50.8825 33.5568 50.8825 33.2125L50.8842 31.0993C50.8842 30.755 51.4077 30.755 51.4077 31.0993L51.4061 33.2125ZM49.3675 34.4026C49.3675 34.7469 48.8439 34.7469 48.8439 34.4026L48.8465 32.2461C48.8465 31.9018 49.37 31.9018 49.37 32.2461L49.3675 34.4026ZM47.3289 35.5927C47.3289 35.937 46.8053 35.937 46.8053 35.5927L46.8088 33.3928C46.8088 33.0485 47.3323 33.0485 47.3323 33.3928L47.3289 35.5927ZM45.2903 36.7828C45.2903 37.1272 44.7668 37.1272 44.7668 36.7828L44.7711 34.5396C44.7711 34.1953 45.2946 34.1953 45.2946 34.5396L45.2903 36.7828ZM43.2517 37.973C43.2517 38.3173 42.7282 38.3173 42.7282 37.973L42.7334 35.6864C42.7334 35.342 43.257 35.342 43.257 35.6864L43.2517 37.973ZM41.2131 39.1631C41.2131 39.5074 40.6896 39.5074 40.6896 39.1631L40.6957 36.8331C40.6957 36.4888 41.2193 36.4888 41.2193 36.8331L41.2131 39.1631ZM39.1746 40.3532C39.1746 40.6976 38.651 40.6976 38.651 40.3532L38.658 37.9799C38.658 37.6356 39.1816 37.6356 39.1816 37.9799L39.1746 40.3532ZM83.0964 11.6948C82.8242 11.9863 82.4225 12.283 81.8793 12.5859L41.3659 35.1408C38.5377 36.7153 36.7187 37.8903 33.5085 35.9746L3.45469 18.0401C2.87629 17.6949 2.26019 17.1842 2.08682 16.5014C1.83902 17.0539 1.74139 17.8307 1.75312 18.9844C1.75331 20.2959 1.72881 21.6215 1.75942 22.9296C1.79898 24.6101 2.16987 25.3713 3.56316 26.3644L33.2621 47.535C35.7295 49.2939 37.7948 49.1252 40.1986 47.3606L81.9049 19.9982C82.7373 19.3864 83.0544 19.1767 83.0412 18.0814L83.0964 11.6948ZM4.46193 13.957L44.4483 1.91572C47.9157 0.887802 48.7693 0.585892 52.2754 1.49038L80.9545 8.75159C82.7098 9.26901 83.808 9.64628 83.9736 11.6797L83.9138 18.0754C83.9299 19.4937 83.4796 19.9257 82.4047 20.7156L40.697 48.0789C37.9964 50.054 35.518 50.216 32.7556 48.2468L3.05671 27.0762C1.41799 25.9081 0.924685 24.8929 0.882881 22.9137C0.855497 21.6138 0.880726 20.2948 0.880534 18.9913C0.864099 17.3758 1.06082 16.3762 1.56966 15.6504C2.20577 14.7431 3.42652 14.2689 4.46193 13.957Z" fill="#172A55"/>
</svg>
