<svg width="49" height="50" viewBox="0 0 49 50" fill="none" xmlns="http://www.w3.org/2000/svg">
<path d="M20.565 41.3044C20.4026 41.1061 20.1708 40.9867 19.9247 40.9771C19.6595 40.9747 19.4373 41.0679 19.2605 41.2519L16.9502 43.6602C16.7161 43.9039 16.7256 44.2909 16.9669 44.5251C17.2106 44.7592 17.5977 44.7496 17.8319 44.5083L19.208 43.0748V48.6894C19.208 49.0287 19.4804 49.301 19.8197 49.301C20.1589 49.301 20.4313 49.0287 20.4313 48.6894V43.0748L21.7286 44.6636C21.8505 44.8118 22.0249 44.8882 22.2017 44.8882C22.3379 44.8882 22.4741 44.8428 22.5887 44.7496C22.8515 44.5346 22.8898 44.15 22.6747 43.8896L20.565 41.3044Z" fill="#172A55"/>
<path d="M15.7686 11.9203C15.7686 12.735 14.5453 12.735 14.5453 11.9203C14.5453 11.1057 15.7686 11.1057 15.7686 11.9203Z" fill="#172A55"/>
<path d="M25.0514 11.9203C25.0514 12.735 23.8281 12.735 23.8281 11.9203C23.8281 11.1057 25.0514 11.1057 25.0514 11.9203Z" fill="#172A55"/>
<path d="M13.3136 18.2611C13.3136 19.0758 12.0903 19.0758 12.0903 18.2611C12.0903 17.444 13.3136 17.444 13.3136 18.2611Z" fill="#172A55"/>
<path d="M25.0514 18.2611C25.0514 19.0758 23.8281 19.0758 23.8281 18.2611C23.8281 17.444 25.0514 17.444 25.0514 18.2611Z" fill="#172A55"/>
<path d="M10.7961 24.5997C10.7961 25.4167 9.57288 25.4167 9.57288 24.5997C9.57288 23.785 10.7961 23.785 10.7961 24.5997Z" fill="#172A55"/>
<path d="M34.3968 11.9203C34.3968 12.735 33.1736 12.735 33.1736 11.9203C33.1736 11.1057 34.3968 11.1057 34.3968 11.9203Z" fill="#172A55"/>
<path d="M36.8481 18.2611C36.8481 19.0758 35.6249 19.0758 35.6249 18.2611C35.6249 17.444 36.8481 17.444 36.8481 18.2611Z" fill="#172A55"/>
<path d="M39.3674 24.5997C39.3674 25.4167 38.1442 25.4167 38.1442 24.5997C38.1442 23.785 39.3674 23.785 39.3674 24.5997Z" fill="#172A55"/>
<path d="M25.0264 24.5997C25.0264 25.4167 23.8031 25.4167 23.8031 24.5997C23.8031 23.785 25.0264 23.785 25.0264 24.5997Z" fill="#172A55"/>
<path d="M4.32129 29.6832C4.32129 30.0224 4.59366 30.2948 4.93292 30.2948H43.9245C44.2637 30.2948 44.5361 30.0224 44.5361 29.6832C44.5361 29.3439 44.2637 29.0715 43.9245 29.0715H4.93292C4.59366 29.0715 4.32129 29.3439 4.32129 29.6832Z" fill="#172A55"/>
<path d="M4.32129 32.364V36.6478C4.32129 36.987 4.59366 37.2594 4.93292 37.2594C5.27219 37.2594 5.54455 36.987 5.54455 36.6478V32.364C5.54455 32.0247 5.27219 31.7523 4.93292 31.7523C4.59366 31.7523 4.32129 32.0247 4.32129 32.364Z" fill="#172A55"/>
<path d="M9.19531 32.364V36.6478C9.19531 36.987 9.46768 37.2594 9.80694 37.2594C10.1462 37.2594 10.4186 36.987 10.4186 36.6478V32.364C10.4186 32.0247 10.1462 31.7523 9.80694 31.7523C9.46768 31.7523 9.19531 32.0247 9.19531 32.364Z" fill="#172A55"/>
<path d="M14.0675 32.364V36.6478C14.0675 36.987 14.3399 37.2594 14.6791 37.2594C15.0184 37.2594 15.2908 36.987 15.2908 36.6478V32.364C15.2908 32.0247 15.0184 31.7523 14.6791 31.7523C14.3399 31.7523 14.0675 32.0247 14.0675 32.364Z" fill="#172A55"/>
<path d="M18.9434 32.364V36.6478C18.9434 36.987 19.2157 37.2594 19.555 37.2594C19.8943 37.2594 20.1666 36.987 20.1666 36.6478V32.364C20.1666 32.0247 19.8943 31.7523 19.555 31.7523C19.2181 31.7523 18.9434 32.0247 18.9434 32.364Z" fill="#172A55"/>
<path d="M23.8174 32.364V36.6478C23.8174 36.987 24.0897 37.2594 24.429 37.2594C24.7683 37.2594 25.0406 36.987 25.0406 36.6478V32.364C25.0406 32.0247 24.7683 31.7523 24.429 31.7523C24.0897 31.7523 23.8174 32.0247 23.8174 32.364Z" fill="#172A55"/>
<path d="M28.6914 32.364V36.6478C28.6914 36.987 28.9638 37.2594 29.303 37.2594C29.6423 37.2594 29.9147 36.987 29.9147 36.6478V32.364C29.9147 32.0247 29.6423 31.7523 29.303 31.7523C28.9638 31.7523 28.6914 32.0247 28.6914 32.364Z" fill="#172A55"/>
<path d="M33.5654 32.364V36.6478C33.5654 36.987 33.8378 37.2594 34.1771 37.2594C34.5163 37.2594 34.7887 36.987 34.7887 36.6478V32.364C34.7887 32.0247 34.5163 31.7523 34.1771 31.7523C33.8402 31.7523 33.5654 32.0247 33.5654 32.364Z" fill="#172A55"/>
<path d="M38.4395 32.364V36.6478C38.4395 36.987 38.7118 37.2594 39.0511 37.2594C39.3904 37.2594 39.6627 36.987 39.6627 36.6478V32.364C39.6627 32.0247 39.3904 31.7523 39.0511 31.7523C38.7142 31.7523 38.4395 32.0247 38.4395 32.364Z" fill="#172A55"/>
<path d="M43.9251 31.7523C43.5858 31.7523 43.3135 32.0247 43.3135 32.364V36.6478C43.3135 36.987 43.5858 37.2594 43.9251 37.2594C44.2644 37.2594 44.5367 36.987 44.5367 36.6478V32.364C44.5367 32.0247 44.2644 31.7523 43.9251 31.7523Z" fill="#172A55"/>
<path d="M17.8342 4.14328L19.2103 2.70974V16.2017C19.2103 16.5386 19.4827 16.8134 19.822 16.8134C20.1612 16.8134 20.4336 16.5386 20.4336 16.2017V2.7079L21.7309 4.29674C21.8528 4.44487 22.0272 4.52132 22.204 4.52132C22.3402 4.52132 22.4764 4.47593 22.591 4.38275C22.8539 4.16773 22.8921 3.78307 22.6771 3.52268L20.565 0.937552C20.4026 0.739248 20.1708 0.61979 19.9247 0.610231C19.7001 0.603063 19.4373 0.701021 19.2605 0.884988L16.9502 3.29567C16.7161 3.53937 16.7256 3.92639 16.9669 4.16058C17.213 4.39472 17.6 4.38698 17.8342 4.14328Z" fill="#172A55"/>
<path d="M29.8568 41.3044C29.6943 41.1061 29.4626 40.9867 29.2165 40.9771C28.968 40.9747 28.7291 41.0679 28.5523 41.2519L26.242 43.6602C26.0078 43.9039 26.0174 44.2909 26.2587 44.5251C26.5024 44.7592 26.8894 44.7496 27.1236 44.5083L28.4998 43.0724V48.687C28.4998 49.0263 28.7721 49.2986 29.1114 49.2986C29.4507 49.2986 29.723 49.0263 29.723 48.687V43.0724L31.0204 44.6612C31.1422 44.8094 31.3166 44.8858 31.4934 44.8858C31.6296 44.8858 31.7658 44.8404 31.8805 44.7473C32.1433 44.5322 32.1815 44.1476 31.9665 43.8872L29.8568 41.3044Z" fill="#172A55"/>
<path d="M40.4596 9.04079C39.9794 7.81276 38.8159 7.01953 37.4946 7.01953H31.2492C30.91 7.01953 30.6376 7.29429 30.6376 7.63116C30.6376 7.96804 30.91 8.2428 31.2492 8.2428H37.4946C38.3069 8.2428 39.0237 8.73258 39.32 9.48759L47.1446 29.4543C47.2354 29.6837 47.2808 29.925 47.2808 30.1711V36.6746C47.2808 37.7569 46.4015 38.6361 45.3193 38.6361L3.53745 38.6337C2.45516 38.6337 1.57833 37.7545 1.57833 36.6722L1.57594 30.1687C1.57594 29.9226 1.62133 29.6813 1.71212 29.4519L9.53673 9.48765C9.833 8.73026 10.5497 8.24285 11.3621 8.24285H17.6387C17.9779 8.24285 18.2503 7.96809 18.2503 7.63122C18.2503 7.29434 17.9779 7.01959 17.6387 7.01959H11.3621C10.0433 7.01959 8.87972 7.81281 8.39708 9.04085L0.572469 29.0076C0.42673 29.3803 0.352661 29.7697 0.352661 30.1687V36.6722C0.352661 38.4282 1.78137 39.857 3.53504 39.857H45.3193C47.0754 39.857 48.5041 38.4282 48.5041 36.6722V30.1687C48.5041 29.7697 48.43 29.3802 48.2843 29.0076L40.4596 9.04079Z" fill="#172A55"/>
<path d="M27.5415 7.63153C27.5415 7.29465 27.2691 7.0199 26.9298 7.0199H21.9579C21.6187 7.0199 21.3463 7.29465 21.3463 7.63153C21.3463 7.9684 21.6187 8.24316 21.9579 8.24316H26.9298C27.2691 8.24316 27.5415 7.9684 27.5415 7.63153Z" fill="#172A55"/>
<path d="M27.1259 4.1409L28.5021 2.70497V16.197C28.5021 16.5338 28.7745 16.8086 29.1137 16.8086C29.453 16.8086 29.7254 16.5338 29.7254 16.197V2.70741L31.0227 4.29625C31.1445 4.44438 31.3189 4.52084 31.4957 4.52084C31.6319 4.52084 31.7681 4.47544 31.8828 4.38227C32.1456 4.16724 32.1838 3.78258 31.9688 3.52219L29.8568 0.937063C29.6943 0.73876 29.4626 0.619302 29.2165 0.609742C28.968 0.602575 28.7291 0.700533 28.5523 0.884499L26.242 3.29519C26.0078 3.53889 26.0174 3.9259 26.2587 4.1601C26.5048 4.39423 26.8918 4.38698 27.1259 4.1409Z" fill="#172A55"/>
</svg>
