<svg width="33" height="33" viewBox="0 0 33 33" fill="none" xmlns="http://www.w3.org/2000/svg">
<mask id="mask0_4032_9614" style="mask-type:alpha" maskUnits="userSpaceOnUse" x="0" y="0" width="33" height="33">
<rect x="0.0390625" y="0.5" width="32" height="32" fill="#172A55"/>
</mask>
<g mask="url(#mask0_4032_9614)">
<path d="M26.6391 28.5C23.8613 28.5 21.1168 27.8944 18.4057 26.6833C15.6946 25.4722 13.228 23.7556 11.0057 21.5333C8.78351 19.3111 7.06684 16.8444 5.85573 14.1333C4.64462 11.4222 4.03906 8.67778 4.03906 5.9C4.03906 5.5 4.1724 5.16667 4.43906 4.9C4.70573 4.63333 5.03906 4.5 5.43906 4.5H10.8391C11.1502 4.5 11.428 4.60556 11.6724 4.81667C11.9168 5.02778 12.0613 5.27778 12.1057 5.56667L12.9724 10.2333C13.0168 10.5889 13.0057 10.8889 12.9391 11.1333C12.8724 11.3778 12.7502 11.5889 12.5724 11.7667L9.33906 15.0333C9.78351 15.8556 10.3113 16.65 10.9224 17.4167C11.5335 18.1833 12.2057 18.9222 12.9391 19.6333C13.628 20.3222 14.3502 20.9611 15.1057 21.55C15.8613 22.1389 16.6613 22.6778 17.5057 23.1667L20.6391 20.0333C20.8391 19.8333 21.1002 19.6833 21.4224 19.5833C21.7446 19.4833 22.0613 19.4556 22.3724 19.5L26.9724 20.4333C27.2835 20.5222 27.5391 20.6833 27.7391 20.9167C27.9391 21.15 28.0391 21.4111 28.0391 21.7V27.1C28.0391 27.5 27.9057 27.8333 27.6391 28.1C27.3724 28.3667 27.0391 28.5 26.6391 28.5ZM8.0724 12.5L10.2724 10.3L9.70573 7.16667H6.73906C6.85017 8.07778 7.00573 8.97778 7.20573 9.86667C7.40573 10.7556 7.69462 11.6333 8.0724 12.5ZM20.0057 24.4333C20.8724 24.8111 21.7557 25.1111 22.6557 25.3333C23.5557 25.5556 24.4613 25.7 25.3724 25.7667V22.8333L22.2391 22.2L20.0057 24.4333Z" fill="#172A55"/>
</g>
</svg>
