<svg width="25" height="24" viewBox="0 0 25 24" fill="none" xmlns="http://www.w3.org/2000/svg">
<path d="M17.5391 2H7.53906C4.77764 2 2.53906 4.23858 2.53906 7V17C2.53906 19.7614 4.77764 22 7.53906 22H17.5391C20.3005 22 22.5391 19.7614 22.5391 17V7C22.5391 4.23858 20.3005 2 17.5391 2Z" stroke="#172A55" stroke-width="2" stroke-linecap="round" stroke-linejoin="round"/>
<path d="M16.5427 11.3664C16.6661 12.1986 16.5239 13.0486 16.1364 13.7954C15.7489 14.5422 15.1358 15.1478 14.3843 15.5261C13.6328 15.9043 12.7811 16.036 11.9505 15.9023C11.1198 15.7687 10.3524 15.3765 9.75751 14.7816C9.16259 14.1866 8.77041 13.4193 8.63674 12.5886C8.50308 11.7579 8.63474 10.9063 9.013 10.1548C9.39126 9.40325 9.99686 8.79014 10.7437 8.40264C11.4905 8.01514 12.3404 7.87298 13.1727 7.9964C14.0216 8.12228 14.8075 8.51786 15.4144 9.1247C16.0212 9.73154 16.4168 10.5175 16.5427 11.3664Z" stroke="#172A55" stroke-width="2" stroke-linecap="round" stroke-linejoin="round"/>
<path d="M18.0391 6.5H18.0491" stroke="#172A55" stroke-width="2" stroke-linecap="round" stroke-linejoin="round"/>
</svg>
