<svg width="25" height="24" viewBox="0 0 25 24" fill="none" xmlns="http://www.w3.org/2000/svg">
<path d="M16.5391 8C18.1304 8 19.6565 8.63214 20.7817 9.75736C21.9069 10.8826 22.5391 12.4087 22.5391 14V21H18.5391V14C18.5391 13.4696 18.3283 12.9609 17.9533 12.5858C17.5782 12.2107 17.0695 12 16.5391 12C16.0086 12 15.4999 12.2107 15.1248 12.5858C14.7498 12.9609 14.5391 13.4696 14.5391 14V21H10.5391V14C10.5391 12.4087 11.1712 10.8826 12.2964 9.75736C13.4216 8.63214 14.9478 8 16.5391 8Z" stroke="#172A55" stroke-width="2" stroke-linecap="round" stroke-linejoin="round"/>
<path d="M6.53906 9H2.53906V21H6.53906V9Z" stroke="#172A55" stroke-width="2" stroke-linecap="round" stroke-linejoin="round"/>
<path d="M4.53906 6C5.64363 6 6.53906 5.10457 6.53906 4C6.53906 2.89543 5.64363 2 4.53906 2C3.43449 2 2.53906 2.89543 2.53906 4C2.53906 5.10457 3.43449 6 4.53906 6Z" stroke="#172A55" stroke-width="2" stroke-linecap="round" stroke-linejoin="round"/>
</svg>
