<svg width="33" height="33" viewBox="0 0 33 33" fill="none" xmlns="http://www.w3.org/2000/svg">
<mask id="mask0_4032_9608" style="mask-type:alpha" maskUnits="userSpaceOnUse" x="0" y="0" width="33" height="33">
<rect x="0.0390625" y="0.5" width="32" height="32" fill="#172A55"/>
</mask>
<g mask="url(#mask0_4032_9608)">
<path d="M16.0417 16.5052C16.775 16.5052 17.4028 16.2441 17.925 15.7219C18.4472 15.1997 18.7083 14.5719 18.7083 13.8385C18.7083 13.1052 18.4472 12.4774 17.925 11.9552C17.4028 11.433 16.775 11.1719 16.0417 11.1719C15.3083 11.1719 14.6806 11.433 14.1583 11.9552C13.6361 12.4774 13.375 13.1052 13.375 13.8385C13.375 14.5719 13.6361 15.1997 14.1583 15.7219C14.6806 16.2441 15.3083 16.5052 16.0417 16.5052ZM16.0417 26.3052C18.7528 23.8163 20.7639 21.5552 22.075 19.5219C23.3861 17.4885 24.0417 15.683 24.0417 14.1052C24.0417 11.683 23.2694 9.69965 21.725 8.15521C20.1806 6.61076 18.2861 5.83854 16.0417 5.83854C13.7972 5.83854 11.9028 6.61076 10.3583 8.15521C8.81389 9.69965 8.04167 11.683 8.04167 14.1052C8.04167 15.683 8.69722 17.4885 10.0083 19.5219C11.3194 21.5552 13.3306 23.8163 16.0417 26.3052ZM16.0417 29.8385C12.4639 26.7941 9.79167 23.9663 8.025 21.3552C6.25833 18.7441 5.375 16.3274 5.375 14.1052C5.375 10.7719 6.44722 8.11632 8.59167 6.13854C10.7361 4.16076 13.2194 3.17188 16.0417 3.17188C18.8639 3.17188 21.3472 4.16076 23.4917 6.13854C25.6361 8.11632 26.7083 10.7719 26.7083 14.1052C26.7083 16.3274 25.825 18.7441 24.0583 21.3552C22.2917 23.9663 19.6194 26.7941 16.0417 29.8385Z" fill="#172A55"/>
</g>
</svg>
