<svg width="33" height="33" viewBox="0 0 33 33" fill="none" xmlns="http://www.w3.org/2000/svg">
<mask id="mask0_4032_9619" style="mask-type:alpha" maskUnits="userSpaceOnUse" x="0" y="0" width="33" height="33">
<rect x="0.0390625" y="0.5" width="32" height="32" fill="#172A55"/>
</mask>
<g mask="url(#mask0_4032_9619)">
<path d="M5.36979 27.1615C4.63646 27.1615 4.00868 26.9003 3.48646 26.3781C2.96424 25.8559 2.70312 25.2281 2.70312 24.4948V8.49479C2.70312 7.76146 2.96424 7.13368 3.48646 6.61146C4.00868 6.08924 4.63646 5.82812 5.36979 5.82812H26.7031C27.4365 5.82812 28.0642 6.08924 28.5865 6.61146C29.1087 7.13368 29.3698 7.76146 29.3698 8.49479V24.4948C29.3698 25.2281 29.1087 25.8559 28.5865 26.3781C28.0642 26.9003 27.4365 27.1615 26.7031 27.1615H5.36979ZM16.0365 17.8281L5.36979 11.1615V24.4948H26.7031V11.1615L16.0365 17.8281ZM16.0365 15.1615L26.7031 8.49479H5.36979L16.0365 15.1615ZM5.36979 11.1615V8.49479V24.4948V11.1615Z" fill="#172A55"/>
</g>
</svg>
