<svg width="44" height="47" viewBox="0 0 44 47" fill="none" xmlns="http://www.w3.org/2000/svg">
<path d="M33.8408 10.7616C33.4965 10.7616 33.1663 10.8984 32.9228 11.1418C32.6793 11.3853 32.5425 11.7155 32.5425 12.0599V15.263H28.5438V4.44152C28.5424 3.27123 28.0769 2.14927 27.2494 1.32174C26.4219 0.494223 25.2999 0.0287181 24.1296 0.0273438H19.8494C18.6791 0.0287181 17.5572 0.494223 16.7297 1.32174C15.9021 2.14927 15.4366 3.27123 15.4353 4.44152V15.263H11.4365V12.0599C11.4365 11.7155 11.2998 11.3853 11.0563 11.1418C10.8128 10.8984 10.4826 10.7616 10.1383 10.7616C9.79393 10.7616 9.4637 10.8984 9.22023 11.1418C8.97675 11.3853 8.83997 11.7155 8.83997 12.0599V20.9672C8.83997 21.3115 8.97675 21.6417 9.22023 21.8852C9.4637 22.1287 9.79393 22.2654 10.1383 22.2654C10.4826 22.2654 10.8128 22.1287 11.0563 21.8852C11.2998 21.6417 11.4365 21.3115 11.4365 20.9672V17.8596H15.4353V42.1438C15.4366 43.3141 15.9021 44.436 16.7297 45.2636C17.5572 46.0911 18.6791 46.5566 19.8494 46.558H24.1296C25.2999 46.5566 26.4219 46.0911 27.2494 45.2636C28.0769 44.436 28.5424 43.3141 28.5438 42.1438V17.8596H32.5425V20.9672C32.5425 21.3115 32.6793 21.6417 32.9228 21.8852C33.1663 22.1287 33.4965 22.2654 33.8408 22.2654C34.1851 22.2654 34.5154 22.1287 34.7588 21.8852C35.0023 21.6417 35.1391 21.3115 35.1391 20.9672V12.0599C35.1391 11.7155 35.0023 11.3853 34.7588 11.1418C34.5154 10.8984 34.1851 10.7616 33.8408 10.7616Z" fill="#172A55"/>
<path d="M5.63921 19.7721V13.2542L-0.0057373 16.5134L5.63921 19.7721Z" fill="#172A55"/>
<path d="M38.3608 13.2542V19.7721L44.0058 16.5134L38.3608 13.2542Z" fill="#172A55"/>
</svg>
