<svg width="48" height="47" viewBox="0 0 48 47" fill="none" xmlns="http://www.w3.org/2000/svg">
<path d="M17.072 40.2706C17.072 40.2706 24.1902 41.0693 33.8709 34.2055C29.9227 34.0363 26.3399 33.5149 26.0694 32.8618C27.7493 33.6746 31.2894 33.6934 34.839 33.5055C36.9036 31.9484 38.8498 30.2431 40.6617 28.4034C51.0591 17.8798 45.8201 0.0273438 45.8201 0.0273438C43.723 3.84863 40.86 7.2058 37.4063 9.89319C35.9498 11.0004 34.4199 12.0096 32.8269 12.914C31.761 14.5856 30.9607 16.4093 30.4542 18.3214C30.7866 16.6539 31.2727 15.02 31.9063 13.4402C18.8278 20.6141 3.36702 22.5121 9.81138 37.3578C8.00335 33.4867 7.50982 33.4679 6.10516 31.2504C6.10516 31.2504 6.57971 33.543 6.86443 34.9337C7.33898 37.0666 9.40326 38.4666 9.40326 38.4666L0.201782 45.227L1.01326 46.3311L10.1198 39.5189C10.1198 39.5189 12.7014 42.3753 19.5396 42.5116C17.9215 41.3915 16.1971 40.4302 14.3908 39.6411L17.072 40.2706ZM28.0435 23.1886L39.9594 15.0093L39.0862 15.7845C37.8144 16.7946 36.984 17.3771 35.6031 18.3543C32.5992 20.4731 29.4339 22.4651 26.8476 24.6356C19.5538 30.7947 11.6621 37.278 11.6621 37.278C11.6621 37.278 22.7428 27.2242 28.0435 23.1886Z" fill="#172A55"/>
</svg>
