<svg width="22" height="47" viewBox="0 0 22 47" fill="none" xmlns="http://www.w3.org/2000/svg">
<path d="M17.9842 10.7629H18.0024C18.2417 10.7623 18.4348 10.672 18.61 10.4787C19.4754 9.52461 19.4063 6.5985 19.3067 5.5516C19.3056 5.54159 19.3052 5.53136 19.3051 5.52135L19.2898 3.70696C19.2728 1.67798 17.6081 0.0273438 15.5792 0.0273438C13.533 0.0273438 11.8683 1.69196 11.8683 3.73811V5.51838C11.8683 6.12928 12.0537 7.15889 12.576 8.05024C13.5278 9.67416 15.6996 10.7628 17.9842 10.7629Z" fill="#172A55"/>
<path d="M21.4076 44.9744C21.3277 44.8285 21.2468 44.6841 21.1665 44.5409C20.9157 44.0934 20.6789 43.6707 20.4921 43.2427C20.0284 42.1801 19.8704 41.1457 19.6706 39.836C19.4845 38.6158 19.2734 37.2326 18.7521 35.4189C18.2325 33.6112 17.4743 32.4047 16.8055 31.3401C16.0574 30.1494 15.4113 29.121 15.4113 27.6941C15.6469 19.3306 15.064 17.9485 14.1478 16.7933C14.028 16.6422 14.0533 16.4223 14.2045 16.3025C14.3556 16.1825 14.5753 16.2079 14.6953 16.3591C15.7069 17.6348 16.3519 19.1136 16.1098 27.704C16.1099 28.9198 16.678 29.8238 17.3971 30.9684C17.7775 31.5737 18.1526 32.1824 18.4768 32.8201C18.667 33.1943 18.8405 33.5769 18.9952 33.9672C19.0943 34.2171 19.1977 34.9567 19.563 34.9297C19.9023 34.9046 19.8649 34.4188 19.8853 34.1841C19.9182 33.8034 19.9513 33.4227 19.9844 33.042C20.1301 31.363 20.268 29.7771 20.3475 28.7723C20.6693 24.7017 20.6148 23.7421 20.2277 22.0864C19.7659 20.1116 18.9752 18.6334 17.3773 16.0669C16.2425 14.2437 16.1982 14.1725 16.1982 12.7306C16.1982 12.4456 16.2592 12.0842 16.3301 11.7602C16.3837 11.5158 16.233 11.2741 15.9905 11.2126C15.3259 11.0441 14.7001 10.7931 14.1355 10.4714C13.8612 10.3151 13.5187 10.478 13.4538 10.787C13.4263 10.9181 13.3939 11.0537 13.3559 11.1914C13.1205 12.0438 12.4934 12.7315 11.7675 13.5276C10.3612 15.0699 8.61117 16.9893 8.81212 21.1874C8.82902 21.5403 8.85621 21.8756 8.89236 22.1956C9.14541 24.4353 9.83727 25.9203 10.509 27.3623C11.2037 28.8532 11.8613 30.2651 11.9156 32.3099C11.9371 33.1215 11.7539 33.9276 11.3685 34.6422C10.3344 36.5599 8.50269 38.1453 8.50269 42.3828C8.50269 43.5075 8.66644 44.6887 8.9637 45.7087C9.08106 46.1114 9.45804 46.3926 9.88051 46.3926H18.3321C18.6306 46.3926 18.8527 46.1166 18.7869 45.8255C18.6542 45.2386 18.4695 44.5316 18.2771 44.1394C17.9521 43.4769 17.3396 42.4902 16.6303 41.3479C15.2998 39.205 13.6438 36.5382 12.6161 34.0242C12.5358 33.8278 12.6475 33.6006 12.8637 33.5508C13.0336 33.5117 13.2037 33.6153 13.2698 33.7765C14.2758 36.2313 15.9102 38.8635 17.2238 40.9794C17.943 42.1376 18.5641 43.1379 18.9044 43.8317C19.1688 44.3709 19.4063 45.3636 19.5456 46.0232C19.5912 46.2389 19.7808 46.3926 20.0013 46.3926H20.5289C20.8492 46.3926 21.1644 46.2542 21.349 45.9924C21.5649 45.6862 21.5851 45.2987 21.4076 44.9744Z" fill="#172A55"/>
<path d="M6.54543 27.5723C6.73943 27.9833 6.92252 28.3715 7.09049 28.7697C7.19988 29.0292 7.45269 29.1969 7.73448 29.1969C7.82796 29.1969 7.91928 29.1784 8.00582 29.1419C8.36074 28.9921 8.52768 28.5815 8.37802 28.2266C8.19811 27.8001 8.00821 27.3978 7.80658 26.9704C7.67217 26.6855 7.53581 26.3966 7.40175 26.0977C7.28927 25.847 7.03886 25.6848 6.76389 25.6848C6.66507 25.6848 6.56899 25.7055 6.47835 25.7461C6.30811 25.8224 6.17767 25.9606 6.11127 26.135C6.04485 26.3094 6.05042 26.4993 6.12673 26.6695C6.2634 26.9743 6.40237 27.2689 6.54543 27.5723Z" fill="#172A55"/>
<path d="M9.06222 12.0155C9.17912 12.0961 9.31593 12.1386 9.45774 12.1386C9.68814 12.1386 9.90352 12.0254 10.034 11.8357C10.3533 11.3713 10.5555 10.9566 10.6703 10.5306C10.7708 10.1576 10.8451 9.75719 10.8912 9.34041C10.9116 9.15493 10.8586 8.97252 10.742 8.82685C10.6253 8.68129 10.4588 8.58974 10.274 8.56938C10.2474 8.56643 10.221 8.56494 10.195 8.56494C9.83914 8.56494 9.54131 8.8324 9.5022 9.1871C9.46399 9.5336 9.40303 9.86316 9.32116 10.1668C9.24872 10.4354 9.10929 10.7141 8.88254 11.0439C8.77679 11.1978 8.73721 11.3835 8.77109 11.567C8.80511 11.7506 8.90848 11.9098 9.06222 12.0155Z" fill="#172A55"/>
<path d="M7.70643 34.4867C7.59441 34.4157 7.46523 34.3782 7.33297 34.3782C7.09188 34.3782 6.87104 34.4995 6.7422 34.703L6.4712 35.1273C6.09809 35.7088 5.74568 36.2582 5.53359 36.7178C5.45546 36.8873 5.44795 37.0771 5.51243 37.2522C5.57703 37.4273 5.70587 37.5669 5.8752 37.6449C5.96776 37.6877 6.06614 37.7094 6.16769 37.7094C6.43948 37.7094 6.68864 37.5499 6.80247 37.3033C6.97397 36.9314 7.30113 36.4215 7.64741 35.8817C7.73828 35.7401 7.83061 35.596 7.92261 35.4508C8.02245 35.2932 8.05498 35.106 8.01415 34.9239C7.97333 34.7417 7.86393 34.5865 7.70643 34.4867Z" fill="#172A55"/>
<path d="M8.43331 12.7057C8.30857 12.6031 8.15095 12.5466 7.98947 12.5466C7.77977 12.5466 7.58315 12.6393 7.44987 12.801C7.04196 13.2965 6.51396 13.9729 6.04749 14.812C5.8603 15.1488 5.98199 15.575 6.31871 15.7622C6.42254 15.8198 6.53966 15.8503 6.65771 15.8503C6.91141 15.8503 7.14556 15.7126 7.26883 15.491C7.68118 14.7493 8.15868 14.1386 8.52862 13.6894C8.77344 13.3919 8.7307 12.9507 8.43331 12.7057Z" fill="#172A55"/>
<path d="M5.44372 20.2969C5.81662 20.2969 6.12308 20.005 6.14128 19.6323C6.17824 18.8739 6.28752 18.1507 6.46606 17.4829C6.56546 17.1107 6.34358 16.7269 5.97127 16.6274C5.91236 16.6117 5.85175 16.6038 5.79114 16.6038C5.47523 16.6038 5.19764 16.8169 5.11598 17.122C4.91208 17.8854 4.78733 18.707 4.74548 19.564C4.73639 19.7505 4.8004 19.9293 4.92584 20.0675C5.05116 20.2058 5.22287 20.287 5.4104 20.2961L5.44372 20.2969Z" fill="#172A55"/>
<path d="M5.28225 24.3936C5.36674 24.6934 5.64319 24.9028 5.95445 24.9028C6.01859 24.9028 6.08261 24.8939 6.14436 24.8764C6.32404 24.8258 6.47313 24.7082 6.56433 24.5453C6.65553 24.3825 6.67782 24.1938 6.6271 24.0143C6.43059 23.3181 6.29538 22.6093 6.2135 21.8475C6.1754 21.4915 5.87745 21.2231 5.5205 21.2231C5.49513 21.2231 5.46943 21.2245 5.44408 21.2273C5.06119 21.2685 4.78303 21.6137 4.82409 21.9968C4.91459 22.8378 5.06447 23.6218 5.28225 24.3936Z" fill="#172A55"/>
<path d="M9.08249 33.2412C9.19188 32.912 9.2451 32.6202 9.2451 32.3489C9.24522 31.7375 9.19689 31.1644 9.09727 30.5966C9.03847 30.2616 8.74963 30.0183 8.41041 30.0183C8.36992 30.0183 8.32899 30.0218 8.28862 30.0291C8.10474 30.0613 7.9445 30.1631 7.83726 30.3159C7.73002 30.4686 7.68875 30.654 7.72104 30.8378C7.80645 31.3253 7.84784 31.8195 7.84772 32.3488C7.84772 32.4646 7.81611 32.6209 7.75641 32.8008C7.69761 32.9778 7.71126 33.1673 7.79495 33.3341C7.87854 33.501 8.02216 33.6251 8.199 33.6839C8.2704 33.7077 8.34456 33.7197 8.41961 33.7197C8.72119 33.7198 8.98764 33.5274 9.08249 33.2412Z" fill="#172A55"/>
<path d="M5.86337 9.03668L5.34152 9.44027C5.03686 9.67602 4.98068 10.1157 5.21632 10.4204C5.3497 10.5928 5.55121 10.6916 5.76933 10.6916C5.92524 10.6916 6.07296 10.6411 6.19646 10.5456L8.34985 8.88032L8.36237 8.86702C8.38659 8.84609 8.40922 8.82414 8.43014 8.8006C8.44277 8.78639 8.45481 8.77194 8.46596 8.75705C8.48529 8.73134 8.50235 8.70439 8.52123 8.67051C8.52874 8.65732 8.53591 8.64424 8.54227 8.63048C8.55706 8.59829 8.56866 8.56464 8.57855 8.53063L8.58776 8.50197L8.5906 8.48889C8.60209 8.43681 8.60766 8.38745 8.60766 8.33799C8.60766 8.28852 8.60209 8.23916 8.5906 8.18731C8.58742 8.17287 8.58321 8.15887 8.57867 8.14615C8.56877 8.11135 8.55717 8.07769 8.54227 8.04551C8.53591 8.03175 8.52874 8.01856 8.51793 7.99968C8.50235 7.97159 8.4853 7.94465 8.4662 7.91928C8.45505 7.90439 8.44334 7.89039 8.42991 7.87505C8.40887 7.8515 8.38636 7.82967 8.37283 7.81887L8.35111 7.7967L6.19624 6.13026C6.07262 6.03462 5.92501 5.98413 5.7691 5.98413C5.55099 5.98413 5.34948 6.08307 5.2162 6.25547C4.98057 6.56023 5.03675 6.99988 5.3414 7.23561L5.86349 7.63932H0.855069C0.46979 7.63932 0.156372 7.95272 0.156372 8.33801C0.156372 8.7233 0.46979 9.03671 0.855069 9.03671H5.86337V9.03668Z" fill="#172A55"/>
<path d="M6.68936 32.4659C6.71392 32.4449 6.73678 32.4228 6.75747 32.3994C6.77032 32.385 6.78237 32.3704 6.79352 32.3557C6.81273 32.3302 6.82967 32.3035 6.84879 32.2692C6.85652 32.2558 6.86392 32.2422 6.87005 32.2289C6.88483 32.1968 6.89644 32.1634 6.90655 32.1285L6.91553 32.0999L6.91837 32.0873C6.92986 32.0351 6.93543 31.9858 6.93543 31.9364C6.93543 31.8869 6.92986 31.8377 6.91837 31.7857C6.91519 31.7713 6.91098 31.7573 6.90633 31.7443C6.89643 31.7097 6.88483 31.6761 6.87005 31.6439C6.86369 31.6301 6.85652 31.6169 6.84572 31.5981C6.83014 31.57 6.81309 31.543 6.79398 31.5177C6.78284 31.5028 6.77112 31.4888 6.75816 31.474C6.73701 31.4501 6.71438 31.4283 6.70063 31.4173L6.67891 31.3951L4.52393 29.7286C4.40032 29.633 4.25271 29.5825 4.0968 29.5825C3.87869 29.5825 3.67717 29.6815 3.5439 29.8539C3.30827 30.1586 3.36445 30.5983 3.6691 30.834L4.19118 31.2377H1.32296C0.937684 31.2377 0.624268 31.5511 0.624268 31.9364C0.624268 32.3217 0.937671 32.6351 1.32296 32.6351H4.19107L3.66921 33.0387C3.36456 33.2744 3.30838 33.7141 3.54401 34.0188C3.67741 34.1912 3.87891 34.29 4.09703 34.29C4.25294 34.29 4.40066 34.2396 4.52416 34.144L6.67687 32.4793L6.68936 32.4659Z" fill="#172A55"/>
</svg>
