<svg width="67" height="66" viewBox="0 0 67 66" fill="none" xmlns="http://www.w3.org/2000/svg">
<path fill-rule="evenodd" clip-rule="evenodd" d="M7.75622 44.8596C10.0894 41.9086 13.0542 39.5174 16.4327 37.8655C19.9104 36.1555 23.8043 35.4771 27.655 35.9129L27.6909 35.9184L40.9537 37.3084C40.9785 37.3084 41.0006 37.3139 41.0227 37.3194C42.4292 37.6145 43.6483 38.4805 44.3928 39.7078C44.7734 40.3201 44.9941 41.0151 45.041 41.7321C45.0851 42.4823 44.8865 43.2242 44.4728 43.8475C43.604 44.9948 42.3078 45.7422 40.8793 45.916C40.8158 45.927 40.7524 45.9325 40.689 45.9297L32.9064 46.098C33.2235 46.7323 33.8193 47.1846 34.5198 47.317C36.0311 47.7748 38.4636 47.8603 42.0101 47.5956L58.8885 39.4981L58.9216 39.4815L58.9244 39.4843C60.5074 38.8582 62.267 38.8444 63.8638 39.4429C64.4154 39.6525 64.9091 39.9945 65.3035 40.4357C65.7089 40.9018 65.9102 41.5141 65.8551 42.1318C65.7806 42.9813 65.2373 43.9383 64.01 44.945C63.9824 44.967 63.9521 44.9891 63.9218 45.0084L42.7295 58.0425C40.6528 59.358 38.1789 59.9013 35.7409 59.5759L22.2543 57.9542C20.434 58.1114 18.7158 58.856 17.3589 60.0778L17.6788 60.5825V60.5853C18.0236 61.1341 17.8553 61.8594 17.3065 62.2042L12.0499 65.522V65.5192C11.5011 65.8667 10.7757 65.7012 10.4282 65.1524L0.25427 49.0238C-0.0904714 48.4777 0.0750015 47.7524 0.621075 47.4049L5.8777 44.0871L5.88046 44.0899C6.42928 43.7451 7.15188 43.9078 7.49939 44.4567L7.75312 44.8593L7.75622 44.8596ZM8.96692 52.532C7.88302 52.5293 6.94809 53.2959 6.73572 54.3577C6.52336 55.4223 7.0915 56.4869 8.09264 56.9033C9.09379 57.3198 10.2494 56.9723 10.8534 56.0704C11.4574 55.1714 11.3415 53.9689 10.5776 53.1994C10.1501 52.7719 9.57086 52.532 8.96692 52.532ZM9.46611 54.3054C9.22892 54.0682 8.85661 54.0323 8.57806 54.2199C8.29675 54.4074 8.18919 54.7659 8.31881 55.0748C8.44843 55.3864 8.77663 55.563 9.10759 55.4968C9.43855 55.4306 9.67573 55.141 9.67573 54.8045C9.67573 54.617 9.60124 54.4377 9.46611 54.3054ZM32.2138 12.5753C35.424 12.5753 38.4495 14.0674 40.4052 16.613C42.3578 19.1586 43.0169 22.4708 42.1868 25.5711C41.3566 28.671 39.131 31.2084 36.1635 32.4384C33.1987 33.6657 29.8312 33.4451 27.0514 31.8399C24.2716 30.2348 22.396 27.43 21.9768 24.2473C21.5576 21.0646 22.6442 17.8681 24.914 15.5984C26.8474 13.6595 29.4756 12.5701 32.2144 12.5757L32.2138 12.5753ZM38.4053 16.7067C35.4516 13.753 30.8239 13.2979 27.3489 15.6201C23.8766 17.9395 22.528 22.3908 24.1276 26.2494C25.7244 30.1105 29.8282 32.3031 33.9238 31.4867C38.0193 30.6704 40.9703 27.0768 40.9703 22.8986C40.9731 20.5763 40.0518 18.3477 38.4053 16.7067ZM32.2138 10.3524C28.4575 10.3552 24.9 12.0403 22.5171 14.9444C20.137 17.8485 19.18 21.6655 19.9136 25.3499C20.6473 29.0317 22.9943 32.1951 26.3065 33.9628C29.6188 35.7334 33.5518 35.9264 37.0213 34.4896V35.6782C37.0213 36.1112 37.3715 36.4615 37.8046 36.4643H62.527C62.96 36.4615 63.3103 36.1112 63.3103 35.6782V30.8822H66.1813C66.6143 30.8822 66.9646 30.5319 66.9646 30.0989V24.514C66.9646 24.081 66.6143 23.7308 66.1813 23.7308H63.3103V18.9292C63.3103 18.4989 62.96 18.1459 62.527 18.1459H43.8284C42.8825 15.843 41.2746 13.8711 39.2061 12.4839C37.1376 11.0967 34.7052 10.3548 32.2148 10.352L32.2138 10.3524ZM44.3512 19.7158H61.7429V23.7286L44.7317 23.7314C44.7483 23.4556 44.7593 23.1798 44.7593 22.8985C44.7593 21.8257 44.6215 20.7555 44.3512 19.7158ZM44.5304 25.3007H65.3944V29.3135H42.9969C43.7361 28.0752 44.2545 26.7183 44.5276 25.3007H44.5304ZM41.8911 30.8856C41.6346 31.1944 41.3671 31.4923 41.083 31.7764C40.3356 32.5238 39.4972 33.1747 38.5871 33.7124V34.9011H61.7428V30.8883L41.8911 30.8856ZM39.9743 15.1375C37.5611 12.7243 34.1633 11.5687 30.7797 12.0155C27.3957 12.4595 24.4116 14.4535 22.7069 17.41C20.9997 20.3665 20.7653 23.9463 22.0698 27.0989C23.3771 30.254 26.0744 32.6203 29.3702 33.5028C32.6687 34.3854 36.1878 33.6848 38.896 31.6081C41.6015 29.5314 43.1901 26.3129 43.1901 22.8985C43.1956 19.9861 42.0373 17.1921 39.9743 15.1375ZM31.4278 15.9897V16.4309C29.7455 16.7978 28.543 18.2898 28.5458 20.0135C28.5458 22.8294 30.2889 23.2458 32.0318 23.6623C33.1736 23.9326 34.3127 24.2056 34.3127 25.7831C34.2906 26.9277 33.3584 27.8461 32.2139 27.8461C31.0665 27.8461 30.1344 26.9277 30.1123 25.7831C30.1178 25.5708 30.0378 25.3667 29.8916 25.215C29.7427 25.0605 29.5414 24.9751 29.329 24.9751C29.1166 24.9751 28.9126 25.0605 28.7664 25.215C28.6175 25.3667 28.5375 25.5708 28.5458 25.7831C28.5458 27.5068 29.7454 28.9989 31.4278 29.3684V29.8097C31.4223 30.0221 31.5022 30.2261 31.6484 30.3778C31.7973 30.5323 32.0014 30.6178 32.2138 30.6178C32.4262 30.6178 32.6275 30.5323 32.7764 30.3778C32.9226 30.2262 33.0026 30.0221 32.997 29.8097V29.3684C34.6794 28.9989 35.8791 27.5068 35.8818 25.7831C35.8818 22.9673 34.1388 22.5508 32.3958 22.1371C31.254 21.8641 30.1149 21.5938 30.1149 20.0135H30.1122C30.1343 18.8689 31.0665 17.9533 32.2138 17.9533C33.3583 17.9533 34.2905 18.8689 34.3126 20.0135C34.3071 20.2259 34.3871 20.4327 34.5332 20.5844C34.6822 20.7361 34.8862 20.8216 35.0958 20.8216C35.3082 20.8216 35.5123 20.7361 35.6612 20.5844C35.8074 20.4327 35.8874 20.2259 35.8819 20.0135C35.8819 18.2925 34.6822 16.8005 32.9998 16.4309V15.9897C32.9888 15.565 32.6413 15.2285 32.2166 15.2285C31.7946 15.2285 31.4471 15.565 31.4333 15.9897H31.4278ZM34.5608 5.75503L55.5434 15.5731L57.2479 11.9327L36.2709 2.11176L34.5665 5.75221L34.5608 5.75503ZM55.59 17.3163C55.7776 17.4046 55.9927 17.4156 56.1885 17.3439C56.3843 17.2749 56.5415 17.1288 56.6298 16.9385L58.9961 11.886C59.0844 11.6984 59.0954 11.4833 59.0237 11.2875C58.952 11.0917 58.8086 10.9345 58.6183 10.8462L36.2236 0.371521C36.0361 0.283267 35.821 0.272239 35.6251 0.343942C35.4293 0.415647 35.2721 0.559063 35.1839 0.74936L32.8175 5.80745V5.80469C32.7293 5.99499 32.7183 6.21011 32.79 6.40592C32.8589 6.59898 33.0051 6.75893 33.1926 6.84719L55.59 17.3163ZM16.5154 58.7407C18.1094 57.3782 20.0952 56.5563 22.1856 56.3909C22.2436 56.3826 22.3042 56.3826 22.3622 56.3909L35.9257 58.0264H35.923C38.0107 58.3077 40.1316 57.8443 41.9105 56.7136L63.0724 43.6936C63.8943 43.0069 64.2583 42.4443 64.2942 42.003C64.308 41.7989 64.239 41.5949 64.1011 41.4432C63.8722 41.1977 63.5909 41.0102 63.2737 40.8943C62.0713 40.442 60.742 40.4503 59.5422 40.9192L42.6059 49.0442C42.5039 49.1021 42.388 49.1379 42.2694 49.1462C38.458 49.4358 35.7965 49.3338 34.0675 48.8098C32.0404 48.1947 31.1799 47.0419 31.2241 45.3155L31.2268 45.3182C31.2351 44.899 31.5716 44.5625 31.9907 44.5543L40.634 44.3695C41.6296 44.2592 42.5397 43.7628 43.1713 42.9851C43.4002 42.6403 43.5078 42.2294 43.483 41.8129C43.4499 41.3551 43.3037 40.9083 43.0583 40.5194C42.5453 39.67 41.7096 39.0688 40.7416 38.8564L27.5254 37.4747C27.5089 37.4747 27.4896 37.4747 27.4702 37.4692C23.9152 37.0693 20.316 37.6953 17.1057 39.2756C13.7741 40.9083 10.8755 43.3022 8.6446 46.267L16.5154 58.7407ZM6.38803 45.6183L1.78505 48.5225L11.5481 63.9888L16.1483 61.0902L6.38803 45.6183Z" fill="#CC922F"/>
</svg>
