<svg width="48" height="66" viewBox="0 0 48 66" fill="none" xmlns="http://www.w3.org/2000/svg">
<path d="M36.4473 47.7488C35.4939 47.493 34.5006 47.6231 33.6496 48.1143L25.3067 52.9307C24.9747 51.5718 23.9348 50.428 22.4924 50.0356L12.5741 47.3361C11.1323 46.9429 9.59035 47.3332 8.11522 48.4631L5.88216 50.173C5.75718 49.8009 5.50502 49.4899 5.16131 49.2915C4.7878 49.0757 4.35398 49.019 3.93832 49.1302L1.57883 49.7624C1.16317 49.8736 0.815827 50.1403 0.600006 50.5138C0.384185 50.8873 0.326778 51.3211 0.438685 51.7368L3.85984 64.5058C4.05241 65.2252 4.70569 65.7012 5.41709 65.7012C5.55444 65.7012 5.69468 65.683 5.8342 65.646L8.19442 65.0137C9.05334 64.7834 9.56419 63.8983 9.33457 63.0394L9.26626 62.785C10.5169 61.9029 11.6454 61.6732 13.0478 61.9944L18.7289 63.2966C19.2492 63.4158 19.7557 63.4754 20.2491 63.4754C21.2752 63.4754 22.2402 63.2174 23.1304 62.7037L37.3375 54.501C39.0982 53.4844 39.7035 51.2252 38.6869 49.4638C38.1957 48.6136 37.4007 48.0046 36.4473 47.7488ZM5.72811 63.5495L2.5344 51.6307L4.04442 51.2259L7.23813 63.1455L5.72811 63.5495ZM36.3114 52.7243L22.1043 60.9262C21.2258 61.4334 20.2985 61.5512 19.1875 61.2961L13.5064 59.9939C11.7842 59.5993 10.232 59.8275 8.70963 60.709L6.46059 52.3145L9.36218 50.0923C10.3236 49.3562 11.2232 49.0946 12.0349 49.3155L21.9532 52.0151C22.9741 52.2927 23.578 53.3493 23.3004 54.3702C23.0228 55.3905 21.9663 55.9951 20.9453 55.7175L15.6471 54.2758C15.1 54.1268 14.5368 54.4494 14.3878 54.9959C14.2389 55.5423 14.5615 56.1062 15.1079 56.2552L20.4061 57.6969C20.7542 57.7914 21.1037 57.8372 21.4481 57.8372C23.0199 57.8372 24.4733 56.8932 25.0996 55.4195L34.675 49.891C35.0507 49.6738 35.491 49.6171 35.9154 49.7304C36.3398 49.8438 36.6922 50.1134 36.9095 50.4891C37.3607 51.271 37.0919 52.2731 36.3114 52.7243ZM47.5588 14.261L44.1376 1.49199C43.9073 0.633064 43.0215 0.122216 42.1633 0.351843L39.8031 0.984045C38.9441 1.2144 38.4333 2.09948 38.6629 2.9584L38.7312 3.21274C37.4814 4.09564 36.3521 4.32527 34.9496 4.00335L29.2685 2.70116C27.6662 2.33347 26.1853 2.5333 24.8671 3.29413L10.66 11.4968C8.89929 12.5134 8.29398 14.7726 9.31059 16.534C9.80109 17.3842 10.5968 17.9939 11.5502 18.249C11.8699 18.3347 12.194 18.3769 12.5152 18.3769C13.1532 18.3769 13.7818 18.2105 14.3471 17.8835L22.6907 13.0671C23.0228 14.426 24.0627 15.5697 25.5051 15.9621L35.4234 18.6617C35.7875 18.7605 36.1581 18.81 36.5323 18.81C37.6398 18.81 38.7799 18.379 39.8823 17.5347L42.1153 15.8248C42.2403 16.1969 42.4925 16.5079 42.8362 16.7063C43.0854 16.8501 43.3608 16.9235 43.6406 16.9228C43.7801 16.9228 43.9211 16.9046 44.0592 16.8676L46.4187 16.2354C46.8343 16.1242 47.1817 15.8575 47.3975 15.484C47.6133 15.1105 47.6707 14.6759 47.5588 14.261ZM38.6353 15.9055C37.6739 16.6416 36.775 16.9032 35.9626 16.6823L26.0443 13.9827C25.0233 13.7051 24.4195 12.6485 24.6971 11.6276C24.9747 10.6066 26.0312 10.0027 27.0522 10.2803L32.3503 11.722C32.8968 11.8703 33.4607 11.5484 33.6097 11.0019C33.7586 10.4554 33.436 9.89155 32.8895 9.74258L27.5914 8.30087C25.6548 7.77404 23.6572 8.78193 22.8949 10.5804L13.3225 16.1067C12.9468 16.324 12.5065 16.3807 12.0821 16.2673C11.6577 16.154 11.3053 15.8844 11.088 15.5087C10.6368 14.7275 10.9056 13.7247 11.6868 13.2742L25.8939 5.07228C26.7724 4.56507 27.6997 4.44735 28.8107 4.70241L34.4918 6.0046C36.214 6.39918 37.7662 6.17101 39.2886 5.28956L41.5383 13.684L38.6353 15.9055ZM43.9531 14.7719L40.7594 2.85231L42.2694 2.44756L45.4631 14.3671L43.9531 14.7719ZM31.511 18.645C31.5089 18.645 31.5067 18.645 31.5045 18.645C28.9583 18.6465 26.5712 19.6325 24.7835 21.4202L23.9987 22.2057L23.2139 21.4209C19.505 17.712 13.47 17.712 9.76112 21.4209C7.97133 23.2107 6.98525 25.6 6.98525 28.1469C6.98525 30.6939 7.97133 33.0832 9.76112 34.873L23.2728 48.3854C23.4654 48.578 23.7262 48.6855 23.998 48.6855C24.2698 48.6855 24.5314 48.5772 24.7232 48.3854L38.2349 34.873C41.9438 31.1641 41.9438 25.1291 38.2349 21.4202C36.4459 19.6304 34.058 18.645 31.511 18.645ZM23.9987 46.209L18.3787 40.589C19.904 39.1676 21.9052 38.3668 23.9987 38.3668C26.0923 38.3668 28.0935 39.1676 29.6188 40.589L23.9987 46.209ZM20.005 32.3216C20.005 30.1198 21.7962 28.3286 23.998 28.3286C26.1998 28.3286 27.9911 30.1198 27.9911 32.3216C27.9911 34.5234 26.1998 36.3147 23.998 36.3147C21.7969 36.3147 20.005 34.5234 20.005 32.3216ZM36.7852 33.4225L31.0707 39.1371C30.1071 38.2265 28.9881 37.5166 27.776 37.0363C29.1574 35.9274 30.0439 34.2262 30.0439 32.3216C30.0439 28.9884 27.332 26.2765 23.9987 26.2765C20.6655 26.2765 17.9536 28.9884 17.9536 32.3216C17.9536 34.227 18.8401 35.9274 20.2215 37.0363C19.0094 37.5166 17.8904 38.2265 16.9268 39.1371L11.2123 33.4225C9.80981 32.0201 9.03736 30.1467 9.03736 28.1469C9.03736 26.1479 9.80981 24.2738 11.2123 22.8713C12.6671 21.4165 14.5775 20.6898 16.4879 20.6898C18.3983 20.6898 20.3087 21.4172 21.7635 22.8713L23.2735 24.3813C23.4661 24.5739 23.727 24.6814 23.9987 24.6814C24.2712 24.6814 24.5321 24.5732 24.724 24.3806L26.234 22.8706C27.635 21.4696 29.5069 20.6971 31.506 20.6957C31.5074 20.6957 31.5089 20.6957 31.511 20.6957C33.5094 20.6957 35.3827 21.4681 36.7852 22.8706C39.6941 25.7802 39.6941 30.5137 36.7852 33.4225Z" fill="#CC922F"/>
</svg>
