<svg width="72" height="66" viewBox="0 0 72 66" fill="none" xmlns="http://www.w3.org/2000/svg">
<path d="M60.7362 51.5999C61.1633 51.4119 61.4491 52.0613 61.022 52.2493L47.2319 58.322C46.8048 58.51 46.519 57.8606 46.9461 57.6726L60.7362 51.5999ZM33.7099 8.36556C33.2445 8.36556 33.2445 7.65789 33.7099 7.65789H37.4079C37.8734 7.65789 37.8734 8.36556 37.4079 8.36556H33.7099ZM31.1786 6.55799C30.7132 6.55799 30.7132 5.85031 31.1786 5.85031H39.9393C40.4047 5.85031 40.4047 6.55799 39.9393 6.55799H31.1786ZM63.1401 37.3947L65.976 33.5244L63.6805 32.5789L58.6471 39.4484C60.1448 38.7639 61.6425 38.0793 63.1401 37.3947L63.1401 37.3947ZM66.6509 33.8025L64.4613 36.7908L68.938 34.7446L66.651 33.8025H66.6509ZM57.3259 40.0523L63.0055 32.3008L60.7101 31.3553L52.8329 42.1061L57.3259 40.0523H57.3259ZM51.5117 42.71L60.0352 31.0772L57.7398 30.1317L47.0187 44.7637L51.5117 42.71ZM45.6974 45.3676L56.8479 30.1496L52.572 31.9373C52.5641 31.9518 52.5553 31.966 52.5452 31.9798C50.505 34.7648 48.4611 37.5534 46.414 40.345C44.6889 42.6975 42.9616 45.0521 41.2323 47.4085L45.6974 45.3676ZM39.9094 48.0133C41.8896 45.315 43.8675 42.6191 45.8424 39.9259C47.6681 37.4362 49.4913 34.9488 51.3117 32.4641L46.9654 34.2812C46.9644 34.2826 46.9635 34.2839 46.9625 34.2852L35.9584 49.3035L36.55 49.5488L39.9094 48.0133H39.9094ZM35.2845 49.024L45.6987 34.8107L41.3901 36.6121C41.3867 36.6172 41.3832 36.6222 41.3796 36.6272L32.9927 48.0736L35.2845 49.024H35.2845ZM32.3187 47.7941L40.1296 37.1339C38.7032 37.7054 37.5596 38.0608 36.3913 38.1574C36.3898 38.1595 36.3883 38.1617 36.3867 38.1638L30.0269 46.8436L32.3187 47.7941ZM29.353 46.5641L35.4962 38.18C34.6808 38.1536 33.8339 37.9988 32.8584 37.7017L27.0612 45.6137L29.353 46.5641V46.5641ZM26.3872 45.3342L32.1501 37.469C31.8073 37.349 31.4483 37.2132 31.0692 37.061L29.8265 36.562L24.0954 44.3837L26.3872 45.3342V45.3342ZM23.4215 44.1042L29.1475 36.2895L26.8396 35.3629C26.0953 36.3862 25.1007 37.7508 23.8955 39.4026C22.7955 40.9101 21.8914 42.1479 21.1496 43.1621L23.4215 44.1043V44.1042ZM20.4758 42.8827C21.6214 41.3171 22.5845 39.9996 23.3238 38.9863C24.0434 38.0001 24.9757 36.7199 26.1606 35.0903L23.8506 34.1628L18.1639 41.9239L20.4758 42.8827H20.4758ZM17.49 41.6444L23.1716 33.8902L20.8626 32.9632L15.1982 40.694L17.49 41.6444ZM14.5242 40.4145L20.1836 32.6906L17.8747 31.7636L12.2324 39.464L14.5242 40.4145ZM11.5585 39.1845L17.1957 31.491L14.8867 30.564L9.26666 38.2341L11.5585 39.1845H11.5585ZM8.59275 37.9546L14.2077 30.2914L13.8182 30.135L10.7937 31.4236C10.0438 32.447 9.29384 33.4706 8.54386 34.4943C7.89967 35.3737 7.25546 36.2532 6.61123 37.1328L8.59273 37.9546L8.59275 37.9546ZM5.93736 36.8534C6.61565 35.9272 7.29395 35.0012 7.97221 34.0753C8.48789 33.3714 9.00354 32.6675 9.5192 31.9638L5.89345 33.5004L4.01947 36.058L5.93737 36.8534H5.93736ZM3.34552 35.7785L4.61895 34.0406L1.91657 35.1859L3.34554 35.7785L3.34552 35.7785ZM64.4057 37.9836L69.2563 40.091C71.0414 40.9287 70.9622 41.3613 70.9623 43.1138L70.9625 48.3894C70.9626 50.5977 70.9804 50.8827 68.9141 51.8003L40.7543 64.3057C36.8458 66.0414 35.0307 66.2133 31.0312 64.5073L1.7721 52.0276C0.594888 51.5255 0.102924 50.8576 0.111586 49.5654L0.110936 42.7628C0.123315 40.9855 0.503381 40.1277 2.02718 39.4498L5.69241 37.9034L0.338431 35.683C-0.115061 35.4947 -0.0878667 34.8492 0.366635 34.6899L12.4294 29.5774L1.81216 25.3148C0.652325 24.8491 0.132392 24.2158 0.141324 22.943L0.140674 16.5786C0.115465 15.0206 0.446683 13.968 2.06513 13.2847L32.06 1.23558C35.12 0.00636992 35.9219 -0.0367039 38.9532 1.2349L69.133 13.8953C70.5368 14.4382 71.0216 15.0125 71.0217 16.3687L71.0222 21.9868C71.0378 23.619 71.108 24.1939 69.2087 24.9819L58.6961 29.3769L70.4725 34.2279C70.911 34.4081 70.9065 35.0241 70.48 35.2071L64.4057 37.9836H64.4057ZM69.9008 43.6385C69.5641 43.8641 69.2422 44.0101 68.8819 44.1714L40.7564 56.7605C36.849 58.5094 35.0319 58.6437 31.0333 56.9621L2.25874 44.8616C1.82699 44.68 1.46695 44.4639 1.17258 44.2237L1.17309 49.5695C1.16735 50.4259 1.40935 50.7171 2.18838 51.0493L31.4475 63.5291C35.1661 65.1152 36.6924 64.9492 40.3255 63.3358L68.5416 50.8054C69.9314 50.1882 69.9011 49.9901 69.901 48.4897L69.9008 43.6385ZM7.06952 38.4745L2.43928 40.428C0.870653 41.1122 0.872079 43.1269 2.67081 43.8833L31.4454 55.9839C35.1643 57.5478 36.692 57.416 40.3234 55.7906L68.5272 43.1665C70.0928 42.4657 70.4985 41.7892 68.7082 41.0114L63.1062 38.5776L37.2004 50.4189C36.5211 50.7294 36.644 50.7394 35.9467 50.4502L7.06951 38.4745L7.06952 38.4745ZM2.69213 17.5057L31.4647 29.0262C35.1937 30.5192 36.7147 30.3655 40.3629 28.8403L68.6075 17.032C70.0595 16.425 70.5951 15.6639 68.7209 14.8777L38.5411 2.21729C35.7745 1.05676 35.2547 1.09767 32.4554 2.22215L2.46061 14.2713C0.840427 15.0206 0.818593 16.775 2.69213 17.5057ZM1.20232 17.8771L1.20283 22.9471C1.19705 23.769 1.46103 24.0284 2.20761 24.3282L31.4647 36.0744C33.3928 36.8485 34.7447 37.17 36.0331 37.1157C37.3214 37.0613 38.5983 36.6263 40.3629 35.8885L68.8008 23.9994C70.0259 23.4912 69.926 23.0767 69.926 22.0548L69.9258 17.5713C69.6497 17.7426 69.3085 17.9051 69.0062 18.0315L40.7702 29.8361C36.8624 31.4699 35.0607 31.6109 31.0692 30.0128L2.29667 18.4923C1.86142 18.318 1.49864 18.1095 1.20232 17.8772V17.8771ZM53.2047 20.2358C53.6354 20.057 53.9074 20.7119 53.4767 20.8908L39.9707 26.5372C39.54 26.7161 39.268 26.0612 39.6988 25.8823L53.2047 20.2358ZM60.3726 17.2392C60.8034 17.0603 61.0753 17.7152 60.6446 17.8941L56.6229 19.5754C56.1921 19.7543 55.9202 19.0994 56.3509 18.9205L60.3726 17.2392Z" fill="#CC922F"/>
</svg>
