<svg width="22" height="22" viewBox="0 0 22 22" fill="none" xmlns="http://www.w3.org/2000/svg">
<path d="M16.1406 0.960938H6.14062C3.3792 0.960938 1.14062 3.19951 1.14062 5.96094V15.9609C1.14062 18.7224 3.3792 20.9609 6.14062 20.9609H16.1406C18.902 20.9609 21.1406 18.7224 21.1406 15.9609V5.96094C21.1406 3.19951 18.902 0.960938 16.1406 0.960938Z" stroke="#F7F7F7" stroke-linecap="round" stroke-linejoin="round"/>
<path d="M15.1442 10.3273C15.2677 11.1596 15.1255 12.0095 14.738 12.7563C14.3505 13.5031 13.7374 14.1087 12.9859 14.487C12.2343 14.8653 11.3827 14.9969 10.552 14.8633C9.72136 14.7296 8.954 14.3374 8.35908 13.7425C7.76416 13.1476 7.37197 12.3802 7.23831 11.5495C7.10464 10.7189 7.2363 9.86723 7.61456 9.11571C7.99283 8.36419 8.59842 7.75107 9.34522 7.36357C10.092 6.97607 10.942 6.83392 11.7742 6.95733C12.6232 7.08322 13.4091 7.4788 14.0159 8.08564C14.6228 8.69248 15.0184 9.47841 15.1442 10.3273Z" stroke="#F7F7F7" stroke-linecap="round" stroke-linejoin="round"/>
<path d="M16.6406 5.46094H16.6506" stroke="#F7F7F7" stroke-linecap="round" stroke-linejoin="round"/>
</svg>
