<svg width="22" height="21" viewBox="0 0 22 21" fill="none" xmlns="http://www.w3.org/2000/svg">
<path d="M15.1406 6.96094C16.7319 6.96094 18.258 7.59308 19.3833 8.7183C20.5085 9.84352 21.1406 11.3696 21.1406 12.9609V19.9609H17.1406V12.9609C17.1406 12.4305 16.9299 11.9218 16.5548 11.5467C16.1798 11.1717 15.6711 10.9609 15.1406 10.9609C14.6102 10.9609 14.1015 11.1717 13.7264 11.5467C13.3513 11.9218 13.1406 12.4305 13.1406 12.9609V19.9609H9.14062V12.9609C9.14062 11.3696 9.77277 9.84352 10.898 8.7183C12.0232 7.59308 13.5493 6.96094 15.1406 6.96094Z" stroke="#F7F7F7" stroke-linecap="round" stroke-linejoin="round"/>
<path d="M5.14062 7.96094H1.14062V19.9609H5.14062V7.96094Z" stroke="#F7F7F7" stroke-linecap="round" stroke-linejoin="round"/>
<path d="M3.14062 4.96094C4.24519 4.96094 5.14062 4.06551 5.14062 2.96094C5.14062 1.85637 4.24519 0.960938 3.14062 0.960938C2.03606 0.960938 1.14062 1.85637 1.14062 2.96094C1.14062 4.06551 2.03606 4.96094 3.14062 4.96094Z" stroke="#F7F7F7" stroke-linecap="round" stroke-linejoin="round"/>
</svg>
