<svg width="12" height="12" viewBox="0 0 12 12" fill="none" xmlns="http://www.w3.org/2000/svg">
<mask id="mask0_2429_20976" style="mask-type:alpha" maskUnits="userSpaceOnUse" x="0" y="0" width="12" height="12">
<rect width="12" height="12" transform="matrix(-1 0 0 1 12 0)" fill="#D9D9D9"/>
</mask>
<g mask="url(#mask0_2429_20976)">
<path d="M7.40702 5.99964L3.64065 9.76602C3.54131 9.86535 3.4929 9.98231 3.4954 10.1169C3.49798 10.2516 3.54894 10.3686 3.64827 10.4679C3.74769 10.5672 3.86469 10.6169 3.99927 10.6169C4.13386 10.6169 4.25086 10.5672 4.35027 10.4679L8.18577 6.64002C8.27619 6.5496 8.34319 6.44831 8.38677 6.33614C8.43036 6.22397 8.45215 6.11181 8.45215 5.99964C8.45215 5.88747 8.43036 5.77531 8.38677 5.66314C8.34319 5.55097 8.27619 5.44968 8.18577 5.35927L4.35027 1.52364C4.25086 1.42431 4.13256 1.37593 3.9954 1.37852C3.85823 1.3811 3.73998 1.43206 3.64065 1.53139C3.54131 1.63072 3.49165 1.74772 3.49165 1.88239C3.49165 2.01697 3.54131 2.13393 3.64065 2.23327L7.40702 5.99964Z" fill="white"/>
</g>
</svg>
