<svg width="20" height="20" viewBox="0 0 20 20" fill="none" xmlns="http://www.w3.org/2000/svg">
<path d="M8.36388 0.777844C7.38967 0.766491 6.42289 0.948567 5.51955 1.31353C4.61621 1.67848 3.79428 2.21907 3.10136 2.90396C2.40844 3.58885 1.85831 4.40443 1.48285 5.30345C1.10739 6.20248 0.914062 7.16707 0.914062 8.14134C0.914062 9.11562 1.10739 10.0802 1.48285 10.9792C1.85831 11.8783 2.40844 12.6938 3.10136 13.3787C3.79428 14.0636 4.61621 14.6042 5.51955 14.9692C6.42289 15.3341 7.38967 15.5162 8.36388 15.5048C10.3019 15.4823 12.1529 14.6965 13.5154 13.318C14.8779 11.9396 15.6421 10.0795 15.6421 8.14134C15.6421 6.20315 14.8779 4.34311 13.5154 2.96464C12.1529 1.58617 10.3019 0.800429 8.36388 0.777844Z" stroke="white" stroke-miterlimit="10"/>
<path d="M13.8516 13.6328L18.9946 18.7758" stroke="white" stroke-miterlimit="10" stroke-linecap="round"/>
</svg>
