<svg width="66" height="66" viewBox="0 0 66 66" fill="none" xmlns="http://www.w3.org/2000/svg">
<path d="M65.1165 64.2934C65.1165 64.735 64.7577 65.0938 64.3161 65.0938H1.67835C1.23675 65.0938 0.877957 64.735 0.877957 64.2934C0.877957 63.8518 1.23675 63.493 1.67835 63.493H64.3161C64.7577 63.493 65.1165 63.8518 65.1165 64.2934ZM64.2126 57.8074C43.4438 60.5467 22.4403 60.5467 1.78185 57.8074C1.34025 57.7522 0.940056 58.0558 0.884857 58.4974C0.829657 58.9321 1.13325 59.3392 1.57485 59.3944C11.9731 60.7744 22.4541 61.4644 32.9558 61.4644C43.4507 61.4644 53.9731 60.7744 64.4265 59.3944C64.8612 59.3392 65.1717 58.9321 65.1165 58.4974C65.0544 58.0558 64.6473 57.7453 64.2126 57.8074ZM65.1027 52.7497C65.0199 52.315 64.5921 52.039 64.1643 52.1218C41.636 56.6068 21.2535 56.6137 1.85775 52.1287C1.42995 52.0321 0.995256 52.2943 0.898656 52.729C0.802057 53.1568 1.06426 53.5846 1.49895 53.6881C11.2279 55.9375 21.4398 57.076 31.8587 57.076C32.183 57.076 32.5073 57.076 32.8316 57.076C42.9125 57.007 53.5591 55.8685 64.4748 53.695C64.9095 53.6053 65.1855 53.1844 65.1027 52.7497ZM64.0953 46.4432C40.8494 53.2603 19.9494 53.2672 1.96125 46.4639C1.54725 46.3052 1.08496 46.5191 0.933156 46.9262C0.774457 47.3402 0.981456 47.8025 1.39545 47.9612C10.5586 51.4318 20.529 53.1913 31.0169 53.1913C31.0445 53.1913 31.0721 53.1913 31.0997 53.1913C41.5394 53.1844 52.7932 51.4319 64.5438 47.9819C64.9647 47.8577 65.2131 47.4161 65.0889 46.9883C64.9578 46.5605 64.5162 46.319 64.0953 46.4432ZM1.37475 42.2549C11.7523 46.5329 22.3299 48.6995 32.8316 48.6995C32.8868 48.6995 32.9489 48.6995 33.0041 48.6995C43.4369 48.6788 54.0766 46.5053 64.6197 42.2549C65.0268 42.0893 65.2269 41.627 65.0613 41.213C64.8957 40.8059 64.4334 40.6058 64.0194 40.7714C43.2092 49.1618 22.3368 49.1618 1.98195 40.7714C1.57485 40.6058 1.10565 40.799 0.940056 41.2061C0.767557 41.6201 0.967656 42.0893 1.37475 42.2549ZM17.5896 26.2746C16.3407 25.0395 16.2786 23.0317 17.4516 21.6103L23.5443 14.1928V1.68321C23.5443 1.24161 23.9031 0.882812 24.3447 0.882812H43.0436C43.4852 0.882812 43.844 1.24161 43.844 1.68321V14.1031C46.9834 16.7527 47.9839 20.5132 46.8247 25.2879C47.08 25.6467 47.2663 26.0538 47.3698 26.4954L49.1431 34.0095C49.5916 35.9001 48.4117 37.7975 46.5211 38.246C46.252 38.3081 45.976 38.3426 45.7138 38.3426C45.01 38.3426 44.3338 38.1287 43.7681 37.7561C43.6715 38.039 43.5404 38.3081 43.3817 38.5703C42.8021 39.5087 41.8913 40.1642 40.8287 40.4195C40.5113 40.4954 40.1939 40.5299 39.8834 40.5299C39.0209 40.5299 38.1998 40.2539 37.5167 39.7778C37.4132 40.1159 37.2683 40.4471 37.0751 40.7576C36.4955 41.696 35.5847 42.3515 34.5221 42.6068C34.2047 42.6827 33.8873 42.7172 33.5768 42.7172C32.8178 42.7172 32.0726 42.5033 31.4102 42.0962C30.9824 41.834 30.6167 41.5028 30.32 41.1164C29.7819 41.9237 28.9677 42.4895 28.0224 42.7103C27.7257 42.7793 27.4359 42.8138 27.1461 42.8138C25.4073 42.8138 23.8341 41.627 23.4201 39.8606L21.7434 32.7675C21.564 32.0085 21.6192 31.2357 21.9021 30.5181L17.5896 26.2746ZM29.2989 38.4668L27.8499 32.319C27.2427 32.7813 26.5251 33.009 25.8006 33.009C24.9381 33.009 24.0825 32.6847 23.4201 32.0361L23.22 31.8429C23.2131 32.0292 23.2338 32.2155 23.2752 32.3949L24.9519 39.488C25.2348 40.6817 26.4354 41.4269 27.636 41.144C28.2156 41.006 28.7055 40.6541 29.016 40.1435C29.3334 39.6398 29.43 39.0395 29.2989 38.4668ZM36.0125 38.0045L33.839 28.7862C33.7286 28.3101 33.4871 27.8961 33.1421 27.5649L29.2023 31.1184L31.0997 39.1706C31.2515 39.8261 31.6517 40.3781 32.2313 40.7369C32.804 41.0957 33.4802 41.2061 34.1357 41.0474C34.7912 40.8956 35.3432 40.4954 35.702 39.9158C36.0539 39.3293 36.1712 38.6531 36.0125 38.0045ZM34.4945 26.3367L34.3289 26.4816C34.3427 26.4954 34.3634 26.5161 34.3772 26.5368C34.4186 26.4678 34.46 26.4057 34.4945 26.3367ZM42.326 35.8173L40.5113 28.11L40.463 27.9168C40.1456 26.5644 38.7863 25.7226 37.427 26.04C36.0746 26.3574 35.2328 27.7236 35.5502 29.076L37.4132 36.9765C37.7306 38.3288 39.0968 39.1706 40.4492 38.8532C41.1047 38.7014 41.6567 38.3012 42.0155 37.7216C42.3674 37.149 42.4778 36.4728 42.326 35.8173ZM45.8035 26.8611C45.6862 26.3643 45.3826 25.9434 44.941 25.6674C44.4994 25.3914 43.9888 25.3086 43.4921 25.4259C42.9953 25.5432 42.5744 25.8468 42.2984 26.2884C42.0293 26.73 41.9396 27.2406 42.0569 27.7374L43.8302 35.2515C44.0716 36.2865 45.1135 36.9213 46.1416 36.6798C47.1766 36.4383 47.8114 35.3964 47.5699 34.3683L45.8035 26.8611ZM18.7074 25.1361L24.5448 30.8976C25.2141 31.56 26.2905 31.5876 26.9943 30.9528L35.7296 23.0731C35.9021 22.9213 35.9228 22.6591 35.7779 22.4797C35.2466 21.8311 34.6049 21.4723 33.8252 21.3964C31.9898 21.217 29.3748 22.5073 26.0421 25.2465C25.704 25.5294 25.2003 25.4742 24.9174 25.1361C24.6345 24.798 24.6828 24.2943 25.0278 24.0114C28.7331 20.9686 31.6517 19.5886 33.9494 19.8025C34.6256 17.2357 34.3151 15.1588 32.9627 13.144C32.7143 12.7783 32.8178 12.2815 33.1835 12.0331C33.5492 11.7847 34.046 11.8882 34.2944 12.2539C35.909 14.662 36.2954 17.215 35.495 20.2303C36.0677 20.5132 36.5783 20.9272 37.0199 21.4723C37.703 22.3141 37.6133 23.5353 36.806 24.2667L36.2264 24.7911C36.4886 24.6669 36.7646 24.5634 37.0613 24.4944C38.4827 24.1563 39.911 24.6117 40.8839 25.557C40.9046 25.5225 40.9184 25.4949 40.9391 25.4604C41.4359 24.66 42.2087 24.1011 43.1264 23.8803C43.913 23.694 44.7202 23.7837 45.4378 24.1287C46.1968 20.2027 45.2446 17.2426 42.5399 15.1105C42.3536 14.9656 42.2363 14.7379 42.2363 14.4826V2.4836H25.1382V14.4757V14.4826C25.1382 14.5033 25.1382 14.5309 25.1313 14.5516C25.1313 14.5585 25.1313 14.5723 25.1244 14.5792C25.1244 14.593 25.1175 14.6137 25.1175 14.6275C25.1175 14.6413 25.1106 14.6482 25.1106 14.662C25.1106 14.6758 25.1037 14.6896 25.0968 14.7034C25.0899 14.7172 25.0899 14.731 25.083 14.7379C25.0761 14.7517 25.0761 14.7655 25.0692 14.7724C25.0623 14.7862 25.0554 14.8 25.0485 14.8069C25.0416 14.8207 25.0416 14.8276 25.0347 14.8414C25.0278 14.8552 25.0209 14.869 25.0071 14.8828C25.0002 14.8897 25.0002 14.9035 24.9933 14.9104C24.9795 14.9311 24.9657 14.9449 24.9519 14.9656L24.945 14.9725L18.6729 22.6108C18.0312 23.4181 18.0381 24.4737 18.7074 25.1361Z" fill="#CC922F"/>
</svg>
