<svg width="61" height="84" viewBox="0 0 61 84" fill="none" xmlns="http://www.w3.org/2000/svg">
<path d="M30.5558 19.9758C30.5558 20.4981 30.972 20.9143 31.4943 20.9143H33.5835L30.6578 23.84C30.5517 23.9461 30.5517 24.0481 30.4497 24.1542C30.3436 24.3623 30.3436 24.6765 30.4497 24.8846C30.5558 25.0927 30.7639 25.3008 30.972 25.4069C31.0781 25.4069 31.1801 25.513 31.2862 25.513H35.7788C36.3011 25.513 36.7173 25.0968 36.7173 24.5745C36.7173 24.0522 36.3011 23.636 35.7788 23.636L33.6896 23.6319L36.6153 20.7062C36.7214 20.6001 36.7214 20.4981 36.8234 20.392C36.9295 20.1839 36.9295 19.8697 36.8234 19.6616C36.7173 19.4535 36.5092 19.2454 36.3011 19.1393C36.195 19.1393 36.093 19.0332 35.9869 19.0332H31.6004C30.972 19.0332 30.5558 19.4535 30.5558 19.9758Z" fill="#CC922F"/>
<path d="M39.5426 16.7268C39.6487 16.7268 39.7507 16.8329 39.8568 16.8329H45.9162C46.4385 16.8329 46.8547 16.4167 46.8547 15.8944C46.8547 15.3721 46.4385 14.9559 45.9162 14.9559H42.154L46.5405 10.5695C46.6466 10.4634 46.6466 10.3614 46.7486 10.2553C46.8547 10.0472 46.8547 9.73297 46.7486 9.52487C46.6425 9.31676 46.4344 9.10866 46.2263 9.00257C46.1202 9.00257 46.0182 8.89648 45.9121 8.89648H40.0607C39.5384 8.89648 39.1222 9.31269 39.1222 9.83499C39.1222 10.3573 39.5384 10.7735 40.0607 10.7735H43.6106L39.2242 15.1599C39.1181 15.266 39.1181 15.368 39.0161 15.4741C38.91 15.6822 38.91 15.9964 39.0161 16.2045C39.1222 16.5187 39.3304 16.6248 39.5426 16.7268Z" fill="#CC922F"/>
<path d="M26.4834 9.73317C26.5895 9.73317 26.6915 9.83926 26.7976 9.83926H34.3178C34.8401 9.83926 35.2563 9.42305 35.2563 8.90076C35.2563 8.37846 34.8401 7.96226 34.3178 7.96226H28.9887L34.9421 2.00892C35.0481 1.90283 35.0481 1.80081 35.1502 1.69472C35.2562 1.48662 35.2562 1.17243 35.1502 0.964323C35.0441 0.756219 34.836 0.548116 34.6279 0.442027C34.5218 0.442027 34.4198 0.335938 34.3137 0.335938H27.0015C26.4792 0.335938 26.063 0.752145 26.063 1.27444C26.063 1.79674 26.4792 2.21295 27.0015 2.21295H32.0164L26.0631 8.16629C25.957 8.27237 25.957 8.37439 25.855 8.48048C25.7489 8.68858 25.7489 9.00277 25.855 9.21088C26.0631 9.41898 26.2712 9.62708 26.4834 9.73317Z" fill="#CC922F"/>
<path d="M1.62063 83.8966H7.68011C8.2024 83.8966 8.61861 83.4804 8.61861 82.9581V77.1067H52.3849V82.9581C52.3849 83.4804 52.8011 83.8966 53.3234 83.8966H59.3829C59.9052 83.8966 60.3214 83.4804 60.3214 82.9581V62.0662C60.3214 61.9602 60.3214 61.752 60.2153 61.65L52.589 45.6667L52.5971 25.1906C52.5971 24.6683 52.1809 24.2521 51.6586 24.2521L47.2681 24.248C46.7458 24.248 46.3296 24.6643 46.3296 25.1866V29.7811L14.7798 29.7852V25.1906C14.7798 24.6683 14.3636 24.2521 13.8413 24.2521H9.34869C8.82639 24.2521 8.41018 24.6683 8.41018 25.1906V45.6667L5.48449 51.8282L0.783824 61.6456C0.677735 61.7517 0.677734 61.8537 0.677734 62.0619V82.9537C0.677734 83.4801 1.09834 83.8966 1.62063 83.8966ZM53.2214 51.1998H39.3273C38.4908 49.4248 37.4462 47.9599 35.9854 46.9153H51.2386L53.2214 51.1998ZM25.8541 45.1403H19.9008C19.4846 45.1403 19.1704 44.8261 19.1704 44.4099V37.8282C19.1704 37.412 19.4846 37.0978 19.9008 37.0978H24.4953C23.973 38.0363 23.6588 39.0808 23.6588 40.2315C23.7649 42.1126 24.6014 43.8877 25.8541 45.1403ZM36.5079 37.0978H41.1025C41.5187 37.0978 41.8329 37.412 41.8329 37.8282V44.41C41.8329 44.8262 41.5187 45.1404 41.1025 45.1404H35.1491C36.4018 43.8877 37.2383 42.1127 37.2383 40.2316C37.3444 39.085 37.0302 38.0403 36.5079 37.0978ZM30.5546 45.1403C27.837 45.1403 25.6458 42.945 25.6458 40.2316C25.6458 37.514 27.8412 35.3228 30.5546 35.3228C33.2722 35.3228 35.4633 37.5182 35.4633 40.2316C35.4633 42.9492 33.2721 45.1403 30.5546 45.1403ZM30.5546 47.0214C32.7499 47.0214 34.733 48.066 36.1937 49.841C34.4187 49.3187 32.3296 49.1106 30.4485 49.1106C28.6735 49.1106 26.5843 49.3187 24.8093 49.841C26.3762 48.066 28.3593 47.0214 30.5546 47.0214ZM10.3929 26.1296H13.0044V30.7241C13.0044 31.2464 13.4206 31.6626 13.9429 31.6626H47.3698C47.8921 31.6626 48.3083 31.2464 48.3083 30.7241V26.1296H50.9198V45.1401H43.8158C43.9219 44.932 43.9219 44.6178 43.9219 44.4097V37.828C43.9219 36.3672 42.7711 35.2165 41.3104 35.2165H35.2509C33.9982 34.0658 32.4313 33.4415 30.6564 33.4415C28.8814 33.4415 27.3145 34.1719 26.0618 35.2165H20.0024C18.5416 35.2165 17.3909 36.3672 17.3909 37.828V44.4097C17.3909 44.7239 17.3909 44.932 17.497 45.1401H10.3929V26.1296ZM9.87061 47.0214H25.0172C23.6584 48.066 22.5119 49.5268 21.6753 51.3059H7.88777L9.87061 47.0214ZM6.94492 53.0809H22.4059H22.512H22.7201C22.7201 53.0809 22.8262 53.0809 22.8262 52.9748C22.9323 52.9748 22.9323 52.8687 23.0343 52.8687L23.1404 52.7626C23.5566 52.1343 26.168 51.0896 30.4525 51.0896C34.6309 51.0896 37.2424 52.0281 37.7647 52.7626C37.9728 53.0768 38.287 53.1789 38.6012 53.1789H38.7073H54.1683L58.0324 61.1194L3.18717 61.1235L6.94492 53.0809ZM2.55847 63.0045H58.4442V82.0151H54.2658V76.1637C54.2658 75.6414 53.8496 75.2252 53.3273 75.2252H7.78097C7.25867 75.2252 6.84247 75.6414 6.84247 76.1637V82.0151H2.6641V63.0045H2.55847Z" fill="#CC922F"/>
</svg>
