<svg width="93" height="65" viewBox="0 0 93 65" fill="none" xmlns="http://www.w3.org/2000/svg">
<path d="M90.0133 23.7891H80.7993C80.0793 23.7891 79.4273 24.0641 78.9223 24.5031C78.4173 24.0641 77.7653 23.7891 77.0453 23.7891H67.8313C67.1113 23.7891 66.4593 24.0641 65.9543 24.5031C65.4493 24.0641 64.7973 23.7891 64.0773 23.7891H54.8633C54.1433 23.7891 53.4913 24.0641 52.9863 24.5031C52.4813 24.0641 51.8293 23.7891 51.1093 23.7891H41.8943C41.1743 23.7891 40.5223 24.0641 40.0173 24.5031C39.5123 24.0641 38.8603 23.7891 38.1403 23.7891H28.9263C28.2063 23.7891 27.5543 24.0641 27.0493 24.5031C26.5443 24.0641 25.8923 23.7891 25.1723 23.7891H15.9583C15.2383 23.7891 14.5863 24.0641 14.0813 24.5031C13.5763 24.0641 12.9243 23.7891 12.2043 23.7891H2.99028C1.40428 23.7891 0.113281 25.0801 0.113281 26.6661V31.5741V63.1391C0.113281 63.6911 0.561281 64.1391 1.11328 64.1391H91.8883C92.4403 64.1391 92.8883 63.6911 92.8883 63.1391V31.5741V26.6661C92.8903 25.0791 91.5993 23.7891 90.0133 23.7891ZM14.0823 32.5741H27.0503H40.0183H52.9873H65.9553H78.9223H90.8903V37.7851H2.11428V32.5741H14.0823ZM90.8903 39.7851V46.3041H2.11428V39.7851H90.8903ZM2.11428 48.3041H90.8893V55.0321H2.11428V48.3041ZM80.7993 25.7891H90.0133C90.4963 25.7891 90.8903 26.1831 90.8903 26.6661V30.5741H79.9223V26.6661C79.9223 26.1821 80.3153 25.7891 80.7993 25.7891ZM67.8313 25.7891H77.0453C77.5283 25.7891 77.9223 26.1831 77.9223 26.6661V30.5741H66.9543V26.6661C66.9543 26.1821 67.3483 25.7891 67.8313 25.7891ZM54.8633 25.7891H64.0773C64.5603 25.7891 64.9543 26.1831 64.9543 26.6661V30.5741H53.9863V26.6661C53.9863 26.1821 54.3803 25.7891 54.8633 25.7891ZM41.8953 25.7891H51.1103C51.5933 25.7891 51.9873 26.1831 51.9873 26.6661V30.5741H41.0183V26.6661C41.0183 26.1821 41.4113 25.7891 41.8953 25.7891ZM28.9273 25.7891H38.1413C38.6243 25.7891 39.0183 26.1831 39.0183 26.6661V30.5741H28.0503V26.6661C28.0503 26.1821 28.4433 25.7891 28.9273 25.7891ZM15.9593 25.7891H25.1733C25.6563 25.7891 26.0503 26.1831 26.0503 26.6661V30.5741H15.0823V26.6661C15.0823 26.1821 15.4763 25.7891 15.9593 25.7891ZM2.11428 26.6651C2.11428 26.1821 2.50828 25.7881 2.99128 25.7881H12.2053C12.6883 25.7881 13.0823 26.1821 13.0823 26.6651V30.5731H2.11428V26.6651ZM2.11428 62.1391V57.0311H90.8893V62.1391H2.11428Z" fill="#CC922F"/>
<path d="M27.2674 7.09844C26.0004 12.8574 27.4094 16.8664 27.8984 18.0124L27.1664 21.9084C27.0934 22.2974 27.2564 22.6924 27.5824 22.9164C27.9084 23.1414 28.3354 23.1524 28.6724 22.9454L30.8424 21.6134C34.2724 22.2564 38.5634 22.5814 43.6054 22.5814C51.5364 22.5814 58.9924 21.7634 60.5314 21.5844L63.5684 22.9984C63.7034 23.0614 63.8474 23.0924 63.9904 23.0924C64.2184 23.0924 64.4444 23.0144 64.6264 22.8634C64.9234 22.6174 65.0534 22.2234 64.9604 21.8494L64.1144 18.4604C65.8954 13.3144 64.4794 6.87144 64.1124 5.39444L64.9394 2.91144C65.0584 2.55344 64.9664 2.15944 64.7014 1.89144C64.4354 1.62444 64.0434 1.52844 63.6834 1.64344L60.3214 2.72944C55.7864 1.43144 50.9084 0.773438 45.8184 0.773438C37.7934 0.773438 31.8194 2.38944 30.5804 2.75244L27.2034 2.22944C26.8624 2.17744 26.5134 2.30544 26.2884 2.57044C26.0634 2.83544 25.9924 3.19844 26.1004 3.52844L27.2674 7.09844ZM30.4974 4.76644C30.6474 4.78844 30.8034 4.77744 30.9494 4.73244C31.0124 4.71244 37.2954 2.77644 45.8174 2.77644C50.8294 2.77644 55.6194 3.43644 60.0554 4.73744C60.2484 4.79344 60.4524 4.79144 60.6444 4.72944L62.4164 4.15644L62.1214 5.04444C62.0584 5.23244 62.0534 5.43444 62.1054 5.62544C62.1254 5.69744 64.0624 12.9084 62.1334 18.0594C62.0624 18.2484 62.0504 18.4554 62.0994 18.6524L62.5114 20.3024L61.1164 19.6534C60.9464 19.5734 60.7574 19.5434 60.5704 19.5674C60.4894 19.5774 52.3374 20.5824 43.6044 20.5834C38.5014 20.5834 34.2084 20.2454 30.8434 19.5794C30.7794 19.5664 30.7144 19.5604 30.6494 19.5604C30.4654 19.5604 30.2844 19.6104 30.1264 19.7074L29.5474 20.0624L29.9214 18.0714C29.9624 17.8564 29.9284 17.6304 29.8304 17.4344C29.8104 17.3944 27.8534 13.3994 29.2774 7.27744C29.3194 7.09944 29.3104 6.91344 29.2534 6.73944L28.5064 4.45944L30.4974 4.76644Z" fill="#CC922F"/>
</svg>
