<svg width="88" height="65" viewBox="0 0 88 65" fill="none" xmlns="http://www.w3.org/2000/svg">
<path d="M6.46149 0.570323C6.06789 0.571899 5.69085 0.728957 5.41253 1.00728C5.13421 1.2856 4.97715 1.66264 4.97557 2.05624V27.7685C2.44357 29.2169 0.733409 31.9623 0.733409 35.0933V55.5204C0.732668 55.7165 0.770608 55.9109 0.845059 56.0923C0.919509 56.2738 1.02901 56.4388 1.16729 56.5779C1.30558 56.7169 1.46993 56.8274 1.65095 56.9029C1.83197 56.9784 2.0261 57.0175 2.22224 57.0179H7.17532V63.183C7.17613 63.5776 7.33324 63.9558 7.61228 64.2349C7.89131 64.5139 8.26953 64.6711 8.66415 64.6719H20.942C21.1381 64.6726 21.3325 64.6347 21.5139 64.5602C21.6954 64.4858 21.8604 64.3763 21.9995 64.238C22.1386 64.0997 22.249 63.9353 22.3246 63.7543C22.4001 63.5733 22.4391 63.3792 22.4395 63.183V57.0179H65.5604V63.183C65.5612 63.5776 65.7184 63.9558 65.9974 64.2349C66.2764 64.5139 66.6546 64.6711 67.0493 64.6719H79.3271C79.5232 64.6726 79.7176 64.6347 79.899 64.5602C80.0805 64.4858 80.2455 64.3763 80.3846 64.238C80.5237 64.0997 80.6342 63.9353 80.7097 63.7543C80.7852 63.5733 80.8243 63.3792 80.8247 63.183V57.0179H85.769C85.9659 57.0187 86.1609 56.9804 86.343 56.9054C86.525 56.8304 86.6904 56.7202 86.8296 56.581C86.9688 56.4417 87.0791 56.2764 87.1541 56.0943C87.2291 55.9123 87.2673 55.7172 87.2666 55.5204V35.0933C87.2666 31.9667 85.5568 29.2243 83.0273 27.7744V2.05624C83.0257 1.66062 82.8671 1.28182 82.5862 1.00317C82.3054 0.724513 81.9254 0.568817 81.5297 0.570323H6.46149ZM7.95907 3.55383H80.0438V26.7575C79.6759 26.7074 79.3006 26.6789 78.9192 26.6789H70.6038V20.2603C70.6038 17.505 68.3591 15.2257 65.6071 15.2257H51.8288C49.0767 15.2257 46.8291 17.505 46.8291 20.2603V26.6789H41.1593V20.2603C41.1593 17.505 38.9116 15.2257 36.1595 15.2257H22.3842C19.6322 15.2257 17.3845 17.505 17.3845 20.2603V26.6789H9.06915C8.69172 26.6789 8.32318 26.7083 7.95907 26.7575V3.55383ZM22.3842 18.212H36.1595C37.295 18.212 38.1874 19.0909 38.1874 20.2603V26.6789H20.368V20.2603C20.368 19.0909 21.2488 18.212 22.3842 18.212ZM51.8288 18.212H65.6071C66.7425 18.212 67.6203 19.0909 67.6203 20.2603V26.6789H49.8155V20.2603C49.8155 19.0909 50.6933 18.212 51.8288 18.212ZM9.06915 29.6624H48.3179H69.1179H78.9192C81.9079 29.6624 84.2831 32.0528 84.2831 35.0933V37.7359H3.70817V35.0933C3.70817 32.8385 5.01349 30.9434 6.90727 30.114C6.98962 30.0879 7.06956 30.0548 7.14617 30.0149C7.74204 29.7879 8.38883 29.6624 9.06915 29.6624ZM3.70817 40.7194H84.2831V54.0344H3.70817V40.7194ZM10.1617 57.0179H19.456V61.6855H10.1617V57.0179ZM68.5469 57.0179H77.8412V61.6855H68.5469V57.0179Z" fill="#CC922F"/>
</svg>
