<svg width="64" height="65" viewBox="0 0 64 65" fill="none" xmlns="http://www.w3.org/2000/svg">
<path d="M63.5234 50.373C63.5449 50.1437 63.5224 49.9124 63.4569 49.6915L57.5249 30.6413C57.3026 29.9186 56.8538 29.2866 56.2449 28.8385C55.636 28.3903 54.8991 28.1498 54.1431 28.1524H9.8593C9.10328 28.1498 8.36647 28.3904 7.75759 28.8385C7.14872 29.2867 6.70004 29.9187 6.47776 30.6413L0.545758 49.6916C0.498505 49.8495 0.472948 50.0131 0.46979 50.1779C0.465407 50.213 0.463103 50.2483 0.462891 50.2837L0.798937 59.5754C0.765029 59.7224 0.770565 59.8758 0.814986 60.02L0.875506 61.6931C0.876359 62.3608 1.14197 63.0008 1.6141 63.4729C2.08622 63.945 2.7263 64.2106 3.39394 64.2114H61.0183C61.6859 64.2106 62.326 63.945 62.7981 63.4729C63.2702 63.0008 63.5359 62.3608 63.5367 61.6931V50.5059C63.5355 50.4613 63.531 50.4169 63.5234 50.373ZM2.37755 52.0399H61.6865V58.8465H2.62331L2.37755 52.0399ZM8.24431 31.1912C8.35049 30.8461 8.5648 30.5442 8.8556 30.3302C9.1464 30.1162 9.4983 30.0013 9.85938 30.0025H54.1432C54.5042 30.0014 54.8561 30.1163 55.1469 30.3303C55.4377 30.5443 55.652 30.8461 55.7582 31.1912L61.6911 50.1896H2.32828L8.24431 31.1912ZM61.0183 62.3608H3.39372C3.30338 62.3596 3.21419 62.3404 3.13139 62.3043C3.04858 62.2682 2.97383 62.2159 2.91153 62.1504C2.84922 62.085 2.80062 62.0078 2.76858 61.9233C2.73653 61.8389 2.72169 61.7489 2.72493 61.6586L2.69013 60.6967H61.6865V61.6928C61.6874 61.7808 61.6708 61.8681 61.6375 61.9496C61.6042 62.0311 61.5551 62.1051 61.4928 62.1673C61.4306 62.2295 61.3566 62.2787 61.2751 62.3119C61.1936 62.3452 61.1063 62.3618 61.0183 62.3608Z" fill="#CC922F"/>
<path d="M26.0509 33.9121C25.391 33.9121 24.8564 34.2092 24.8564 34.5757C24.8564 34.9422 25.3912 35.2393 26.0509 35.2393C26.7107 35.2393 27.2454 34.9422 27.2454 34.5757C27.2454 34.2092 26.7107 33.9121 26.0509 33.9121Z" fill="#CC922F"/>
<path d="M38.3041 34.5757C38.3041 34.2092 37.7693 33.9121 37.1095 33.9121C36.4498 33.9121 35.915 34.2092 35.915 34.5757C35.915 34.9422 36.4498 35.2393 37.1095 35.2393C37.7693 35.2393 38.3041 34.9425 38.3041 34.5757Z" fill="#CC922F"/>
<path d="M48.1711 33.9121C47.5112 33.9121 46.9766 34.2092 46.9766 34.5757C46.9766 34.9422 47.5114 35.2393 48.1711 35.2393C48.8309 35.2393 49.3656 34.9422 49.3656 34.5757C49.3656 34.2092 48.8309 33.9121 48.1711 33.9121Z" fill="#CC922F"/>
<path d="M25.3064 42.7227C24.5077 42.7227 23.8604 43.1246 23.8604 43.6206C23.8604 44.1165 24.5077 44.5185 25.3064 44.5185C26.1051 44.5185 26.7524 44.1165 26.7524 43.6206C26.7524 43.1246 26.105 42.7227 25.3064 42.7227Z" fill="#CC922F"/>
<path d="M38.6941 42.7227C37.8955 42.7227 37.248 43.1246 37.248 43.6206C37.248 44.1165 37.8955 44.5185 38.6941 44.5185C39.4928 44.5185 40.1402 44.1165 40.1402 43.6206C40.1402 43.1246 39.4928 42.7227 38.6941 42.7227Z" fill="#CC922F"/>
<path d="M52.0848 42.7227C51.2862 42.7227 50.6387 43.1246 50.6387 43.6206C50.6387 44.1165 51.2862 44.5185 52.0848 44.5185C52.8834 44.5185 53.5308 44.1165 53.5308 43.6206C53.5308 43.1246 52.8834 42.7227 52.0848 42.7227Z" fill="#CC922F"/>
<path d="M22.4583 21.2603C22.5384 21.2937 22.6227 21.316 22.7089 21.3263C24.0068 21.4291 25.312 21.2616 26.5419 20.8342C26.1637 21.0944 25.9146 21.2453 25.9058 21.2504C25.7478 21.3452 25.6217 21.4851 25.5436 21.652C25.4656 21.819 25.4391 22.0055 25.4677 22.1875C25.4963 22.3696 25.5786 22.539 25.7041 22.674C25.8296 22.809 25.9926 22.9034 26.1721 22.9452C28.2865 23.3685 30.4403 23.5637 32.5964 23.5273C34.8776 23.5273 36.6719 23.3714 36.8101 23.359C36.889 23.3518 36.9667 23.3346 37.0413 23.3078C38.0138 22.9322 38.9194 22.4022 39.723 21.7382C39.7307 21.8839 39.7727 22.0258 39.8457 22.1521C39.9186 22.2785 40.0204 22.3859 40.1428 22.4654C40.2651 22.5449 40.4045 22.5944 40.5496 22.6097C40.6947 22.6251 40.8414 22.6059 40.9777 22.5538C46.8211 20.3142 50.0959 12.8074 50.7479 11.1767C54.5624 9.49541 58.1168 7.27707 61.303 4.58911C61.3923 4.50669 61.4644 4.4075 61.5153 4.29719C61.5663 4.18689 61.595 4.06763 61.5998 3.94624C61.6046 3.82484 61.5855 3.70368 61.5435 3.58967C61.5015 3.47566 61.4375 3.37105 61.3551 3.28178C61.2727 3.19252 61.1735 3.12037 61.0632 3.06945C60.9529 3.01852 60.8336 2.98982 60.7122 2.98499C60.5908 2.98015 60.4697 2.99927 60.3556 3.04126C60.2416 3.08325 60.137 3.14728 60.0478 3.2297C57.0204 5.78518 53.6433 7.89493 50.0191 9.49497C47.6332 8.20891 43.5542 7.50599 43.3736 7.47562C39.0536 6.77346 34.6835 6.42408 30.3068 6.43096C30.1592 6.43278 30.0141 6.46992 29.8837 6.53927C29.7534 6.60861 29.6415 6.70815 29.5574 6.82957C29.4734 6.95099 29.4196 7.09076 29.4006 7.2372C29.3816 7.38365 29.3979 7.53251 29.4482 7.67135C28.4639 7.21856 27.5054 6.71165 26.5771 6.15296C26.4706 6.08686 26.3517 6.04301 26.2278 6.02404C18.1645 4.79692 6.98328 0.119789 6.87123 0.0725427C6.71055 0.0048649 6.53401 -0.0160305 6.36197 0.0122649C6.18992 0.0405604 6.02937 0.116895 5.89883 0.23247C5.76828 0.348046 5.67305 0.498158 5.62411 0.665505C5.57517 0.832851 5.57451 1.01062 5.62221 1.17832C6.84597 5.52721 8.97975 9.56645 11.8822 13.0285C14.7847 16.4906 18.3897 19.2965 22.4583 21.2603ZM25.7648 7.82494C26.5986 8.32545 30.3217 10.4744 33.3407 10.8177C33.5421 10.8406 33.7453 10.7967 33.9193 10.6928C34.0933 10.589 34.2284 10.4309 34.3038 10.2428C34.3793 10.0547 34.3908 9.84706 34.3368 9.65175C34.2828 9.45645 34.1661 9.28428 34.0048 9.1617C33.9945 9.1542 33.5163 8.79071 32.923 8.32365C36.3199 8.42292 39.7064 8.74887 43.06 9.29932C44.6213 9.5783 46.1596 9.97326 47.6622 10.4809C38.7803 14.0294 28.8793 14.0568 19.9779 10.5576C19.8645 10.5126 19.7435 10.4905 19.6216 10.4926C19.4997 10.4946 19.3794 10.5207 19.2676 10.5694C19.1558 10.618 19.0548 10.6883 18.9702 10.7761C18.8857 10.864 18.8194 10.9677 18.775 11.0812C18.7307 11.1948 18.7093 11.316 18.7119 11.4379C18.7146 11.5598 18.7413 11.6799 18.7906 11.7915C18.8399 11.903 18.9107 12.0037 18.999 12.0877C19.0873 12.1718 19.1913 12.2376 19.3051 12.2813C23.8461 14.0784 28.6845 15.0057 33.5681 15.0148C38.5894 14.988 43.5634 14.0413 48.2435 12.2216C47.0161 14.8354 45.2828 17.1801 43.1439 19.12C43.4208 18.4748 43.6319 17.8033 43.7738 17.1156C43.8147 16.9057 43.7816 16.6882 43.6802 16.5C43.5787 16.3118 43.4153 16.1645 43.2175 16.0832C43.0198 16.0019 42.8 15.9915 42.5955 16.054C42.391 16.1164 42.2144 16.2478 42.0958 16.4257C42.069 16.4657 39.4156 20.4096 36.5238 21.5265C33.9381 21.7289 31.3402 21.7179 28.7563 21.4937C29.9658 20.5805 30.9834 19.4378 31.751 18.1311C31.8456 17.9488 31.8769 17.7402 31.8399 17.5382C31.8029 17.3361 31.6998 17.1522 31.5468 17.0152C31.3937 16.8782 31.1995 16.7961 30.9946 16.7816C30.7897 16.7672 30.5858 16.8214 30.4151 16.9355C30.3721 16.9644 26.133 19.7687 23.0599 19.5025C16.0515 15.9756 10.6595 9.89907 7.99134 2.52086C11.5181 3.90765 19.4106 6.82512 25.7648 7.82494Z" fill="#CC922F"/>
</svg>
