<svg width="39" height="32" viewBox="0 0 39 32" fill="none" xmlns="http://www.w3.org/2000/svg">
<path fill-rule="evenodd" clip-rule="evenodd" d="M13.5719 6.35149C12.5034 6.35335 11.4276 6.28995 10.3424 6.1557C10.3163 6.15197 10.2902 6.1501 10.2641 6.1501C10.0888 6.1501 9.92844 6.22282 9.80724 6.33656C9.68418 6.45217 9.60027 6.6088 9.57976 6.77288C9.57603 6.79712 9.57603 6.82323 9.57603 6.84747V9.76745C9.57603 9.79169 9.5779 9.81593 9.57976 9.83644C9.59841 10.0005 9.68231 10.159 9.80724 10.2746C9.93031 10.3902 10.0925 10.4629 10.2715 10.4629C10.2976 10.4629 10.3237 10.4611 10.3461 10.4592C11.4071 10.338 12.4699 10.2783 13.5365 10.2783C14.603 10.2783 15.6658 10.3399 16.7268 10.4592C16.7492 10.4611 16.7734 10.4629 16.8014 10.4629C16.9804 10.4629 17.1445 10.3884 17.2675 10.2728C17.3925 10.1553 17.4764 9.99866 17.495 9.8327C17.4969 9.81219 17.4988 9.78982 17.4988 9.76371V6.84373C17.4988 6.81763 17.4969 6.79339 17.495 6.76915C17.4745 6.60506 17.3906 6.44843 17.2675 6.33283C17.1463 6.21909 16.986 6.14637 16.8107 6.14637C16.7846 6.14637 16.7585 6.14824 16.7324 6.15197C15.6975 6.28062 14.644 6.34775 13.5756 6.34775L13.5719 6.35149ZM6.28672 28.5702H1.88813V31.2832H4.84539L6.28672 28.5702ZM36.2885 28.5702H31.8899L33.3312 31.2832H36.2885V28.5702ZM24.0662 6.35149C22.9978 6.35335 21.9219 6.28995 20.8367 6.1557C20.8106 6.15197 20.7845 6.1501 20.7584 6.1501C20.5831 6.1501 20.4228 6.22282 20.3016 6.33656C20.1785 6.45217 20.0946 6.6088 20.0741 6.77288C20.0703 6.79712 20.0703 6.82323 20.0703 6.84747V9.76745C20.0703 9.79169 20.0722 9.81593 20.0741 9.83644C20.0927 10.0005 20.1766 10.159 20.3016 10.2746C20.4246 10.3902 20.5868 10.4629 20.7658 10.4629C20.7919 10.4629 20.8181 10.4611 20.8404 10.4592C21.9014 10.338 22.9642 10.2783 24.0308 10.2783C25.0973 10.2783 26.1601 10.3399 27.2211 10.4592C27.2435 10.4611 27.2677 10.4629 27.2957 10.4629C27.4747 10.4629 27.6388 10.3884 27.7619 10.2728C27.8868 10.1553 27.9707 9.99866 27.9893 9.8327C27.9912 9.81219 27.9931 9.78982 27.9931 9.76371V6.84373C27.9931 6.81763 27.9912 6.79339 27.9893 6.76915C27.9688 6.60506 27.8849 6.44843 27.7619 6.33283C27.6407 6.21909 27.4803 6.14637 27.305 6.14637C27.2789 6.14637 27.2528 6.14824 27.2267 6.15197C26.1918 6.28062 25.1384 6.34775 24.0699 6.34775L24.0662 6.35149ZM28.4611 8.07253V6.84749C28.4611 6.80274 28.4573 6.75985 28.4536 6.7151C28.42 6.44287 28.282 6.18368 28.0788 5.99351C27.8737 5.80146 27.6015 5.67839 27.3013 5.67839C27.2565 5.67839 27.2118 5.68025 27.1652 5.68771C26.1396 5.8145 25.1066 5.88163 24.0662 5.88163C23.0257 5.88349 21.9685 5.8201 20.8945 5.68771C20.8479 5.68212 20.8031 5.67839 20.7584 5.67839C20.4582 5.67839 20.1859 5.80145 19.9808 5.99351C19.7776 6.1837 19.6396 6.44101 19.606 6.7151C19.6004 6.75985 19.5986 6.80274 19.5986 6.84749V8.07253H17.9689V6.84749C17.9689 6.80274 17.9652 6.75985 17.9614 6.7151C17.9279 6.44287 17.7899 6.18368 17.5866 5.99351C17.3815 5.80146 17.1093 5.67839 16.8091 5.67839C16.7644 5.67839 16.7196 5.68025 16.673 5.68771C15.6475 5.8145 14.6145 5.88163 13.574 5.88163C12.5335 5.88349 11.4763 5.8201 10.4023 5.68771C10.3557 5.68212 10.311 5.67839 10.2662 5.67839C9.966 5.67839 9.69378 5.80145 9.48866 5.99351C9.28542 6.1837 9.14744 6.44101 9.11388 6.7151C9.10828 6.75985 9.10642 6.80274 9.10642 6.84749V8.07253H6.91361H6.90243V2.51391C6.90243 1.98807 7.14296 1.50887 7.53266 1.16022C7.92795 0.805948 8.47431 0.585938 9.07843 0.585938H28.4966C29.0989 0.585938 29.6471 0.805963 30.0424 1.16022C30.4302 1.50891 30.6726 1.98812 30.6726 2.51391V8.07062H28.4649L28.4611 8.07253ZM38.0637 24.2572L0.113281 24.2591V26.7427C0.113281 27.1156 0.266178 27.455 0.512309 27.7011C0.758435 27.9473 1.09781 28.1002 1.47071 28.1002H36.7041C37.077 28.1002 37.4164 27.9473 37.6625 27.7011C37.9086 27.455 38.0615 27.1156 38.0615 26.7427V24.2591L38.0637 24.2572ZM0.11519 23.7873H38.0637V21.3037C38.0637 21.0893 38.0134 20.886 37.9238 20.7051C37.9015 20.6884 37.881 20.666 37.8661 20.6399L37.7448 20.4329C37.7187 20.4031 37.6926 20.3732 37.6647 20.3453C37.4185 20.0992 37.0792 19.9463 36.7063 19.9463H1.47096C1.09804 19.9463 0.758673 20.0991 0.512557 20.3453C0.478994 20.3788 0.447295 20.4143 0.417461 20.4497L0.322365 20.6212C0.305584 20.6511 0.285073 20.6753 0.25897 20.694C0.165741 20.8767 0.113529 21.0855 0.113529 21.3037V23.7873L0.11519 23.7873ZM1.47265 19.4764C1.27686 19.4764 1.08854 19.5081 0.913255 19.564L6.88 8.84631C6.90051 8.82207 6.91729 8.79223 6.92662 8.76053L7.04782 8.54237H9.10448V9.76742C9.10448 9.80657 9.10635 9.8476 9.11194 9.89048C9.14364 10.1664 9.28162 10.4275 9.48673 10.6195C9.69184 10.8116 9.96779 10.9346 10.2717 10.9346C10.3127 10.9346 10.3556 10.9328 10.4004 10.9272C11.4501 10.8078 12.4962 10.7482 13.5385 10.7482C14.5808 10.7482 15.6269 10.8097 16.6766 10.9272C16.7214 10.9328 16.7624 10.9346 16.8016 10.9346C17.1055 10.9346 17.3814 10.8116 17.5884 10.6177C17.7935 10.4256 17.9315 10.1646 17.9632 9.88676C17.9688 9.84387 17.9706 9.80471 17.9706 9.76742V8.54238H19.6003V9.76742C19.6003 9.80658 19.6022 9.8476 19.6078 9.89049C19.6395 10.1664 19.7775 10.4275 19.9826 10.6195C20.1877 10.8116 20.4636 10.9346 20.7676 10.9346C20.8086 10.9346 20.8515 10.9328 20.8962 10.9272C21.946 10.8079 22.992 10.7482 24.0343 10.7482C25.0767 10.7482 26.1227 10.8097 27.1725 10.9272C27.2172 10.9328 27.2582 10.9346 27.2974 10.9346C27.6013 10.9346 27.8773 10.8116 28.0842 10.6177C28.2894 10.4256 28.4273 10.1646 28.459 9.88676C28.4646 9.84388 28.4665 9.80472 28.4665 9.76743V8.54238H30.7767L37.2337 19.5508C37.0677 19.5004 36.8925 19.4743 36.7116 19.4743L1.47055 19.4762L1.47265 19.4764Z" fill="#172A55"/>
</svg>
