<svg width="108" height="82" viewBox="0 0 108 82" fill="none" xmlns="http://www.w3.org/2000/svg">
<path d="M82.2912 70.1375C80.9336 70.1375 79.658 69.6084 78.6982 68.6486L77.3447 67.2965C76.7719 66.7236 76.0104 66.4078 75.201 66.4078C74.3916 66.4078 73.6301 66.7236 73.0586 67.2965L71.7051 68.65C70.7453 69.6098 69.4684 70.1389 68.1107 70.1389C66.7531 70.1389 65.4775 69.6098 64.5178 68.65L63.1643 67.2978C62.5914 66.725 61.8299 66.4092 61.0205 66.4092C60.2111 66.4092 59.4496 66.725 58.8781 67.2978L57.5219 68.6514C56.5635 69.6111 55.2865 70.1389 53.9289 70.1389C52.5713 70.1389 51.2957 69.6098 50.3359 68.65L48.9824 67.2978C48.4096 66.725 47.648 66.4092 46.8387 66.4092C46.0293 66.4092 45.2678 66.725 44.6963 67.2978L43.3414 68.6514C42.383 69.6111 41.1061 70.1389 39.7484 70.1389C38.3908 70.1389 37.1152 69.6098 36.1555 68.65L34.8019 67.2855C34.2318 66.7154 33.4703 66.3996 32.6609 66.3996C31.8516 66.3996 31.09 66.7154 30.5186 67.2883L29.165 68.6418C28.2053 69.6016 26.9283 70.1307 25.5707 70.1307C24.2131 70.1307 22.9375 69.6016 21.9777 68.6418L20.6242 67.2896C20.0514 66.7168 19.2898 66.401 18.4805 66.401C17.6711 66.401 16.9096 66.7168 16.3381 67.2896L14.9846 68.6432C14.0248 69.6029 12.7479 70.132 11.3902 70.132C10.0326 70.132 8.75703 69.6029 7.79726 68.6432L6.44375 67.291C5.8709 66.7182 5.10937 66.4023 4.3 66.4023C3.49062 66.4023 2.7291 66.7182 2.15762 67.291L0.707031 65.8418C1.6668 64.882 2.94238 64.3529 4.3 64.3529C5.65762 64.3529 6.9332 64.882 7.89434 65.8418L9.24785 67.1939C9.8207 67.7668 10.5822 68.0826 11.3916 68.0826C12.201 68.0826 12.9625 67.7668 13.5354 67.1939L14.8889 65.8418C15.8486 64.882 17.1242 64.3529 18.4818 64.3529C19.8395 64.3529 21.115 64.882 22.0762 65.8418L23.4297 67.1939C24.0025 67.7668 24.7641 68.0826 25.5734 68.0826C26.3828 68.0826 27.1443 67.7668 27.7172 67.1939L29.0707 65.8418C30.0305 64.882 31.3061 64.3529 32.6637 64.3529C34.0213 64.3529 35.2969 64.882 36.258 65.8418L37.6115 67.2063C38.1816 67.775 38.9418 68.0908 39.7512 68.0908C40.5605 68.0908 41.3221 67.775 41.8936 67.2035L43.2484 65.85C44.2068 64.8902 45.4838 64.3611 46.8414 64.3611C48.199 64.3611 49.4746 64.8902 50.4344 65.85L51.7879 67.2021C52.3607 67.775 53.1223 68.0908 53.9316 68.0908C54.741 68.0908 55.5025 67.775 56.074 67.2035L57.4754 65.8049C58.4297 64.8738 59.6875 64.3611 61.0232 64.3611C62.3809 64.3611 63.6564 64.8902 64.6176 65.85L65.9711 67.2021C66.5439 67.775 67.3055 68.0908 68.1148 68.0908C68.9242 68.0908 69.6857 67.775 70.2586 67.2021L71.6121 65.85C72.5719 64.8902 73.8475 64.3611 75.2051 64.3611C76.5627 64.3611 77.8383 64.8902 78.7994 65.85L80.1529 67.2021C80.7258 67.775 81.4873 68.0908 82.2967 68.0908C83.1061 68.0908 83.8676 67.775 84.4404 67.2021L85.7871 65.8432C86.7496 64.8807 88.0266 64.3516 89.3828 64.3516C90.7391 64.3516 92.016 64.8807 92.9758 65.8404L94.3293 67.1926C94.9022 67.7668 95.6637 68.0812 96.4731 68.0812C97.2824 68.0812 98.0439 67.7654 98.6154 67.1926L99.9703 65.8391C100.93 64.8793 102.206 64.3516 103.563 64.3516C104.921 64.3516 106.196 64.8807 107.156 65.8404L105.706 67.291C105.133 66.7182 104.373 66.4037 103.563 66.4037C102.754 66.4037 101.992 66.7195 101.42 67.291L100.065 68.6445C99.1063 69.6043 97.8293 70.1334 96.4717 70.1334C95.1141 70.1334 93.8385 69.6043 92.8787 68.6445L91.5252 67.2924C90.9523 66.7195 90.1908 66.4037 89.3814 66.4037C88.5721 66.4037 87.8106 66.7195 87.2391 67.291L85.8924 68.65C84.9244 69.6098 83.6488 70.1375 82.2912 70.1375Z" fill="#172A55"/>
<path d="M41.209 28.7383C42.0018 28.7383 42.6445 28.0956 42.6445 27.3027C42.6445 26.5099 42.0018 25.8672 41.209 25.8672C40.4162 25.8672 39.7734 26.5099 39.7734 27.3027C39.7734 28.0956 40.4162 28.7383 41.209 28.7383Z" fill="#172A55"/>
<path d="M67.459 28.7383C68.2518 28.7383 68.8945 28.0956 68.8945 27.3027C68.8945 26.5099 68.2518 25.8672 67.459 25.8672C66.6662 25.8672 66.0234 26.5099 66.0234 27.3027C66.0234 28.0956 66.6662 28.7383 67.459 28.7383Z" fill="#172A55"/>
<path d="M80.5801 42.3398C81.3729 42.3398 82.0156 41.6971 82.0156 40.9043C82.0156 40.1115 81.3729 39.4688 80.5801 39.4688C79.7872 39.4688 79.1445 40.1115 79.1445 40.9043C79.1445 41.6971 79.7872 42.3398 80.5801 42.3398Z" fill="#172A55"/>
<path d="M32.4668 16.0898C33.2596 16.0898 33.9023 15.4471 33.9023 14.6543C33.9023 13.8615 33.2596 13.2188 32.4668 13.2188C31.674 13.2188 31.0312 13.8615 31.0312 14.6543C31.0312 15.4471 31.674 16.0898 32.4668 16.0898Z" fill="#172A55"/>
<path d="M54.3418 16.0898C55.1346 16.0898 55.7773 15.4471 55.7773 14.6543C55.7773 13.8615 55.1346 13.2188 54.3418 13.2188C53.549 13.2188 52.9062 13.8615 52.9062 14.6543C52.9062 15.4471 53.549 16.0898 54.3418 16.0898Z" fill="#172A55"/>
<path d="M76.2168 16.0898C77.0096 16.0898 77.6523 15.4471 77.6523 14.6543C77.6523 13.8615 77.0096 13.2188 76.2168 13.2188C75.424 13.2188 74.7812 13.8615 74.7812 14.6543C74.7812 15.4471 75.424 16.0898 76.2168 16.0898Z" fill="#172A55"/>
<path d="M102.544 81.7148H5.31191C2.60488 81.7148 0.402344 79.5123 0.402344 76.8066V53.4141H107.453V76.8066C107.453 79.5123 105.251 81.7148 102.544 81.7148ZM2.45312 55.4648V76.8066C2.45312 78.383 3.73555 79.6641 5.31191 79.6641H102.545C104.121 79.6641 105.404 78.3816 105.404 76.8066V55.4648H2.45312Z" fill="#172A55"/>
<path d="M107.449 54.2713L107.163 53.4141L90.9139 4.66836C90.1646 2.42344 88.0715 0.914062 85.7049 0.914062H22.1416C19.775 0.914062 17.6818 2.42344 16.9326 4.66836L0.683594 53.4141L0.397852 54.2713L0 55.4648H107.846L107.449 54.2713ZM2.84649 53.4141L18.8781 5.31777C19.3471 3.90957 20.6582 2.96484 22.1416 2.96484H85.7049C87.1883 2.96484 88.4994 3.90957 88.9684 5.31777L105 53.4141H2.84649Z" fill="#172A55"/>
<path d="M54.3379 42.3398C55.1307 42.3398 55.7734 41.6971 55.7734 40.9043C55.7734 40.1115 55.1307 39.4688 54.3379 39.4688C53.5451 39.4688 52.9023 40.1115 52.9023 40.9043C52.9023 41.6971 53.5451 42.3398 54.3379 42.3398Z" fill="#172A55"/>
<path d="M28.0801 42.3398C28.8729 42.3398 29.5156 41.6971 29.5156 40.9043C29.5156 40.1115 28.8729 39.4688 28.0801 39.4688C27.2872 39.4688 26.6445 40.1115 26.6445 40.9043C26.6445 41.6971 27.2872 42.3398 28.0801 42.3398Z" fill="#172A55"/>
</svg>
